<svg xmlns="http://www.w3.org/2000/svg" viewBox="0 0 89.84 32.97"><defs><style>.cls-1{fill:#ae7d65;}</style></defs><title>Recurso 3</title><g id="Capa_2" data-name="Capa 2"><g id="Capa_6" data-name="Capa 6"><path class="cls-1" d="M27.08,31.87s-.07.05-.1,0c-.2,0-.39-.12-.59-.16,0,0-.1.08-.15.1s-.27.07-.4.12-.07.1-.11.15l0,.08.15,0c0,.3-.1.21-.19.19l-.44-.1,0,.45a1.1,1.1,0,0,1-.08-.23c0-.19-.08-.25-.18-.23h0c-.18-.22-.39-.09-.59-.14a4.32,4.32,0,0,0-.52-.08l-.11-.17-.08.15c-.25,0-.5.12-.68,0s-.47,0-.68,0c-.05-.08-.11-.2-.13-.18s-.09.15-.14.21a2.71,2.71,0,0,1-.25.22c-.07-.29-.17-.37-.31-.25a.51.51,0,0,0-.61-.4v.32s-.1-.06-.1-.09c0-.34-.15-.23-.25-.24-.15.59-.14.65.13.7a1.93,1.93,0,0,1-.1.3c-.14-.06-.16.21-.25.23a.74.74,0,0,1-.3,0c-.21-.05-.21-.05-.26-.24l.23.06.2,0v-.42l.17,0c0-.18,0-.33-.18-.34s-.1-.06-.15-.11-.2-.18-.27.09l-.19-.22,0,0c-.11.21-.24.07-.36.06a.47.47,0,0,1-.17,0c-.21-.1-.22-.09-.25.26,0,0,0,0-.06.07s0-.2-.06-.23-.1,0-.17,0c-.08-.23-.21-.33-.38-.23s-.13,0-.14-.08c0-.25-.14-.2-.24-.14s0,0-.06,0l.09-.16s-.09,0-.13,0a3.8,3.8,0,0,0-.33.2l0-.06,0,.26c-.06-.08-.11-.15-.17-.21a.38.38,0,0,0-.13-.1l-.39-.11c-.13,0-.25.06-.38,0a.81.81,0,0,0-.52-.07.87.87,0,0,1-.64-.16c-.11-.06-.26.1-.34-.17,0,0,0,0-.06,0l-.34.11,0-.33.11,0c0,.09,0,.17,0,.24s.05,0,.06,0,.08-.29.13-.47l-.4-.05.06.35-.2-.12c-.2-.1-.3,0-.33.39-.14-.1-.3,0-.42-.28s-.14,0-.2.18l-.22-.21s-.05,0-.06,0c-.16.27-.3-.12-.47,0a.53.53,0,0,1-.49,0,1.65,1.65,0,0,0-.48-.15L10.82,30a3.62,3.62,0,0,0-.4-.1c-.1,0-.2,0-.3,0s-.13-.08-.19-.14-.05-.12-.08-.12-.08.06-.13.11l-.16-.08,0-.19-.18.18c-.07.06-.14.17-.21,0s-.15,0-.23,0-.2.11-.27-.09h.22l-.07-.35-.05,0-.09.37c-.14.06-.28.16-.43.11l-.16,0c.12-.17.2-.31.29-.42s0-.34,0-.51-.14,0-.19.13a.43.43,0,0,1-.28.24c-.09,0-.15.06-.14.24s0,.29-.12.13-.05,0-.08,0l.07.15-.1.13c-.1-.41-.24-.19-.37,0l.06-.22s-.13,0-.14,0c-.1.34-.29.1-.42.2s-.19,0-.29,0a.18.18,0,0,0-.09,0l-.14.08a1.15,1.15,0,0,1,0-.3.83.83,0,0,0-.08-.73,0,0,0,0,0,0,0l-.35.36c-.1-.17-.14-.47-.33-.46,0,0,0,0-.06-.06l-.08-.13a.93.93,0,0,1,0,.18,1,1,0,0,1-.06.24.46.46,0,0,1-.09.12l.11.11c-.12.26-.09.44.07.52l0-.26.1.15.05-.27.18-.08,0,.38.18.08c-.18.19-.43-.14-.53.28-.09-.17-.16-.29-.31-.14s-.2,0-.3-.07a.44.44,0,0,1,0-.1c.2,0,.15-.25.15-.43s-.1-.12-.14-.13a.2.2,0,0,0-.18,0s0,.14,0,.22.09.19.1.32.06,0,.1.06a.91.91,0,0,1-.11.25s-.12,0-.18,0-.15-.06-.06-.22c0,0,0-.13-.07-.14s-.08,0-.13.08c-.05-.15-.14-.13-.27-.05s-.17-.06-.23-.08c-.08-.3-.13-.56-.21-.79s-.2-.21-.31,0c0,0-.07,0-.1,0l-.45.3c-.05,0-.1.09-.15.1a2.11,2.11,0,0,1-.32,0v.21l-.43-.24v0l.62-.14c.07,0,.16.11.18.07a2.33,2.33,0,0,0,.16-.42c-.25,0-.37-.52-.64-.2l0-.45c-.06,0-.11,0-.15,0s-.17,0-.19-.12a.56.56,0,0,0-.46-.42c-.11,0-.22,0-.17.27a.32.32,0,0,1,0,.13l.19.25.28.33c-.15.16-.21.14-.34-.12S1,28.14.93,28a.21.21,0,0,1,0-.09c0-.32-.08-.38-.25-.36v-.08l.16,0c.1,0,.2,0,.23-.22a1.35,1.35,0,0,1,0-.15H.94l0-.43.29.08v.24l.3.08a1,1,0,0,1,.14-.63.88.88,0,0,0,0-.24l.13-.31H1.43v.44c-.13-.39-.24-.35-.35-.08C1,26.14,1,26.1,1,26s-.1-.16-.19-.2-.3,0-.44-.19-.22-.12-.34-.18l.05-.18.57.12,0-.28c.1,0,.22.05.3.16s.21.14.34,0a3,3,0,0,1,.5-.34.1.1,0,0,1,.13,0c.08.12.14,0,.22,0a2.1,2.1,0,0,1,.56-.09l-.07.36c.38.12.59,0,.64-.26.15.14.32,0,.48.2s.33,0,.51,0l.75-.05.78,0s.06,0,.07,0c.15.29.34.11.52.13s.18-.11.27-.12a.2.2,0,0,1,.2.1c.07.14.12.17.23.1s.25-.17.39,0,.18,0,.21-.17l.43,0,0,.21.08-.13s0-.08.06-.08l.37,0h.87a.1.1,0,0,1,.08,0c.13.16.24.07.36-.12A.66.66,0,0,1,9.77,25a1.19,1.19,0,0,1-.06-.2l-.31-.1a.27.27,0,0,1,.47.1s0,.05.07.08l0-.28a1.1,1.1,0,0,0,.22,0s0-.1,0-.14a.39.39,0,0,0-.05-.12l-.64-.09-.69-.06c-.11,0-.21-.07-.32-.09s-.18,0-.18.23.08.23.18.22.16,0,.11.2c-.19,0-.38.07-.57.08s-.24.1-.28-.2c0,0-.09-.06-.16-.1l0,.24a1.76,1.76,0,0,1-.37,0,.26.26,0,0,1-.14-.18c-.06-.28-.17-.2-.28-.14l-.31.2c0-.11,0-.29-.08-.32a1.13,1.13,0,0,0-.48-.15c-.18,0-.37.1-.55.07s-.25-.08-.38,0-.07,0-.11,0l-.4-.14v-.31L4.23,24a.27.27,0,0,0-.15,0,.39.39,0,0,0,0,.22.26.26,0,0,0,.16.12c.11,0,.23,0,.34,0s.12.19.16.32c-.17,0-.34.13-.44-.18,0,0-.13,0-.17.07a.27.27,0,0,1-.38.12l-.32-.13a.32.32,0,0,1-.15-.13c-.1-.18-.15-.34-.35-.29s-.56.2-.82,0a2.71,2.71,0,0,1,.25-.35s.12,0,.18,0,.08.09.1.08a.28.28,0,0,0,.07-.16,1.86,1.86,0,0,0,0-.26l-.43-.1.08-.18v.09s.09,0,.13,0,.09-.15.12-.14.07.13.11.23a.64.64,0,0,0,.05-.13c0-.22.14-.21.23-.15a.33.33,0,0,0,.42,0,1.61,1.61,0,0,1,.42-.07L4,22.86c.11-.24,0-.32-.1-.44a1.89,1.89,0,0,0-.24-.34c-.16.2-.31,0-.48-.13s-.07,0-.1,0-.24.2-.37,0-.09.05-.16.11-.09-.49-.21-.08c-.17-.2-.35-.32-.56-.16s-.13.09-.26-.12c0,0-.06,0-.08,0a.65.65,0,0,0,0,.57l.33.34-.4.32a3.31,3.31,0,0,1-.19-.34.45.45,0,0,1,0-.36,1.7,1.7,0,0,0,0-.41c-.09,0-.2-.14-.28.08,0,0-.07.05-.15.11l.15-.81-.12,0-.16-.84a2.15,2.15,0,0,1,.29-.06c.19,0,.2,0,.18-.44a1.5,1.5,0,0,1-.38.08c-.06,0-.13-.11-.2-.18s.13-.3,0-.33l.17-.64-.16.06a.76.76,0,0,1,.21-1c.08.22.23.15.37.15s.08-.11.09-.13l-.38-.42c.06-.6.06-.6.31-.61l0-.21c.14,0,.32.14.37-.28L1,16.16c0-.21-.12,0-.21,0l.07-.48,0,0L.7,15.8l-.21-.22c0-.32.05-.41.25-.29a1.69,1.69,0,0,0,.29.1,1,1,0,0,0,.54.08c.12,0,.16-.08.09-.27s-.06-.22-.1-.31-.12-.15-.21,0-.14,0-.22-.07V15s-.09,0-.11,0a2.69,2.69,0,0,1-.11-.33l0,0-.3-.4c.09,0,.14,0,.16,0,.16.25.31,0,.45-.06s.06-.16.09-.25-.12-.14-.18-.15-.15.05-.22.08a.4.4,0,0,1-.12,0v-.09l.27-.06c.09,0,.19,0,.19-.23s-.1-.15-.17-.17a1.54,1.54,0,0,1-.23-.14c.05-.11.09-.29.15-.31s.21-.33.26-.61c-.26-.08-.21-.37-.13-.67L1,11.53c-.11.14-.1.55-.32.39a1.27,1.27,0,0,1,.22-.79s0-.14,0-.21H.77l.16-.47,0,0C1,10,1,10,1.3,10a3.1,3.1,0,0,0,.53-.16c.08-.15.13-.23.18-.33s.08-.19.12-.29c-.19-.15-.2.06-.23.29l-.06-.26-.37,0,.1-.39L1.68,9l.09-.18a.44.44,0,0,0,.07-.14,1.12,1.12,0,0,0,0-.25s0,0,0-.05c.06-.21,0-.3-.12-.29s-.16-.1-.24.09-.19.1-.29-.32c.15-.1.19-.26.15-.55a1.92,1.92,0,0,1,.12-.58.75.75,0,0,1,.16.09c.15.13.16-.16.24-.22l0-.14-.12.13-.11-.38c.13,0,.25.13.36.11s.21-.15.31-.22l0-.08L2,6V5.93a.75.75,0,0,0,.29-.11c.13-.12.16,0,.23.16a.1.1,0,0,0,.13,0,1,1,0,0,0,.24-.93,5.63,5.63,0,0,1,.57-.13,2.85,2.85,0,0,1,.51,0A.19.19,0,0,1,4.08,5c.16.19.15.19.2-.12.34,0,.68.21,1-.1a2.7,2.7,0,0,0-.12.52,2.86,2.86,0,0,0,.11.55l.43-.56a.18.18,0,0,0,0-.11c-.07-.26.07-.43.08-.62l.23,0,.62-.12s.07-.06.1-.09.11-.18.2-.05.14,0,.22,0a1.44,1.44,0,0,0,0,.87,1.45,1.45,0,0,0,.45-.06c.07,0,.11-.21.16-.25a.61.61,0,0,0,.27,0c.16-.09.13-.33.1-.63L8,4.43l-.28-.1V4.25a2.49,2.49,0,0,1,.39-.06s.1.09.15.11.08,0,.15-.05l.39,0c.22,0,.44,0,.66,0s.17.25.29.1.36-.13.54-.11.19,0,.2-.17l.48.24,0-.2s0,.06.07.06.25,0,.31.26c0,0,.07,0,.11,0a1.12,1.12,0,0,0,.17-.08V4.07h.44l.09-.41L12,3.74l.15-.91a1.44,1.44,0,0,1,.09.18c0,.15.07.4.14.45s.12.31.08.49l-.11-.25-.05,0,.05.46.2.15.07-.55.29.11c0-.12,0-.22,0-.31a1.42,1.42,0,0,1,0-.26c.08,0,.19,0,.25,0s.1.14.14,0,.11-.16.17,0a1,1,0,0,0,.06.13l-.16.44c.1,0,.2,0,.29,0a.26.26,0,0,0,.1-.23l.15-.24-.08-.14.16.21c0-.31.11-.49.29-.46V2.95l-.16-.11c0-.29.07-.38.28-.27-.13.35,0,.58.12.85,0,0,.11,0,.19,0,.07.21.07.21.21-.16l-.09-.05c0-.14,0-.26,0-.37a.4.4,0,0,1,0-.17s.06,0,.09,0,.41-.08.46-.32l0,.5-.19.19.05.36c.19,0,.41-.16.57.19h.05l0-.47.43.11,0,.24a1,1,0,0,0,.26.05c.11,0,.15-.25.08-.47l.37.19L17,2.88c.06,0,.13.06.13.1,0,.21.12.14.17.09s0-.17,0-.27a.55.55,0,0,0,0-.09l.2-.09V2.9l0,.06a.55.55,0,0,0,.09-.16,1.79,1.79,0,0,1,0-.26l0,.08.06.14a1.09,1.09,0,0,0,0-.12,1.63,1.63,0,0,0,0-.19.54.54,0,0,1,0-.2l0,.26c.28,0,.28,0,.21.22-.06,0-.11-.06-.16,0a.3.3,0,0,0-.06.17c0,.08.09.18.14.18.27,0,.54-.06.82-.09l0-.26a.21.21,0,0,1,.38.06,1.62,1.62,0,0,0,.09.18l0-.29a.57.57,0,0,0,.68,0l.27.11c.13.33.33-.08.5.08V2.44l.08.11.08.08c0-.14.06,0,.08,0s.2.05.26,0a1.48,1.48,0,0,0,.19-.41l0-.11-.32,0a0,0,0,0,1,0,0c-.08-.28-.21-.25-.35-.16,0-.33-.07-.43-.26-.32l-.21.12,0-.3-.43.1,0,.27h0a1.22,1.22,0,0,1,0-.36.28.28,0,0,1,.2-.17,4.07,4.07,0,0,1,.55,0c0-.18-.08-.33.06-.48s.08,0,.11,0l.13,0L21,1l0-.09-.19.36h.89l0-.37h0l0,.34a2.83,2.83,0,0,0,.52.11c.07,0,.15-.12.22-.18L22.41,1,22.34.55s-.1,0-.12.09a2.21,2.21,0,0,0-.06.34c-.29.13-.29.13-.3,0,.16.13.25,0,.26-.28-.13,0-.27.05-.39,0s-.14.38-.3.29c0-.23,0-.31-.16-.24s-.07,0-.08,0c-.13-.26-.31-.11-.47-.13a1.86,1.86,0,0,0-.4,0s-.07,0-.11,0-.09-.07-.11,0c-.16.2-.33,0-.5,0s-.24,0-.26.42c0-.08-.13-.13-.06-.29a.2.2,0,0,0,0-.12A.81.81,0,0,0,19,.55s-.06.14-.11.25l-.17.07V1H19c0,.32-.17.21-.28.27v.48l-.4-.23.08-.18c.05,0,.14.14.16.11a1.41,1.41,0,0,0,.12-.31L18.39,1c-.08,0-.25.13-.24.28s-.09.5.16.57a4.27,4.27,0,0,1-.47.1s-.1-.06-.12-.08l.35-.73s0,0,0,0l.09-.26-.25,0h-.07l-.13.32,0-.34-.14.13s0-.09-.07-.11-.07.07-.1.11a1.24,1.24,0,0,1-.13.16c-.06,0-.17-.08-.18.14a1.55,1.55,0,0,1-.13-.14c-.08-.11-.09-.42-.26-.23A.56.56,0,0,0,16.6,1L16.53.82a.15.15,0,0,1,0,0v0c.18,0,.32-.36.51-.14s.12.13.15-.05c0,0,0,0,.07,0s.1-.06.12-.11a.61.61,0,0,0,0-.21l.22-.11.12.19-.2,0c0,.24.11.27.57.2L17.93,0l.33.51s0,0,.06,0c.17-.23.37-.18.56-.12s.17,0,.26,0a1.65,1.65,0,0,1,.28,0h0c.09-.22.21,0,.32-.06s.18-.09.29-.15c.05.24.24.19.38.19a3.23,3.23,0,0,0,.68-.15A2.82,2.82,0,0,0,21.43.2c0,.1,0,.25.18.12s.11.09.17.08c.21,0,.41-.09.62-.13l.22,0a.74.74,0,0,0,0,.16,1,1,0,0,1,.31.69c0,.09-.22-.19-.25.2h.77l0-.3a2.16,2.16,0,0,1,.3-.05s.07.06.1.09a.59.59,0,0,0-.06.1.57.57,0,0,0,0,.12H24l0-.2c.12,0,.3-.15.34.31l.1-.22,0,.16c.15.14.2-.15.31-.21s.07-.05.1,0a1.92,1.92,0,0,0,.32.11c.05.07.07.38.19,0,0-.07.13-.07.2-.08s.2,0,.29,0h.36V1.09c.15-.11.32.22.43-.22a1.4,1.4,0,0,1-.05,1c-.11-.12-.21-.25-.32-.36s-.06.07-.09.09-.13.23-.25.1-.15,0-.22,0l-.8-.1s-.09,0-.1,0a1.46,1.46,0,0,0,0,.26L24.76,2c0-.33,0-.35-.19-.28a.12.12,0,0,1-.1,0c-.3-.19-.6.08-.9,0-.06,0-.12.07-.16.1a2.85,2.85,0,0,0-.4-.16.41.41,0,0,0-.3,0c-.12.06-.26,0-.39-.05l-.27-.07c0,.2-.06.44-.19.1,0-.06-.15,0-.22,0,0,.2,0,.38,0,.56s.06.1.11.19l0-.33,0,0,.06.35.27.43-.22.33c.3.06.3.06.33-.23l.39-.16a.07.07,0,0,1,.07,0c.14.15.24.13.28-.19L23,3h-.16l-.2,0,0,.3,0,.13.62-.15c0-.33,0-.36-.17-.32.16-.18-.19-.56.13-.67.05.15,0,.47.18.39l0-.46h0a2.91,2.91,0,0,0,0,.31c.06.22.15.26.29.18s.22,0,.32.05c0-.19.07-.33.21-.11s.27.07.41.07a1.34,1.34,0,0,0,0-.22c0-.13.07-.18.14,0s.07.07.1.06.23,0,.34.11.23,0,.31.18c.12-.21.34.12.44-.23.14.07.22-.11.32-.21l0,0-.08.3.16.38a.45.45,0,0,0,.09.14s.07-.06.07-.09a.74.74,0,0,0-.05-.2s0,0-.06-.07l.06-.12c.12.3.26.06.39.08,0-.31.08-.43.27-.5l-.07.23-.06.24.2.11-.14.19c.12.1.23.17.23-.13l.2,0v-.6l.26.31-.13,0v.53c.08,0,.26.07.29,0s.34-.32.18-.76H29l-.12.66h.21l0-.19.19,0-.16-.42c.08.07.13.1.17.16a2,2,0,0,1,.11.27l-.24.1c0,.25.19.22.29.23s.11-.13.06-.28a.31.31,0,0,1,.1-.15s.09,0,.17.09l-.2,0c0,.4.2.54.5.41L30,3l0,0,.23-.55.12.06c0,.23-.08.44-.12.65,0,0,0,.1.06.1a.47.47,0,0,0,.2-.05.6.6,0,0,0,.12-.12c.1.14.17.1.2-.14l.23.12,0-.41.37.59V2.43c.12.25.22.48.34.68,0,.05.1,0,.13.05l.17-.46c.16,0,.33.27.47,0,0,0,0-.14,0-.2L32.63,2c.09,0,.2.22.33-.05l0,.22h-.22v.49l.17-.18H33s.09,0,.09.05a.55.55,0,0,1,0,.19A2.47,2.47,0,0,1,33,3c.25-.09.28-.15.39-.61l.22.15-.12.34.06,0c.06,0,.13-.12.19-.1s.09.17.14.22a.6.6,0,0,0,.22.08l0-.07L34,2.71l.29-.11c0,.15,0,.31,0,.47a.74.74,0,0,0,.09.2L34.49,3l.19.17.11-.64.13-.16-.07-.13.09-.05c.1.33.12.34.26.08a1.2,1.2,0,0,0,.14.12s.08,0,.11.09a1,1,0,0,0-.26,0s-.06.11-.1.17.09.16.13.15a2.8,2.8,0,0,0,.41-.1l.31.27L36,2.44l.46.05s-.07.08-.11.09-.09.17,0,.26a1.56,1.56,0,0,0,.25.32c.13.13.27.23.41.34.27-.58.28-.65.08-.83l.18-.09.13.14c.14,0-.05-.59.18-.4l0,.5,0,0c.07.14.16.28.22.43s.09.11.17.12.2-.12.23-.32c0,0,.08,0,.13-.05h.21l-.07.38.49-.19V3a3,3,0,0,1,.33.06.57.57,0,0,1,.2.11c.18.15.28.1.37-.21l0-.11c0,.25.17.49.29.47s.11,0,.16.07.15.14.15-.11c.14.29.34.21.5-.2l.18.11.06-.32,0,0c0,.5.21.56.44.44,0,0,.07.06.09,0a.46.46,0,0,0,.12-.12c-.07-.24.1-.36.1-.56v.08c0,.19-.1.46,0,.56a.5.5,0,0,0,.48.08c.1-.05.19,0,.28,0H43l0-.22.2.22.1-.53a3.94,3.94,0,0,0-.55-.08c-.06,0-.12.1-.17.14,0-.13-.2-.27-.07-.58.06.37.22.46.4.27.07.2.07.2.37.07V2.32l.24.08.25.33-.1.58.37.1c0-.25,0-.45.07-.63s.17-.15.26,0l.18.35,0,0,0-.43c.12,0,.25.17.33-.08,0,0,0,0,0,0l.29.43.13.17V2.88l.33.22a.28.28,0,0,1,.11.12s0,.11,0,.17,0,.19-.07.31h.39a.68.68,0,0,0,0-.2c-.1-.18.09-.24,0-.38.06.09.17-.1.2.11,0,0,0,0,0,0l.68.06,0-.28.42.16c.05.06.1.17.15.16s.07-.14.11-.22h0A1.37,1.37,0,0,0,48,3.3l.35.16c0-.34,0-.54-.18-.54,0,0-.08-.09-.12-.14l0-.08a2,2,0,0,1,.35.19.41.41,0,0,1,.09.26c0,.37,0,.37.19.3l.06,0c0-.19-.15-.39,0-.56l.12.1c0,.34,0,.6.25.43a2.9,2.9,0,0,0,.1.34s.09-.07.16-.11c0,.19.12.3.29.21l0-.41L50,3.28,49.74,3l.09-.3.09.25c.39.06.78.33,1.16-.1.06.17.13.29.21.06l.08.19,0,0V2.16l-.32.17L51,2.09c.09,0,.12-.07,0-.26a1,1,0,0,1,0-.34,1.12,1.12,0,0,0,.33,0c.12-.05.18,0,.21.19l-.42-.07c0,.21,0,.34.14.35s.19.12.29.19l.14.11c-.3.21-.12.62-.14,1L52,3.15v.1l-.26.11.08.58.14.1c.12.1.19,0,.25-.18a3.08,3.08,0,0,1,.19-.43l0,0,0-.32.19.09v.29l.09.05c.41.17.37.15.38-.44l.17,0,.17,0a1.09,1.09,0,0,0-.23.3s.08.22.12.33l.19-.27.12.39L54,3.59l0-.11-.26,0,0-.19h.9l-.15.22,0,.05h.21l0-.18h.24L55,3.1l0,0,.13.49h-.29v.54H55l.05-.27.45.32.08-.52.21.18-.12,0V4.3c.08-.09.16-.13.18-.21s0-.18-.07-.27.22.05.27-.2c0,0,.07,0,.13,0L56.06,4l0,.08c0-.05.09-.1.1-.16s.07-.22.16-.15.06,0,.06,0c.11-.21.25,0,.38-.08V3.42a.37.37,0,0,1,.15,0c.09.07.13,0,.15-.13s.15-.33.22-.33l0,.6,0,0,.06-.14a1.05,1.05,0,0,1,0-.15s.06-.05.09-.08l-.08-.16h.18V2.72a2.14,2.14,0,0,0,.13.3c.09.13.19.24.29.36.07-.16.22.08.28-.17,0,0,.06,0,.14,0l-.16.7.4.06c0-.31-.11-.24-.2-.28L58.59,3c.17.31.35.24.53,0l0,.35.35-.09c0-.31-.19-.25-.31-.26V3a1.43,1.43,0,0,1,.47.13c.12.07.21.13.29-.06.12.38.16.38.33,0,0,.24.12.27.22.24s.11-.15.2-.27l.18.56L61,3.46l.11.49c0,.21.11.22.22.09s.15-.06.25-.09,0,0,0,0c-.2-.18,0-.41,0-.61s.09-.11.14-.16l0,.06V2.94a.58.58,0,0,0,.61.18c.07,0,.15.07.21.17a3.2,3.2,0,0,1-.47.07c-.11,0-.22-.07-.34-.07s-.11.08-.17.12l.11.2c-.17.22.09.31.07.51.19.05.37-.08.46-.3s.22-.12.31-.25.16,0,.24,0,.06,0,.08-.05,0-.12-.05-.17l-.07-.15,0,0,.25.32-.11.26.32.34.08-.37,0,.29.14-.1,0,.24-.3.2c0,.06.08.14.12.15a2.23,2.23,0,0,0,.39.06s.06,0,.09-.05a.52.52,0,0,0,.06-.1s-.06,0-.09-.05-.05,0-.08,0c0-.26,0-.33.16-.29a1.08,1.08,0,0,0,.22,0c.16.34.36.44.56.22.08.28.18.29.31.09,0,0,.09,0,.13,0s.23.19.35-.08.26-.05.39,0,.21.12.3-.06c0,0,.06,0,.1,0h.17v.13l0,0c.14-.2.3-.12.46-.11a4.16,4.16,0,0,1,.68,0c.18,0,.37,0,.56.13s.15-.11.16-.28c.19-.1.39,0,.6-.23l.08.05V4c-.11.21-.07.52.09.56a3.35,3.35,0,0,0,.63.06s.05-.05.11-.12l-.15.45c.08,0,.13,0,.16,0s.18.2.23,0a.38.38,0,0,0-.13-.41s0,0,0-.06h.51V4.11h0l0,.42.18-.06c0,.06,0,.11,0,.16s0,.16,0,.24l.1-.15h0a1.83,1.83,0,0,0-.08.27,1.12,1.12,0,0,0,0,.23.33.33,0,0,0,.13,0c.09-.08.18-.17.27-.27a2.87,2.87,0,0,0,.08.3c.11.3.28.08.42.1s.24,0,.3-.26c0,0,.07.06.09,0s.22,0,.28-.24c0-.07.11-.08.18-.13l.06.46.25.16,0-.34h.37v.31h.2L73.4,5l0,0c0,.08,0,.16,0,.23s0,.14.05.21l.08-.18h.23l-.11-.39c.09.11.19.16.2.26s.1.18.16.14.28-.06.39.15c.07-.4.07-.4-.31-.57l.18-.14s.11-.06.14-.12.18-.14.26,0,.08.14.12.13.29-.09.43-.12l.41-.07-.17.57L76.11,5,76,4.6l.76-.09a.17.17,0,0,0,.09-.11.43.43,0,0,1,.25-.51s0,0,0-.07,0,.32.14.37.28-.07.37-.2l.27.11L78,4.8c.19.07.16-.22.23-.43l.05.39a1.74,1.74,0,0,1,.22-.2s.09,0,.13,0L78.72,4l.2,0s.09,0,.13,0,.12,0,.18,0a3.23,3.23,0,0,0,.44,0L80.28,4s.08.05.11.12c-.13-.16-.15,0-.19.14s-.29-.08-.46.06-.37,0-.6-.05c-.05.21-.19.1-.32,0l-.09.22.19.16-.08.13c.11-.05.25-.2.34-.14s.37-.12.55,0l.06.3a.52.52,0,0,1-.13,0,1.54,1.54,0,0,0-.28,0s-.08.09-.12.14.09.11.14.13a1.15,1.15,0,0,0,.25,0v.08a2.77,2.77,0,0,0-.49,0s-.08.16-.1.25.05.17.08.17a2.07,2.07,0,0,0,.5-.14c.1,0,.25-.08.19-.39l.2,0V4.91a.91.91,0,0,1-.17-.1.21.21,0,0,1,0-.13s.06-.07.07-.06c.14.27.3.08.46.09l0,0c0,.18-.13.28-.23.21a.31.31,0,0,0-.09,0,1,1,0,0,0,0,.15c.07.15.13.31.21.44s.26.1.37,0,.33-.18.42-.08.12-.11.18-.17c.12.31.54.37.64.09a.29.29,0,0,0,.45-.18l.15.2,0-.08,0,.17.1,0s.05-.06.07-.05.2-.07.25-.19l.24.08-.07.18.11-.06.11-.06c.09.06.15.13.21.14s.07-.09.1-.14,0,.27.11.08c0,0,.07,0,.11,0a1.56,1.56,0,0,1,.52,0c.17,0,.37-.13.53.12,0,0,.06,0,.09,0s.07-.08.08-.06c.15.2.3-.05.46,0s.35,0,.54,0l0,.17,1,.11v.06c-.25,0-.49.06-.74.08a1.7,1.7,0,0,1-.48,0c-.22,0-.46.15-.69.2a6,6,0,0,1-.62,0c-.15,0-.29.08-.44.1s-.23,0-.34,0-.09.08-.13.12.08.14.12.14a4.36,4.36,0,0,0,1.06,0,2.4,2.4,0,0,1,1.1-.06,1.62,1.62,0,0,0,.72-.07c.08,0,.19,0,.25-.18s.32-.08.47.14a1.29,1.29,0,0,1,1.2-.35V6l-.93.11v.22l.19-.06.07,0-.27.11c0,.33.16.17.24.18s.26,0,.4,0a1.16,1.16,0,0,0-.21.16A.81.81,0,0,0,88,7l-.31,0a1.2,1.2,0,0,0,0,.17,1.59,1.59,0,0,1-.27.2c-.05,0-.12,0-.18,0L87,7.15l0,.09a1.26,1.26,0,0,0,.06.25c0,.06.09.09.12.15-.22,0-.44-.15-.63.16-.06.1-.2.06-.3.09l-.81.23s-.07.09-.11.12l-.12.08L85,8.41c0,.05,0,.14,0,.14s.12.32.17,0c.06,0,.11.12.16.12a1.66,1.66,0,0,0,.38,0c.38-.08.76-.19,1.15-.26.11,0,.25-.18.35.12,0,.06.18,0,.27,0l.26-.06c.06,0,.12-.06.18,0a.3.3,0,0,1,.16.16l.47.1c0,.23.1.19.2.17l.35-.06v.07l-.39.29.23.26,0,.07h.25c-.1.09-.24.06-.18.36l.85-.16v.07a1,1,0,0,0-.38.08c-.22.14-.49.2-.55.71l-.1-.15c0,.05,0,.12,0,.15a2.38,2.38,0,0,1-.22.18c0-.16,0-.26,0-.34s0-.1-.06-.09a.14.14,0,0,0-.07.1c0,.12-.18.26,0,.37l-.05.15a1.6,1.6,0,0,0-.37.06c-.38.16-.76.33-1.14.51a.25.25,0,0,0-.06.17c0,.07.07.16.11.16a3.73,3.73,0,0,0,.39-.08c.09,0,.2-.14.25.11a1.11,1.11,0,0,0,.18-.08l0,.23.44-.11.09.22h-.49c-.12,0-.18.13-.21.29a.78.78,0,0,0,.05.25l.05,0,0-.2.17.26c0,.17.09.24.22.23.38,0,.76,0,1.15-.05.06,0,.11,0,.18.08l-.64.19c0,.11,0,.18.09.19s.4.08.6.12v.08l-.16,0c-.22,0-.44.06-.66.12s-.41.21-.63.12c0,0-.1.11-.15.17l0,.08.29,0,0,.07-.29.26,0,.08.2,0a.38.38,0,0,1,0,.08L88,14.7s0,.07,0,.07.08,0,.09-.07c.06-.2.16-.25.28-.21a.73.73,0,0,1,.14.1c.12.08.23.19.36,0s.17-.05.27-.08c-.06.21-.07.35.1.35l-1.12.35a.52.52,0,0,0-.11-.1s0,.07,0,.11a.13.13,0,0,1-.06.06l-.54.16-.69.18a.48.48,0,0,0-.13.09s-.06.08-.08.07-.22.09-.23.25-.21.1-.26.2-.11.29,0,.37c-.12.07-.24.15-.37.21s-.08,0-.12-.06-.24.06-.24.29a.89.89,0,0,0,.72-.17.29.29,0,0,0,.38.11.59.59,0,0,1,.23-.09,2.25,2.25,0,0,1,.42,0s.09.08.14.08a.73.73,0,0,0,.22-.09.41.41,0,0,0,.5,0c.1-.08.22-.21.34,0,0,.06.15,0,.24,0l0,.28a3.43,3.43,0,0,0-.38.08s-.07.09-.11.14l0,.08.18,0c-.19.34-.19.34-.38.32l0-.2,0,0-.08.26a4.81,4.81,0,0,0-.64,0,4.72,4.72,0,0,0-.6.16c-.12,0-.14.15-.05.34a5.18,5.18,0,0,0-.55,0c-.05,0-.1.1-.15.16s.1.22.16.22.22.07.32-.11.15,0,.22,0a.63.63,0,0,0,.14-.1l.42,0v.08l-.75.3,0,.05c0,.09-.09.18-.13.28a.42.42,0,0,0,0,.2.5.5,0,0,0,.11.16.47.47,0,0,0-.09.6L86,20.08l0-.33a1.75,1.75,0,0,0-.27-.12s-.08.05-.12.06l-.87.08c-.1,0-.2,0-.3,0s-.11.11-.15.2a.31.31,0,0,0,0,.18s.07,0,.1.06a.6.6,0,0,0,.23,0,.39.39,0,0,0,.18-.12s.06-.1.08-.07l.41.08h0s0,.09,0,.1l-.44.21-.18.11,0,.1.14,0c.14,0,.28,0,.43,0s.07.09.12.16l.18-.08c.06.22.14.28.28.14s.14.07.21.08.26,0,.38,0,.19.06.29.06a3,3,0,0,1,.31,0c.18,0,.35-.25.54-.07,0,0,0-.09.05-.1a2,2,0,0,1,.26.06s.07.06.11.1,0,.06.06.06.13,0,.16.2l.19-.15.18.14c.11-.23.15-.24.29,0l-1.24.15a.91.91,0,0,0-.11.11.79.79,0,0,0-.13.22s.05.12.09.2l-.1.11-.08-.25L87.2,22,87,21.73c-.12-.11-.19,0-.16.22h-.63a2.55,2.55,0,0,1-.76,0c-.16-.05-.16.22-.18.42l-.32.08v0l.29-.1v-.38a.92.92,0,0,1-.18.08,1.58,1.58,0,0,1-.17,0,.39.39,0,0,0-.22,0,1.14,1.14,0,0,0-.17.27l-.11-.2-.11.29c.2.07.26.25.17.63l.38-.25v0l-.32.39s-.06,0-.09,0l-.47.11s0,.08-.06.16h.43a1.93,1.93,0,0,0,.29,0c.1,0,.19-.07.29-.08a.49.49,0,0,1,.23,0,.55.55,0,0,1,.23.15,1.39,1.39,0,0,1,.12.33l.13-.28v.07a1.05,1.05,0,0,0,.22,0s.1-.07.14-.07l.53,0s.08-.06.12-.09l0,.08-.15.09-.36.12-.26.06-.67.14c-.06,0-.13,0-.23-.06l.09.26c0-.05,0,0,0,0s-.22.16-.28.1-.31,0-.45,0a2.21,2.21,0,0,1-.59.09,7.31,7.31,0,0,0-.72.14.94.94,0,0,1-.33-.09c-.06.23-.21.09-.34.1s-.1-.05-.11,0c-.09.2-.2.1-.31.1s0,0,0,0c-.13.17-.25.11-.36-.1l-.13.33c.06,0,.11.1.16.1s.26,0,.38,0,.14.09.2.1.3,0,.45,0H83v.08l-.42.13c0,.16,0,.16.2.18l-.13.26-.45-.12.07-.15,0-.08-.25.26-.18-.14v.24c-.1.06-.19.15-.28.15s-.28-.06-.43-.07-.14.06-.2.12a.3.3,0,0,0,0,.14s0,.07,0,.07l.06-.06a2.84,2.84,0,0,0,.42.07c.21,0,.43,0,.64,0s.2-.07.26-.26c.15.18.31.32.51.19h0l0,.3c-.23,0-.47-.09-.7-.12-.07,0-.14.06-.22.1L81.6,26l-.09.43a1.75,1.75,0,0,0-.31-.21c-.06,0-.14,0-.21,0l-.52.06h0a.45.45,0,0,0-.36,0c-.11.06-.27,0-.29.29l0-.26a2.31,2.31,0,0,0-.48,0s-.1.19-.1.29.07.2.17.18.18-.08.2.13l.18-.1c.16.08.16.08.21,0,.06.22.12.45.29.45s.08,0,.13-.06c.07.27.22.14.35.12.27,0,.55-.14.82-.2a1,1,0,0,1,.3,0l0,.18-.74.46,0,.26h0l.18.11a.76.76,0,0,0-.22,0c-.12,0-.24.12-.37.19a1.05,1.05,0,0,0,0-.14s0-.1-.07-.09,0,.07-.06.1l-.16.23-.17.25,0,.08-.32,0c0,.16-.08.38.1.51s0,.27,0,.42l-.06,0,0-.27-.27,0,.09-.65c-.13.06-.31.09-.31.15,0,.25-.25.41-.1.7-.19.25-.39.07-.5-.11s-.3-.1-.49-.12l.09.26,0,0-.11-.21v-.08c-.2.06-.39.13-.59.18s-.11-.05-.16-.1a.48.48,0,0,1-.06-.14l-.08.15c-.13-.07-.25-.09-.34.15s-.12.2-.21.07-.09,0-.12,0l-.48.32,0-.22h0L76,29.81a.18.18,0,0,0-.14,0,.21.21,0,0,1-.29,0s-.07,0-.11,0l-.14.06.12-.34a1.38,1.38,0,0,1-.39-.15c-.09-.07-.15-.13-.27-.06s-.44-.07-.64.16c0,0-.16,0-.21-.09s-.15,0-.17.05-.08.11-.15.05a1.11,1.11,0,0,0-.24-.13v.08l-.27.4v-.27c-.08-.06-.14-.14-.21-.16s-.11.07-.15.1l-.4-.07c0,.22,0,.51-.16.6a.42.42,0,0,0,0,.21.67.67,0,0,1,0,.48c0,.13-.13.33.09.42-.27.14-.53.19-.69.55l0,.1.66-.08v.07a.71.71,0,0,0-.28.13,1.43,1.43,0,0,0-.15.37c-.1-.2-.24-.27-.37-.09-.08-.07-.13-.15-.19-.17A.35.35,0,0,0,71,32s-.06.12-.07.19,0,.18,0,.27,0,.32,0,.52l-.22-.22.05-.22c-.11-.1-.27,0-.33-.25,0,0-.05,0-.06,0s-.08.24-.11.36a.49.49,0,0,0,0,.13c-.06,0-.11,0-.14-.06-.22-.3-.49-.09-.73-.2,0,0-.12.2-.2.35,0-.13-.1-.32-.08-.37s.12-.32.26-.29.27.07.31-.27c0-.05.12-.07.19-.1a.59.59,0,0,0,.16-.09,3,3,0,0,0,.21-.26v-.17h0c.11.26.23.24.38.1s.14,0,.26,0a2.08,2.08,0,0,1-.08-.23.56.56,0,0,1,0-.24c.08-.19.18-.36.27-.55a.22.22,0,0,0,0-.13.23.23,0,0,0-.12-.09.94.94,0,0,0-.2,0,2,2,0,0,0,.05-.32.74.74,0,0,1,.13-.56.32.32,0,0,0,0-.19s-.06-.07-.1-.07l-.29,0v.63c-.2,0-.2,0-.21.32,0-.06-.07-.16-.12-.2a.29.29,0,0,0-.21,0c-.14,0-.27.06-.43.09l0,.17-.37-.18c-.08.3.26.36.09.64l-.22-.53a1.1,1.1,0,0,0-.36-.06c-.05,0-.1.15-.15.23l0,.07-.22.12-.09-.44.46-.07a1.83,1.83,0,0,0-.15-.31.29.29,0,0,0-.17-.09.13.13,0,0,0-.11,0c-.14.12,0,.29,0,.44-.07-.08-.15-.22-.22-.22a.93.93,0,0,0-.34.18.12.12,0,0,0,0,.07s0,.07.06.07l.29-.11v.39l0,.08c-.19.06-.41,0-.55.19s-.39-.23-.52.16l0,0c0-.22.08-.44.12-.66s0-.42-.17-.42h-.13l-.22.36h0s0-.14-.05-.14c-.22,0-.44-.05-.65-.06-.06,0-.13,0-.19.08,0,.25.12.45.28.48l0-.26.15.42a2.5,2.5,0,0,1-.29.06.11.11,0,0,1-.11-.06c-.08-.2-.12-.12-.17,0a2.32,2.32,0,0,1-.1.22c0-.32-.07-.4-.2-.41h0v-.14c.27.12.27.12.26-.31l-.41.05a1.15,1.15,0,0,0-.2,0c-.16,0-.12.34-.2.49s0,.27-.17.25-.11.15-.17.24l-.15-.14-.15.35,0,0,.12-.42,0-.06-.19.08c0-.13,0-.13-.17-.07a1.16,1.16,0,0,1-.24.07l0-.22c.14,0,.22-.08.21-.27h-.45v-.05l.31-.13c-.14-.25-.08-.4.11-.46-.08-.22-.15-.43-.32-.36h-.06c-.08-.34-.1,0-.15,0-.08-.17-.16-.27-.31-.15s-.2-.06-.31-.09l0,.24-.2-.13-.11-.49s-.1.06-.1.09-.14.38.06.46c-.11.33-.1.39.11.39s.21.06.3-.12.1,0,.16,0,0,0-.06.06a.53.53,0,0,0,0,.15s0,.07.06.06,0-.07.07-.1.08-.11.12-.12a.61.61,0,0,1,.36,0l-.18.28-.21-.07c0,.28,0,.28.35.31-.07.13-.14.26-.21.38s-.08.15,0,.2.14.14.09.29-.08.19-.16,0-.12.08-.18.13l.09.36c-.07,0-.1,0-.13,0a.92.92,0,0,0-.12.13.72.72,0,0,0,.16.13c.09,0,.19,0,.28.07s.1.09.15-.06c.09,0,.19.09.24,0s.12,0,.17.17l-.24,0c0,.29-.18.25-.29.23s-.32-.15-.48-.16a2.85,2.85,0,0,0-.6.09c-.12.42-.21.06-.31,0s-.09,0-.12,0S61.5,32,61.47,32a1.61,1.61,0,0,0-.15.37c-.08-.23-.1-.56-.3-.47,0,0-.07.14-.11.24l.18.06-.08.18-.34-.54,0,.36c0-.36-.14-.12-.24-.11l-.18-.33-.15.16c-.06-.21-.17-.2-.31-.11s-.15,0-.22,0-.28.16-.44.09S59,32,59,32l-.14.16v-.36a5.87,5.87,0,0,1-1-.15c-.16-.05-.25.08-.36.19a.38.38,0,0,0-.62-.12,1.11,1.11,0,0,0-.11.32l-.09-.33-.24.18H56a.3.3,0,0,0-.5.07c-.15-.22-.33-.16-.37.13l-.18,0a2.17,2.17,0,0,0,0-.22,1.17,1.17,0,0,0-.07-.16.8.8,0,0,1-.05.15.45.45,0,0,1-.09.09l-.06-.24s-.08.08-.09.14c-.05.3-.18.09-.27.14.07-.12.24-.1.2-.36,0-.07-.08-.11-.14-.18l0,.24h0c-.17-.2-.39-.27-.54-.16a.73.73,0,0,1-.67,0L53,32.1c-.11-.39-.26-.17-.39-.16a2.85,2.85,0,0,0-.35.09l.09-.32-.17,0a.42.42,0,0,0,0,.11c.06.27,0,.37-.16.39l-.5.07c0-.24-.19-.38-.38-.34l-.33.08c0,.13,0,.27-.06.39s-.06.1-.1.15-.08-.16-.07-.22c0-.22-.06-.21-.14-.31s-.34-.07-.52,0-.1,0-.13,0-.32,0-.47,0-.28.18-.4-.07c0,0-.1.05-.17.09l-.12-.24a4.22,4.22,0,0,1-.22.37s-.1.07-.14,0a.37.37,0,0,0-.51,0c-.15-.33-.2-.34-.27-.08l-.28,0-.26.05v.07a1.46,1.46,0,0,0-.14-.21s-.12-.09-.13-.06c-.13.24-.26.08-.4.05a1.47,1.47,0,0,0-.39.06,1.14,1.14,0,0,1-.17,0c-.06,0-.13,0-.18,0s-.1.32,0,.49c-.15,0-.24,0-.19-.25s0-.23-.12-.25a2.75,2.75,0,0,0-.66-.14c-.16,0-.37,0-.44.36,0-.06-.12-.16-.13-.15s-.35-.15-.37.3c-.11-.33-.24-.34-.46-.17s-.25.2-.36,0c0-.07-.1-.11-.16-.17-.06.27-.12.25-.21.05,0,0-.1,0-.15,0a1.8,1.8,0,0,0-.34.23c-.12.11-.22,0-.32-.06s-.21-.11-.29.23c0-.28-.14-.26-.28-.22s-.31,0-.47,0a2.08,2.08,0,0,0-.32.07s-.09,0-.12,0c-.21-.27-.42-.18-.65-.07s-.22.08-.3-.14c0,0-.1,0-.1,0-.05.3-.21.3-.35.35v-.08l.12-.06c0-.34-.24-.16-.3-.36l-.32.39c-.06-.2-.14-.5-.37-.44-.06,0-.11.13-.16.21s0,.17-.06.17a.18.18,0,0,1-.12-.11c-.09-.2-.18-.32-.35-.18s-.31,0-.45-.13-.05-.08-.07-.07l-.58.16.06.6a1.48,1.48,0,0,0-.33-.16c-.05,0-.11.07-.18.12a1.74,1.74,0,0,0-.06-.34c-.11-.28-.37-.28-.51,0s-.24.13-.36.08-.22-.37-.37-.08c-.18-.22-.44.18-.54-.19-.09.1-.16.23-.23.24s-.18-.09-.24-.19-.2-.2-.29,0-.27.28-.41.07c0,0-.1-.09-.11-.07-.18.32-.37,0-.56.06a1,1,0,0,0-.26.11s-.08,0-.12,0a1.79,1.79,0,0,1-.69-.25c-.19-.16-.34,0-.51,0a2.48,2.48,0,0,0-.54.16l-.08.22a.85.85,0,0,0-.09-.14.29.29,0,0,0-.13-.08L29.17,32s0,0,0,0c-.13-.32-.25-.12-.38,0s-.21.16-.32,0-.08,0-.13,0h-.73l-.48,0a1.13,1.13,0,0,0,0-.28s-.08-.06-.14-.1v.35Zm32.49-2.11v.4a2.13,2.13,0,0,0,.18-.26.4.4,0,0,0,0-.16l-.18,0v-.23l-.17-.05c-.08,0-.18-.15-.23-.1a1.71,1.71,0,0,0-.24.42.21.21,0,0,0,0,.11A.33.33,0,0,0,59.58,29.77Zm-57-8.37a2.16,2.16,0,0,1,.24-.12l.28-.07a.25.25,0,0,0,.12-.08c.16-.19.31-.12.36.15a.63.63,0,0,0,.22.09c.05,0,.1-.07.16-.11l.24-.16a2.49,2.49,0,0,1,.2-.17c.12-.07.2-.16.09-.39l.45-.12-.12-.18a.72.72,0,0,1-.11-.19c-.06-.22-.16-.32-.3-.33a1.38,1.38,0,0,1-.25-.06L4,19.56c-.06.13-.17.31-.15.4.06.26-.06.45,0,.66l-.25-.24-.17-.57a1,1,0,0,0,0-.11.08.08,0,0,0-.06,0c-.15.05-.29.12-.44.16L2.23,20s0,0-.06,0c-.24-.07-.46-.34-.73-.22,0,0-.09,0-.12.06a2.42,2.42,0,0,1-.19.35c-.19.19,0,.37,0,.52s.14.21.24.06l.15-.21c.13.21,0,.37,0,.57-.08-.07-.17-.21-.25-.2a.47.47,0,0,0-.28.23,1.47,1.47,0,0,0,0,.42l.6-.17a.44.44,0,0,1,.26-.08,1.42,1.42,0,0,1,.31.12v.23C2.51,21.72,2.58,21.67,2.57,21.39Zm1.23-4.74c0-.22-.05-.44-.2-.44a3.14,3.14,0,0,0-.54.09.4.4,0,0,0,.17-.5l-.07,0c-.13.1-.25.24-.42.17s-.13.12-.07.41l-.32-.12a.78.78,0,0,0,0,.66,2.47,2.47,0,0,1,.11.29s0,.05,0,.05,0,0,0-.06,0-.13,0-.2c.2.07.55-.06.6-.21l-.2-.12v0Zm.76,5.65c-.19.06-.27.22-.26.52.19.21.43,0,.61.26,0,0,.08,0,.11,0s.25-.12.37,0a.36.36,0,0,1,.56,0c0,.06.1.07.15.1s0-.21,0-.31,0-.21,0-.32a.69.69,0,0,1-.2.05.63.63,0,0,1-.24-.06c-.16-.07-.35.09-.5-.18,0,0-.09,0-.11.05l-.16-.22-.11.42-.08-.21-.15.25Zm50.17,6.19v.39L55,29c0,.17,0,.35.15.31a.4.4,0,0,0,.27-.48c-.08,0-.19,0-.22-.09s-.14,0-.2,0,0-.08,0-.13,0-.22,0-.37l-.2.08c-.06-.12-.25-.09-.32.07,0-.24-.14-.16-.23-.15s-.11,0-.14,0a.44.44,0,0,0-.07.25.54.54,0,0,0,.15.23s.05-.07.08-.11l0,0,.07.17c-.13.1-.09.28-.05.41s.1.28.23.14.16-.24.05-.53a.61.61,0,0,1,0-.14s.06,0,.07,0S54.65,28.73,54.73,28.49Zm-48-1.9-1-.14c-.19,0-.29.12-.36.44l.38.2c0,.14,0,.27.12.25s.14-.11.2-.19.1-.14.13.06,0,.12,0,.24c.09-.05.19-.06.25-.15s.09-.43.23-.54S6.69,26.65,6.69,26.59ZM4.1,18.41l0-.09s0,0,.06,0l.13-.17S4.17,18,4.12,18a4.07,4.07,0,0,0-.49-.12.49.49,0,0,0-.21,0L3,18.08a2.49,2.49,0,0,0-.12.41c0,.21,0,.32.16.29,0-.31.06-.36.23-.29a.9.9,0,0,0,.26.09,1,1,0,0,0,.26,0l.15.28Zm-2.57.45a1,1,0,0,0-.11-.19.3.3,0,0,0-.12,0l0,.14a.25.25,0,0,1,0,.08,1,1,0,0,0,.17.66c.08.08.35-.18.37-.34S2,19,2,18.94a1.58,1.58,0,0,1,.5-.12c.14,0,.19-.09.17-.34l-.39-.08a.55.55,0,0,1-.21.07c-.07,0-.14,0-.2,0S1.55,18.41,1.53,18.86Zm4,1.42c.07,0,.13,0,.16.05.14.2.29.36.49.25s.36-.23.55-.08l0,0,.27-.05a3.51,3.51,0,0,0,0-.36S7,20,7,20a3.8,3.8,0,0,1-.49.09A.25.25,0,0,1,6.23,20c-.11-.43-.15-.06-.19,0s-.27,0-.3-.25c0,0-.08-.07-.1,0a.34.34,0,0,0-.06.18C5.57,20,5.58,20.14,5.58,20.28Zm70-14.92s.08,0,.12,0a.58.58,0,0,0,.58.13c.19,0,.39-.06.59-.09a1.37,1.37,0,0,0,.38-.07s.05-.19.08-.29A.75.75,0,0,0,77.19,5a.28.28,0,0,0-.11,0C77,4.7,77,4.7,76.71,4.72l0,.36L76.21,5l-.07.33C76,5.34,75.83,5,75.6,5.36Zm-72,21.07,0,0a.78.78,0,0,1,.14-.18.52.52,0,0,1,.53-.08c.06,0,.15-.12.22-.19s-.06-.26-.1-.27-.15-.25-.19-.51c-.06.12-.13.18-.14.26,0,.28-.11.31-.25.23s-.17-.07-.2.13S3.64,26.24,3.61,26.43Zm80.76-19a2.45,2.45,0,0,0-1.38,0c0,.34.2.52.38.39s.2-.08.3,0,.06,0,.08,0,.1-.11.15-.13.22,0,.33-.07S84.31,7.5,84.38,7.42ZM3,7.54c-.17-.12-.29.19-.45.17,0-.34-.19-.07-.29-.17,0,.08,0,.13,0,.18,0,.39,0,.36.23.4A1,1,0,0,0,3,7.93a.54.54,0,0,0,.19-.25.48.48,0,0,0,0-.23A.68.68,0,0,0,3,7.54Zm3.46,22c.25,0,.49,0,.73-.09s.22-.12.15-.37c-.09,0-.18,0-.24-.06s-.31-.18-.42.05c0,0-.08-.12-.1-.11S6.4,29.27,6.44,29.55Zm72.25-2.42-.09-.32.47.17c0-.62,0-.51-.25-.62-.06,0-.15.1-.2.07-.26-.15-.23.25-.32.38l.19.32ZM52.56,30.8c-.11-.33-.21-.42-.32-.29a1.24,1.24,0,0,1-.21.25c-.15.1-.1.21,0,.36s.17.16.09.36a.22.22,0,0,0,.05.14s.11,0,.12,0,0-.42.19-.44v-.05l-.06-.17Zm6.34-1.09c-.17-.05-.35-.17-.5-.13s-.36,0-.41.4a.88.88,0,0,0,.16.16c.06,0,.18.09.2,0,.08-.21.19-.14.29-.11S58.89,29.87,58.9,29.71ZM6.53,7.42c.28,0,.53-.16.82-.1l-.07-.51L7.1,7l-.57-.21ZM62.08,29.08a.53.53,0,0,1-.18,0c-.05,0-.09-.09-.14-.11s-.3.2-.27.54l.25.29C62,29.68,62.06,29.5,62.08,29.08ZM23.85,31.91a1.76,1.76,0,0,1,.38-.14,1.32,1.32,0,0,1,.36.05l.25.13.06-.33a1.33,1.33,0,0,0-1-.07Zm47.48-1.84-.21.11,0,.19c-.09.18-.16.31-.22.45S71,31,71,31l0,0,0-.32a1,1,0,0,1,.07.15c-.14.3,0,.29.13.35s.13,0,.21,0ZM52.51,28.47l0,0a2.14,2.14,0,0,0-.12-.26s-.09,0-.09.07c0,.25-.16.4-.18.63a.85.85,0,0,0,0,.39c.06.12.12,0,.16-.12s.06-.05.09-.09.22-.15.08-.39A.67.67,0,0,1,52.51,28.47ZM6.44,7.49l.08,0c-.22-.23-.09-.43,0-.62H6a2.56,2.56,0,0,0,0,.41c0,.09.07.22.11.23A1.09,1.09,0,0,0,6.44,7.49Zm54.28,22-.23,0a.93.93,0,0,0,0,.28c.1.2.19.16.23,0h.5a1.41,1.41,0,0,1-.14-.29,2.8,2.8,0,0,1,0-.39c-.07.1-.13.22-.17.22S60.71,29.31,60.72,29.5Zm-10.91,0c-.09,0-.17,0-.21,0a.59.59,0,0,0-.07.32c0,.06.11.16.15.14A.31.31,0,0,1,50,30c.12.08.18,0,.25-.11a.41.41,0,0,0,0-.22s-.07-.06-.11,0-.22.09-.33.13ZM9.62,26.64l-.42-.08v.68C9.52,27.28,9.64,27.12,9.62,26.64Zm53.07,4.44A2.27,2.27,0,0,0,63,30.7a1.61,1.61,0,0,0,0-.4l-.14.12,0-.26-.3.17Zm-5.6-1.34a2.55,2.55,0,0,0-.15.29.46.46,0,0,0,0,.19c.09.05.12.21.18.28.18.23.11-.4.28-.29,0-.08,0-.19,0-.22A2.36,2.36,0,0,0,57.1,29.73Zm-7.71.45a1.49,1.49,0,0,0,.08-.3,1.32,1.32,0,0,0,0-.32.88.88,0,0,0-.38.11s0,.22-.06.3Zm1.87.65,0,.07.15.23v.17l.36-.26a1.42,1.42,0,0,0,0-.26c0-.08,0-.21-.06-.22s-.19,0-.19.09C51.49,31,51.37,30.88,51.26,30.83Zm6.93-1.51a2.23,2.23,0,0,0,.2-.48c0-.06-.12-.28-.17-.26s-.19.17-.29.27ZM48.1,31.12c0,.29.12.52.27.5s.11-.16.17-.25a2.43,2.43,0,0,0-.28-.4S48.14,31.08,48.1,31.12Zm6.74-.29.06.13c.14-.1.28-.2.42-.32a.38.38,0,0,0,0-.2c-.13-.2-.25-.15-.33.11A2.2,2.2,0,0,1,54.84,30.83ZM22.9,4.21l.06,0,0-.26s.09.06.12,0a.25.25,0,0,0,.12-.13.31.31,0,0,0,0-.19c-.06-.06-.13-.12-.19-.1s-.15.13-.26.24ZM64.33,28.85l-.06-.05c-.06,0-.11.1-.17.1s-.14.16-.12.31.06.35.09.55h.15l-.07-.44ZM1.85,11.12v-.39c-.08,0-.19,0-.21,0-.08.24-.19.17-.3.1C1.33,11.16,1.33,11.16,1.85,11.12Zm.64,1.61c.1-.12.22-.19.27-.32s-.06-.27-.1-.4l-.07,0c0,.18-.08.13-.12.19a.59.59,0,0,0-.08.29C2.37,12.58,2.44,12.64,2.49,12.73ZM61.59,31.31a1.18,1.18,0,0,0-.34-.07.23.23,0,0,0-.15.17.75.75,0,0,0,.05.29,1.68,1.68,0,0,0,.36-.19S61.56,31.4,61.59,31.31ZM2.06,11.93a2.44,2.44,0,0,0-.39,0s-.1.1-.11.16a.47.47,0,0,0,0,.26C1.71,12.48,2,12.17,2.06,11.93ZM24.4,3.4c.08-.41.08-.42-.16-.43,0,0,0,0,0,0l-.12-.1a2.53,2.53,0,0,0,0,.36s.07.09.11.13,0,0,0,0c.06-.29.09-.14.13,0S24.36,3.37,24.4,3.4ZM55.66,30.33s-.06,0-.08,0a1.73,1.73,0,0,0-.14.17,1.11,1.11,0,0,0,.12.17s.1,0,.14.08.12,0,.15-.1S55.87,30.33,55.66,30.33Zm20.21-.74.54-.38,0-.09h-.52Zm-.37,0c.31.11.36,0,.32-.45C75.55,29.1,75.49,29.19,75.5,29.61Zm3.85-2.4c0,.17.12.34.21.31l.31-.1C79.82,27.15,79.82,27.15,79.35,27.21ZM70.22,29.6l.3-.49a.87.87,0,0,0,0-.2l-.22.18-.13-.27a0,0,0,0,0-.06,0,.14.14,0,0,0,0,.09C70.13,29.12,70.17,29.35,70.22,29.6ZM2.86,6.78c.07.14.13.28.19.39s.06,0,.09,0,.22-.21.15-.47ZM51.69,4.49c0,.33,0,.34.28.31.06,0,.12-.09.18-.14S52,4.5,52,4.48A.74.74,0,0,0,51.69,4.49ZM48.64,29.42l-.06,0a1.19,1.19,0,0,0,0,.34c.07.31.24,0,.36.18l0-.47C48.82,29.56,48.71,29.79,48.64,29.42Zm5.55.92v.29h.42C54.61,30.33,54.55,30.29,54.19,30.34ZM1.92,18c0-.44,0-.56-.15-.56s-.11.15-.11.28C1.66,18,1.79,18,1.92,18Zm.2-2.32-.06.06v.67l.05,0c.07-.13.21-.21.18-.44A.92.92,0,0,0,2.12,15.64ZM16.87,30.86l0-.08c0-.09-.05-.25-.09-.27a1.22,1.22,0,0,0-.36-.06v.26ZM56.57,4.24c0-.27-.07-.35-.18-.33s-.1.1-.14.15a3.27,3.27,0,0,0,.2.34S56.52,4.29,56.57,4.24ZM73.63,28.61l-.23.13s-.09.07-.09.11a.62.62,0,0,0,0,.25s.08,0,.12,0a1.36,1.36,0,0,0,.17-.12ZM55.91,30.33c0,.15,0,.34.06.35a.26.26,0,0,0,.25-.05s0-.18.06-.3ZM44.47,3.17l0,.12a.88.88,0,0,0,.09.16.38.38,0,0,0,.15.11s.08,0,.13,0,0-.22,0-.24A1.37,1.37,0,0,0,44.47,3.17ZM2.62,26.42H2.55l-.14.31c.06.06.12.17.18.18s.14-.06.12-.22A1.62,1.62,0,0,0,2.62,26.42Zm78.27,1.09c.3.16.53.1.57-.14A.87.87,0,0,0,80.89,27.51Zm1.23-20-.05.35a2,2,0,0,0,.33-.12s.07-.11.1-.17l0-.06h-.34Zm-3-2.26,0-.07A.92.92,0,0,0,79.12,5c-.12-.17-.21,0-.3.12s0,.13-.06.2l0,.05.14-.16ZM5,18.34c-.38-.06-.53,0-.52.32C4.67,18.49,4.88,18.67,5,18.34Zm73.59,9.19a1.46,1.46,0,0,0,.17-.17.29.29,0,0,0,.05-.16A.63.63,0,0,0,78.8,27a.56.56,0,0,1-.07.11s-.07,0-.1.06a1.78,1.78,0,0,0-.13.16ZM56.21,29.28a1.77,1.77,0,0,0,0-.3s-.08,0-.12-.05c0,.27-.16.12-.28.18C55.89,29.39,56.05,29.2,56.21,29.28ZM15.45,4.87l.4-.07c-.11-.3-.26-.19-.4-.21ZM84.51,7.66c.16,0,.31.08.37-.24-.08-.07-.18-.21-.22-.18A1.38,1.38,0,0,0,84.51,7.66ZM2.15,14.81l0,.09a1.52,1.52,0,0,0,.29-.08s0-.13,0-.2-.16-.08-.22-.05S2.2,14.73,2.15,14.81ZM23.77,3.74l0-.1c-.07,0-.17,0-.22,0s0,.26,0,.38.06.06.06.06ZM74.7,5.43c.19,0,.2-.2.22-.41C74.65,4.92,74.64,5,74.7,5.43ZM9.15,28.54l0,.64.06,0,.1-.56ZM50.3,3.37l0,0c0,.09-.06.19-.09.28a.5.5,0,0,0,0,.19s.11.08.13.05a.67.67,0,0,0,.08-.28A1.24,1.24,0,0,0,50.3,3.37Zm-4.19,1c-.06-.26-.12-.45-.3-.35C45.81,4.35,45.86,4.42,46.12,4.38Zm-41,22.74c.18,0,.21-.15.17-.49C5.06,26.63,5.05,26.65,5.08,27.12ZM37.24,2.95l0,0c-.07.21,0,.28.09.27s.06-.16.08-.25,0-.24-.11-.24S37.28,2.89,37.24,2.95ZM14.1,3.56l-.34.08,0,.07.28.24s0,0,0,0S14.08,3.69,14.1,3.56ZM3.3,12.84c0-.21-.12-.35-.24-.27s-.06.09-.08.14.06.11.09.12A1,1,0,0,0,3.3,12.84Zm79.61,9.94c0-.1-.08-.24-.11-.23a.68.68,0,0,0-.27.13.77.77,0,0,0,0,.18ZM59.81,31.22c0-.35-.16-.16-.23-.27l-.13.21,0,.06Zm14-2.56-.13.23.18.29a.67.67,0,0,0,.08-.23A1.07,1.07,0,0,0,73.8,28.66ZM22.7,1.06l.12-.39h-.31l0,.07ZM54.12,29.3l.06-.08L54,28.85a1,1,0,0,0-.08.26C53.93,29.35,54,29.29,54.12,29.3Zm-3.73-.49.08-.24.05-.13s-.06,0-.09,0a.19.19,0,0,0-.14.06.34.34,0,0,0,0,.21C50.28,28.73,50.34,28.76,50.39,28.8Zm-4.92.57c0,.3.07.37.21.31C45.71,29.38,45.69,29.36,45.47,29.37ZM58.23,3.52c-.13,0-.23,0-.23.26l.23.08Zm-8.16.38.06-.06L50,3.44s-.1.08-.11.13C49.88,3.78,50,3.86,50.06,3.9Zm9.32,26.61.31-.29C59.41,30,59.39,30.06,59.39,30.51ZM4.74,26.26c.07.05.12-.14.17,0,0,0,.05-.06.05-.1,0-.2-.06-.26-.23-.2Zm47.64,5.26.14.34c0-.06.1-.13.1-.19S52.54,31.43,52.38,31.52Zm.2-27.71-.13-.06c-.09,0-.16,0-.12.15s.15.14.25.22Zm6.16-.57-.06.08.17.54a1,1,0,0,0,.08-.25A3.4,3.4,0,0,0,58.75,3.24ZM69.83,29.13l0,.07c0,.07.07.2.09.2a.86.86,0,0,0,.23-.15s0-.11-.06-.11A1.09,1.09,0,0,0,69.83,29.13ZM82.67,7.91c0-.12.09-.2.08-.25a1,1,0,0,0-.1-.23.63.63,0,0,0-.09.22C82.55,7.71,82.61,7.79,82.67,7.91ZM49.81,28.47l-.31.08,0,.06c.06,0,.13.14.18.11S49.88,28.75,49.81,28.47ZM2,26.33l-.18-.26-.08.42,0,0Zm47.8,5.47c.2,0,.21,0,.18-.32h-.18ZM67,29.08c-.1-.09-.15-.15-.2-.16s-.06.09-.1.14.08.16.13.18S67,29.16,67,29.08Zm-6.91.43a.72.72,0,0,0,.1.18s.12.05.13,0a1.84,1.84,0,0,0,0-.32Zm-13.79-26,.12.26c0-.13.23,0,.18-.26ZM26.49,31.78l.19-.28-.19-.2ZM50.59,4.62l0,.1.21.15,0-.06c0-.09-.06-.21-.11-.26S50.64,4.59,50.59,4.62Zm2.18,24,.06,0a1.17,1.17,0,0,0,0-.25c0-.12,0-.31-.15-.18Zm5.29,2.08c.17,0,.19-.19.16-.39C58,30.29,58.07,30.53,58.06,30.73Zm-4.36-.08,0-.08c-.19,0-.2,0-.15.39Zm19.54-1.58,0-.1L73,28.73C73,29.15,73.14,29.06,73.24,29.07ZM57.57,29c-.07-.07-.11-.14-.14-.13a.85.85,0,0,0-.18.14c.06,0,.11.11.17.12S57.5,29.06,57.57,29Zm6.29.29-.06,0c0,.08,0,.16,0,.25s0,.13,0,.19l0,0a1,1,0,0,0,.07-.26A.9.9,0,0,0,63.86,29.28ZM56.8,29h-.18s0,.08,0,.12,0,.09,0,.13C56.8,29.25,56.81,29.25,56.8,29ZM71,31.82c0-.27,0-.31-.21-.28C70.78,31.85,70.94,31.71,71,31.82ZM64.8,30l-.05-.05L64.6,30l.07.3.05,0Zm-.32.2c-.12,0-.22,0-.19.26h.19Zm14.45-1.37-.19.15.19.27ZM52,29.18v-.32h-.18C51.81,29.13,52,29.06,52,29.18ZM31.49,3.2h.15l0-.06-.14-.3,0,.05Zm41.9,24.91-.23.19.23.18ZM51.18,3.4a2.81,2.81,0,0,0-.06.38s.06.08.09.11a.62.62,0,0,0,.06-.19A1.45,1.45,0,0,0,51.18,3.4Zm25,23.81H76v.19C76.22,27.43,76.22,27.43,76.22,27.21ZM16.13,4.65l0-.05h-.21l0,.09A.56.56,0,0,0,16,4.8S16.1,4.71,16.13,4.65ZM72,30.24l-.07.1.11.27c0-.06.09-.15.08-.17A1,1,0,0,0,72,30.24Zm-12,1,.05-.14a1.21,1.21,0,0,0-.15-.18s0,.09-.08.14Zm-5.47-.15.16-.19-.12-.24,0,0Z"/></g></g></svg>