<svg xmlns="http://www.w3.org/2000/svg" xmlns:xlink="http://www.w3.org/1999/xlink" viewBox="0 0 21.08 133.04"><defs><style>.cls-1{fill:none;}.cls-2{clip-path:url(#clip-path);}.cls-3{fill:#7d9792;}</style><clipPath id="clip-path" transform="translate(-5.84)"><rect class="cls-1" y="62.74" width="34.73" height="75.87"/></clipPath></defs><title>Recurso 2</title><g id="Capa_2" data-name="Capa 2"><g id="Capa_6" data-name="Capa 6"><g id="Capa_7" data-name="Capa 7"><g class="cls-2"><path class="cls-3" d="M12.19,128.6c0,.06,0,.21,0,.18,0-.2-.09-.47-.14-.63s0,.32,0,.39-.06.29-.1.5,0,.38,0,.59v.3l0-.08c0,1.19,0,.86,0,.77l-.1-.42V132c0-.46,0-.68,0-.93,0-.78,0-1,0-.92s0,0,0,0c0-.9-.09-.36-.14-.58a1.35,1.35,0,0,0-.12-.33l0-.69,0,.59c-.06,0-.12.5-.16-.12-.06-.94-.11-.15-.16.08,0-.32,0-.8,0-.74s0,.61,0,.83,0,.59-.06.88c0-1.17,0-1.5-.07-1,0-1.08-.07-1.72-.14-1.61v1.3c0-.13,0-.24,0-.36,0-1.36,0-.94-.06-1a15,15,0,0,0,0,2.83c0,.48,0,1.25,0,1.22a8.59,8.59,0,0,0-.06.92c0,.07,0-.07-.07-.16a3.55,3.55,0,0,1-.06-1l.05.25,0,.19V130l0-.12a11.07,11.07,0,0,0,0-1.36,4,4,0,0,1,0-.46c0-.49,0-.72-.06.34l0-.87c0-.06,0-.13,0-.1,0,.86-.06.28-.08.23s0,.05,0-.05c0-.42-.05-.38-.06,1.06,0,.09,0,.16,0,.29,0-.34,0-.8,0-.94s0,0,0,0c0-.94,0-1.35-.09-.92,0,.1,0-.12,0-.32,0-1,0-.8-.06-.57,0,0,0,0,0,0l0-.65s0-.2,0-.12-.05.54-.08.82v.78c0-.31,0-.61,0-.84s0-.34,0-.4-.06-.33-.09-.46-.06.25-.09,0-.08-.48-.12-.3-.1-.21-.15-.65c0-.24-.06.41-.08-.67,0-.07,0,0,0,0l-.08.43c0-.67,0-1,0-1.34l0-.11c0,.36,0,.67,0,1,0,0,0,0,0-.1,0-.57,0-1.15,0-1.91l-.09-.21v1.4c0-.16,0-.34,0-.48,0-.41-.07,0-.08,1.56a4.39,4.39,0,0,1-.1-1.13c0-.86,0,.14,0,.72,0-.29,0-.58-.05-.86,0-.07,0-.15,0-.1,0,1.1-.07-.47-.11-.13s-.08.17-.12-.19a3.08,3.08,0,0,0-.11-.61c0-.2-.09-.33-.14-.51a3.7,3.7,0,0,0-.09-.39s0,.18-.07.13,0-.32,0-.55,0-.49,0-.48,0,.26,0,.46l0-.34v-.77c0,.28,0,.52,0,.71s0,.67,0-.11c0-.21,0,.09-.05.14s0,.43-.06-.38h.05l0-1.4v-.07l0,1.5c0,.23-.06.63-.1.44s0,0,0-.07c0-.7,0-1.23.07-1.7,0-.79,0-1.35,0-2.05,0-.13,0-.14,0,.51a7.34,7.34,0,0,1-.07,1,5.44,5.44,0,0,0,0,.95c0,.56,0,1.18,0,.54,0-.06,0,.11,0,.17l0,.61,0,.53c0-1.67-.06-.76-.09-.1v-.9s0-.19,0-.1c0,1.35-.07.42-.1.8,0,.23,0-.08-.07-.11s0,.07,0,.13l0,.33c0-.42,0-.93,0-1.23,0-.8,0-2.55,0-2.94,0,0,0-.05,0,0q0,.7-.08,1.45c0-.67,0-1.9-.08-1.85s0-.13,0-.22,0-.36,0-.54c0,.25,0,.51,0,.74s0,.69,0,1,0,.32,0,.48l0,.46a19.3,19.3,0,0,0,0,2.11v-1l0,.59V118.5l0-.32v1.53l0,.31c0,.76-.1-.55-.12,1.15,0-.68,0-1.15-.07-.57,0,.27,0-.16-.07-.27s0-.4,0-.4a15,15,0,0,0,0-1.73c0-.2,0-.48,0-.52s0,0,0,.19,0,.59,0,.9c0,.15,0,.75,0,1.3a2,2,0,0,0,0,.24c0,.34,0,.8,0,1s0,.08,0,.1c0-.41,0-.25,0-.89,0,0,0-.52,0-.56a1.92,1.92,0,0,0,0,.31c0-.61,0-.5-.06-.21s0-.23-.05-.32c0-1.22,0-2.28-.05-3.2s0-.85-.07,0c0,.15,0,.08,0,.16,0,.39-.07.79-.11,1.2,0,.13,0,.36,0,.39s0,0-.07,0v.86l-.1-1V118l.14-.58c0,.11,0,.44,0,.27,0-.39,0-1,0-1.71-.06,0-.09-2.08-.15-.81v-1.8c0,.07,0,.2,0,.15a2.26,2.26,0,0,1,0-.48,8.82,8.82,0,0,0-.11-1.71c0-.11-.05,0,0,1.11,0,.25,0,.57,0,.53,0,.44,0,.73,0,1l.06,1.34c0,.64-.05.56-.08-.48,0-.68,0-1.3-.06-2,0-.11,0-.26,0-.36,0-1.29,0-1.55-.06-1.46v-.32s0-.09,0-.08,0,0,.05-.89c0-.21,0-.41,0-.61h0v-1.74l.07.33v1l.07.33c0-1.1,0-1.84,0-2.56,0-.13,0-.52,0-1l0-1.24H6.17V106c0-1.56-.06-1.4-.08-.34,0-.21,0-.38,0-.64a3.16,3.16,0,0,0,0-.8,1.78,1.78,0,0,1-.1-.76,4.41,4.41,0,0,0-.08-.73v-.71l.13.5v-1.11a4.28,4.28,0,0,1,.07.64c0,.69.05.57.08.1s.08-1,.12-1.38c0-.09,0-.08,0,.08,0,.47,0,.18.05,0a.59.59,0,0,1,.13-.36l0,1.43c.09.47.14.14.15-1,0,.56.07.14.11.81,0,.49.08,0,.12-.1a1,1,0,0,1,.18-.2.69.69,0,0,1,.18-.07s0-.14,0-.07c0,1.16.08.43.12.54s0-.44.06-.49,0,.08,0,.39c0,.56,0,.69.05.4s.06-.68.09-.13,0-.17,0-.7l.1.17v.85c0-.17,0-.35,0-.52s0-.33,0-.33.06.15.09.16a.8.8,0,0,0,.2,0s0,0,0,.1c0,.66.06.28.08-.49,0-.2,0-.33,0-.55s0-.56,0-.82L8,99.54c0-.69.09-.44.11.42,0,.15,0,.21,0,.32V99.14s0,0,.05,0,0-.42,0-.57,0-.5,0-.5-.1-.28-.15-.36-.11-.11-.16-.22-.05-.3-.08-.36,0,0,0,.92,0,.94,0,.9,0,0,0,.82a1.36,1.36,0,0,1-.13.31s-.06.39-.07-.82a3.36,3.36,0,0,0,0-.41v1s-.06.07-.09,0,0-.39,0-.72c0-1.13,0-.82-.07-.56s-.05.56-.07.82c0-.43,0-1.18,0-1.28a1.81,1.81,0,0,0-.11-.59s-.09.4-.13.29S7,97.39,7,97.85c0,.1,0,0,0-.09l-.09-.55V96l-.06,1s0,0,0,.15,0,.74,0,.89a3.08,3.08,0,0,0,0,.47c0,.09.05-.06.08.16s0,.78,0,1.29c0,.16-.08.52-.1-.73,0-.11,0,0,0,.27,0,.7-.06.77-.09.49s-.05-.33-.07-.54,0-.26,0-.52c0-.72,0-1.38-.08-1.19s-.13.8-.19,0c0-.43,0-1,.06-1.41,0-.18,0,0,0,0s0,.38,0,.32,0-.4,0-.65,0-.67,0-1l-.1-.4,0-.72v.36s0,0,0-.1,0-.62,0-.56,0,.52,0,.93c0-.18,0-.34,0-.53,0-.9,0-.84.05-.6,0,.51.06.5.1.18a.55.55,0,0,1,.1-.29c0-.38,0-.64,0-.92,0-1,0-1.27,0-1.77s0-.84-.06-1.37c0,.81-.07-.07-.11-.54,0-.08,0-.05,0-.08s-.06.81-.09.15a3,3,0,0,0,0,.43c0,.07,0-2,0-.31,0-.8-.08-1.31-.13-.63,0,.43,0,.37-.06-.47,0-.12,0-.19,0-.12,0,.29,0,1.91,0,2.29s.05.91.08,1.38l-.09,1.29c0-.57,0-.93,0-1.38s0-.82,0-1.44c0-.43,0-1.08,0-1.64,0,0,0-.58-.06.3,0,.18,0,.21,0,.43l0-3.28,0-.13,0-3.4A1.52,1.52,0,0,1,6,81.69c0-.06,0-.12,0-1.77,0,.12-.06.33-.09.31s0-.45,0-.72a11.9,11.9,0,0,0,0-1.32l0-2.56,0,.24a41.22,41.22,0,0,1,0-4.15c0,.89.05.62.09.6s0-.43,0-.53L6,70.09c0-2.42,0-2.42.07-2.46v-.83s.08.55.09-1.12l-.09-.47c0-.85,0,0-.05-.1l0-1.93V63l0,.74,0-.9c0-1.27,0-1.65.06-1.17a4,4,0,0,0,.07.4c0,.29.08.45.13.32a5.2,5.2,0,0,0,0-1.07c0-.4,0-.88,0-1.24s0-.61,0-.18c0,.19,0-.17-.05-.3v1.11s0,.14,0,0c0-.39,0-.89,0-1.34v-.2L6,57.57s0-.11,0,0c0,1,.07.17.11-.23,0-.12,0-.66,0-1s0-.56,0-.59,0,.22-.05.31,0,0,0,0v-.36c0-.08,0-.17.06-.24a3.15,3.15,0,0,0,0-.92c0-.85,0-.59,0-.7s0-.36-.05-.55c0-.43,0-1.16,0-1.24,0-.26,0-1.33.06-2.46a25.35,25.35,0,0,1,0-2.71l-.05-.38c0,.57,0,2.23-.08,1.55,0-1.27,0-2.39.05-3.18,0-.08,0-.55,0-.83l0,0,0-1.88v.16c0-1.89,0-1.86.08-2a5.32,5.32,0,0,0,.13-.65c0-.6,0-.94,0-1.32s0-.77,0-1.19c0-.6,0,.25-.05,1.17V37.24l-.09-.18,0-1.59,0,.93,0-.73c0-.19,0-.35,0-.55s0-.67,0-1c0-.09,0-.2,0-.22a4.72,4.72,0,0,0,0-1.17s0-.4-.06.35,0,.4-.07-1.31c0-.42,0-1,0-2.23,0-.67,0-1.54,0-2.33,0,.14,0,.19,0,.34,0,.53,0-.65.06-.89,0,0,0-.36,0-.56l0,.53,0-1.54c0,.18.06.52.09.45s0-.59.07-.91V24.3l0-.16v-.23a2.3,2.3,0,0,0,.07-.45c0-.47,0,.17.05.63,0,.16,0,.2,0,.1,0-.54.07-2.11.06-3.76a4.93,4.93,0,0,1,.13-.53c0-.09.08,0,.12,0a1.51,1.51,0,0,1,0,.3c0,.76,0,.78,0-.47.08,0,.16.86.24-.42,0,.84,0,1.47,0,2.12s0,1.27,0,2.22c0-.83.07-1.53.1-2.25,0-.07,0-.32,0-.43,0-1,0-1.74,0-2.52l.05-.18c0-.15.1-.29.14-.48,0,0,0-.22,0-.38,0-.31,0-.71,0-.22,0,.23,0,0,.05,0,0,1.28,0,1.28,0,3.5,0-.06.07,0,.1-.24s0-.84,0-1,0,.05.06-.14c0-.38,0-1.31,0-2.53l0,1.08-.06-.41v-.3c0-.1.06-.25.09-.26s0,.38,0,.46,0-.11,0-.21c0,0,.06.15.09.17s.1,0,.15,0,0,1,.07.42c0-.81.08-.52.13-.44s0-.14,0-.7l.11,1v-.79c0,.09,0,.24,0,.25s.06.07.07,1c0,.11,0,.1,0,.06s0-.2,0-.33V16.44h.1l0-1.67-.06.3,0-3.66c0,.31,0,.49,0,.72,0,.62,0,1.63,0,1.81,0,.52,0,1.27,0,2l0-1v2l0,.6,0-2.2.07.42c0-.49,0-.87,0-1.26s0-1,0-1.05,0-.18.06.1,0,.56,0-.11,0-.65,0,0c0,.27,0,.5,0,.53l0,1.78s0,.12.07-.09,0-.86,0-.93l0-.95,0-.57,0,.84a8.82,8.82,0,0,1,.07-1.85v-.34l0-.45c0-1.15,0-1.54.07-1.07,0,1.42,0,2.36,0,3.41,0,.17,0,0,0,0,0,.85,0,.85,0-.64l0-.21c0-.56,0-1,0-1.49,0-.24,0-.54,0-.67s0,.05,0,.16c0,.42.1-.34.11-1.29v2l0,.75v1.45c0-.06.1-.65.13.75V12.69l.1.46v1c0,.09,0,.23.06.21s0-1,0-1.91l.09.76V11.62c0,.16,0,.23,0,.39,0,.84,0,.56,0,.37s0-.7,0-1.07c0-.14,0-.29,0-.36l0-.35v1.33c0-.21,0-.38,0-.64s0-.69,0-1.06c0,.11,0,.23,0,.34s0,.37,0,.55c0-.17,0-.32,0-.5s0-.5,0-.75,0-.51,0-.8v1.06c.07.18.07.18,0,.89,0-.07,0-.24,0-.17s0,.62,0,.69c0,.3,0,.72,0,.71a1.8,1.8,0,0,0,.19-.38v-1c0-.6.07-.42.09.24,0,.27,0,.49,0,.73V10.64c.05.61.1.45.16-.17l.06.44c0,1.32.08-.33.12.33V9.85c0,.21,0,.35,0,.46s0,.22,0,.32c0-.55,0,0,0,0s0,.21.06,0,0-1.08,0-1.65V8.48l-.08.2a.29.29,0,0,1,0-.09c0-1.12,0-1-.08-.65,0-1.33,0-1.75-.06-1.29,0,.16,0,.29-.05.47V5.9l-.1.39V7.41c0-.49,0-1.12,0-1.45a3.94,3.94,0,0,1,0-.67s.09.07.13.13c0-.73,0-1.32,0-1.92,0-.31,0,0,0,0a.15.15,0,0,0,0,.07l0,.61V3.81l0,1.46h.21V3.77h0V5.14a1.71,1.71,0,0,0,.12.43s0-.47.05-.72l0-.82,0-1.83a3.58,3.58,0,0,0,0,.37c0,.35,0,.8,0,1.39S11,4.47,11,3.77c0,.51.06.15.06-1.14,0,0-.06.21-.09,0s0,1.54-.07,1.15c0-.92,0-1.25,0-1,0,.06,0,.17,0,.1,0-1-.07-.45-.11-.53s-.06.14-.09.19,0-.1,0-.16,0-.27,0-.18c0,.79-.08.18-.12.19s-.06.11-.06,1.67c0-.31,0-.53,0-1.15,0-.09,0-.46,0-.47s0-.27-.07-.21,0,.58,0,1l0,.3v.39h.07c0,1.29,0,.85-.07,1.1V7L10.13,6l0-.72a3.83,3.83,0,0,0,0,.46c0-.3,0-.82,0-1.27,0-.2,0-.32-.06-.46a5.24,5.24,0,0,0-.06,1.11c0,.83,0,2,0,2.32a3.22,3.22,0,0,1-.11.42,2.21,2.21,0,0,1,0-.3l.08-3s0-.08,0-.11l0-1.06L10,3.32s0,0,0,0l0,1.29V3.26l0,.54s0-.38,0-.44,0,.27,0,.43,0,.49,0,.65,0-.32,0,.57c0-.18,0-.34,0-.55,0-.43,0-1.71-.06-.91,0,.11,0,.32,0,.46l0-.69s0-.08,0-.11,0-.07,0-.06.08-1.44.12-.58c0,.36,0,.52,0-.21a1.74,1.74,0,0,1,0-.19c0-.13,0-.23,0-.44s0-.55,0-.84L10,.45l0,.77,0,.06c0,1,0,1.1.13.79L10,0c0,.8.05,1.44.08,2.05,0,.08,0,.14,0,.08,0-.95.09-.73.13-.47,0,.11,0-.17.06-.17s0,.13.07.2,0,0,0,0c0-.89.05-.06.07-.22s0-.37.07-.6c0,1,.06.77.09.78s.11-.39.16-.59a1.48,1.48,0,0,0,.07-.24c0,.41,0,1,0,.49,0-.13,0,.37,0,.34s.1-.35.14-.53,0-.09.05-.15c0,.28,0,.61,0,.65,0,.61.07,1.36.07,2.79,0,.37-.05-.78-.06.79h.18V4a.77.77,0,0,1,.07-.2s0,.24,0,.38,0,.25,0,.41,0,.28,0,.49h.05V4.27c0,.08.07-.59.08,1.24l0-.89v.66c0,.57,0-.6.07-.83,0-.07,0-.2,0-.16s.05.38.08.45c0,.28,0,1.53,0,.1,0-.27,0-.3,0-.3s0,.13.07.16.05,0,.08,0V4.42c0-.44.08.89.1-.89,0,2.1,0,2.63,0,4,0-.49,0-1-.08-1.44,0-.06,0,.28,0,.37s0,.93-.06.41c0-.22,0,.12-.05.09s-.12-.27-.19-.39,0,.06,0,.2c0,.29,0,.65,0,1.07l0,.24c0-1.34,0-1.41,0-1.14,0,0,0,.09,0,0-.07-.75-.14.34-.21,0a2.51,2.51,0,0,0,0,.4c0-.21-.06-.5-.09-.63s0-.07-.07.16-.06-.1-.09-.21,0-.19-.06-.29c0,.82,0,1.78,0,.42,0-.26,0-.09-.05-.12,0,.81,0,1.53,0,2.24,0,.22,0,.42,0,.77V8.36l0,1.42L11,11.5,11,12.83c.07.25.07.25.08-.93,0-.23.06-.44.09-.64,0,0,0,0,0,0,0,.59.06.51.07-.75V12s0-.06,0-.05,0,.07,0,.1v1.76l.14-.6c0-1.34,0-1.44,0-1.31,0-.72,0-2.25,0-2.69a9.62,9.62,0,0,0,0,1.57V9h0c0,.41,0,.85,0,1.23,0,.89,0,1,.07.74s.05.13.08.21c0-.78,0-1.34,0-.45,0,.52.06.28.1.3s0-.58,0-.88c0-.51,0-.71,0-.19,0,.16,0,.3,0,.24,0-.25.05-.11.08.44s.05-.09.07.71c0-.85.08.47.1-.94,0,.3.05-.45.08-.87,0,0,0,0,0,.07l0,1.22c0,.63,0,1.09,0,1.52,0,.22,0,.46,0,.58s0-.25,0-.36c0-.28,0-.56,0-.8s0-.16,0-.28V11c0,1.23.06.24.09.32a17.46,17.46,0,0,1,.06-2c0,.39,0,.66,0,.93s0,.61,0,1l0,.42,0,.75c0,.39.05.68.05-.51l0-.07V9.37l.06,1.24,0,.09v2.16s.06.26.07,0c0-.92.08-1.29,0-3.06h.16l0,2.65h.05v-.78l0-.08,0-1.68c0,.3,0,.41,0,.63s0,.63,0,1.08l-.06.4c0,1,0,.9.07.93a8,8,0,0,0,0-1.13s0-.55,0-.61a2,2,0,0,1,0,.37l0,.09q0,2.44.12,1.64V12.14l.05-2.23,0,.22c0,.91,0,1.76,0,2.63,0,.09,0,.4,0,.39a.49.49,0,0,0,0-.21c0-.09,0-.31,0-.48,0,.55,0,.39,0-.58l.05.5V10.72l.09,2.37V9.79c0,1,.05,1.93.08,2.75,0,.21,0,.17,0,.21l0-1.85c0,.16.08,1.11.11-.12,0-.16,0-.58,0-.79l0-1.79c0-.06,0,.9.08-.2v.9h-.05v2l0-.74s0,0,0,0a.86.86,0,0,1,0,.21c0,.25,0,.54,0,.78s0,.51,0,1a18.18,18.18,0,0,0,.09-2.45l.05.61,0,1.35c0,.13,0,.2,0,.18s0-.49,0-.41,0,.69,0,.87a1.37,1.37,0,0,0,.05.31V12.3l0-1.38.07-.44c0,.62,0,1.27,0,1.88,0,.3,0,.54,0,.81l0-1,0,.67,0-2.58,0-.66,0-.53,0-.21c0,1.35,0,1.38.06.34,0,.16,0,.35,0,.47a2.37,2.37,0,0,1,0,.35.23.23,0,0,0-.06.16c0,.06,0,.46,0,.7s0,.63,0,.61a2.66,2.66,0,0,0,.1-.4l.07,1.08,0-2.4.11.22c0,.14,0,.31,0,.36a8.16,8.16,0,0,0,0,1c0,.5,0,.94.06,1.29,0,.51.06.92.1,1.37a31.65,31.65,0,0,0,0-3.33l0-.35,0,.56c0-.11,0-2.4,0-1.62v1.89c0,.58,0,1.12.05,1.75s0,.45,0,.5a5.49,5.49,0,0,0,.05-1.31.46.46,0,0,1,0-.2s0,0,0,0l0,1.52.11-.75v-.7a1.33,1.33,0,0,1,.08.24,4.33,4.33,0,0,1,0,.45c0,.62.07.41.09-.83,0-.12,0-.22,0-.45a14.11,14.11,0,0,0,.07,1.9s0,.14,0,.28,0,.57,0-.45c0,1.19.08.84.12-.8l0,.44V11.45c0,2,0,2.26.1,1.77,0-.05,0,.22,0,.17s0-.47,0-.5c0-1,0-1.43,0-2.25,0,.11,0,.22,0,.33,0,.77,0,1.86,0,2.25s.08.61.11.33,0-.07.07-.12,0,0,0,0v-.9l0,.89,0-2.16c0-.14-.09-.32-.13-.32s0,.4,0,.57c0-.52,0-1.09,0-2.36,0,1.5.05,1.85.09,1.1,0,.8,0,.8.09.28V9.36l.06.33L16.11,11l0,2.34.09.42c0-1,0-1.8,0-2.55s0-.6.06.06l0,1.39V10.75c0,.15.06.7.08-.31,0-.07,0-.15,0-.12,0,.57,0,1.17.07,1.75,0,.2,0,.37,0,.7V11.62c0,.29.05.58.08.9,0,.12,0,.27,0,.5s0,.45,0,.7,0,.78,0,1.27h.09c0-.32,0-.69,0-.83,0-.72,0-1,0-1.54,0,.36,0-.42,0,.46a.41.41,0,0,0,0,.11l.16.26V12.32L17,13c0,.25,0,.68,0,.65s0-.56,0-.87v0c0,.18,0,.41,0,.54s.05.42.08.64a14.44,14.44,0,0,0,0-2.16s0-.38,0-.58v-.34c0,.25.06.42.08.78,0,.15,0,.69,0,1,0,1.5,0,1.5,0,1.21,0,0,0-.06,0-.12,0-.77,0-1.58,0-2.26l0,.41c0,1.35,0,2.4.06,1.72,0,.44,0,.95,0,1.37,0,.06,0-.27,0-.46,0,.76,0,1.19.07.85V13.75l.07-.52-.05-1,0-1.22,0,1c.09.24.18,1.34.27-.42,0,.67,0,1.17,0,.26l0,.77V8.71l-.07.69,0-1a6.1,6.1,0,0,0,0-1c0-.35,0-1.06,0-1.39,0-.05.05,0,.08-.17s0,.07,0,.76l-.1-.29a8.64,8.64,0,0,0,0,1.42s0,.49.07.77,0,.32,0,.46c-.07.85,0,2.52,0,4l.1-.26v.39l-.06.45,0,2.33c0,.1,0,.23,0,.39,0,.4,0,.09.06-.72,0-.64,0-1.16,0-1.73V12.71l0,.35v1.18c0,.07,0,.16,0,.21.1.7.09.62.09-1.78a.23.23,0,0,1,0,.07s0,.13,0,.19c0,.41,0,.69-.05,1.2,0,.19,0,.89,0,1.35l0-1.08,0,1.56.07-1.45v-.43l-.06.12v-.76h.21l0,.88v.22h0v-.71h.06l0-1.3v-.11l0,2h-.07v2.19h0v-1.1l.11,1.31,0-2.08,0,.74,0,.13v1.75c0-.34,0-.51,0-.84s0-.71,0-1.07c0-.06.05.22.06-.79a.47.47,0,0,1,0-.17L19,16v.31c0-.21,0-.38,0-.64,0-.64,0-.91,0-.62,0,.06,0,.09,0,0,0-.85.06.07.09-.32v-.92a.57.57,0,0,1,0,.18c0,.29,0,.15,0-.52s0-1.35.05-1.34v2.55c0-.19,0-.37,0-.57s0-.47,0-.63,0-.22,0-.33l0-.66h0V11c0,.54,0,.93,0,1.2,0,.53,0,1,.07,1.47,0-.66.05.33.07-.67a.54.54,0,0,1,0-.17l0,2.81.09.25c0-1.25,0-1,0-1.12V12.14c0,1.26.08.95.12.12v1.43l.08-.36c0-1.26,0-1-.07-1V12a1.77,1.77,0,0,1,.11.52c0,.3,0,.52.07-.26,0,1.53,0,1.55.08.18,0,1,0,1.1.05,1s0-.59,0-1.1l0,2.28,0-.6c0,.6,0,1.3,0,2s0,.87.05.38a1.41,1.41,0,0,1,.06-.38c0,.09,0-.1,0-.1,0-.73,0-1.66,0-2.47,0-.23,0-.44,0-.67v-.85c0,.8.09.93.14.71a3.34,3.34,0,0,1,0,.67c0,.1-.07.28-.11.29s-.05-.29-.08-.3,0,.32,0,.5l0,.81c0,.89,0,1.24,0,2.06,0,.22.09-.34.11-1.2s.05-.5.07-1c0-.27,0,0,.06-.07s0-.14,0-.22c0-.23,0-.47,0-.68s0-.4,0-.6v-.17l.06,1.28,0,1,.08,1.38,0-1.48V16l0-.42v1l-.07.79c0,.25,0,.57,0,.62a.57.57,0,0,0,.09.23,1,1,0,0,0,0-.21c0-.09,0-.26,0-.39s0-.19,0-.21a1,1,0,0,0,0,.16c0-1,0-1.33,0-1.17s0,0,.05,0c0,1.36.09,1.77.13.88,0,1.14,0,1.18.07.37,0-.14,0-.06,0,0s.05.79.08-.32c0-.88.06-.21.09-.2s0,.47.07-.24c0-.1,0,0,0,0h0v.52s0,.1,0,.07c0-.8.07-.49.11-.45s.11-.15.16,0,.09-.15.13.54c0,.47,0-.46,0-1.14A4.9,4.9,0,0,0,22,15.6l0,.21c0,.05,0,.1,0,.14,0,.86,0,2.1,0,2.26s.1.19.15.23,0-.22,0-.48l0,1.81c0,.06,0,0,0,.14,0,.46,0,.8.05,0,0-.64,0-1.39,0-1.67,0,0,0-.1,0-.26h.12v-1.4h0v1.7l0-.26c0,.24,0,.45,0,.66s0,.64,0,1l0-.62v.06c0,.36,0,.71,0,1.1s0,.63,0,.95a.94.94,0,0,0,0-.19c0-.32,0-.71.06-1.1,0,.34,0,.81,0,1.21,0,1.21.07.3.1.39s.06-.08.07-1.06c0,0,0,.24,0,.17a4.63,4.63,0,0,0,.07-1,4.26,4.26,0,0,1,0-.51l0,1.84.06.67V20.17H23v1.25h0V20.14c0,.31,0,.63,0,.93s0,.56,0,.85l0-.75h.05l0-1.56c0,.44,0,.66,0,1,0,.72,0,.71,0,.57,0-.34.07-.24.09.61a12.54,12.54,0,0,0-.07-2.31l0-.57c0-.15,0-.24,0-.48,0-.62,0-.58.06.15a4.6,4.6,0,0,0,0,.53c0-.1.07-.35.1-.48a1.85,1.85,0,0,1,.1-.27l0,2.31.13-.49,0-1.65a3,3,0,0,0,.18-.34s0-.33,0-.45a17.09,17.09,0,0,1,.06-2.07s0-.18,0-.27c0,.52,0,1.29,0,1.5s.07-.29.09-.82l.06.45v2.79a12.38,12.38,0,0,0,.05-1.73V19.2c0-.3,0-.61.05-.79s0,0,0,0V16.27s0,.07,0,.07,0-.1,0-.09,0,.15,0,.16.07.06.1,0,.09-.24.14-.32a3.9,3.9,0,0,1,0,.49c0-.64,0,.15,0,.58,0,.15-.07-.32-.11.24s-.09-.09-.14-.22c0,.84,0,.39-.07.12l0,.89,0,.63,0,.52c0-.21.06-.81.08-.55,0,.64.09-.47.13-.13v1.23s0,.11,0,.1,0-.14-.07-.09,0,.36,0,.56,0,.46,0,.54a.3.3,0,0,0,.06.16v.34s-.08-.07-.11,0,0,.64,0,1c0,.18,0,.69,0,.67a2.66,2.66,0,0,0,.12-.55,9.08,9.08,0,0,0,0-1.58l0-.15V19.79c0-.13,0-.23,0-.41s0-.38,0-.53a2,2,0,0,1,0-.26c0,1.09.07.34.11.37v.09c0,.72,0,1.14-.05.85a1.09,1.09,0,0,0,0-.15c0,.2,0,.43,0,.6,0,.61,0,1.23,0,1.78s.06.39.09.06.08-.74.1-.33c0,.73,0-.43,0-.67,0,1.24.13,1.5.15.38,0,.52.09,0,.11-.73l0,.81V22a.34.34,0,0,0,0-.09s0-.25,0-.2c0,.57,0-.29.06-.78l.06.31,0,.74,0-.23,0-.23c0,.26,0,.53,0,.58s0-.36,0-.56c0,.18,0,1.09,0,.34,0-.12,0,0,0,0s.08-.33.12-.15.09-.54.12.49c0,.09,0,0,0,0s0-.31,0-.26c0,.81.07-.2.11.07s.08-.09.13-.18v.67l.23.43v.26a1.84,1.84,0,0,1-.17.32s-.07.07-.11-.07-.11.62-.16.79-.1,0-.14,0-.07.32-.1.41-.05,0-.08,0,0,.33,0,.5,0,.57,0,.58.17.27.25,0,.17-.61.26-.24.11-.09.17-.3,0,.19.06-.72c0-.51.08-.31.11.58.09-1.5.18-1.68.28-1.42v.62l-.22.44v.88c0-.08,0-.16,0-.22a.72.72,0,0,1,0,.13L26.4,26c0,1.33,0,.68.06.72s.06-.15.09-.11c0,.21,0,.36-.05.66s0,.59,0,.83c0,0,0-.1-.07-.1s0,.49,0,.68,0,.63-.06.81,0-.09,0-.18,0-.26-.05-.4v.35c0,.34,0,.73,0,1s0,.36,0,.6c-.05,0-.1-.62-.15.66,0,.39,0,.23-.07.35-.06.3-.13.59-.19.93,0,.05,0,.35,0,.49s0,.23,0,.33l0,.38c0,.2,0,.58,0,.58s0,1.28,0,.18c0,.2,0,.5,0,.5s.06-.08.09-.19c.09-.34.18-.77.27-1,0-.08.06-.71.08.48,0,.24,0,0,.06-.11s0-.15.06-.24,0-.23,0-.18a6.29,6.29,0,0,1,0,.66l.11.4c0,.91,0,.77,0,.69s.05-.16.08-.23v.3l-.09,1.17.05,1v.29h.06a9.43,9.43,0,0,0,0,1.46l.2-.63v.28a.51.51,0,0,0-.09.31,22,22,0,0,0-.13,2.88l0-.61c0,.21,0,.5,0,.6,0,.29,0,.5-.05.73,0-.65,0-1,0-1.39,0-.16,0-.4,0-.38s0,.26,0,.4c0,.5,0,1.05,0,1.5V44a.53.53,0,0,0-.09.25c-.09.64-.18,1.34-.27,2.06,0,.05,0,.54,0,.68s0,.65,0,.64a2,2,0,0,0,.09-.31c0-.06,0-.56.06.44,0,0,0-.18,0-.31v.91l.1-.44,0,.89s-.08,0-.12,0a7.44,7.44,0,0,0,0,1.15c0,.27,0,.67,0,1v-.91l0,1.06c0,.68,0,1,.05.93a.65.65,0,0,1,.27-.22,2,2,0,0,1,0,.3l-.15.75a4.07,4.07,0,0,0,0,.77,4.15,4.15,0,0,1,.14.49v.33a.49.49,0,0,0,0,.08,3.18,3.18,0,0,0-.16.48c0,.23-.1.85-.15.49,0-.06,0,.46,0,.71v.32l.07.12V57l-.07,1.07v.33l0,.16c0,.14,0,.26,0,.33s0,.29,0,.44,0,.29,0,.28a1.58,1.58,0,0,0,0-.27c0-.79,0-1,.07-.83s0,.27,0,.4c0,.34.05.77.09,0,0-.32,0-.21.06-.31a8.41,8.41,0,0,0,0,1.43l-.26,1.39c0-.16,0-.34,0-.4s0,.3,0,.44,0,.21,0,.23c0,.22-.08.44-.13.64s-.11.47-.16.74c0,.05,0,.24,0,.38s0,.3,0,.29a3.27,3.27,0,0,0-.05,1c0,.31,0,.41-.06.81s0,1.16,0,1.48-.06.6-.09.84c0,.07,0-.11,0-.23,0-.32-.06.26-.06,1.15.06,0,.11.13.17-.7,0,.45.06.73.09.43a2,2,0,0,1,.05-.38c0-.06.07,0,.1,0s0,.33,0,.33a2.21,2.21,0,0,0,.05-.34c0,.3.07.47.12-.13,0-.31.05-.83.08,0,0,.26,0,0,.06,0v1.15a2,2,0,0,0-.09.31s0,.36,0,.55v.3l0,.07c0,1.39,0,1.39-.09,1.29v-1l0,1s-.1-.09-.15,0a6.06,6.06,0,0,0-.14.65,10.11,10.11,0,0,0,0,1.37s-.09,0-.13,0,0,.42,0,.65,0,.88,0,.87.05.27.08-.46c0-.29,0-.09.05-.19s0-.25,0-.4l.1.14v.33l-.18,1.21v.21c0,.38,0,.74,0,1.14,0,.24,0,.61,0,.8s0,.44,0,.65c0,.45-.05,1.06,0,2.42L26,81V79.69c0-.21,0-.41-.06-.5s0,.21,0,.23a1.82,1.82,0,0,1-.21.33s0-.19-.07-.1,0,.46,0,.79c0,.14,0,.56,0,.73a.87.87,0,0,0,0,.22c0,.09,0,.23.05.19a4.47,4.47,0,0,0,0-.49c0-.14,0-.4,0-.3l.1.33h0c0,.14,0,.37,0,.39,0,.3-.07.57-.1.87,0,.12,0,.29,0,.44v.41s0,.06,0,.06.07,0,.1,0,0,.35,0,.63l0-.34c0,.87,0,1.15.07.56,0-.18,0,.27,0,.32s.06,0,.09.09,0,.24.07.25,0-.19.07-.13.08-1,.13-.29c0,0,0-.38,0-.4a1.69,1.69,0,0,1,.06.24c0,.06,0,.26,0,.39s0,.25,0,.24,0-.14,0,.8l0-.61,0,.55c0-.95,0-1,.07.09l-.29.61c0,.05,0,.22,0,.45s0,.53,0,.87c0,.09,0,.48,0,.81l0,.46,0-1,0,1,0-1.27c0-.43,0-.13,0,.89h-.15c-.06,0-.12.13-.18-.18a13.31,13.31,0,0,0,0,1.7l-.07.34v-.19l.07-.41V88.29c0,.12,0,.27,0,.32s0,0,0,0,0,0-.05.2,0,.7,0,1.08l0-.81,0,1.17a21,21,0,0,1,0,2.53l.09-1v.19c0,.53-.05,1.07-.08,1.57,0,.09,0-.07,0,0s-.07.28-.11.46c0,0,0,.31,0,.64h.1s0,.06.07,0,0-.28.07-.32,0,0,.05.14a5.43,5.43,0,0,1,.06.59c0,.22,0,.73,0,1.35l0-1.13v.29s0,.13.05.1,0-.29,0-.29.08.15.13.17,0-.23,0-.36v.31c0,.12,0,.27,0,.35s-.06.36-.08.5,0,.17-.06.25-.11.42-.16.57,0-.13-.05-.25l0,1.06a1.34,1.34,0,0,0,0-.16c0,.16-.05.63-.07.4,0-.56-.07-.11-.11.06s-.09.33-.14.34-.11.44-.17.56,0-.22-.08-.37c0,.91,0,.35-.08.4s0-.2,0-.11c0,.8,0,.41-.07.39s0,0,0,0c0,.67-.06.44-.08-.38l0,1.34a3.51,3.51,0,0,0,0,.39s.06-.19.09-.18,0,.37,0,.39.07-.06.11-.08.05,0,.08,0v.31l-.1.53c0,.64,0,.64,0,.71l0,1-.11-.49,0-.61V102l-.06,1,0-.57v1a5.38,5.38,0,0,1-.07.6s-.07-.25-.1-.27a2.87,2.87,0,0,0,0,.47c0,.06,0,.38,0,.58s0,.29,0,.27,0-.24,0-.26.07.26.1.27.1-.1.15-.14a4.64,4.64,0,0,0,.06-1c0,.72.07,1.28.12.76v1.18a3.86,3.86,0,0,0-.17-.48,2.51,2.51,0,0,0-.05.42l0-.83,0,1.75c0-.32,0-.69-.07-.86s0,.14,0,.18a2.54,2.54,0,0,1-.12.23h0c0-.15-.05-.31-.09,0s-.06-.2-.07,1.18v-1s-.08-.08-.11.06,0,.76,0,1.18c0,.66,0,.8,0,.72s0-.32,0,.54l0-.42c0,.33,0,.33,0-.17a16.09,16.09,0,0,0,.07,1.82,1.84,1.84,0,0,0,0-.24c0,1.09.05.55.08.47s.13-.58.19-.82c0-.08,0,.08.07.15v.73l-.17,1.85v1.1l0,.45s0,0-.05.09-.06.48-.09.75c0-.11,0-.37,0-.58s0-.4,0-.38,0,.28,0,.42l0,.94,0,1v.33l-.08.11c0,.65,0,1.54,0,2,0,.1,0,1.11,0,1.7v-1l-.06-.11,0-2.64a4.48,4.48,0,0,0-.07.61c0,1-.06,1.67,0,2.82s-.09.3-.12-.45c0-1.08-.07-.39-.11-.49l0,1v.15l0-.86v-.34c0,.25-.09.53-.14.71a2,2,0,0,1,0-.4c0-.1,0-.36,0-.55l0,.62c0-.29-.06-.37-.08.59,0,.44,0,.82-.05.26,0-.14,0-.07,0,0,0,.39-.07.83-.11,1.29v-1c0-.08,0-.19-.07-.24s0-.06,0,.08,0,.2-.07-.19c0-.12,0-.07,0,0s0,.11,0,.25l0-1.38a4.11,4.11,0,0,1-.09-.59c0-.28,0-.51-.06-.23,0,.49-.1-.29-.15.66,0,.19,0-.05,0-.36,0-.58,0-.1,0,.2,0,.72,0,.46,0,.21s0-.37-.06-.54v.33l-.06,1.6v-1.11c0-.25,0-.58,0-.63a3.31,3.31,0,0,0,0,.42l-.09-.29c0,.91,0,2.08,0,2.42,0,0,0,.63,0,.84,0,.73,0,1.27,0,1.93a15,15,0,0,0,0,1.7,16.29,16.29,0,0,0-.16,2.2v.39l.16-.33v.27a3.47,3.47,0,0,0-.07.53c0,.27,0,.91,0,1.5,0-.8-.06-1.07-.09-.36,0-.29,0-.62,0-.7s0-.1-.06,0,0,.49,0,.77,0,.73,0,1.1c0,.64,0,1.29,0,2.09l-.05-.87v-.91a4.16,4.16,0,0,1-.08-1s0-.06,0,0c0,.47,0,.95,0,1.45,0,.09,0,.26,0,.53a1,1,0,0,1,0-.23c-.05-1.23-.12-.37-.17-.82,0-.07,0,.81,0,1.42,0-.51,0-1.28,0-1.49a8.06,8.06,0,0,1,.06-1.19c0,.08.06.27.07-1.09a2.49,2.49,0,0,1,0-.41c0-.11,0-.17,0-.35s0-.59,0-1v-.65c0,1,.05,1,.09.39,0-.22,0-.08.06-.12,0-.36,0-.62,0-.92s0-.77,0-1c0-.78,0-1.47.06-2.22,0-.11,0-.45,0-.51a3,3,0,0,0,0-.35c0-.06,0,0,0,0,0-.53,0-.92,0-1.31,0-.89,0-1.7,0-2.24,0-.1,0-.55,0-.77a1.08,1.08,0,0,0,0-.27s0,.05-.07.1v2.54a5.18,5.18,0,0,0,0,1.31c0-.25,0-.67,0-.82s0-.2,0-.17a3.57,3.57,0,0,0-.1.37v.67l-.09-.74c0,1.21.06,1.46,0,2.59l-.05-2.13c0-.1-.06-.3-.08-.22s0,.59,0,.91v.27l-.05.5,0-1.77.11-.3c0-.57,0-1,0-1.27a1.57,1.57,0,0,0,0-.35s0,.06,0,.17c0,.48,0,1.19,0,1.78,0-.31,0-.9-.05-.88a6.12,6.12,0,0,0-.08.73s0,.24,0,.29,0,.3,0,.28,0-.28.07-.44v1.92a2.07,2.07,0,0,0-.13.76c0,.79-.09-.93-.12.66v-.15c0-.88,0-1.78,0-2.64a15.52,15.52,0,0,0,0-1.69s0,0,0,0l-.05,1.46v0c0-.2,0-.57,0-.58a.54.54,0,0,0-.15-.23,1.76,1.76,0,0,0,0,.31,16.52,16.52,0,0,0,.07,1.94v-1.07l0,1.69a1.89,1.89,0,0,1-.07.25s0-.06,0-.22c0-.81,0-.5,0,.11,0,.26,0,.47,0,.88a8.34,8.34,0,0,0,0-1.65v-.53c.06.47.06.47.06-1.25,0,.07-.06.15-.1.21s0,0,0,0,0,1.36,0,2a8.64,8.64,0,0,1,0,1s0,.62,0,1l0-.58,0,1.4v-.19l0-1.69v-.26l0,.34c0-.54,0-.53,0-.27a1.86,1.86,0,0,1-.06.28v-.89c0,.14.05-.32,0-1.1h-.11v-.21l.07-.53a11.67,11.67,0,0,1,0-1.85c0-.9,0-1.72-.08-1.45,0,0,0,.06,0,0,0-1.38,0,0,0,.19,0-.69,0-1.1-.07-.59,0,.25,0-.23-.07-.38v1l0-.51,0-2c0,.12,0,.23,0,.35,0,.66,0,1.54,0,1.87,0,1.35,0,1.56,0,1.58s0,.23.07-.49c0-.2,0-.1,0,.08s0,.14,0,.26,0,.4,0,.62a2.39,2.39,0,0,0,0,.26c0-.08,0-.29,0-.41s0-.45,0-.49.05-.15.08,0l0,1.13,0-.27c0,1.12,0,1.12.08,1.25,0,.53,0,1.07-.05,1.55a5.1,5.1,0,0,0,0,.83,10.45,10.45,0,0,1,0,1.19c0,.42,0,.76,0,.16,0-.1,0,.34,0,.53l0,1.45s0-.07,0,0,0,.36,0,.54,0,.42,0,.51a1.57,1.57,0,0,1,.06.3c0,.29,0,.38,0-.25,0,.08,0,.38.06.17,0-.46,0,.18,0,.7l-.06.13c0,1.19,0,1-.07.93s-.08-.61-.11-.65-.09.24-.14.37c0,1.71,0,.25-.07-.13,0-.11,0,.15,0,0s0-.51,0-.36c0,.3,0,.88,0,1.49a12,12,0,0,0-.07-1.9c0,.07,0,.55,0,1l0,.26,0,.72-.08-2.16v1.47c0-1.47,0-.5-.06-.43l0-1.31,0,.66c0-.83,0-.82-.07-.45,0,.16,0-.17-.05-.1s-.07.66-.1.37c0-.05,0,.26,0,.41l0,.64v-1.45a1.8,1.8,0,0,1-.22-.61c0-.2-.06.33-.08.75,0-1-.1-1.27-.15-.48,0,.19,0,.76,0,1.29l0-1.33-.06.74H19c0-.62-.09-.59-.12.26,0-.9-.08-.65-.09.53l0-.15c0-.31,0-.61,0-.88s0-.44,0-.66c0,.2,0,.44,0,.59s0,.27,0,.36v-1c0,.18,0,.33,0,.55,0,1.22,0,.35-.06.55,0-.5.06-.42,0-1.47,0-.27,0-.44,0-.74v1s0,0,0,0c0-.79-.09-1.09-.13-.66-.06.64-.11.32-.16.08l0,2.39c0-1.55-.06-.69-.09-.63a2.92,2.92,0,0,0-.08.35l0-1.28,0-.11c0,.19,0,.35,0,.46a9.14,9.14,0,0,1,0,1.58c0,.11-.08.19-.12.28,0-1,0-1.51-.09-1.38s-.05.21-.08.32c0,.53,0,1.09,0,1.59,0,.25,0,.4,0,.59,0-.3,0-.64,0-.89a12.08,12.08,0,0,0,0-1.24c0-.86-.08-.28-.12-.16s0,.07,0-.07c0-.68-.07,0-.11,0s-.07.72-.09-.29a2.1,2.1,0,0,0,0,.36l0-1c0,.52,0,1-.05,1.47,0,.18,0,.27,0,.16,0-.55-.08-.51-.12.08,0-1.33,0-1.36-.06-.31l-.07.17c0,.06,0,.14-.06.21v.29c0-.28,0-.62,0-.83s0-.36,0-.25c0,1-.06.31-.09.21s-.06.18-.09.24,0-.1,0-.11,0-.1,0,.08a17.29,17.29,0,0,0,0,2c0,.12-.06.1,0-1a5.82,5.82,0,0,0,0-1c-.05-.15-.1-.64-.16-.56s-.09,0-.1,1.47c0-.24,0-.66,0-.6,0,.6-.08-.62-.09,1.19,0-1.35-.06-1.38-.11-.7,0,.28-.06.79-.08-.19,0-.3,0-.44,0-.7,0,1.07,0,1,0,.22,0-.17,0-.12,0,0,0,.26-.05.55-.08.94s-.05.19-.08-.24c0-.62,0-.43-.07.94,0-1.14,0-1-.06-.88s-.07-.14-.11-.13-.05.19-.08.27,0,.06,0-.08c0-1.1-.1-.73-.15-.3,0,.2-.05.31-.07-.55,0-.13,0-.14,0-.1a5.4,5.4,0,0,1-.08,1.39v-.31l0-.25c0-1.39-.06-.63-.07-1.45l-.07,1.57a9.18,9.18,0,0,0-.09-1.78c0,.06,0,.51,0,.83s0,.68,0,.67a3.3,3.3,0,0,1,0-.43c0-.83,0-1.3-.08-.71s-.07.12-.1-.53c0-.11,0-.32,0-.3,0,.18-.09.41-.14.65v2.41c0-.28-.05-.58-.08-.65a3.64,3.64,0,0,0,0,.46c0-.42,0-1,0-1.37,0-1.12-.09-1.11-.12-.06,0,.75-.06.52-.08.33s-.05-1.48-.09-.33c0-.9-.1.72-.13-.78,0,.4,0,.95-.05.95a5.07,5.07,0,0,1-.06-.77c0-.72,0-.82-.07-.1,0,1.05-.06,1.12-.1.27a1.13,1.13,0,0,0,0-.29c0,1.29-.09.18-.13.25a4.06,4.06,0,0,0-.06.43c0,.07,0,.18,0,.13a4.68,4.68,0,0,1-.16-1c0-.64-.08-.06-.12,0a4,4,0,0,0-.13.64l0,.89c0-.2,0-.43,0-.57a2.67,2.67,0,0,0,0-.33,2.57,2.57,0,0,0-.09-.25.28.28,0,0,1,0-.1c0-1.3-.06-.48-.09,0s0,.64-.07-.05c0-.15,0,0,0,0s-.05,0-.08,0,0,0,0-.06,0,0,0,0l-.11-.14c0-.38,0-.79,0-1.13a3.84,3.84,0,0,0,0-.41v1.42Zm7.63-8.5v1.61c0-.47,0-.73,0-1.07,0-.12,0-.65,0-.65a.54.54,0,0,0,0,.14v-.92c0-.09,0-.12,0-.21s0-.6-.05-.41c0,.38,0,1.09-.06,1.69,0,.06,0,.35,0,.44C19.71,121.58,19.8,121.71,19.82,120.11ZM6.44,86.32c0-.17,0-.36.06-.47s0-.16.07-.27a2.64,2.64,0,0,0,0-.31c0-.78.07-.48.08.62a2.09,2.09,0,0,0,.05.35s0-.3,0-.45,0-.41.06-.65,0-.53,0-.69a11.74,11.74,0,0,0,0-1.56L7,82.41l0-.73c0-.25,0-.45,0-.75a7.22,7.22,0,0,0-.07-1.32,1.35,1.35,0,0,1-.06-.24s0-.44,0-.42c0,.54,0,1.26,0,1.6,0,1,0,1.8,0,2.67l-.06-1,0-2.31s0-.21,0-.43c0,0,0-.1,0-.07,0,.21-.07.48-.1.66s-.1.45-.15.66c0,0,0-.09,0-.11-.06-.27-.11-1.39-.17-.89a1.06,1.06,0,0,0,0,.23c0,.43,0,1.09,0,1.4,0,.77,0,1.51,0,2.1s0,.83.06.22c0-.29,0-.54,0-.85,0,.83,0,1.51,0,2.28,0-.3,0-.86-.06-.82a7,7,0,0,0-.07.93c0,.25,0,1,0,1.7l.14-.68c0-.2,0-.38.06-.33a4.62,4.62,0,0,1,.07.49v.94C6.43,87.66,6.44,87.43,6.44,86.32ZM6.73,67.2c0-.88,0-1.79,0-1.79s-.08.23-.13.35a19.24,19.24,0,0,0,0-2,.12.12,0,0,0,0,.06c0,.4-.06,1-.1.67a10.55,10.55,0,0,0,0,1.65l-.07-.47c0,.82,0,1.66,0,2.65,0,.32,0,.77,0,1.15a1.88,1.88,0,0,0,0,.22,2.32,2.32,0,0,0,0-.24c0-.25,0-.52,0-.79,0,.28.13-.24.14-.85l0-.5V67.2ZM6.91,90a17.28,17.28,0,0,0-.06,2.1c0,.86.1,0,.14,1.06,0,.12,0,.05,0-.08,0-.63.06-.48.09.12,0-.77.1-.76.13-.08,0,.22,0,.27,0,.4q0-.62,0-1.24t0-1.27c0,.08,0,.22,0,.21A.56.56,0,0,1,7.17,91c0-.3-.08.35-.12-.72,0-.11,0,.17,0,.21l0-.87,0,1.7,0-.86,0,1Zm11.77,25v1.58l.05.42a6,6,0,0,0,0,1.25,14.91,14.91,0,0,0,.06-2,.94.94,0,0,1-.05-.35c0-.87,0-.06,0-.15s0-.33,0-.52c0-.45,0-.91,0-1.48l0,.34c0-.48-.06-.38-.08.27,0-1,0-.63-.06-.6s0-.18,0,0,0,.78,0,1,0,.66,0,.91c0,0,0-.29,0-.45s0-.05,0-.09l0,.69c0,.39,0,1.14,0,1.66s0,1.12.05.57,0-1,0-2.14c0-.15,0-.38,0-.58,0,0,0-.06,0,0C18.66,115.93,18.66,115.94,18.68,115ZM7.41,107.3c-.08-.19-.16-.41-.23-.56a7.31,7.31,0,0,0-.08,1.76l.09.82a5,5,0,0,0,0,1s0-.44,0-.77c0-.54,0-.57,0,.25,0,.24,0,.5,0,1a5.72,5.72,0,0,0,.06-.6c0-.57,0-1.74.05-2.17C7.41,108,7.41,107.55,7.41,107.3Zm-.61-33v-.36s0,0,0-.05,0-.44,0-.67,0-.4,0-.46a3.64,3.64,0,0,0-.12-.47s0,0-.05.1-.07.38-.1.58c0,.46,0,1,0,1.66a4.58,4.58,0,0,0,0,1.18c0-1.24,0-1.44.05-1.16a2.2,2.2,0,0,0,.06.36s0-.12.06-.17l0,1.11ZM6.2,76.1c0-.38,0-.65,0-.78a.89.89,0,0,0,0-.19v.58c0,.11,0,.24,0,.32,0,.8,0,2.24,0,2.66a6.15,6.15,0,0,0,.09-1.36c0-.35,0-.83,0-.9A1.25,1.25,0,0,1,6.42,76a6.75,6.75,0,0,0,0-1.37l-.09-.34a1.17,1.17,0,0,1-.05.29s0-.13,0,0C6.25,74.93,6.2,74.3,6.2,76.1Zm.95,5.73a.57.57,0,0,1,0,.22c0,.81.07,1.44.11,1s.08-.94.13-.3c0,0,0-.1,0-.11l.06-.22c0-.41,0-.94,0-1.45,0-.11,0-.21,0-.19a2,2,0,0,1-.11.38,1.91,1.91,0,0,1-.05-.59c0-1.75,0-.24,0,.05,0,.06-.06.11-.07-1,0-.11,0-.27,0-.18s0,.46,0,.73C7.14,80.7,7.15,81.25,7.15,81.83ZM23.58,21.64a.46.46,0,0,1,0,.15c0,.72.09.68.14.51a2.58,2.58,0,0,1,.14-.35.6.6,0,0,0,.09-.28c0-.07,0-.75,0-1.16a1.69,1.69,0,0,0,0-.2s0,.08,0,.12c0-1.47,0-1.47-.09-1.38v1.46l-.11-.39,0,1.32C23.67,21.53,23.63,20.29,23.58,21.64Zm-16.89,85v.17c0-.25,0-.61,0-.74,0-.44.08-.71.13-.33a7.37,7.37,0,0,0,.05-.76c0-.38,0-1.06,0-1.09s0-1,0-2.06c0,.46,0,.73,0,1.06,0,1.12,0,1.24-.06.95s0-.26,0,.51S6.69,105.88,6.68,106.64Zm19-76.7c-.12-1-.22-.3-.32-.17,0,1.37,0,2.12.09,1.56,0-.36,0-.3.07.14,0,.08,0,0,0,0s0-.44,0-.51.05-.14.08-.28S25.62,30.27,25.64,29.94Zm-19.1.49c0-.5-.07.77-.11.7,0-1.38,0-.29-.07-.71,0,.34,0,.53,0,.72,0,1.57,0,1.47.05,1.63s.09-.39.14-.76c0-.14,0-.58,0-1,0-.15,0-.95,0-.94A2.66,2.66,0,0,0,6.54,30.43Zm.81,88.82a1.69,1.69,0,0,0,.17-.37,9,9,0,0,0,0-1.49c0-.08,0,0-.06-.25,0-.75-.07-.72-.1.2,0-.17,0-.5,0-.44C7.34,117.29,7.34,118.1,7.35,119.24Zm17-9.78,0-1.31.11.68a11.71,11.71,0,0,0-.06-2.5c0-.1,0,.42,0,.29-.06-.61-.05,1-.07,1.54l0,1.29Zm-6.13,14.8c0-1.34,0-1.71-.07-1.19,0,.35,0,.82,0,1a13.91,13.91,0,0,0,0,1.44c0,.43,0,.65,0,1.46,0,.09,0,.54,0,.58s0,0,0-.17c0-.71,0-1.68,0-1.76v-.92Zm1.49-4.4c0-.21-.08-.71-.12-.51a5.4,5.4,0,0,0-.1,1.61c0,.25,0,.52,0,.63s0,.35,0,.19c0-.87,0-.57.07-.43A12.17,12.17,0,0,0,19.66,119.86ZM7.37,29.93c.07.1.13-.63.19-.41l0-2.05,0,.73-.13-.85Zm13,87.39s0,.06,0,0,0-.37,0-.45a11.06,11.06,0,0,0-.06,2.2l.06,1.17C20.38,119.77,20.4,119,20.4,117.33Zm-9,11.43a5.2,5.2,0,0,1,.09-.58c0-.06.05.13.08.22l.06.54v-1.33c0-.61-.16-.74-.24-.28Zm11.14-7.41,0,.46v.78c0,.73,0,1.25-.05,1.83,0,.1,0,.51,0,.78v-1.44c0,.35,0,.58,0,.62a6.18,6.18,0,0,0,0,1.39c0,.14,0,0,0,0Zm-4.42-6.48v-.15c0-.35,0-.74,0-1a1.44,1.44,0,0,0,0,.29c0,1,0,1.61,0,2.54,0,.52,0,1.24,0,1.58s0,0,0-.48c0-.18,0-.22,0-.38a13.54,13.54,0,0,0,0-1.56C18.16,115.51,18.16,115.13,18.16,114.86ZM7.35,30.21l0-.11c-.05-.95,0-1.75,0-2.5H7.25c0,.57,0,1.13,0,1.63s0,.87,0,.93S7.32,30.21,7.35,30.21ZM20.09,119l-.05-.11c0,.38,0,.88,0,1.12,0,.79,0,.64.05-.19h.12c0-.57,0-.83,0-1.16s0-.89,0-1.56c0,.39,0,.89,0,.87S20.08,118.27,20.09,119Zm-2.56.08s0-.08-.05.15,0,.85,0,1.28a3,3,0,0,0,0,.55c0-.28.06-.11.08.16s0-.07.06-.45c0-.15,0-.63,0-.91s0-.23,0-.18-.05.35-.08.54ZM8.09,107.47l-.1-.32v2.73C8.07,110.07,8.1,109.42,8.09,107.47Zm12.45,17.91c0-.55,0-.95.06-1.52,0-.34,0-1,0-1.61l0,.47v-1.05l-.07.68ZM19.23,120c0,.48,0,.78,0,1.15,0,.2,0,.74,0,.76,0,.21,0,.85,0,1.14,0,.91,0-1.61.07-1.16,0-.31,0-.76,0-.89C19.28,120.58,19.26,120.3,19.23,120Zm-1.81,1.83c0-.38,0-.77,0-1.2s0-1.31,0-1.31a1.12,1.12,0,0,0-.09.44c0,.11,0,.88,0,1.22Zm.44,2.61v.26l0,.92v.69l.08-1c0-.17,0-.6,0-1s0-.87,0-.87a.88.88,0,0,0,0,.35C17.92,125,17.89,124.59,17.87,124.41Zm1.63-6.08c0-.78,0-1.3,0-1.94,0-.25,0-1.13,0-1.07s0,.7-.07,1.08Zm-2.37,7.23a14.36,14.36,0,0,0,.06,2s0-.66,0-1c0-.55,0-1.2-.07-1.6C17.15,124.84,17.13,125.4,17.12,125.55Zm1.58-1.16v.51c0-.42.07-.83.1-1.3,0,0,0-.66,0-.8,0-.8-.06-.6-.08.43C18.73,123.66,18.72,124,18.7,124.39ZM11.21,17V15.75c0,.08,0,.24,0,.18s0-.27,0-.52,0-.69,0-.77,0-.49,0-.4,0,.54-.06,1Zm9.72,99.4v-.22c0,.15,0,.4,0,.42a9.28,9.28,0,0,0,0,1.25c0,.72,0,1.42,0,2.21l0-.05,0-1.78ZM6.27,44.88V43.32s0-.18,0,0c0,1,0,.7-.07.4C6.15,45,6.15,45,6.27,44.88Zm.15,6.5c0-.48.05-.75.06-1.3,0-.33,0-1.08,0-1.63a1.1,1.1,0,0,0,0,.16,5,5,0,0,1,0,.78c0,.23,0,.75,0,1.15C6.39,50.75,6.41,51,6.42,51.38Zm13.87,75c0-.13-.06-.31-.08-.26a5.79,5.79,0,0,0,0,.67c0,.35,0,1.17,0,1.16,0-.19.06-.44.08-.76C20.28,127.08,20.28,126.7,20.29,126.34Zm-14-78.2s-.06-.05-.09,0,0,.39,0,.65,0,.89,0,1.06C6.24,50.34,6.31,49.11,6.32,48.14Zm5.24-34.41c0-1.66,0-1.7,0-1.75v-.17l0-.41c0,.49,0,1,0,1.46,0,.19,0,.38,0,.53s0,0,0-.1c0-1.17,0-.57,0,.09C11.54,13.55,11.55,13.6,11.56,13.73ZM18.9,122.36s0-.07,0,0,0,.44,0,.67,0,.52,0,.69,0,.17,0,.32,0,.11,0-.42C19,122.63,18.95,122.36,18.9,122.36Zm4.74-3,.13-1.52v-.36h-.12Zm-.09.08c.07.43.08.14.07-1.83C23.57,117.41,23.55,117.79,23.55,119.46Zm.9-9.68a7.78,7.78,0,0,0,0,1.26l.07-.4C24.57,109.54,24.57,109.54,24.46,109.78Zm-2.14,9.63c0-.66,0-1.3.07-2,0-.1,0-.33,0-.8l-.05.71c0-.25,0-.68,0-1.08,0-.09,0-.12,0-.07s0,.26,0,.36C22.29,117.49,22.3,118.41,22.31,119.42ZM6.51,27.36c0,.58,0,1.11,0,1.59,0,.1,0,.06,0,0a17.52,17.52,0,0,0,0-1.88ZM18,18.11c0,1.31,0,1.38.07,1.27s0-.36,0-.55,0-.68,0-.77S18,18.08,18,18.11Zm-.72,100.6v.15c0,.46,0,1,0,1.37,0,1.25.06-.14.08.71v-1.88C17.29,119.29,17.27,120.21,17.25,118.72Zm1.3,3.72v1.19h.1C18.65,122.39,18.64,122.21,18.55,122.44Zm-12.27-50a17.51,17.51,0,0,0,0-2.27,8.73,8.73,0,0,0,0,1.11C6.23,72.57,6.26,72.47,6.29,72.47Zm0-9.36v3c0-.54,0-.84,0-1.77C6.37,63.89,6.35,63.53,6.33,63.11Zm3.46,61.41v-.32c0-.38,0-1,0-1.09a.43.43,0,0,0-.08-.25v1ZM19.11,17.1a5.1,5.1,0,0,0,0-1.34s0,.4,0,.61c0,.47,0,1,0,1.38C19.08,17.81,19.1,17.33,19.11,17.1Zm4,98.33c0,.19,0,.33-.05.52s0,.27,0,.44c0,.33,0,.74,0,1,0,.12,0,0,0,0s0-.31,0-.49Zm-4.16,7c0,.59,0,1.36,0,1.41s0,0,.06-.21,0-.73,0-1.2ZM16.27,12.8v.46c0,.21,0,.47,0,.63s0,.38,0,.44,0-.09,0-.15c0-.33,0-.89,0-.95A3.76,3.76,0,0,0,16.27,12.8ZM6.45,106.59l0-.05,0,1.24c0,.26,0,.67,0,.74a3.67,3.67,0,0,0,0-.89C6.47,107.26,6.46,106.94,6.45,106.59ZM24.82,111c.07.65.12.39.13-.55C24.91,110.32,24.86,110.58,24.82,111Zm.29-80.56v1.42c0-.18.05-.26.08-.48s0-.46,0-.71v-.24h-.08Zm-.7-9.1V21c0-.33,0-.76,0-1,0-.69,0,.19-.07.47,0,.09,0,.53,0,.81v.21l0-.65ZM7,74c-.09-.25-.12.14-.12,1.31A8.52,8.52,0,0,0,7,74Zm17.27,37.09c0-.27,0-.43,0-.68s0-.44,0-.64,0-.47,0-.71c0,.15,0,.35,0,.45s0,.11,0,.23,0,.43,0,.64ZM19,118.16c0-.41,0-.87,0-1.23a.72.72,0,0,0,0-.22c0,1.07,0,.48-.07.74C19,118.57,19,117.83,19,118.16ZM9.46,19.66l.09-.3c0-1.23-.06-.78-.09-.84ZM25.67,30.9c0-.16.07.33.09-1a6.23,6.23,0,0,0-.05-.72C25.69,29.44,25.68,30.18,25.67,30.9ZM6.34,59.76v.35a2.29,2.29,0,0,0,.07-.34s0-.51,0-.79c0-.08,0-.33-.05-.21S6.35,59.42,6.34,59.76Zm5.08-44.65v-.39s0-.11-.05.14c0,.47,0,1,0,1.52,0,.12,0,.26,0,.23C11.39,16.12,11.4,15.61,11.42,15.11ZM23.36,21.9a11.14,11.14,0,0,0,.05-1.65C23.35,19.87,23.35,20,23.36,21.9ZM8,115.16v2.59l0,.1,0-2.27ZM17.64,13.58v.17c0,.38,0,.75,0,1.15,0,.24,0,.7,0,.75s0,.33,0,.2c0-.29,0-.73,0-1.13S17.65,14,17.64,13.58Zm-1,4.1c0-1.07,0-1.81-.07-1.4C16.59,17.55,16.6,17.83,16.66,17.68ZM7,109.43a13.65,13.65,0,0,0,0-2S7,107.54,7,109.43ZM14.58,11.9V12a4.67,4.67,0,0,0,0,1.09s0-.63,0-1a5.52,5.52,0,0,0,0-.95S14.58,11.65,14.58,11.9ZM9.14,14.35l-.08.33V15c0,.32,0,.65.07,1,0,0,0-.11,0-.19C9.14,15.32,9.14,14.9,9.14,14.35ZM6.61,51.81c0-.86,0-1.39-.06-1.08,0,.09,0,.37,0,.57s0,.45,0,.49S6.59,51.81,6.61,51.81ZM25.29,91.91c0-.39,0-1,0-.94a3.28,3.28,0,0,0-.06.51s0,.49,0,.73ZM19.87,126a3.46,3.46,0,0,0-.05-1.09l0,.85V126Zm3.28-10.33,0,.93,0,1.17c0-.32,0-.68,0-.95S23.17,116.13,23.15,115.65ZM11.16,4.28l0-1.58h-.07V3ZM18.54,118.2v-.32l0-1.49c0,.34,0,.68,0,1C18.49,118.43,18.52,118.2,18.54,118.2Zm-.87-2c0-.43,0-.71,0-1s0-.36,0-.54,0-.15,0-.14,0,0,0,.24,0,.67,0,.84S17.65,116,17.66,116.22Zm-1.16,2.29c0,1.23,0,1.51.05,1.26C16.56,118.54,16.56,118.45,16.51,118.51Zm3-104.32c0-.16-.05-.15-.05,1.06l.05.31Zm-1.92,1.54v-.25l0-1.58c0,.17,0,.33,0,.53A10.24,10.24,0,0,0,17.58,15.73Zm2.19,107.38.07-1.16C19.78,121.23,19.77,121.29,19.77,123.11ZM6.95,106c0,.22,0-.58,0,.08,0-.13,0-.26,0-.41,0-.79,0-1.05-.05-.81Zm11.18,21.21,0,1.39c0-.26,0-.53,0-.79C18.18,127,18.17,126.81,18.13,127.17Zm0-111.8c0-.09,0-.15,0-.25s0,.17,0,.61,0,.55.06.88Zm1.45-2.31v.33l0,2.18c0-.49,0-.9,0-1C19.65,14,19.64,13.54,19.62,13.06Zm2.6,104.48v.29c0,.28,0,.82,0,.8s0-.38.05-.6,0-.44,0-.46S22.24,117.54,22.22,117.54Zm3-85.63c0-.5,0-.81,0-1,0-.35,0-.63,0-.93,0,.29,0,.58,0,.87S25.22,31.42,25.24,31.91Zm-7.71,82.95-.07.32v.24c0,.16,0,.55,0,.44S17.54,116,17.52,114.86ZM6.31,106.22l0-1.07,0,1.7V107Zm11.22,22.08c0-.08,0-.12,0-1.27h0Zm4-11c0-.35,0-.62,0-.66s0,.36,0,.56,0,.63,0,.73S21.55,117.67,21.57,117.33Zm-1.62,1.75c0,.32,0,.63,0,.74s0,.2,0,.09c0-.33,0-.76,0-1.29ZM16.71,14.2l0,1.06a5.33,5.33,0,0,0,0-1.06ZM12.05,128.25l0-1.15,0-.8Zm5.65-109.6V19l0,.59v-.25c0-.36,0-.86,0-1S17.72,18.54,17.71,18.65Zm.51,96.95v.18c0-.34,0-.69,0-1,0-.48,0-1.25,0-.73ZM19.46,124a11.7,11.7,0,0,0,0-1.59A10,10,0,0,0,19.46,124Zm-1-.31v-.32s0,.1,0,1.57ZM23,117.29v-.42l-.06-.93C23,117.61,23,117.26,23,117.29ZM19.35,117c0-.29,0-.58,0-.54s0,.38,0,.58,0,.43,0,.49S19.33,117.25,19.35,117Zm1.48,1.16v.15q0,.5,0,1c0,.25,0,.5,0,.76v.13c0-.34,0-.69,0-1S20.83,118.46,20.82,118.13Zm-1.66-1.24s0,0,0,0,0,0,0,0c0,.2,0,.34,0,.48s0,.36,0,.52S19.17,118,19.17,116.89Zm3.33,11.5c0-1.1,0-1.24,0-1.11A5.25,5.25,0,0,0,22.5,128.39ZM21,120.89v-.21l0,.49,0,1.2v.07Zm-.08.8s-.05,0,0,1.06h0Zm3.39-5.52,0,.61,0,1.1ZM18,117.73v-1.3h0A9,9,0,0,0,18,117.73ZM13.23,12.92h0v-.25l0-1.19v1.44Zm9.83,100.52-.05.76.05.74Zm-5.21-99.7c0,.73,0,1.12,0,1.51,0,.14,0,.31,0,.46,0-.26,0-.52,0-.77S17.86,14.36,17.85,13.74Zm5.88,96.07h-.05v.78C23.72,110.68,23.72,110.68,23.72,109.8Zm-14.1-91v-.22h0v.37c0,.16,0,.39,0,.43S9.62,19,9.62,18.78ZM22.73,122l0,.42,0,1.08c0-.23,0-.59,0-.68C22.75,122.5,22.74,122.27,22.73,122Zm-2.81,4.19v-.55c0-.25,0-.53,0-.71s0,.38,0,.58Zm-1.28-.62,0-.77,0-1v1.74Z" transform="translate(-5.84)"/></g></g></g></g></svg>