<svg xmlns="http://www.w3.org/2000/svg" viewBox="0 0 1969.49 74.18"><defs><style>.cls-1{fill:#7d9792;}</style></defs><title>Recurso 5</title><g id="Capa_2" data-name="Capa 2"><g id="Capa_3" data-name="Capa 3"><g id="Capa_4" data-name="Capa 4"><path class="cls-1" d="M73.61,69.88c.06-1-2.61-1.68-5.13-1.3a7.63,7.63,0,0,0-1.8.69,8.35,8.35,0,0,0,2,.58C70.29,69.95,72,69.88,73.61,69.88Z"/><path class="cls-1" d="M53.85,16.38c-3.24.2-6.44.48-9.77.74-.72.56-2.05,1.24-2.48,2-.58,1,.93,1.56,3.36,1.42.41-1.49,1.28-1.73,5-1.4,1.83.16,3.66.41,5.51.44,2.1,0,4.21-.15,5.58-.21l4.8,1.94,1.46-3-.13-.08a8.14,8.14,0,0,0,1.32-.06c1-.24,1.84-.53,2.76-.8a21.7,21.7,0,0,0-2.87-.55q-4.82-.32-9.7-.53C57.35,16.27,55.18,16.29,53.85,16.38Z"/><path class="cls-1" d="M1610.11,49.52a19.24,19.24,0,0,0-3.68-.42,10,10,0,0,0-2.26.2c-3,.57-.31,1.4-.6,2.1l9.75-.35A19,19,0,0,0,1610.11,49.52Z"/><path class="cls-1" d="M76.77,19.95c3.25-.83,7.94,0,11.29-1.58C79.94,18.07,76.74,18.54,76.77,19.95Z"/><path class="cls-1" d="M37.17,8.92l-6.8-.56c-1.17,1-3.47,2-.49,3.19a15.64,15.64,0,0,1,2.26,1.39,2.46,2.46,0,0,0,1,.26,1.75,1.75,0,0,0,1-.29,2.49,2.49,0,0,0,.23-.95c4.36.34,11.93-.29,12.81-1l-4.35-.61.31-.16H61.26C60.52,9.12,60.11,8,57,8c-3.86,0-7.72.27-11.57.43,2.95-.44,5-1,3.67-2.41a14.31,14.31,0,0,0-1.47.08c-2.85.48-5.35,1.16-9,.81C36.34,6.71,35.74,7.52,37.17,8.92Z"/><path class="cls-1" d="M29,6.78c-.33-.58-2.42-1-3.72-1.53l-1.39.31L24,8.78l1.08.13C26.63,8.26,29.6,7.9,29,6.78Z"/><path class="cls-1" d="M33,1.24c.46,0,.54-.62.79-.95A31.22,31.22,0,0,0,29,0a12.17,12.17,0,0,0-3.25,1.18l1,.42C28.86,1.52,31,1.46,33,1.24Z"/><path class="cls-1" d="M56.07,69.37c2.26-.57,4.78-.91,5.73-1.57.57-.39-1.3-1.31-2.18-2A10.65,10.65,0,0,0,58,66c.3.86-1.68.65-2.67.94a2.28,2.28,0,0,0-1.68,1.39C53.64,68.62,55,68.92,56.07,69.37Z"/><path class="cls-1" d="M81.09,73.7c4.31-.06,3.23-1.2,3.21-2.09A19.56,19.56,0,0,0,81.25,71a16.83,16.83,0,0,0-3.87.22c-.62.13-.61.7-.88,1.08,2.41.19,2,.9,2.23,1.56a10,10,0,0,0,2,.28C80.83,74,80.95,73.7,81.09,73.7Z"/><path class="cls-1" d="M1824.58,42.66c-1.41.29-2,1.18-3.23,2,3.36-.19,6.59.4,8-1.18C1827.63,43.19,1825.48,42.48,1824.58,42.66Z"/><path class="cls-1" d="M1788.59,43.33c0,1.65,4.28,2.55,8.09,1.87a14.72,14.72,0,0,1,6.52.17,6,6,0,0,0,1.83,0c1.11-.18,2.08-.53,3.21-.61,2.33-.17,4.75-.16,7.08-.34a18,18,0,0,0,3.08-.83C1807.83,42.4,1798.21,43.18,1788.59,43.33Z"/><path class="cls-1" d="M1926.32,54.94l-9,0a1.6,1.6,0,0,0,.23.31Z"/><path class="cls-1" d="M152,42.4a4.37,4.37,0,0,0,1.23-.12c.49-.36.95-.74,1.43-1.14a.69.69,0,0,0-.42-1.21l-6.87-.2,1,1.35a.68.68,0,0,0,.58.26l1.61-.09a.68.68,0,0,1,.56.24A8.4,8.4,0,0,0,152,42.4Z"/><path class="cls-1" d="M46.88,65.47c-2.83,0-5.62-.06-8.37,0a3.77,3.77,0,0,0-2.26.78c-.16.41.27,1.08,1.07,1.28C39.42,68.12,46.26,66.64,46.88,65.47Z"/><path class="cls-1" d="M1096.26,38.65c-.15-.22-1.81-.3-3.09-.49v1.71l2.5.1C1095.94,39.52,1096.52,39,1096.26,38.65Z"/><path class="cls-1" d="M31.35,36.27l-2.21,0-.05.05a.68.68,0,0,0,.47,1.18h1.31a.69.69,0,0,0,.5-1.16Z"/><path class="cls-1" d="M1781.11,43.59c-.69.35-1.89.69-1.92,1.05s1.21.68,2.41,1.27c.88-.6,1.85-1,1.66-1.2A8.58,8.58,0,0,0,1781.11,43.59Z"/><path class="cls-1" d="M123.34,59.37c.35-.06.17-.58.24-.87-7.22-.23-14.23-.49-21.26-.67-4-.1-6.33.57-7.72,2.12l8.1,1c-.87.69,0,1.32,2.62,1.24a17.44,17.44,0,0,0,4.33-.93c2.18-.65,2.13-.69,2.9.3a6.12,6.12,0,0,1,.54,1.16,37,37,0,0,0,5.3-.72C120.5,61.29,120.25,59.88,123.34,59.37Z"/><path class="cls-1" d="M137.1,70.64a34.79,34.79,0,0,1-5.26-.3c-3.67-.9-6.6-.87-9,.24a9.06,9.06,0,0,0-2.16-.53c-3,.48-3.24,1.45-2.56,2.83,5.34-.14,10.58-.22,15.78-.45C136.36,72.32,138.53,71.87,137.1,70.64Z"/><path class="cls-1" d="M89,61.05c3.8-.22,4.59-.74,3.56-2.36C88.47,58.66,88.29,58.78,89,61.05Z"/><path class="cls-1" d="M20.95,16.53c.4-2.15-.33-2.71-3.31-2.73-2.64,0-2.29.71-2.3,1.34C15.31,16.65,18.09,16.54,20.95,16.53Z"/><path class="cls-1" d="M81.58,55.5v1.37c1.46.26,2.69-.7,3.76.09.41-.16,1.11-.31,1.17-.49C86.83,55.53,85.21,55.21,81.58,55.5Z"/><path class="cls-1" d="M355,47.36v.28a.68.68,0,0,0,.83.67c23.11-5.09,676.15-8.79,678.68-8.85s5,.16,7.72.26l5.3.65,1.22-1.6c-3.31-.73-672.21,4.31-693.18,7.91A.68.68,0,0,0,355,47.36Z"/><path class="cls-1" d="M195.69,41.39l.16,1.26,8.53.72a.69.69,0,0,0,.31,0l.81-.32c-.67-.46-1.12-1.21-2-1.31C201.06,41.44,198.45,41.47,195.69,41.39Z"/><path class="cls-1" d="M39.61,23.17v1.91a.69.69,0,0,0,.68.69c5.71.14,8.19-.48,8.42-2.22a.68.68,0,0,0-.66-.73l-7.72-.33A.69.69,0,0,0,39.61,23.17Z"/><path class="cls-1" d="M39.09,33.93l2.61.47.66-.81a.69.69,0,0,0-.46-1.12l-2.36-.25a.69.69,0,0,0-.73.91Z"/><path class="cls-1" d="M106.91,39.1c-1.72,0-3.47-.12-5.13-.29-3.51-.36-7.63.42-10.71-.86a11.59,11.59,0,0,0-2.37.26l-3.49-1.05L82.93,39.2l-1.72-1L78,39.38l-.24-1.75c-4.14.29-5.78,1.08-5.51,2.53,4,1,9.31,0,13.22,1.28a6.53,6.53,0,0,0,2.39-.1,14.36,14.36,0,0,1,7.93.15c2.29-.92,9.63-.92,12.15-.09a23,23,0,0,0,3.22.48,14,14,0,0,0,.15-1.5,15,15,0,0,0-.15-1.54C109.72,38.94,108.31,39.11,106.91,39.1Z"/><path class="cls-1" d="M71.44,51.91c-1.34.56-2.75.88-2.92,1.27-.56,1.35-2.47,1.5-5.39,1.14-1.79-.22-3.71-.32-4.33.61a15.29,15.29,0,0,0-1.12,2.17l.72.82A19.85,19.85,0,0,1,61.49,57,44.29,44.29,0,0,1,73,56.62c1.24.14,3.15-.59,4.75-.92-.74-.46-1.36-1.27-2.23-1.31C71.95,54.24,72.36,53.17,71.44,51.91Z"/><path class="cls-1" d="M8.79,20.83c-.67,1,1.25,2.7,3.62,3.2,1.78.38,7.56-.88,8.05-1.64a3.34,3.34,0,0,1,2.15-1.08c3.5-.29,7.09-.54,10.66-.56,3.07,0,4.09-.45,3.73-1.65l-8.34-.41A44.71,44.71,0,0,1,24,19a38.56,38.56,0,0,0-4.32,0c-2.54.41-6.79-.35-7.18,1.81A14.58,14.58,0,0,0,10.19,20a22.89,22.89,0,0,0-2.64-.23l.81.7C8.51,20.57,8.87,20.72,8.79,20.83Z"/><path class="cls-1" d="M76,29.08l9.74-.57-2.48-.88a11.07,11.07,0,0,1-2.39-.91c-1.31-1.06-3.4-1.54-6.41-1.59-1.77,0-3.52-.18-5.28-.29-.27,0-4.37-.53-4.41-.51-1.19.65-3.71,1.51-3.28,1.93,1.29,1.25-1.18,2.17-.34,3.22L55.61,28.3,52,25.52a1.31,1.31,0,0,0,.16-.52,6,6,0,0,0-1.31-.09c-3.14.26-6.24.58-9.39.8-4.62.31-9.28.55-13.92.8a12.6,12.6,0,0,1-1.34-.13C21,26,16.25,24.7,10.59,25.29A15.21,15.21,0,0,0,8,25.56c-1.45.52-2.39,1.31-4,1.69-4,.93-.41,1.82.23,2.53s3.08,1,5.15.27c1-.35,2.11-.66,3.32-1,2.7,1,.37,1.82-.74,2.75a25.4,25.4,0,0,0-5.27-1A21.56,21.56,0,0,0,.59,31.9c-.86.3-.39,1.15-.59,2l13-.82a35.83,35.83,0,0,1,5.69-.4c2.3.07,4.54.38,6.73.59l.25,1.14c7.95.38,9.55.11,9.16-1.23,1.85-.2,3.51-.43,5.23-.56,2-.15,4.05-.19,6.06-.32A14.14,14.14,0,0,0,48.64,32c3.49-.94,6.71-.58,7.75.74,1.72.17,3.21.43,4.71.42a23.17,23.17,0,0,0,3.38-.54c1.73-.27,3.51-.49,5.22-.78,1.48-.25,2.81-.64,4.32-.83C76.69,30.62,78.34,30.18,76,29.08Z"/><path class="cls-1" d="M36,57.65l-1.54-.09-3.15,1.52a22.08,22.08,0,0,0,3.9.89c1.57.1,3.09-.3,2.56-1.07A7.81,7.81,0,0,0,36,57.65Z"/><path class="cls-1" d="M129.27,26.58c-3.51.13-7,.43-10.51.46-1.72,0-4.51-.27-5-.71-2.35-2.11-3.22-.29-4.12.06-3.13.07-5.84.13-6.51-1.24a5.68,5.68,0,0,0-2.19-.22,1.69,1.69,0,0,0-1.23.88,7.22,7.22,0,0,0-.06,2,22.64,22.64,0,0,1,3.55.26,23.28,23.28,0,0,0,10.5,1.23c3.82-.44,7.69-1.13,11.82-.37.12,0,.39-.12.61-.13l5.8-.26a3.92,3.92,0,0,0-.12-1.75A8.8,8.8,0,0,0,129.27,26.58Z"/><path class="cls-1" d="M1083.07,39.55l4.11-1.38-4.11-1Z"/><path class="cls-1" d="M17.53,57.53l.43.69,4.63-1-3.77-1.29Z"/><path class="cls-1" d="M502.1,25.11a15,15,0,0,0-4.08-.48,45.73,45.73,0,0,0-5.61,1.18l3,2.15,1.28-.22.56-1.29a15.75,15.75,0,0,0,2.56.22,8,8,0,0,0,2.61-.63C502.76,25.83,502.56,25.21,502.1,25.11Z"/><path class="cls-1" d="M335,29.79v1.37l8.57-.36C341.23,29.33,338,29.86,335,29.79Z"/><path class="cls-1" d="M344.4,29.83l-.4.45a34.68,34.68,0,0,0,3.85.52,5.84,5.84,0,0,0,1.87-.71l-.84-.26Z"/><path class="cls-1" d="M298.18,25.51c2,.39,4,.79,6.05,1.16a1.43,1.43,0,0,0,.71-.23c.34-.5.6-1,1-1.67l-7.32.4Z"/><path class="cls-1" d="M806.3,20.95a6.79,6.79,0,0,0-2.23.86l1,.18c-1.6,1,.06,1.34,2,1.31.62,0,1.35-.76,1.68-1.22C809.19,21.37,808,20.91,806.3,20.95Z"/><path class="cls-1" d="M508.65,25.38c-2,.57-.34,1.26.69,1.83a4.63,4.63,0,0,0,1.28.28c1.24-.59,2.39-1.2,3.56-1.81l-.86-.47A25.41,25.41,0,0,0,508.65,25.38Z"/><path class="cls-1" d="M155.39,41.45l-12.31-1v3.11c6.08.12,11.5-.76,17.57-.49l-1.47-2.47Z"/><path class="cls-1" d="M524.18,21.92a6.08,6.08,0,0,1-1.06-.2l-2.58-.49c-.36.59-1,1.18-.94,1.76,0,.22,1.45.45,2.29.64a2.15,2.15,0,0,0,.92-.12c1.39-1.41,2-.68,2.85.11a8.83,8.83,0,0,0,2,.4C529.42,22,529.31,22,524.18,21.92Z"/><path class="cls-1" d="M680.2,21.55V23h3.23l.78-.3-3.08-1.44Z"/><path class="cls-1" d="M142.38,40.72h-10.6c-.14.69-.61,1.36-.27,2a3.72,3.72,0,0,0,2.43,1.12c2.32.17,4.78.05,7.19.05l1.76-.14C138.21,42.58,140.93,41.62,142.38,40.72Z"/><path class="cls-1" d="M1281.29,23.54c-1-1.5-4-1.24-6.62-1.26l-.85,1.69Z"/><path class="cls-1" d="M486.32,11,491,12.63l2.5-1.78-.24-.12H486.9Z"/><path class="cls-1" d="M1200.64,28.37c1.72-.42,3.39-.61,3.88-1,.34-.27-.81-.81-1.37-1.25l-2.51.16Z"/><path class="cls-1" d="M73.5,40.07l-9.36.37c1.48.7,2.7,1.34,4.12,1.91a6.36,6.36,0,0,0,2,0C73.19,42,75,41.32,73.5,40.07Z"/><path class="cls-1" d="M37.8,59.7c-1.79,1.16-4.07.84-6.48.48-.21,1.55-.21,1.55,11,1.35V59.66C40.7,59.66,38.19,59.45,37.8,59.7Z"/><path class="cls-1" d="M27.72,64,23,63.52c-1.5.44-1.93,1.42-3.35,1.85l6.71,0A5.3,5.3,0,0,1,27.72,64Z"/><path class="cls-1" d="M1266.81,23.21l-1.36.4,3.72,2.62c.84-.59,1.95-1.09,1.68-1.24A40.34,40.34,0,0,0,1266.81,23.21Z"/><path class="cls-1" d="M1250.68,25.84l4.91.37V24.57C1252.82,24.38,1250.69,24.39,1250.68,25.84Z"/><path class="cls-1" d="M1773.2,44.14h-3.34l-1.14,1.72c2.7-.21,4.93-.32,7-.58a7.43,7.43,0,0,0,2.11-.85l-.73-.28Z"/><path class="cls-1" d="M1216,26.46a15.7,15.7,0,0,0-3.11.74c1.42.57,2.76,1.18,4.36,1.67a19.84,19.84,0,0,0,2.69-.79C1220,26.74,1218.35,26.35,1216,26.46Z"/><path class="cls-1" d="M1610,33.86c4,.08,4.29-1,4.72-2C1609.12,31.41,1608.78,31.55,1610,33.86Z"/><path class="cls-1" d="M1706.69,32.83c-.47-.4-.66-.91-1.45-1.16-2.63-.84-4.47.22-6.52.57-.65.11-.82.64-1.21,1l.88.25,3-.78,4.33.49Z"/><path class="cls-1" d="M1128.78,26.43c.85.52,3.22.67,5.38,1.06V26c-1.07-.11-2-.19-2.87-.3C1129.39,25.46,1127.91,25.89,1128.78,26.43Z"/><path class="cls-1" d="M1661.51,32.09c-1.46-1.77-1.46-1.77-8.09-1.66l-.33,1.76-10.44-.47-1.45,1.59c-3.5.11-6.67-1.39-11.73.24a20.07,20.07,0,0,1,2.53.19,48.51,48.51,0,0,0,12.55.61c4.19-.19,8.42-.28,12.63-.42,2.73-.09,5.54-.08,8.16-.34.83-.08,1.15-.91,1.7-1.39-1.08-.09-2.15-.21-3.23-.24C1663,31.92,1662.27,32,1661.51,32.09Z"/><path class="cls-1" d="M966,23.42c-2.05-.28-4.28-.37-6.45-.53l-.71.56a13,13,0,0,0,1.92.75,19.28,19.28,0,0,0,3.21.54,19.77,19.77,0,0,0,2.71-.18C966.43,24.17,966.48,23.49,966,23.42Z"/><path class="cls-1" d="M999.71,24.58l2.65,1.28c.81-.61,5.05.23,3.82-1.28Z"/><path class="cls-1" d="M988.53,27.09c-.16,1.54,1,1.87,6.45,1.69C993.8,27.49,992.39,26.59,988.53,27.09Z"/><path class="cls-1" d="M1076.34,24.86c-.26,1,1.42,1.4,3.63,1.57l1.24-.3-2.55-1.9C1077.85,24.43,1076.4,24.62,1076.34,24.86Z"/><path class="cls-1" d="M1085.14,23.83l-1.07.21a21.72,21.72,0,0,0-1.92,1.38c-.32.29-.66.84-.4.91a8.81,8.81,0,0,0,2.82.25c.89-.35,1.6-.88,1.69-1.36S1085.55,24.29,1085.14,23.83Z"/><path class="cls-1" d="M1103.91,24c-.73.88-1.34,1.35-1.39,1.82,0,.17,1.28.37,2,.55.46-.31,1.32-.63,1.29-.93S1104.93,24.77,1103.91,24Z"/><path class="cls-1" d="M1115,29.3c0,1.58.15,1.67,6.09,1.53a24.59,24.59,0,0,0,3.81-.66,22,22,0,0,0-3.85-.92C1119.15,29.1,1117.14,29.26,1115,29.3Z"/><path class="cls-1" d="M1091.21,29.95l.47.47,4.43.71.93-.3a7.09,7.09,0,0,0-2.38-1.24A15.91,15.91,0,0,0,1091.21,29.95Z"/><path class="cls-1" d="M71.24,43.7c-1.58,0-3.13.28-4.56.43-3.69-.61-6.23.93-9.72.84-.7-1.66-4.09-.34-6.32-.85,0,.41,0,.64,0,.86,0,1.89.07,1.77,5,2,4.55.18,8.47-.48,12.56-.91a13.15,13.15,0,0,0,4.14-1.21C72.67,44.66,71.58,43.69,71.24,43.7Z"/><path class="cls-1" d="M1903.22,31l1.42,1.44,1.17.08,1.54-1.86-1.08-.25Z"/><path class="cls-1" d="M1896.31,32.92h4.08V31.65C1897.82,31.64,1895.72,31.68,1896.31,32.92Z"/><path class="cls-1" d="M1845,26.37c-1.08-.09-2-.45-3.09-.54-4-.34-6.52,1-5.91,2.65l5.29,1.41c5-.56,7.12-1.45,7.51-3.5C1847.56,26.39,1846.25,26.46,1845,26.37Z"/><path class="cls-1" d="M1887.18,27.35l-1.2.18c0,.4,0,.8,0,1.2a6.25,6.25,0,0,0,.23.91l1.06.16c.54-.41,1.5-.83,1.49-1.24S1887.75,27.76,1887.18,27.35Z"/><path class="cls-1" d="M1897.36,25.27l-1.23-.26a29,29,0,0,1-3.67.5c-2.88,0-3,.76-2.68,1.5a18.3,18.3,0,0,0,1.95,2.66l3.33-.06-1.54-2.15Z"/><path class="cls-1" d="M1643.2,46.3a3.29,3.29,0,0,0-1.28-.09c-.3.05-.61.31-.52.43.83,1.12,1.76,2.22,2.74,3.44,2.14-.79,4.3-1.57,6.35-2.38.3-.12.14-.4.27-1l-4.84.85C1645.3,47.3,1644.3,46.78,1643.2,46.3Z"/><path class="cls-1" d="M1569.38,47.45a12.36,12.36,0,0,0,2.75.87,18.73,18.73,0,0,0,3.66-.75,34.67,34.67,0,0,0-4.35-.79A6.89,6.89,0,0,0,1569.38,47.45Z"/><path class="cls-1" d="M1635.87,47.83l-.81.35c.68.34,1.5,1,2,1,1.68-.1,3.25-.46,4.86-.72a3.88,3.88,0,0,0-1.33-.56C1639.05,47.78,1637.45,47.83,1635.87,47.83Z"/><path class="cls-1" d="M1795.3,31.65c-4-.49-4.29-.16-4.37,1.71l6.76-1.39-2.31-.31-.08,0Z"/><path class="cls-1" d="M1795.38,31.66a38.63,38.63,0,0,0,3.72-1.26c.31-.15-.19-.78-.28-.78-1.26,0-2.52.1-3.78.16l.27,1.87Z"/><path class="cls-1" d="M1795.26,35.5l-2.75,1,.61.29h7C1800.57,35.11,1796.61,36.06,1795.26,35.5Z"/><path class="cls-1" d="M1656.65,59.56c-.46,1.49,3.09.82,4.5,1.34C1661.68,59.58,1661.07,59.4,1656.65,59.56Z"/><path class="cls-1" d="M1795,28.68c-1.47-.1-2.53-.15-3.56-.25-1.67-.17-3.83-.72-4.86-.5a25.16,25.16,0,0,0-5.18,2c-.15.07.24.42.61.53,3.18,1,10.84,1.17,12.93-.71h-.06Z"/><path class="cls-1" d="M1808.94,29.39a9.48,9.48,0,0,0,2.78.11c.61-.4.66-.92,1-1.55l-5.87.55A9.06,9.06,0,0,0,1808.94,29.39Z"/><path class="cls-1" d="M1769.67,28.84c-3.1.23-7.85.13-8.76,1.93a32.43,32.43,0,0,0,3.37.76,18.37,18.37,0,0,0,4.23.22c1.82-1,4.08-.68,6.35-.52,1.83.13,5.49-1,5.51-1.78C1776.62,29.2,1772.93,28.6,1769.67,28.84Z"/><path class="cls-1" d="M1831.18,36.93a6.25,6.25,0,0,0-3.12.81c-.3.42,1,1.42,1.15,1.4,2.62-.22,5.22-.52,7.71-.91.63-.1.87-.55,1.49-1C1835.37,37.09,1833.25,36.88,1831.18,36.93Z"/><path class="cls-1" d="M1801,36.25l3.66.82,1.14-.67c-1-.3-2-.64-3.16-.85A8.91,8.91,0,0,0,1801,36.25Z"/><path class="cls-1" d="M1828,28c-.42-.5-.21-1.07-.31-1.88-1.57.47-2.7,1.07-3.72,1-3.12-.07-4.52.33-4.26,1.24l-4.91-.13c.08.46-.31,1.07.31,1.34,2.12.95,4.08.77,5-.23h10.85A13.76,13.76,0,0,1,1828,28Z"/><path class="cls-1" d="M1830.15,38.45c-.1-.3-.89-.57-1.39-.85a9.19,9.19,0,0,1-1.48.55c-.65.14-1.52.13-2.17.27-1,.22-1.86.51-2.78.77l3,.85c1.54-.33,2.75-.52,3.75-.82C1829.61,39.06,1830.23,38.7,1830.15,38.45Z"/><path class="cls-1" d="M1663.78,53l.54.94c-2,.88-3.5,1.5-4.69,2.21-.2.12,1.16.62,1.8.94l.78-.17.47-1.56a8.13,8.13,0,0,1,1.46.75c-3,1.48.91,1.43,2.73,1.68a39.12,39.12,0,0,0,4.55,0l-3.18-5.37Z"/><path class="cls-1" d="M1886.2,39.28a74.83,74.83,0,0,0-12.27.66C1880.3,40.73,1885.39,40.42,1886.2,39.28Z"/><path class="cls-1" d="M1831.54,48.23V46.18l-4.14.73Z"/><path class="cls-1" d="M1829.1,34.33c-1.28-.13-3.13.51-4.31.35-5.55-.73-4.95,1.22-6.83,1.86l4,1.56h4.41l-1.91-1.57,10,.82C1835,34.35,1834.44,34.86,1829.1,34.33Z"/><path class="cls-1" d="M1909.06,16.44c-.28,0,0,.59,0,.88l8.25-.36c-.92-.47-1.69-1.15-2.32-1.13A48.29,48.29,0,0,0,1909.06,16.44Z"/><path class="cls-1" d="M1765.71,47.78V50l11.65-1.83-.35-.43Z"/><path class="cls-1" d="M1845.23,40l6.56-.48c-1-1.34-1-1.34-11.14-1C1840.73,39.32,1843.31,40.14,1845.23,40Z"/><path class="cls-1" d="M1709.15,47.52l.88-.5-5.26-1.12C1704.14,47.91,1707,47.48,1709.15,47.52Z"/><path class="cls-1" d="M1712.37,42.88l-4.88.91,4.88.89Z"/><path class="cls-1" d="M1491.41,27.81c-.37,1.48,1.41,1.82,4.61,1.51C1496.54,27.86,1496.22,27.74,1491.41,27.81Z"/><path class="cls-1" d="M1757.72,50.14c6.61.52,7.69.17,6.79-2.2C1759,47.68,1757.58,48.13,1757.72,50.14Z"/><path class="cls-1" d="M1710.51,46.44c-.13.4.19.89.78,1.23a9.08,9.08,0,0,0,2.54,0c1.24-.14,2.4-.38,3.68-.59V45.28c-1.82.23-3.42.4-5,.63C1711.77,46,1710.58,46.23,1710.51,46.44Z"/><path class="cls-1" d="M1773.38,38.51h-4.62v.94C1773.32,39.57,1773.32,39.57,1773.38,38.51Z"/><path class="cls-1" d="M1721.23,45.55l-2.87,1.12,3.94,1.41c.61-.38,1.83-.81,1.67-1.14S1722.45,46.13,1721.23,45.55Z"/><path class="cls-1" d="M1682.23,53.2l-1.42.5,2.3,1.3c.6-.28,1.85-.7,1.67-.82A14.3,14.3,0,0,0,1682.23,53.2Z"/><path class="cls-1" d="M1679.06,32.55V34h9.11C1688.19,32.49,1686.84,32.28,1679.06,32.55Z"/><path class="cls-1" d="M1673.83,26.51c-.27,1.21,2.06.92,3.79.93l1.19-.38-3.23-1.8C1675,25.68,1673.93,26.08,1673.83,26.51Z"/><path class="cls-1" d="M1722.54,27.39c-.26-.5-.29-1-.89-1.48a11.78,11.78,0,0,0-2.57-.26c-.56,1.29-3.44.58-6,.89C1715.6,27.89,1719.17,27,1722.54,27.39Z"/><path class="cls-1" d="M1664.29,35.53l4.24-1.5-1-.39C1663.5,33.64,1663.22,33.77,1664.29,35.53Z"/><path class="cls-1" d="M1699.82,24.68c-1.51-1.05-3-.07-4.29-.19a1.41,1.41,0,0,1-1-.62,10,10,0,0,1-.55-1.78l-4.33.41a12.14,12.14,0,0,0-6.94.32c-.8-1.16-3.07-.75-5-.72a18.23,18.23,0,0,0-3,0c-.86.29-1.84.93-1.52,1.23a10,10,0,0,0,3.23,1.1,10.46,10.46,0,0,0,1.79-.54c.14,0,.33-.06.59-.11l1.61.83c-2.73.47-1.9,1.38-1.08,2s2.19,1.35,4.86.68c3.26-.82,3.52-1.18,1.08-2.58-.31-.18-.21-.46-.3-.69a8.53,8.53,0,0,1,1.6,0c2.36.69,2.34.71,4.11-.47v1.91l4.82.51c-.1.84,0,1.72,3.3,1.51,4.34-.28,6.46-1.18,5.73-2.36C1702.84,25,1700.32,25,1699.82,24.68Z"/><path class="cls-1" d="M1647.49,22.42l1,1.89,1.31.22c.32-.41,1-.84.89-1.23C1650.57,22.72,1650.62,21.8,1647.49,22.42Z"/><path class="cls-1" d="M1703.09,33c-2.8-1-5.39-.72-7.15.52a22.23,22.23,0,0,1-2.93,1.4l1.35.61c3-.51,6.09-1,9-1.57C1703.68,33.9,1703.6,33.16,1703.09,33Z"/><path class="cls-1" d="M1584.48,38.08v1.53c4.32-.1,4.42-.15,3.8-1.53Z"/><path class="cls-1" d="M1595.21,23.36c-.62.2-1.1.81-.75,1a14.58,14.58,0,0,0,2.92.69c.73-.52,1.17-.85,1.67-1.17s.78-.43,1.17-.65a16.87,16.87,0,0,0-2-.16A13.56,13.56,0,0,0,1595.21,23.36Z"/><path class="cls-1" d="M1710.63,32.45a10.89,10.89,0,0,0-1.78,0c-1.09.22-2.05.53-3.07.81a22.5,22.5,0,0,0,2.53.83c.89.2,2.06.2,3,.38,1.72.34,2.52.13,3.27-.51C1716,32.78,1715.2,32.46,1710.63,32.45Z"/><path class="cls-1" d="M1592.45,29.27c-2.37.16-4.7.42-7.19.65l-.39-1.38a26,26,0,0,0-4.6.18c-1,.3-1.62,1-1.49,1.54.07.28,2.31.77,3.12.66a26.17,26.17,0,0,1,7.26.19,10.19,10.19,0,0,0,5.36-.54.67.67,0,0,0,.32-1.09A6.77,6.77,0,0,0,1592.45,29.27Z"/><path class="cls-1" d="M1636.16,27.3a3.59,3.59,0,0,0,3.45-.58,15.52,15.52,0,0,1,1.92-.45c1.47-.49,4.78-.72,1.78-1.88-.5-.19-.32-.64-.45-1l.83-.18a21.61,21.61,0,0,0-2.61-1.25,5.36,5.36,0,0,0-2,.35c-.23,1.23-3.35,1.93-3.79,3.06A1.42,1.42,0,0,0,1636.16,27.3Z"/><path class="cls-1" d="M1641.78,36.17l-1.22-.85,3.43-.56a7.82,7.82,0,0,0-6.82-1.43,33,33,0,0,1-4.45,1.24c-3.17.46-2.06,1-.81,1.74.93.52,3.56.78,2,1.76-.18.11.63.65,1.17.69a7,7,0,0,0,2.54-.21c.88-.85.41-2,4.05-2.12C1641.68,36.42,1641.7,36.34,1641.78,36.17Z"/><path class="cls-1" d="M1640.1,38.24l2.94,1.67c.78-.32,2.22-.63,2.22-.95C1645.25,38,1643.57,37.81,1640.1,38.24Z"/><path class="cls-1" d="M1632.8,25.31H1629c-1.24,1.33,1.85,1,3.77,1.57Z"/><path class="cls-1" d="M1625.76,33.64c-1.41,0-4,.19-4.07.42-.6,1.58-3.2,1.08-5.61.86l-.65.32,3.32,1.1v.83l7.75-1.24c.12-.2.68-.73.63-1.24A1.82,1.82,0,0,0,1625.76,33.64Z"/><path class="cls-1" d="M1687,34.45v1.88l3.42-.93-2.57-1.17Z"/><path class="cls-1" d="M1867.66,34.26c.83-.42.52-1.16.78-1.94l-3,.57-1-1.27-6.47.81,4.15,3.66A45.19,45.19,0,0,0,1867.66,34.26Z"/><path class="cls-1" d="M1769.42,25.26c.23-.3-2.6-1.36-3.64-1.29a41.48,41.48,0,0,0-6.26,1.31l5.61,2.32C1767,26.65,1768.83,26,1769.42,25.26Z"/><path class="cls-1" d="M1548,36.3c-.14,1.41,2.63,2.53,5.8,2.44,1.27,0,2.4-.8,3.59-1.23a50.81,50.81,0,0,0-6-1.93C1550.77,35.44,1548.87,36.12,1548,36.3Z"/><path class="cls-1" d="M1559.65,28.06l-1.21.17c-.32.56-1.28,1.21-.83,1.66,1.54,1.5,5.17-.17,7.72.85l1-2.27C1563.55,28.76,1561.11,29.86,1559.65,28.06Z"/><path class="cls-1" d="M1762.39,34.41c3.75-.17,4-.91,3.34-1.91C1761.37,32.31,1762.64,33.43,1762.39,34.41Z"/><path class="cls-1" d="M1717.57,34.2a22,22,0,0,0,5.35-.25c.77-.14.81-.88,1.26-1.45h-8C1716.73,33.2,1716.89,34.14,1717.57,34.2Z"/><path class="cls-1" d="M1733.54,25.81c-.68,0-1.37,0-2.18,0a2.55,2.55,0,0,0-.18.58,3.39,3.39,0,0,0,.08.63c4.09.19,4.12.18,4-1.19C1734.68,25.85,1734.12,25.82,1733.54,25.81Z"/><path class="cls-1" d="M1581.42,24.62c1.28-.18,4.86.19,3.36-1.2l-6.71.38-.47.29A17.3,17.3,0,0,0,1581.42,24.62Z"/><path class="cls-1" d="M1748.88,25.31c-1.36.13-2.59.45-3.87.7a30.64,30.64,0,0,0,3.62.6,17.26,17.26,0,0,0,3.23-.65A15.12,15.12,0,0,0,1748.88,25.31Z"/><path class="cls-1" d="M1747.51,30.79c-1.8-.48-3.87-.81-5.89-1.21a30.08,30.08,0,0,0-3.17,1.39c-.4.25-.44.89-.25.91,1.92.25,2.62,1,3.84,1.37,3.86,1.1,2.34-1.94,6.11-1.39C1748,31.49,1748.1,30.94,1747.51,30.79Z"/><path class="cls-1" d="M1576.89,28.75a73.89,73.89,0,0,0-8.18.53c-.87.13-.94,1.05-1.26,1.46l8.33,1c.59-.46,1.57-.93,1.76-1.45A2,2,0,0,0,1576.89,28.75Z"/><path class="cls-1" d="M1935.84,54.55l-9.52.39,9.64-.05Z"/><path class="cls-1" d="M177.93,27.85h.32l0-.14Z"/><path class="cls-1" d="M169.82,28.52l5.92.5,2.19-1.16c-2.65,0-5.3.19-8,.3Z"/><path class="cls-1" d="M454.67,12.07l-.85.38.17.08Z"/><path class="cls-1" d="M19.66,65.37l-3.63,0A8,8,0,0,0,19.66,65.37Z"/><path class="cls-1" d="M1913.08,32.3v.05h.09Z"/><path class="cls-1" d="M1889,32.69l-.11.11h.6Z"/><path class="cls-1" d="M1964,23.94l-.24,0,.25.16C1964,23.88,1964,23.94,1964,23.94Z"/><path class="cls-1" d="M1969.46,4h0Z"/><path class="cls-1" d="M1946.82,30.7l-.05,0h0Z"/><path class="cls-1" d="M1918.75,32.47v0h-.1Z"/><path class="cls-1" d="M1645.36,58.48l.06,0v-.05Z"/><path class="cls-1" d="M1898.25,33.19c5.09.12,10.16.38,15.17.58l-.32-1.41a25.75,25.75,0,0,1-10.8-.92c-1.37.91-2.95,1.22-5.62,1.25l-7.18.11,4,.89A37.69,37.69,0,0,1,1898.25,33.19Z"/><path class="cls-1" d="M254.81,27.29h.1v0Z"/><path class="cls-1" d="M148.66,41.37h-.08v0l.13,0Z"/><path class="cls-1" d="M80.7,74.13l0,0h0l.07,0Z"/><path class="cls-1" d="M27.87,37.45h-.14l.08,0h0Z"/><path class="cls-1" d="M1795.31,31.68l.08,0h-.08Z"/><path class="cls-1" d="M1795,29.74l-.06,0h.06Z"/><path class="cls-1" d="M1932.56,49.91c-2.21,0-14.9,3.64-16.45,3.64l.42-.35L1911.63,52l8.34-1.41-.15-.36c-2.49.09-5,.17-7.48.28-2.12.1-4.25.27-4.23-.83l-10.16-.48a10.74,10.74,0,0,0-3.55-.8,39.1,39.1,0,0,0-3.9.22c-1.87.11-3.74.22-5.63.29s-5.36.41-5.79.13c-2.14-1.43-5.2-.67-7.6-.57-8.28.32-16.5.84-24.75,1.25-2.72.14-5.47.24-8.2.23a20.28,20.28,0,0,1-3.39-.61c-1.11,1.33-2.35-.18-3.71-.21-.28,0-.48-.46-.72-.7l3.59-.46c.9-.12,1.83-.23,2.67-.4a19.35,19.35,0,0,1,2.47-.59c5.83-.41,11.69-.76,17.55-1.12,2.2-.14,5.15.06,6.47-.42,4.28-1.54,8.92-.76,13.67-.79-.8-.29-2-.42-2.66-.72s-.91-.79-1.34-1.2l.79-.42c1.56.16,3.1.34,4.67.48a21.64,21.64,0,0,0,3.78.22c2-.22,3.93-.65,5.76-1,.11-.22.28-.81.44-.81,2.49,0,5,.08,6.75.13a6.8,6.8,0,0,1,1.91-1c1.38-.35,3.05-.54,4.6-.79-2.88,0-5.74.21-8.54.13-1.74-.05-5.07.74-5.25-.87l5.73-.54a14.12,14.12,0,0,0-1.51-.15c-1.28.07-2.54.17-4,.27V37.27l20.13-.53-.25-.74c-8.91-.31-17.62-.11-25.87,1.7-3.07-1.07-9.3-1.31-10-.7-1.31,1.09-3.62.78-5.37.86a151.21,151.21,0,0,1-15.44.36,225.38,225.38,0,0,0-23.73.29c-7.54.37-15.3.1-23,0a10.47,10.47,0,0,1-2.6-.7,15.33,15.33,0,0,1,2.82-.61c2.45-.09,5,0,7.4-.06,3.19-.11,6.33-.43,9.52-.49,4.43-.08,8.93.16,13.31,0,5-.21,10.11-1.19,14.87-1,3.55.17,6.92.13,10.36.09,5.33-.07,10.65-.25,16-.38l.07-.31-20.93-.52-.58-.8c-4.1.11-8.1.54-11.6.21s-6.67.9-9.85-.08c-.19-.06-1,.25-1.62.31a6.59,6.59,0,0,1-1.85,0c-3.42-1.23-7.61-.36-11.38-.58-3.6-.21-7.42.11-11.15.18a14.44,14.44,0,0,0-2.3,0c-2.49.91-2.07-.2-2.47-.41a7.62,7.62,0,0,1-2.2.67,41,41,0,0,1-4.48-.7l-2.34.28-2.45.27,1.55-.89-5.08-.38c-1,.6-2,1.64-5.34.94a10.65,10.65,0,0,0-1.43.24c-.67.06-1.38.07-2.07.1l.53-.81-.48.38-3.27-1c-1.35.92-5.63,1.51-9.7.88-2,1.35-11.23,1-13.75-.45-1.14.28.07,1.69-3.8.8-2.13-.49-6.34,0-9.15.4-2.45.39-6.06.69-8-.08-1.67-.66-3.1-1.41-4.57-2.14a3.5,3.5,0,0,1-.84-.73c.67.06,1.39.07,2,.18,2,.35,4.43-.15,4.86-1a3.78,3.78,0,0,0-.64-.11c-3.31,0-6.91.86-9.87-.45a4,4,0,0,0-1.41.31c-.14.19.14.56.54.64,1.1.22,2.35.33,3.61.49l-.23,1.39-4.26.18c1.2,1.52-2,1.68-4.19,1.91-3.48.35-7.09.52-10.68.66-.52,0-1.81-.59-1.67-.81a3.11,3.11,0,0,1,2.06-1.23c3.46-.14,7-.06,10.49-.06l.19-.41c-1.82-.05-3.68,0-5.45-.19a21.23,21.23,0,0,1-3-.65,12.26,12.26,0,0,1,2.69-.67c2-.06,4,.09,6.08.11.93,0,1.86-.08,2.72-.12L1718.35,30c-3.85-.41-7.42.93-11.86.16-1.8-.31-4.82.41-7.29.66l1.74-.63-4.09-.76,1.87-1.07c2.79.32,5.69.86,6.87-.15,4.77.15,9.61.85,12.83.26,3.7-.67,6.65-.11,10-.29.77-.52,1.12-1.47,4-.69a5.93,5.93,0,0,0-2.43-.59c-4.36.1-8.7.3-13.06.39-3.17.06-6.37,0-9.55,0-1.29,0-2.57-.17-3.86-.19-.91,0-1.83.1-2.74.1-1.37,0-2.74,0-4.42-.08l-1.23,2.63a18.31,18.31,0,0,0-2.77,0c-1.58.22-3,.59-4.75,1l-1.18-1.9c-1.45,1-.81,2.41-4.91,2.09l-1.27-3.36-5.75-.54a18.1,18.1,0,0,1-7.92,1c-3.26-.25-2.22-1.19-3.11-1.81a5.43,5.43,0,0,1-1,.32c-3.12.42-6.15.82-5.39,2.49.06.14-1.27.52-2,.54-5.5.17-11,.28-16.49.41l1.54,2-12.15.59,3.59-2.78c-2.79.1-5.81.16-8.8.32s-6.18.47-9.3.58a6.73,6.73,0,0,1-2.64-.63,7,7,0,0,0-5.71-.18,22.15,22.15,0,0,1-3.06.58l-3.88.69c8,.86,8,.86,6.6,2.79a16.41,16.41,0,0,0-8.51-.74c-1.3.17-2.87.18-3.55-.69-.35-.45-2.41-.72-4.38-1.25l2.28,1.88h-5l-1.77.9a8.68,8.68,0,0,1-1.14-1,4.48,4.48,0,0,1-.5-1.12l-.67-.1-1.34,1.65h-4.41V31.78h-8.07l-.33,1.65-5.3-.8-1.38-2.21c-1.53.22-3.55.29-3.9.61-1.2,1.11-3.94.85-6,1.18a9.73,9.73,0,0,1-1.91-.21c-1.11,1.17-3.66,1.36-6.37,1.27-3-.1-6.56,1-9-.46a10.76,10.76,0,0,1-1.75-1.46c-2.08.48-3.92.94-5.86,1.33a26,26,0,0,1-2.75.23c-.15-.38-.59-.79-.37-1.14a7.59,7.59,0,0,1,1.69-1.32l-.41-.07-2.24.74a10.64,10.64,0,0,0-.13-1.15,4.49,4.49,0,0,0-.34-.79l-3.81.31-.33-2h-.74v1.69h-10.94a3.92,3.92,0,0,0,.76.31c2.62.34,3.67,1.24,2.83,2-1.05,1-3.12.56-4.89,0a22.43,22.43,0,0,0-3.51-.17l3.22-2.18a13.52,13.52,0,0,1-2.43.58c-4.56-.05-9.16,0-13.66-.28-3.44-.19-4.31-1.68-1.95-2.72a2.19,2.19,0,0,0,.28-.17l-1.74-.25c-4.41,1-8.8.66-12.83,1.13-.06.81-.64,1.94-3.36,1.37-4-.83-8.06-.45-12-.65-4.82-.24-9.79,0-14.69-.06-3.41,0-6.87-.41-9.88.55a4.34,4.34,0,0,1-.77-.09l-.28-.63h-3.74a11.34,11.34,0,0,0-2.08,0c-2,.86-4.27.3-6.53.29-2.83,0-6.42-.82-8.43.24-2.53,1.33-4.9.63-7.55.38a9.65,9.65,0,0,0-2.71,0c-2.85,1-5.1.93-6.77-.44a18.14,18.14,0,0,1-12-1.06c-2,0-3.44.06-4.84,0-3.52-.19-4.49.16-3.47,1.41a11.34,11.34,0,0,1,1.65-.19,17.6,17.6,0,0,1,1.94.25,8,8,0,0,1-3.33.72c-2.8-.05-5.6-.11-8.36-.28a12.27,12.27,0,0,1-2.61-.74l6.39-1-1.06-1.18-3.07.51-.59-1.39-1.82,1.79-7-1.67,2.39-1.26-5.37-1.54-.73.2c.49.24,1,.46,1.44.72a11.66,11.66,0,0,1,1.09.82,13.68,13.68,0,0,1-1.79.26c-1.76,0-4.09-.25-5.18.08-2,.6-4.75.21-6.72,1.21s-5.85,1.71-10,1.45c.49-1-5.19-1.41-1.5-2.48l-2.41-1a20.09,20.09,0,0,1,3.56-.61c2.42,0,4.83.37,7.23.36,3.38,0,6.75-.22,10.12-.35a12.38,12.38,0,0,0-4.5-.81,45.77,45.77,0,0,1-13.08-.86v1.31l-.88-.28c-1,.27-2.94.52-3,.8-.09,1-4,2.1.43,3,0,0-.2.23-.11.12a40.22,40.22,0,0,0-5.44.45c-2.34.6-3.65.55-4.64-.45-.83-.84-1.72-1.68-2.46-2.4L1310,25l-3.84-2.75c-1.9.61-3,1.23-4.33,1.33-2.05.15-4.4,0-4.66-1.17-3.72,1.65-4.6,1.62-7.12-.21-1.86.94-3.77.67-6.3.31-3.16-.44-6.74-.45-10.15-.63a2,2,0,0,0-.22.36l.09,0,0,0c2.65,0,5.68-.25,6.63,1.26l-7.49.43.85-1.69h-.08v0c-3.84,1-7.67,1.35-11.24-.17l-1.33,3.15c2,.21,5.29-.15,4.37,1.35l-8.65-.31,3.55-3.39a19.17,19.17,0,0,0-2.91.21c-1.19,1.2-4.51,0-6,.81-2.06-.59-4.2-1.13-6.15-1.77a19.34,19.34,0,0,1-2.83-1.45L1242,22.5h-3.8l1.68.8a13,13,0,0,0-1.93.39c-.48.19-.61.51-1,.75s-.82.46-1.24.69l-1-.15.61-2.92c-1.47,0-4.27.78-4.8,1.62s-1.36,1-3.3.63a31,31,0,0,0-3.17-.21l-.29,1.11c-2.8.47-5.76-.65-8.14.38a4.36,4.36,0,0,1-1.39,0c-2.09-.34-3,0-3.51.75-.22.31-1.4.52-2.14.77l-.95-.37,2.73-1.79a18.61,18.61,0,0,0-2.86.2c-1,1.21-3.57.88-5.74,1l0,0,.08,0h-.06c.56.43,1.71,1,1.37,1.25-.5.4-2.17.6-3.89,1v-2.1l2.52-.16,0,0-4.41-.88-1.64,2.51-9.7-1.58-1.12,1.32h-3.05V24.82h6.27l-2.79-2.39-1.06.13-1.47,1.56h-5.25L1177,25h-4.57l-.45-.26,3.32-1.05h-19.45l.43.92,5.62-.15.41.52-6.72,1.75L1153,24.82l-4.14,1.3c-.94-.56-3-1.4-2.61-1.63a26.81,26.81,0,0,1,5-1.44c-1.12-.07-2.35-.17-3.6-.22s-2.46-.06-3.68-.09c-.18,2.89.66,3-8.23,2.14-.67-.06-1.31-.16-2-.25l-.18-1.43-4-.42-.41,1.56-.82-.23a27.43,27.43,0,0,0-4.09,2.09c-1.24,1-2.68,1.34-5.34.86-1.05-.19-2.15-.34-2.93-.46l-1.66-2.81,5.52-.54-.16-.46-9.35.31c.46-1.8-3.58-3.81,3-4.83-.9-.17-1.9-.38-2.93-.55a43.34,43.34,0,0,0-6.16-.92c-3.52-.07-3.67-.68-2.94-1.71l9.14.35c-.8-.83-2-1.16-4.59-.91-2.19.21-4.56.15-7,.21-.11.4-1.06,1.25-.31,1.68,1.57.89,1.1,1.16-.91,1.25l3.1,1.16,6.84-.83v4.51l-1,.15-1.8-.92c-1.73,1.1-3.21.5-4.57-.31-8.11,2.12-16.58.79-25,.5l-1.9-1.19-1.9,1.47,5,1.24-6.8.62.74,2c-3.62.41-5.6-.11-6.28-1-1.36.23-3.22.63-3.36.55a13.45,13.45,0,0,1-2.26-1.65c-5.22.83-5.83-.44-5.4-2.07l-2.66-.49c-3.68.82-1.25,1.79-.38,2.72-.57.07-.89.12-1.23.14-4.46.35-4.31.35-4.05-1.45.06-.42-1-1.07-2-1.25-2.39-.43-5.05-.64-7.61-.94l-.61.41a9.55,9.55,0,0,0,2.5.7c4.35,0,4.62.94,3.85,2.6-2.66-.27-5.1-.49-7.49-.77-1.31-.16-2.52-.43-3.77-.65a5.59,5.59,0,0,1-2.2,1,12.32,12.32,0,0,1-3.15-.78l-9-.77-.33,1.37-14.7-.31a2.88,2.88,0,0,1-.94-.13c-.69-1.07-3.13-.12-4.34-.56.89.71-3.27,1-1.05,1.85.42.16.06.61.06,1h-8.35c.54-.59.93-1.07,1.41-1.53.31-.3,1.23-.7,1-.84a8.6,8.6,0,0,0-2.39-.6c-2.36-.39-4.77-.73-7.08-1.08v1.38c-1.3-.4-2.07-.61-2.77-.85-2.05-.7-4.07-1.42-6.15-2.11a2.29,2.29,0,0,0-.91.15c-1.78,1.23-4.49.56-7.15.38l-.59,2.08-.92.24-4-1.68c-1.92-.8-4.87-.87-5.52-.08a14.66,14.66,0,0,0-1.58,3.07l-7.91-.51,2.25-2.82-5.3-1.59-5.11-.4-.18,1.4c-6.43.63-6.43.63-7.91-.33-3.9.91-7.32.49-8.61-1.32-2.81,1.53,1.72,2.21,1.59,2.84a18.9,18.9,0,0,1,3.76-.69c3.68,0,7.35.23,11.81.39L931,23.64l-4.41-1.07-.88,1.08c-.79,0-1.63,0-2.46,0-2,.06-3.88-.11-6.13.14a43.4,43.4,0,0,1-10.43-.39c-3-.47-.61-1.78-.93-2.71,0-.13-.11-.27-.17-.4.08,1-3.66,1.54-2.16,2.71a16.18,16.18,0,0,1-2.69.6c-.55.07-1.43-.27-2-.2-5,.59-8.72.28-9.59-2.14l-.94.11L887,22.93l-3.86-.53c-3.55,2-7.74,2.4-10.79,1,.06,1.24-1.63.79-3.25.54a19.43,19.43,0,0,0-3.54-.34c-2.63.11-6.43-1.07-6.34-2.29-.46.28-.71.41-.89.55-1.92,1.49-4.06,1.74-8,1a36.69,36.69,0,0,0-4.35-.55c-2.31-.15-4.67-.2-7.14-.29l-.24.84-10.53.91,1.43-1.84c-1.41,0-2.94,0-4.45,0a11.53,11.53,0,0,0-2.77.25c-.67,1-1.06,1.71-4.94,1.58-1.85-.06-2.68,0-3.74-.61-1.36-.76-3.13-1.41-4.73-2.11l-1,.15,1.06-2.43c-4.93-.93-.79,1.83-3.79,2L802.41,20l-3.87.43c4.31.87,4.19,1.19-1.62,4-2.95-.54-6-1-8.83-1.65a38.75,38.75,0,0,1-5.37-1.56c-1.19-.45-1.8-1.05.85-1.26a21.38,21.38,0,0,0,2.29-.43l-9.9-.26-1.87,2.89-6.62-1.3c-2.43.14-5.63.4-8.86.48a10.89,10.89,0,0,1-2.82-.74,6.68,6.68,0,0,1,2.08-.84c1.83-.17,3.79-.14,5.69-.19a8.21,8.21,0,0,0-2.36-.42c-1.08-.15-2.07-.38-3.06-.57-2.91,1.26-3.38,1.22-5.58-.41l-1.93.25,1.44.64-2.88.79L746.78,23l-4.13-.81-1.73,1.15c-.66-.32-1.69-.62-1.91-1a7.5,7.5,0,0,1-.67-2.27l-6.24.53,2.83,1.66-.72.32c-1.6-.11-3.34-.11-4.77-.37-1.2-.22-1.91-1-3.07-1a22.33,22.33,0,0,0-4,.49,8.92,8.92,0,0,1-1.28-.22l2.58-1.63-4.78-.73c-2.34,2.22-3.06,2.52-8.38,3a19.38,19.38,0,0,0,2.22-1.2c.36-.29.63-.64.49-.94a6.46,6.46,0,0,0-1.92-.25c-1.25,0-2.51,0-3.46,0l-3.56.89V18.18h4.69l.66-1.08c-2.75,1.33-5.1.17-7.12.24l-2,2.16c.1.26.73.76.32,1-3.08,1.48-6.64.34-10.09.14l-3.62,2.23a12.84,12.84,0,0,1-2.81-.25c-2.46-1-4.63-2.09-7.28-3.31v4l-8-2.85.84,2-4.89-.6c-.55,1.16-2.07,1.36-4.29.7a21.63,21.63,0,0,1-2.57.58,40.69,40.69,0,0,1-4.23.25c-.48,0-1.48-.36-1.4-.47.71-1,1.6-2.07,2.5-3.17l-2.65-.27-5,2.69-.83-.19.8,1.55c-6.54.64-10.11,0-10.8-2l4.35-.11a23,23,0,0,0-3.67-.44,5.75,5.75,0,0,0-2.22.73c1.21.72.88,1.41-1.26,1.36s-5.25.11-6.27-1.12l5.28-.48a15.11,15.11,0,0,0-2.33-1.3,34.17,34.17,0,0,0-3.61-.76l3.52,2-4.17.1.71.94h-4.63l2.64-3.19H609.92c3.48,2.12-2.26,2.58-3.83,3.68-.54.38-4.47.06-6.23.06v-2.6l2.71-.11-5.5-1.5v2.91l-4.27.08c0,1.44-2.3,1.09-5,.62l3.11-.9L586.6,21c.44-.41.81-.79,1.23-1.15s.84-.64,1.47-1.12c-4,.36-5.25.91-5.79,2.43-2.77-.11-5.85,1.09-8.38-.39l-1.21.58a7.59,7.59,0,0,1,1.39.34c.49.3,1,.63,1.1,1,0,.13-1.24.48-1.51.43a7.17,7.17,0,0,1-1.85-.69c-1.07-.53-2.07-1.07-3.53-1.84l1.71-1.47a4.09,4.09,0,0,0-.78-.09c-2.15.5-3.86,1.41-6.91,1-2.06,1.7-6.85.11-9.46,1.13-1.62-1-4.74-.34-6.59-.86a18.66,18.66,0,0,0-7.38-.54,5.35,5.35,0,0,1-2.05-.29c-1.46-.63-2.3-.38-3,.23-.39.36-.68,1.06-1,1.06-3.06,0-7.12.27-8.94-.36-3.12-1.07-3.48-.4-4.55.54a48.72,48.72,0,0,0-7-.26c-3.06.34-5,.18-6.2-.9a5.27,5.27,0,0,1-1-1.49h-.37l-.34,2.24c-4.78.42-2.86-1.13-3.94-1.89-6.81.52.58,2.37-2.81,3.24,4.11-.16,4.32,0,3.72,1.58l-13.28.72-.45-.65-1-1.47c1.44,0,2.87-.11,4.31-.12s2.73,0,3.43.06l-1.21-1.79c-.87,1.51-3.06,1.61-6,.9a5.87,5.87,0,0,0-1.55,0c-2.74.23-5.46.49-8.51.77-.64,1.42-.64,1.42-7.06,1.12l4.78-1.6-5.78-2.07-1.39-1.71-.72.08-.7,1.6c-1.12-.42-2.3-.66-2.34-.92a9.55,9.55,0,0,1,.28-2.7c1.66,0,4.32-.17,4.83.14,2.73,1.64,3.25.48,4.07-.5,2,.12,3.87.26,5.75.35,2.82.13,5.91.55,8.39.25a36.6,36.6,0,0,1,6.48-.19c2.92.16,5.77.51,8.57.76a17.05,17.05,0,0,1,3.49-.48c6.47.36,12.89-1,19.35-.05a11,11,0,0,0,2.16,0c4.2-.33,4.46-.25,4.09,1.37l2.67-.29c0-.5-.23-.93.1-1.28a6.27,6.27,0,0,1,2.15-.24c5.72.14,11.44.34,17.17.46,1.61,0,3.7-.37,4.77-.1,2.56.63,3.65-.23,5.32-.49a15.51,15.51,0,0,1,1.93-.45c2.37.53,4.62,1.15,6.91,1.74,3-1.69,3.22-2.33,1.13-4.86-2.26,2.14-5.91.54-9.2,1.07l-.21.34c-2.81,0-5.29,0-7.76,0-2.11,0-4.22-.2-6.33-.19-1.48,0-3.81,0-4.29.37-2.49,1.72-2.87.21-4-.12-2.39-.09-4.67-.35-7-.54a11.23,11.23,0,0,0-2.07.19c-2.29.28-3.35,1.69-6.68,1l-.64-.8-2.14,1.07c-1-2.2-4.74-1.39-7.38-1.49l-.64,1h-4.79c.1-.26,0-.47.27-.6a10.08,10.08,0,0,1,1.37-.49,10.18,10.18,0,0,0-2.17-.45c-2.21,0-4.41.16-6.5.24l-.46,1.43H487.63c.55-1.9,4.7-.5,5.39-1a4,4,0,0,0-2.13-1.93l-2.5,1.78L483.7,11l.58-.32h6.38a22.82,22.82,0,0,0-4.29-1.3c-.2,0,.13-.44.26-.78-1.8.07-3.32.11-4.82.18-4.42.22-8.83.49-13.27.64-1.17,0-2.84-.57-3.57-.41-2.92.63-3.38-.11-4-.59-2.26.17-4.51.19-6.73.29-4.87.24-9.74.72-14.6.71-3,0-7,.25-8.09-.93-2.4.28-4.34.54-6.34.72-2.23.2-4.81-.8-6.85.27a3.17,3.17,0,0,1-.71,0c-2-.08-4-.23-6-.23-1.86,0-3.81.33-5.56.2-4.28-.32-8.38-.58-12.15.56a3.44,3.44,0,0,1-1.29-.09c-2.19-.74-4.32-1.5-7.08-2.47l2.51,2.5c-9.89.37-11.78.22-12.25-1l4.34-.08L377.57,8l-4.68.52c.41.34,1.31.75,1.07,1a9,9,0,0,1-2.49.53,8.56,8.56,0,0,0-1.53.23c-.71.89-1.51.69-3.21.26-4.08-1-7.2.8-11.06.69a.52.52,0,0,0-.25.08c-.06,0-.05.09-.07.13l1.69.83a6,6,0,0,1,1.2-.55c3.65-1,4,.58,5.68,1.1.85.26,1.84.44,2.76.66.3-1.07,2.62-.45,3.91-.69,1-.19,1.92-.52,2.88-.78a7.87,7.87,0,0,1,2.15-.51,3.9,3.9,0,0,1,1.49.53l2.93-.65L381.12,13,384,11.47s.73,0,1.43,0l5.29.16-1.94,1.28c-.05,0,0,.1,0,.13l-7.6,3.57a11.49,11.49,0,0,0,2.52.37c3.12-.08,6.21-.3,10.14-.51-5.33-.38-3.14-1.8-3.49-2.79-.25-.7,3.39-1.54,5.16-1.34,1.53.17,3.09.32,5.5.56a9.92,9.92,0,0,1-2.63,1.53,17.55,17.55,0,0,1-3.38-.55l-1.73.87,8.63,1.13V13.53c2.4-.3,5.77.23,6.14-1.32h-6.05l-.24-.47,3.73-.36c.91-.51,1.53-1.2,2.27-1.22,2.2-.06,4.47.12,6.69.26.26,0,.69.46.5.57-1.38.75.31,1,1.38,1.39.45-1.89.8-2,5.64-2,3.6,0,7.3.72,10.82-.23a11.54,11.54,0,0,1,2.31.22,20.31,20.31,0,0,0,2.31.19c2.89-.06,5.8-.31,8.65-.23,3.36.1,7.17-.62,10.08.64a6.89,6.89,0,0,0,1.73-.12c2.52-.35,3.75,0,3.4,1.15,3.44.46,2.53-1.88,6.46-1.39a73.85,73.85,0,0,0,8.34.06c-.21,1.55-2.15,2-5.5,1.37.2.85.2.85,6.37.23.47-.7.57-1.25,1.23-1.67a11.51,11.51,0,0,1,2.56-.44l1.64,2.2,1.8,1a24.5,24.5,0,0,1-4.7.87c-3.75,0-7.49-.33-11.14-.52L467.91,12h-.39l-.33,1.81H448l3.15-1.39-1.47-.65c-.63,0-1.69,0-2.71-.09a4.35,4.35,0,0,0-2.43,0c-3,.73-1.2,1.43-1.27,2.32-4-.07-8-.21-11.88-.15a12.08,12.08,0,0,0-4.38.81c-.74.4-.15,1.15-.15,1.74l1,0-.71-1.31,9.33-.47.72,1.47c1.74-.21,3.19-.37,4.61-.56,4.09-.56,6.12,0,5.6,1.55,3.07-.45,5.93-.57,7.62.78a1.71,1.71,0,0,0,.68.1l7-.24.88.54c-1.33.69-2.32,1.6-4.1,2-1.28.27-3.59-.12-5.51,0-.31,0-1-.62-1.63,0-.59-.13-1.21-.24-1.76-.39s-.87-.29-1.63-.55V21c-3.67-.8-8.12,1.2-10.88-.4l-5.81-.53a48.9,48.9,0,0,1-14.67.2l-.42,1.39a19.42,19.42,0,0,1-2-.88c-1.34-.79-6.06-1-8.13-.29l-.34,1.25c-6,.17-11.85.38-17.69.46a8,8,0,0,1-3.06-.85c-.2-.09.67-.78,1.29-.83a22.79,22.79,0,0,1,3.37.2c1.53-.85,1.53-.85-4.48-1.07l-.83-1.28a1.58,1.58,0,0,0-1,1,3.53,3.53,0,0,1-.71.91,6.79,6.79,0,0,1-1,.6c-.4-.22-.83-.44-1.21-.67a5.64,5.64,0,0,1-.55-.41c-.74.45-.58.91-1,1.28a8.3,8.3,0,0,1-2,.77l-.77-.28V20.24l-4.38.42c0,.09.21.27.18.44-.09.45.13,1.16-.48,1.29-1.07.23-3,.56-3.58-.45a13.68,13.68,0,0,0-2.84-.47l1.08,1.87-8-.92c1.32,1.09.45,2.26-1.82,2.3-1.74,0-3.51-.15-5.67-.25l.82-1.15-9.17-.55-.54,2.29-1.13,0c-3.4-1.69-8.09-1-12.25-.91l-1.13-1.75,4.15-.9-.73-2.43c-1.12,1.15-7.48,2.06-9.88,1.55a6.66,6.66,0,0,0-2-.19,1.25,1.25,0,0,0-.83.81,12,12,0,0,0-.39,1.8l1.84.25c-2.93,1.8-2.93,1.8-4.48.77a24.63,24.63,0,0,1-4.08,0c-1.81-1.27-5.57-2.4-2.68-4.11-4.46-.56-6.45-.09-6.06,1.29l3.53.54-.11.41c-4-.17-5.67.71-6.33,2.23l-3.46-1,1.79.69-3.31,1.14c.19.08,0,.82-2.18,1.12a53.1,53.1,0,0,1-6.18.1l3.34-2.15a9.14,9.14,0,0,1-1.24-.64,2.85,2.85,0,0,0-3.56,0c-1,.81-1.54.55-3.11.14a23.45,23.45,0,0,0-5.32-.12c-.17,0-.29.83-.22,1.27a6.76,6.76,0,0,0,.7,1.52L271.14,26l-1.55,2.65-4.27-.72-1.1-2.22,1.16-.21,2.31,1.2c.69-.86,2.5-1.76-1.82-2.39-1.51-.22-2-1.44-3-2.18a14.71,14.71,0,0,0-1.83-.86l-3.15,4.41,5.41-.37-2,2h-9.42l-.27,1.7c-1.46.16-2.56.33-3.71.4a8.71,8.71,0,0,1-2.32-.08c-1.29-1.17-3.89-1.2-6.58-1.25a7.79,7.79,0,0,1-1.46-.3l-.67,1-10.44-1.19c-.18.67-1.81.91-4.32.85-3.93-.1-8-.45-11.63.53-2.62.71-4.16-.47-6.23-.51-4.73-.1-9.48,0-14.22-.05-3.06,0-6.11-.15-8.42-.21a23,23,0,0,1-3.16.25c-1.15-.1-2.19-.56-3.27-.56h-.1c.5,1.4,1,2.47-2.28,2.92a56.18,56.18,0,0,1-5.73.17c-1.05.21-2,1.08-3.43,1.22-3.07.3-6.4.21-9.63.29-1.89-2.68-1.89-2.68-.08-4.21-1.67,0-3.68.23-4.64,0a6.23,6.23,0,0,0-4.29.26,10.07,10.07,0,0,1-2.22.46c-4.42.22-8.85.39-13.28.57l-4.91.21c-.24.94-3.26,1.78-1.68,3,.17.13,0,.43-.24.52-2.88.87-5.82,1.71-9.27,2.71-1.07-1.14-2.39-1.91-2.33-2.67s1.48-1.53,2.57-2.55c-7.67,1.54-15,.53-22.34.51-1,1.5-.94,1.48-4.31.56a11.26,11.26,0,0,0-2.65-.36c-3.66,0-7.34-.1-11,0-4.07.12-8.11.42-12.19.64,1.46,2-.68,3.88-5.2,4.53a7.56,7.56,0,0,1-2.7-.12c-1.39-.56-2.09-1.33-4.92-.76a58.75,58.75,0,0,1-6.2.54l.08.28,4.1.2.47.39a49.88,49.88,0,0,1-6.72,1.09,73.78,73.78,0,0,1-7.87-.54l2.39,1.86,2.49-.64a7.75,7.75,0,0,1,.61.67c-1.82.29-2,1.71-5.2,1.07-.9-.18-2-.24-3.49-.41-1,.95-3.09,2-2.57,2.81.92,1.43,0,2.19-3.24,2.69,2.13,2.06,4.14,2.58,6.21,1.58,1.85-.9,3.41-.4,5.2-.42,2.88,0,3.83.37,2.59,1.41,0,0,.91.15,1,.27.23.39.47.82.3,1.2s-1,.44-1.44.67-1.23.59-1.84.88l-1.94-1.12L31,52.13l7.89.21,1.19,1.28c.67-1.12.73-2.14,4.88-1.41-.88.51-1.62,1-2.53,1.43s-2.11.88-3.87,1.6c-3.14.22-7.3.65-11.53.78-6.07.18-6.27.15-7.11,2.42l-.9-.2L15.62,60.5l1.38.06c.1.35.59.91.23,1-3.52.95-4.47,2.31-4.68,3.83l3.64,0c1.42-.43,1.85-1.41,3.35-1.85l4.72.46a5.3,5.3,0,0,0-1.35,1.36l1911.3-6.49C1933.58,57.74,1930.6,50.33,1932.56,49.91ZM38.92,61.54c-11.27.2-11.27.2-11.06-1.35,2.41.36,4.7.67,6.5-.48.4-.26,2.91,0,4.56,0Zm30-16.7A13.2,13.2,0,0,1,64.77,46c-4.1.44-8,1.09-12.59.91-4.89-.19-5-.07-5-2,0-.23,0-.45,0-.86,2.24.51,5.63-.81,6.34.85,3.5.09,6-1.45,9.74-.84,1.43-.15,3-.4,4.57-.43C68.2,43.69,69.29,44.66,68.92,44.83Zm-2.06-2.5a6.39,6.39,0,0,1-2,0c-1.42-.57-2.65-1.21-4.13-1.91l9.37-.37C71.59,41.32,69.82,42,66.86,42.34Zm71,1.53c-2.41,0-4.88.11-7.2-.05a3.73,3.73,0,0,1-2.43-1.12c-.34-.61.14-1.28.28-2h10.62c-1.45.9-4.17,1.87.5,3Zm2-.33V40.43l12.34,1,3.8-.87L157.44,43C151.36,42.78,145.93,43.65,139.83,43.54ZM302,26.44a1.44,1.44,0,0,1-.71.23c-2-.37-4-.77-6.06-1.16l.42-.35,7.33-.4C302.59,25.42,302.34,25.93,302,26.44Zm30.12,4.73V29.79c3,.07,6.24-.46,8.58,1ZM345,30.8a34.81,34.81,0,0,1-3.86-.52l.4-.45H346l.84.26A5.86,5.86,0,0,1,345,30.8ZM499.8,26a8,8,0,0,1-2.61.63,15.81,15.81,0,0,1-2.57-.22l-.56,1.29-1.28.22-3-2.15a45.89,45.89,0,0,1,5.62-1.18,15.1,15.1,0,0,1,4.09.48C500,25.21,500.17,25.83,499.8,26ZM508,27.49a4.65,4.65,0,0,1-1.29-.28c-1-.57-2.65-1.26-.69-1.83a25.5,25.5,0,0,1,4.69-.17l.86.47C510.44,26.29,509.28,26.9,508,27.49ZM525.1,24a8.86,8.86,0,0,1-2-.4c-.83-.8-1.46-1.52-2.85-.11a2.15,2.15,0,0,1-.92.12c-.85-.19-2.28-.42-2.29-.64,0-.58.58-1.17.94-1.76l2.59.49a6.1,6.1,0,0,0,1.06.2C526.77,22,526.88,22,525.1,24Zm156.08-1h-3.24V21.55l.93-.25L682,22.74Zm125.47-1c-.32.45-1.06,1.21-1.68,1.22-1.91,0-3.57-.3-2-1.31l-1-.18a6.81,6.81,0,0,1,2.24-.86C806,20.91,807.16,21.37,806.64,22.09Zm155.54,2.66a19.35,19.35,0,0,1-3.21-.54,13,13,0,0,1-1.92-.75l.71-.56c2.17.16,4.4.25,6.46.53.52.07.47.75.68,1.14A19.84,19.84,0,0,1,962.18,24.75Zm24.65,2.34c3.87-.49,5.27.4,6.46,1.69C987.86,29,986.67,28.62,986.83,27.09Zm13.85-1.22L998,24.58h6.48C1005.74,26.09,1001.48,25.25,1000.67,25.86Zm77.76.57c-2.22-.17-3.9-.6-3.64-1.57.06-.24,1.51-.42,2.33-.63l2.55,1.9Zm4.61.14a8.84,8.84,0,0,1-2.82-.25c-.27-.06.08-.62.4-.91a21.75,21.75,0,0,1,1.92-1.38l1.07-.21c.41.46,1.21.93,1.12,1.37S1083.93,26.22,1083,26.57Zm11.56,4.56-4.43-.71-.47-.47a16,16,0,0,1,3.44-.36,7.11,7.11,0,0,1,2.39,1.24Zm8.4-4.73c-.7-.19-2-.38-2-.55.06-.48.67-.94,1.4-1.82,1,.74,1.83,1.09,1.87,1.45S1103.47,26.1,1103,26.41Zm16.58,4.42c-6,.14-6.15.06-6.1-1.53,2.19,0,4.21-.2,6.06-.06a22.08,22.08,0,0,1,3.86.92A24.67,24.67,0,0,1,1119.59,30.82Zm13.15-3.33c-2.17-.4-4.55-.55-5.39-1.06s.6-1,2.52-.73c.89.11,1.81.19,2.88.3Zm83.19,1.37c-1.6-.49-2.94-1.1-4.37-1.67a15.75,15.75,0,0,1,3.12-.74c2.4-.11,4,.28,3.94,1.61A19.91,19.91,0,0,1,1215.92,28.86Zm38.46-2.65-4.92-.37c0-1.45,2.14-1.46,4.92-1.27Zm13.6,0-3.73-2.62,1.36-.4a40.45,40.45,0,0,1,4.05,1.78C1269.93,25.14,1268.82,25.63,1268,26.22Zm341.49,7.64c-1.26-2.31-.92-2.45,4.73-2C1613.77,32.89,1613.53,33.94,1609.47,33.86Zm55.39-.28c-2.62.26-5.43.25-8.17.34-4.22.14-8.45.22-12.65.42a48.68,48.68,0,0,1-12.57-.61,20.15,20.15,0,0,0-2.53-.19c5.07-1.62,8.25-.12,11.75-.24l1.45-1.59,10.46.47.33-1.76c6.64-.11,6.64-.11,8.1,1.66.76-.05,1.54-.17,2.29-.15,1.09,0,2.16.16,3.24.24C1666,32.67,1665.7,33.5,1664.86,33.58Zm33.12-.11-.88-.25c.39-.34.56-.87,1.21-1,2.06-.35,3.89-1.41,6.53-.57.79.25,1,.77,1.45,1.16l-.92.34-4.34-.49Zm77.51,11.81c-2.1.26-4.34.37-7,.58l1.14-1.72h7.28l.73.28A7.45,7.45,0,0,1,1775.49,45.28Zm5.86.64c-1.2-.6-2.44-.94-2.42-1.27s1.23-.7,1.92-1.05a8.6,8.6,0,0,1,2.16,1.12C1783.21,44.94,1782.24,45.32,1781.35,45.92Zm33.77-1.54c-2.33.18-4.76.17-7.09.34-1.13.08-2.11.44-3.22.61a6.06,6.06,0,0,1-1.83,0,14.77,14.77,0,0,0-6.54-.17c-3.81.68-8.12-.23-8.1-1.87,9.64-.16,19.28-.94,29.86.21A18.1,18.1,0,0,1,1815.12,44.38Zm6,.32c1.26-.86,1.82-1.76,3.23-2,.9-.18,3.06.53,4.74.86C1827.77,45.1,1824.54,44.51,1821.17,44.7Z"/><path class="cls-1" d="M1031.09,22.85h0l.08,0Z"/><path class="cls-1" d="M1274.66,22.28l0,0-.09,0v0Z"/><path class="cls-1" d="M1095.67,40h0Z"/><path class="cls-1" d="M493.67,10.72h-.41l.24.12Z"/><path class="cls-1" d="M1203.21,26.1l-.08,0,0,0Z"/><path class="cls-1" d="M1603.58,51.4h-.12v0l.09,0A.27.27,0,0,0,1603.58,51.4Z"/></g></g></g></svg>