<svg xmlns="http://www.w3.org/2000/svg" viewBox="0 0 539.63 114.99"><defs><style>.cls-1{fill:#7d9792;}</style></defs><title>Recurso 6</title><g id="Capa_2" data-name="Capa 2"><g id="Capa_10" data-name="Capa 10"><path class="cls-1" d="M162.68,3.83a1.77,1.77,0,0,0-.62-.15c-1.19.17-2.37.4-3.56.54-.28,0-.58-.28-.88-.34-.81-.16-1.63-.25-2.43-.43-.24-.06-.44-.33-.65-.51l.18-.26.89.07c.12-1-.58-.74-1.12-.67l-2.63.36L151.68.88c-.25.4-.46.59-.49.8-.09.67-.46.89-1.09.79,0,0-.08,0-.1,0-1.08.78-2.36.31-3.53.5-1,.16-2,.19-3.09.28l-.64.6-.49-.51c-1.48,0-3-.43-4.06.1-1.58.81-2.83.13-4.09-.07-.32.27-.65.7-.78.64-.32-.12-.52-.53-.82-.72-.48-.3-1-.51-1.51-.76-.39,1-1,1.3-1.84.87-.27.93-1.7,1.49-3.67,1.39V3.68c-.23.11-.6.21-.61.32,0,1.17-.88.81-1.52.85-.9-2-.85-2.28.76-2.45-.22-.41-.49-1.08-.58-1.05-.82.22-1-.74-1.52-.8a7.44,7.44,0,0,0-1.78.14c-1.29.18-1.29.19-1.58.84l1.4-.21,1.2-.16.08,1.48,1,.1c-.13.64-.28,1.14-1.07,1.18a1.9,1.9,0,0,0-.88.4c-.63.42-1.19.62-1.62-.3l-1.15.75c-.08,0-.24.11-.26.09-.66-.74-1.44-.24-2.17-.2a4.8,4.8,0,0,0-1,0c-1.27.36-1.34.33-1.5-.91,0-.08-.2-.14-.36-.25-.12.29-.17.7-.38.81s-.61,0-1,0a1.76,1.76,0,0,1-2.3.79c-.24-.08-.81.1-.86.28-.28.88-.84.69-1.46.49a1.1,1.1,0,0,0-.38,0l.57.56a2,2,0,0,1-.77.11c-.67-.19-1.31-.47-2-.71l-.16.22-.28-.9c-.38.27-.69.52-1,.73a2.61,2.61,0,0,1-.81.35c-.77.16-1.55.29-2.33.4a18.75,18.75,0,0,0-2.29,0,8.1,8.1,0,0,1-3.1.26A8.27,8.27,0,0,0,90,7.43c-.68.2-1.57-.35-2.06.58,0,.06-.26,0-.39,0l-2-.37c.09.58.13.87.17,1.16l.67.1c.1-.31.18-.58.29-.83,0,0,.31,0,.34.08.26.49.48,1,.78,1.65L85.35,10l.36-1.21c-.4.14-.8.3-1.22.42-1.23.36-1.79,0-2-1.35-.83.34-1.8,0-2.5,1-.51.74-.87-.12-1.21-.62-.44.25-.87.5-1.31.74-.11.06-.32.13-.37.08-.95-.95-1.78.41-2.79.11a5.21,5.21,0,0,0-3,.16,15.52,15.52,0,0,1-2.86.52c-1.17.17-2.36.29-3.53.44-.8.11-1.59.29-2.38.34-.59,0-1.19-.16-1.78-.11a3.1,3.1,0,0,0-1.13.48c-.18.1-.32.43-.46.41a2.59,2.59,0,0,1-.79-.4l-1,.29-.17.66c-.42-.24-.74-.45-1.09-.62s-.82-.58-1.27.1c-.12.18-.9-.08-1.38-.12s-1.2-.38-1.61.33h1.32l-.44,1.21-.33.06L52,11.6a6.15,6.15,0,0,0-2.56-.38c-.22,0-.44,0-.94.06.7.6,1.19,1.07,1.72,1.47.9.68-.27,1.17-.07,1.78-.54.11-.81.12-1.14-.44a2.65,2.65,0,0,0-1.67-.84c-.56-.11-.87-.2-.84-.82s0-1-.72-.47c-.07.06-.31-.09-.47-.15l.41-.53-.61-.46c-.6,1.44-1.43.66-2.23.09l.37.77c-.28,0-.78.17-.82.09-.58-1.17-1.71-.36-2.53-.69-.49-.2-1.17.07-1.76.1a1.63,1.63,0,0,1-.52-.12l-.86-.28c0,.36,0,.81.16,1.06a1.91,1.91,0,0,1-.48,2.54.38.38,0,0,1-.29,0c-.69-.4-1.37-.82-2.08-1.25-.6.58-.81,1.64-2,1.6-.11,0-.24.11-.33.19s-.31.31-.47.46a1.93,1.93,0,0,0,.1-.64,2.39,2.39,0,0,0-.34-.84,2.11,2.11,0,0,0-.54-.42l.66-.4c-.69-.92-.56-1.55.43-1.83l.29.89.61-.51.3.94,1.08.27L34,11.52,35,11.26c-1.09-.66-2.56.48-3.2-1-.53.59-1,1-1.86.49-.41-.23-1.17.14-1.78.24,0,.12.07.34.12.34,1.2,0,.9.86.9,1.5a2.87,2.87,0,0,1-.85.45,1.91,1.91,0,0,1-1.08-.16c-.17-.09-.17-.51-.25-.77.67-.13.57-.65.62-1.12,0-.09.37-.14.57-.2-.22-.3-.38-.7-.67-.86a2.64,2.64,0,0,0-1.06-.09c.15.35-.9.21-.34.77,0,0-.26.45-.44.48s-.47-.15-.79-.27c-.33.52-.87.44-1.61.18-.43-.15-1,.2-1.38.28a23.9,23.9,0,0,1-1.29,2.76c-.5.8-1.19.73-1.84,0-.11-.13-.42-.07-.62-.14-.91-.34-1.81-.69-2.72-1a3.71,3.71,0,0,0-.91-.34c-.6-.05-1.21,0-1.89,0V12l-2.57.83V13l3.71.5c.41-.1.95-.38,1.11-.24a6.62,6.62,0,0,1,1,1.48c-1.53,0-2.25,1.8-3.84.7l.2,1.56a3.12,3.12,0,0,0-.9-.13c-.41.08-1,.15-1.15.42a3.34,3.34,0,0,1-2.76,1.47c-.69.09-1.31,0-1-1a.69.69,0,0,0-.06-.46c.5-.38.82-.63,1.15-.86l1.66-1.16c-.93-.55-1.28-.48-2,.42-.49.58-1,1.13-1.56,1.69-.09.1-.23.22-.22.31.18,1.12-.5,1.34-1.49,1.27l.05.28c.32,0,.63.08.95.07.63,0,1.21,0,1.39.77a3.21,3.21,0,0,0,.23.53h-.8l.21,1.5,1.72-.29,0-.84,1.8-.28A2.32,2.32,0,0,0,10.18,23c.11.11,0,.45-.08.84l.76,1.07H8.6V23.35c-.75,1.35-1.44,1.21-2.13.29-.23.18-.61.33-.67.55-.18.66-.58.55-1.12.69-.86.23-1.83-.06-2.64.66-.48.43-1.35.43-2,.63l.31.61,3.43-.43-.25,1a5.17,5.17,0,0,0,1.79-.55,1.6,1.6,0,0,1,2.06-.08,21.89,21.89,0,0,0,3,1.19.94.94,0,0,0,.78-.07c.48-.41.82-.16,1.33,0a21.17,21.17,0,0,0,3.37.31l-.45-1.24c2.26-.41,3.55-.12,3.86.89.89-.48,1.91-.12,2.91-.7.74-.43,2,0,3,.09,1.51.07,3,.14,4.53.18s3.13,0,4.69.06c.15,0,.39.12.44.06.9-1,2.07-.37,3.1-.47.51,0,1.06.38,1.6.43A1.65,1.65,0,0,0,40.77,27a1.05,1.05,0,0,1,1.4-.35,2.54,2.54,0,0,0,2.32.11c.73-.42,1.06.14,1.26.6l2.56-.14.18-.73c.16.15.31.31.47.45s.25.29.37.28c.74,0,1.47-.13,2.2-.14,1.73,0,3.47,0,5.2,0a.9.9,0,0,0,.48-.09c.8-.57,1.43-.24,2.16.43a3.26,3.26,0,0,0-.69.47,3,3,0,0,0-.35.71L56.47,29a2.17,2.17,0,0,0,2.81-.36c.08-.13.28-.18.42-.27l.11,1a11.33,11.33,0,0,1,1.34,0c.1,0,.28.36.23.49a1.2,1.2,0,0,1-.31.43c-1.4.12-2.61.24-3.82.31-1.37.08-2.75.1-4.12.19-.65,0-1.28.26-1.93.31s-1.06,0-1.08-.79.49-.81,1.07-.78,1,0,.68-.71c-1.15-.1-2.28-.23-3.41-.27-.63,0-1.45-.34-1.71.71,0,.17-.57.22-1,.36l-.17-.83a18.17,18.17,0,0,0-2.25,0,1.23,1.23,0,0,0-.86.62c-.37,1-1,.71-1.68.48s-1.29-.48-1.89-.71c-.15.38-.23,1-.48,1.1a10.66,10.66,0,0,1-2.88.51c-1.09,0-2.21-.34-3.28-.25A3.76,3.76,0,0,1,30,30.41c-.16-.08-.43,0-.65.08L27,31V32l-1.54-.83a2.57,2.57,0,0,1-.88-.13c-.12-.05-.16-.64,0-.77a1.77,1.77,0,0,1,1-.41,12,12,0,0,0,2-.14c.42-.13.71-.67,1-1.11-1-.14-2-.45-2.65.63a1.47,1.47,0,0,1-1-.23,2.29,2.29,0,0,0-2.29-.42c-.63.18-1.28.28-1.91.47a2,2,0,0,0-.88.45c-.57.62-.92,1.2-2.11,1-1.65-.24-3.39-.69-4.94,0a11.75,11.75,0,0,0,1.49,1.22c.26.16.72,0,1.08,0s.45-.33.59-.27a.88.88,0,0,1,.42.56,3.78,3.78,0,0,1,0,.9l-2.58.35.47.62.05-.31a2.54,2.54,0,0,1,.76.08c.27.12.55.54.72.49s.4-.45.68-.81a1.83,1.83,0,0,1,.3.46c.22.78.84.72,1.35.52a3.15,3.15,0,0,1,2.53-.16,16.11,16.11,0,0,0,2.53.25c.29.33.51.56.7.8.67.83-.3,1.1-.62,1.53A8,8,0,0,1,21.74,38c-.94-.7-1.87.06-2.86.46a2.28,2.28,0,0,1-.61.07c-.75.08-1.43-.7-2.25-.13-.12.09-.51-.19-1-.37s-.52,1.7-1.27.26a3.2,3.2,0,0,1-3.34.55c-.79-.37-.8-.32-1.54.41a.56.56,0,0,1-.5.11,1.44,1.44,0,0,1-.1-2c.64-.41,1.31-.79,2-1.2L7.91,35.06a12,12,0,0,0-1.16,1.2,1,1,0,0,0-.17,1.24,3.5,3.5,0,0,1,.15,1.41c-.56,0-1.19.5-1.65-.26-.09-.16-.41-.18-.88-.37l.9,2.83-.75.11L3.4,44.16c.57.07,1.16.19,1.76.22,1.14.05,1.21.1,1.08,1.53a14.88,14.88,0,0,0-2.3-.27c-.39,0-.77.39-1.18.62.22.45.8,1-.12,1.14l1,2.22-1-.21C1.17,51.22,2.4,52.19,3.93,53c.49-.77,1.4-.54,2.21-.52.23,0,.45.37.56.46L4.39,54.41c.38,2.09.38,2.09,1.85,2.13l.16.72c.87,0,1.93-.47,2.2,1l-2.38.41c0,.73-.74,0-1.29.08l.43,1.66-.24.16L4.2,59.9l-1.25.78c-.14,1.1.31,1.42,1.48,1a15.69,15.69,0,0,1,1.74-.34,10,10,0,0,1,3.26-.28c.71.07,1,.27.53.93-.22.34-.34.76-.58,1.07a.8.8,0,0,1-1.25.15c-.25-.17-.83.15-1.33.26v-1c-.19,0-.56-.12-.65,0a7.14,7.14,0,0,0-.67,1.16l.24.17-1.82,1.4c.54,0,.85.09,1,0,1-.88,1.85-.15,2.71.2.26.11.38.57.56.87A3.36,3.36,0,0,1,7,66.8a5.89,5.89,0,0,1-1.35-.27,4.1,4.1,0,0,0-.69,0l0,.31c.53.07,1.06.15,1.59.2s1.13.09,1.16.8-.59.51-1,.6a12,12,0,0,0-1.39.48c.3.37.56,1,.92,1.07,1.22.22,1.25,1.15,1.55,2.12C6.21,72.4,6.5,73.41,7,74.46l-1.31.33c-.65-.49-.57-1.93-1.95-1.34a3.24,3.24,0,0,0,1.3,2.75c.1.07,0,.47-.06.72l-.38,0,1,1.62.25-.14c.23,1.63.29,1.61,2,1.74a29.37,29.37,0,0,1,3.21.56c.49.51.81.81,1.08,1.14s.46.66.7,1c-1.16.52-1.17-.21-1.36-1l-.33.92L8.91,83l.62,1.38.54-.8.51.63c.14.16.37.3.4.48a2.3,2.3,0,0,1-.08.86c0,.08-.28.17-.27.19.35.75.08,1-.72,1-.5,0-.93.35-1.45-.3s-1.14-.34-1.73,1.13c.9.36,1.16.9.9,1.93-.14.58.45,1.33.72,2a6.09,6.09,0,0,0,1-.3c.88-.46.94.56,1.45.77,0,0-.11.31-.17.48L9.9,92l-.66,1.33a8.32,8.32,0,0,1,2.19-.38,6.64,6.64,0,0,1,1.87.78l-.13.28L12,94.13l0,.2a6.79,6.79,0,0,1,1.73.39c.79.41,1-.14,1.37-.55a.87.87,0,0,1,.75-.09,2.57,2.57,0,0,1,1.45,3.25c1.14.16,2.26.37,3.39.46a29.45,29.45,0,0,0,3.06,0,1.44,1.44,0,0,0,.74-.26c.94-.66.93-.67,1.2.4,2,0,4.09-.74,6.23.36a6.28,6.28,0,0,1-.72-1.83,6.44,6.44,0,0,1,.65-1.91c1,.72,1.78,1.32,2.58,1.95a.39.39,0,0,1,.07.37c-.44.9.4,1.51.47,2.18l1.37.15c1.23.13,2.47.25,3.7.41a1.51,1.51,0,0,1,.62.33c.37.27.63.61,1.19.19.27-.2.83,0,1.29,0-.5-1.1-.5-1.1,0-3a14.7,14.7,0,0,1,2.68.2c.4.1.66.73,1,.88a6.15,6.15,0,0,1,1.6.12c.95.33.76,1.14.62,2.19l-.69-.94-1.65.36,0,.26c.78.08,1.56.21,2.34.22.3,0,.59-.33.91-.4a2.63,2.63,0,0,1,.88.18c.64,0,1.49-.13,2.35-.15,1.32,0,2.65,0,4,0,.58,0,1-.88,1.74-.37,1,.7,2.14.45,3.24.38.7,0,1.15.12,1.2.61l2.91-.85.19.69c.14-.08.27-.21.41-.21.75,0,1.48-.06,1.83-.9,0-.09.43-.09.65-.05a9.56,9.56,0,0,1,1,.29l.08,1.25,0,0h2.65l.56,1.44L72.11,102l.88,3.17a4.64,4.64,0,0,0,.51-.62c.29-.53.42-1.41.84-1.56,1.2-.45.7-1.1.51-1.71l-.64.86-.32-.15.31-1.59,1.19-.52.43,1.9,1.76-.37a9.82,9.82,0,0,0-.19,1.09,2.91,2.91,0,0,0,.06.91,2.6,2.6,0,0,0,1.48-.09c.44-.3.59-.49.87.1s.66.56,1,0a3.11,3.11,0,0,1,.34-.46l-.93-1.54a5.79,5.79,0,0,1,1.72.07c.61.21.66.75.61.8l.92.82-.5.49,1-.73c.18,1.09.64,1.72,1.76,1.6l0,.29-1,.39c-.11,1,.45,1.33,1.69.93-.81-1.22.24-2,.75-2.95.08-.14.67,0,1.14,0,.43-.73.43-.73,1.25.56l-.51.18c0,.49.05.89.11,1.29a1,1,0,0,0,.23.58c.09.07.38,0,.55-.14a2.61,2.61,0,0,1,2.75,1.11l.2-1.74-1.16-.65L92,103c1.16,0,2.46.56,3.41-.65l.31,0L95.9,104l2.55-.39-.23-.83a10.31,10.31,0,0,1,1.58-.18c.63,0,.87.87.51,1.65l2.23-.66-.3,1.34c.34-.14.76-.2.79-.34.16-.73.7-.48,1-.32s.11.6.13.93a1.14,1.14,0,0,1,0,.31l1.22.3v-1l.21-.2c.19.18.47.33.56.55s.06.6.27.92a3.19,3.19,0,0,1,.15-.29c.11-.16.22-.32.34-.48a3,3,0,0,1,.27.43,3.6,3.6,0,0,1,.2.65,1.27,1.27,0,0,0,.28.69l.23-.92c1.67-.16,1.67-.16,1.25-.77a2.56,2.56,0,0,1-.94.15c-.17,0-.42-.53-.36-.6.23-.26.57-.62.85-.61,1.63.06,3.25.21,4.93.33l.09.9a1.77,1.77,0,0,0,2.27-.21,5.53,5.53,0,0,1,.56-.63l.12,1a5.47,5.47,0,0,1,4.09.14l1.62-.38c.77-1.14,2,.29,3-.29v1.21a5.82,5.82,0,0,1,.45-.39c.15-.11.33-.19.49-.28.17.48.37,0,.45,0,.54.1,1.18-.18,1.54,0s.77.93,1.14,1.42l-.24.39-1.95-.17a.23.23,0,0,0-.19.07c-.47,1-1.27.88-2.12.56.14,1.15-.42,1.52-1.56,1.11-.39-.14-.8-.25-1.28-.4l-.2,1.05-2.6-.34.2-.94-.29,0c0,.43-.16,1,0,1.25a1.76,1.76,0,0,0,1.22.58c1.09,0,2.19-.06,3.31-.11,0,.63-.49,1.14.35,1.66.43.27.45,0,.68,0a7.08,7.08,0,0,1,.75-.06l.46-.52.19.32-1.12-1.26h5.35l.09,1.3h.11l.1-1.18a28,28,0,0,1,3.1-.37c.43,0,.87.4,1.31.63l-.5.7-.46,1.58c-.25-.1-.6-.14-.71-.32a4.86,4.86,0,0,1-.34-1.2c-1.72-.45-1.72-.45-1.77.16.93-.44,1.47-.13,1.53,1a8,8,0,0,0-2.32,0c-1.09.35-.84-1.33-1.8-1,.1.79-.25,1.08-.95.83-.16-.06-.42-.15-.48-.08-.81.91-1.87.39-2.81.46a19,19,0,0,1-2.41-.17,2.33,2.33,0,0,0-.64.13c-.22.05-.53.24-.64.16-1-.68-2-.15-3-.17-1.35,0-1.45-.09-1.57-1.45-.3.27-.77.46-.39,1,.05.07-.07.39-.14.41a8.1,8.1,0,0,1-1.86.18c-.21,0-.38-.5-.63-.87l-1-.26.07-.34h1.69c-.1-1.12-1-.74-1.71-1V109l-2.4.81.48.63c.33-.15.82-.49.94-.4a4,4,0,0,1,.73,1.09c-.67.17-1.1.28-1.53.4s-1.51-.46-1.44-1c.1-.72-.51-1.73,1-2-1.1-.15-2-.31-2.82-.36a1.51,1.51,0,0,0-.7.26l2.12,2.56s0,.07,0,.1l.54.92-1.47.11a3.85,3.85,0,0,1-.4,0l-.8-1.12-.3,1.17-.82-.47s-.2.33-.42.38-.4-.23-.6-.37a6.09,6.09,0,0,0-.8-.56c-.36-.17-1,.27-1.09-.49a8.34,8.34,0,0,0-.77.48c-.48.37-.57,1.48-1.58.79a1.83,1.83,0,0,1-.34-.4l-.47.6a.31.31,0,0,0,0,.1s0,.06.07.06c1.08-.08,1.95,1.24,3.08.5.47-.31.7-.45.89.19,0,.09.29.1.43.16s.63.2.69.38-.19.48-.3.73l1.3.38.72-.67-1.21-.06c.13-.85.66-.95,3.41-.68l-.7,1.8c.77-.69,1.36-1.24,2-1.77a.41.41,0,0,1,.36-.07c1.05.82,2.19.63,3.39.4a9.2,9.2,0,0,1,1.55.14,16.53,16.53,0,0,0,1.68-.17c.07,0,.17,0,.2,0,.57.77,1.29.05,1.91.19s1.1.32,1.77.52c.31-.85,1.43-.66,2.25-.67a31.87,31.87,0,0,1,4.07.51c.62.08,1.24.09,1.87.21.16-.35.29-.88,1.11-.43.21.11.67-.32,1-.29,1.24.11,2.46.31,3.7.46.42.05.84.08,1.34.13,0-.24-.13-.53-.07-.56a3.26,3.26,0,0,0,1.86-2.41c-.19-.32-1.35.68-1.5-.68h4.64l.13,1c.58.06,1.2.16,1.81.18.2,0,.4-.21.6-.33a2.31,2.31,0,0,1-.38-.35c-.06-.09,0-.24-.08-.43h1.33l.18.7c.74-.07,1.77.51,2.06-1.07l.6.77.18-.57c.93-.49,1.22.52,1.86.72a1.32,1.32,0,0,0,.58.14,17.82,17.82,0,0,1,2-.39c.32-.24.43-1.32,1.12-.09.13.24.78.26,1.19.26.59,0,1.17-.11,1.76-.14s1.38,0,2.16,0l.06.24c.92.38,1.94-.77,2.56.77.58-1.81.52-2.27-.31-3.49-.64.42-1.26.87-1.93,1.25-.08,0-.34-.24-.54-.32-.46-.19-.77-.81-1.48-.35-.3.19-.88-.1-1.33-.07-1.6.09-3.19.23-4.78.33-.2,0-.56-.06-.6-.17a3,3,0,0,1,0-.92l-.75-.21c.1,1.16,0,1.22-1.14,1a1.2,1.2,0,0,0-.6,0c-1.8.65-3.59-.29-5.39,0-.34,0-.73-.25-1-.34-.78.19-1.57.44-2.39.55a4,4,0,0,1-1.81-.14,6.15,6.15,0,0,0-2.34.18c-.52.06-1,.16-1.6.25-.23-.71-.37-1.54-1.13-.36-.14.22-.88.08-1.35.1a17.35,17.35,0,0,1-.08-1.94c0-.19.34-.36.65-.66l.19,1.15.2.05.39-1.23,1.61-1.49-1.33-1.15c1.79-.22,1.79-.22,2,.8.85.2,1.61.38,2.37.55a.65.65,0,0,0,.43,0c.83-.51,1.44-.44,1.68.65l.34-1.29c-.19,0-.58,0-1,0s-.8-.06-1.2-.09l.27-1.06.12-.47,3.7.52c.17,1.16.11,1.25-1,1.13.94.62-1.11,1.95.78,2.32.3-.54-.23-1.65,1.1-1.35l.09,1.61h.1a6.27,6.27,0,0,1,.27-1.07c.34-.77.87-.89,1.73-.64a5.37,5.37,0,0,0,1.94-.19c.3.67.4,1.16,1.27.39.51-.45,1.64-.24,2.49-.26.09,0,.17.5.28.76.19.44.42.61.83.17a.71.71,0,0,1,.57-.21,2.22,2.22,0,0,0,2.06-.38c.52-.37,1.39.08,1.84-.61.73.74,2.06-.41,2.64.81.85-.26,1.33.39,1.92.75,0,0,.12,0,.22-.06l-.48-1.05c.41-.55.68-.94,1-1.32a1.72,1.72,0,0,1,.52-.5c.08,0,.43.21.42.31a1.78,1.78,0,0,1-.31.7c-.06.1-.22.14-.39.24l.34.42c.71-1.06,1.56-.21,2.33-.28a1.71,1.71,0,0,0,1.61,1.75c-.18-.34-.3-.57-.41-.8s-.22-.53-.34-.82l1.21-.37-.87-.65c.74-.34,1.38-.59,1.38.44l1.19.06v2.09l1.53-1.07-.76-.08v-1.86c.49,0,1.58-.23,1.73,0,.44.79,2,1.12,1.07,2.64h4.16l-.74-2.29h1.29l-.2.68,1.16.07-1,1.45a5.18,5.18,0,0,0,1-.55,5.85,5.85,0,0,0,.65-.94l-1.47-.34c.29-.89,1.16-.77,1.75-.81s.69.46.35,1a1.29,1.29,0,0,0,.62.53c.24.05.54-.15,1-.32l-1.21-.08c.19-1.4,1.19-1.88,3-1.42l-.22,1.11.23-.13,1.38,1.93.74-.19c-.25-.79-.5-1.52-.7-2.27,0-.08.26-.34.39-.34a4.55,4.55,0,0,1,1.18.18,3.38,3.38,0,0,1,.72.42c.62-.48,1-.33,1.2.5l1.36-.43-.23,1.43,2.22-2v2.85c.74-.88,1.34-1.67,2-2.38.18-.18.6-.14.78-.18l1,1.6c1-.14,2-1,2.81.1.11.14-.06.5-.09.69l.56,1.55c.56.05,1.22-.78,2,.17l-.18-.78h-1.31v-1.7l1,.64c.26,0,.62,0,1,0,.19,0,.52-.09.54-.18a1.18,1.18,0,0,0-.14-.68,7.3,7.3,0,0,0-.62-.86c1.48.31,1.68.52,2.33,2.12l1.33-.53-.72-1.17c.24-.11.31-.17.36-.16.38.12.79.42,1.12.35s.52-.6.86-.75a5.5,5.5,0,0,1,1.33-.27l.2.23-.79,1.19,1.74.38a12.41,12.41,0,0,1,.19-1.63c.06-.26.35-.47.53-.7l.48.83,1.15-.58.66,2.23.8.57-.4.46.54.18c.61-1.17.74-1.2,1.56-.3a7.8,7.8,0,0,1,.85-.41c.21-.07.46-.06.66-.3a9.81,9.81,0,0,1-1.59-.14c-.23-.05-.39-.39-.58-.61.26-.19.54-.54.78-.53.9.06,1.79.24,2.47.34l1.85-.93.52,2.08,2.76-.19a3,3,0,0,0-.64-.31c-.74-.15-.57-.58-.24-.9a7.26,7.26,0,0,1,1.5-1.12c.79-.44,1.64-.8,2.46-1.19,1.62,2,1.65,2.25.45,2.88l1.08.31.76-.48c.84.09-.32,2.07,1.06,1.4l-.3-1.74.28.11a16.9,16.9,0,0,0,1.32-1.51c.3-.43.53-.39,1-.44,1.08-.09,1.19.4,1.38,1.13,0,.12.5.16.77.18.42,0,.85,0,1.24,0l-.4-1.32,2.93.65.07.61c.69-.07,1.34-.1,2-.21a4.52,4.52,0,0,0,1.21-.39c1.09-.53,1.69-.35,2.22.72.05.1.12.19.25.39a1.82,1.82,0,0,1,1.77-1.64,2.29,2.29,0,0,0,1-.24c.45-.17.92-.5.9.39.85-1,2-.72,3,.7l1.08-.38.33,1.11.26.08c.24-1.74,1.28-2,2.67-1.53.15,0,.4-.19.55-.15a2.56,2.56,0,0,1,.75.43c-.42.84.62,1.24.6,1.94,0-.1,0-.19,0-.29.09-.67-.58-1.61.26-1.94a4.85,4.85,0,0,1,2.91-.28,7.32,7.32,0,0,0,1.71.1c.23,0,.47,0,.69,0l.25.78,1.23-.77.63,1.86c-1.24.12-2.27.27-3.29.28-.37,0-.75-.35-1-.5,0,.45-1.23.94-.44,2a1.45,1.45,0,0,1,2.4-.95c.41-.69.41-.69,2.2-.24l.05,1,1.42-.28,1.48-1.14-.63-2,2.2-.36a20.1,20.1,0,0,0,.44,2.2c.18.57,1,.52,1.54-.06l1.11-1.2.26.17.16,1.5c.74-.13,1.5-.61,2,.27,0,.06.22.13.25.1.58-.5,1.14-1,1.71-1.51.2-.17.41-.32.77-.61v1c.64-.25,1.31-.5,2-.78a1.47,1.47,0,0,0,.67-.43c.07-.1-.19-.39-.28-.6s-.24-.67-.39-1.1h2.33c0,.27.1.6,0,.71-.62.62.54.82.29,1.33.34-.31,1,.37,1.21-.4,0,0,.17-.09.26-.09l4.1-.23.09,1,2.52-.55c.31-.22.62-.59.88-.56s.43.49.63.75l0,0a9.33,9.33,0,0,1,1.06-.47c.67-.21,1.35-.36,2.09-.55.21,1.2.14,1.88-1.07,1.87-.23,0-.46.33-.7.5l.17.29a16.08,16.08,0,0,0,2.12-.67,1.17,1.17,0,0,0,.57-.9c-.07-1.3-.11-1.29,1.13-1l.34.1c-.24.67-.92,1.36.1,2l.74-.35c-.12-1.17,0-2.08,1.5-1.49a7.45,7.45,0,0,1,.63-1.19,4.66,4.66,0,0,1,.94.4c.19-.66.74-1,1.75-.74l-.21,1.43,1.9.45-1.39.89.53,1.05.53-.86c2.34-.21,4.7-1.16,7,.36.38-.58.79-1,1.27-.22l.5-.66.27.11v3.24l-1.91-.6-.86.83c.56.06.69.26.25.9-.21.3.06.92.09,1.2a11.34,11.34,0,0,1,2,.15.92.92,0,0,0,1.28-.65l-2.55.25c-.2-.74-.16-1.18.82-1.23a5.62,5.62,0,0,0,1.72-.66c.29-.12.56-.27.82-.4-1.82-.73-.7-2.18-.83-3.47l2.6.22,0-.33-1.54-.38.46-2c.22-.09.52-.2.82-.33.74-.35,1.14-.08,1.49.62a9.48,9.48,0,0,0,1.14,1.5l.23-.16.11,1.12,1.12-.3,0-1c.2-.06.38-.13.56-.18,2.48-.6,2.24-.54,2.29,1.54.34,0,.69,0,1-.06s.69-.11,1-.16a5,5,0,0,1-1.39-1c-.11-.16.46-.77.73-1.17l1.15.93.72-1.35,1.87,1.26-.12.37-1.57-.11-.12.66h5.42l-.92-.76.12-.19h1.27l.16.62h1.46l.41,1.12.29.09.78-1.72h-1.75v-1.89h.85l.31.95,2.7-1.13.46,1.8,1.25-.64-.72-.11V100c.48.3.95.44,1.08.73s-.25.61-.4.93c.6.05,1.33-.19,1.6.68,0,.09.42.08.8.14l-.76-1.28.26-.27c.21.18.53.33.6.55.16.56.4.78,1,.54.12,0,.33-.08.39,0,.66.74,1.49-.06,2.27.27l.08.8a3.5,3.5,0,0,0,.88-.15c.54-.25.78-.13.92.45a1.76,1.76,0,0,0,1.34,1.16l-.17-2.1.29-.11c.12.16.25.32.34.49a2.65,2.65,0,0,0,.27.54,1.92,1.92,0,0,0,.54.28l-.47.57h1.06l.06,1.28a6.62,6.62,0,0,1,.79-1c.54-.46,1.14-.85,1.71-1.27.41.57,1.33-.28,1.67.58,0,.09.37.07.81.15l-1-2.43,2.41-.22c.25,1.08-.66.82-1.22,1l.37,2.26c1-1.09,2.08-.82,3.16-.1l-.24-1.24,2.09.31c-.27,1.09-1.13.89-1.87.9,0,.09.05.27.06.27a13.67,13.67,0,0,0,2.83-.45c.71-.26,1.24-.45,1.76.22.7-1.32.95-1.34,2-.15.07-.84.73-.95,1.3-.84.37.07.68.51,1.21,1l1.07-2,.87.52c.21-.52.45-1.12.69-1.72s.64-.75,1.29-.33a4.65,4.65,0,0,0,1.51.33c0-.08,0,.08,0,.09-1.22.63-.14,1.44-.12,2.14,0,.2.54.38.83.58l.25-.2v.94a5.28,5.28,0,0,1,3.64-.62,1.76,1.76,0,0,0,1.25-.58c-.94-.09-1.88-.24-2.82-.25-.67,0-1.34.25-2,.26-.33,0-.66-.28-1-.43l.67-.7c-1-.77.55-1.07.42-1.78a2.93,2.93,0,0,1,2.78,1c.55.72,1.31.43,1.87.87.3.24,1,0,1.44.06a1.76,1.76,0,0,1,.5.19c-.1.2-.18.4-.3.59a6.49,6.49,0,0,1-.4.52l.2.15,1.5-1.1-.67-.9,1.94-1.2.51,1.28.17-1,.85.36.29-.85-1.78-.68c.28-.22.48-.5.73-.53a22.55,22.55,0,0,1,2.33-.2,1.14,1.14,0,0,1,.56.18,2.06,2.06,0,0,1,.37.34,2.17,2.17,0,0,1-.54.18,1.38,1.38,0,0,1-.46-.14c-.28.89,0,1.15,1,1a11.12,11.12,0,0,1,1.35,0c1-1.17,2.19-1.53,3.35-.76.46-1,1.09-1,1.89-.32.14.12.51.05.76,0,.74-.18,1.4-.68,2.1.27.56.76,1.56.18,2.35.17.63,0,1.25-.41,1.82.21.08.09.38,0,.58,0h1l.08-.45c.09,0,.19-.09.21-.06.84.69,1.8.42,2.75.39,1.37,0,2.75.13,4.09,0,1.11-.14,2.25.13,3.35-.47.76-.41.92.4.93,1,1.12.34,2.35.13,3.57.81l.49-.18a.94.94,0,0,0-.08-.12,1.12,1.12,0,0,1,.54-2,34.32,34.32,0,0,1,3.81-.2c.15,0,.31.19.68.42l-.9-1.56c.47,0,.81,0,1-.12.49-.4,1.07-.69,1.36,0a1.09,1.09,0,0,1-.79,1.45c-.05,0-.09.09-.21.22h3v1.21H423l.09-1.47,1.06.22c0-.21.08-.39.09-.57s0-.55,0-.82l.63.53.11-.05a4.58,4.58,0,0,1-.47-.95,2.32,2.32,0,0,1,.1-.82,3,3,0,0,1,.77.17c.54.28,1.05.61,1.63,1a7,7,0,0,1,.49-1c.69-1,1.67-.26,2.52-.33a1.51,1.51,0,0,1,1.78.91s.39-.21.53-.15c.57.23,1.33,0,1.67.84.1.23.66.28,1.09.44l.38-1.59,1.48-.58.09,1.18h2.25V96.47h1.23l.37,1.18.19-.08a6.55,6.55,0,0,1,.14-.8,6.16,6.16,0,0,1,.32-.73l.49.64h1.38L442.76,98c.55-.38,1.12-.57,1.22-.9a.68.68,0,0,1,1-.49,2.06,2.06,0,0,0,2.37-.53c.4,1.38.4,1.38-1.84,2l1.08.5a3.15,3.15,0,0,1,.85.41A1,1,0,0,0,449,98.9c.18-.22.5-.48.74-.46.87.08,1.72.3,2.59.42s1.67.16,2.45.23l-1-2,3.38.43-.43,1.43c1.53.09,3.06.17,4.59.3.21,0,.58.29.56.39-.21,1.2.63,1.49,1.5,1.79.11,0,.2.16.29.23.25-.45,0-1.12.87-1.3a2.38,2.38,0,0,1,2.21.71l1.6-.39.35-2.41c1.14-.23,1,.78,1.37,1.5l.33-1.36a10.72,10.72,0,0,0,1.32.68,2,2,0,0,0,.77,0l.34,1.89c.47,0,.85-.06,1.23-.06s.51.09.76.07.72-.13,1.08-.14c.89,0,1.78-.06,2.66,0,1.21.06,2.42.21,3.64.28a1,1,0,0,0,.68-.42c-.81.55-.91-.13-1.12-.5-.92-.13-1.75.28-2.78-.21s-2.24.08-3.57.19c-.33-.73-1.14-.34-1.91-.11l-.52-.77,1.14-.54-.48-.45c.69.18,1.53.7,2,.47,1.24-.55,2.23.41,3.3.11l.37-1.06a5.13,5.13,0,0,0-.76-.08,15.77,15.77,0,0,1-1.69.08c-.26,0-.5-.31-.75-.48a3.22,3.22,0,0,1,.84-.46,11.57,11.57,0,0,1,1.52-.13l-.05-.3a28.57,28.57,0,0,1-2.92,0c-.23,0-.49-.55-.57-.88,0-.15.32-.59.46-.58a19.94,19.94,0,0,1,3,.47c.62.16,1.5.28,1.17,1.37l1.19.13.06,1a7,7,0,0,0-1,.35.5.5,0,0,0-.15.46c0,.11.37.25.39.22.82-.94,1.83-.3,2.75-.32a.52.52,0,0,0,.18-.08,1,1,0,0,0-1.35-.73,2.72,2.72,0,0,1-.55.13,2.37,2.37,0,0,1,.24-.52,17.31,17.31,0,0,1,1.27-1.54c.54-.55,1.55-.33,2.23-.05a3.51,3.51,0,0,0,2.55.29c1.08-.64.74.37,1.06.58.7-1.08,3.27-1.3,3.83-.33A2.26,2.26,0,0,1,495,97l.91-.7.13.27-.15-.58a4.63,4.63,0,0,1,.58.07c.14,0,.32.22.4.17.94-.5,1.2.25,1.49.68l1.42-.27-.43-.64.68.2.65.2a5.36,5.36,0,0,1,1.25-.5c.18,0,.41.31.61.48.11-.15,0-.95.69-.29.11.1.42,0,.64,0a15.94,15.94,0,0,0,3.11.13c1.05-.16,2.22.47,3.17-.42.09-.08.35,0,.52,0s.4.27.45.22c.89-.7,1.79.18,2.74-.06a11.44,11.44,0,0,1,3.23.15l.16-.58,5.83-.37,0-.22c-1.48-.09-3-.22-4.45-.27a17.54,17.54,0,0,0-2.89.06c-1.33.17-2.74-.54-4.14-.69-1.22-.13-2.47,0-3.71,0-.89,0-1.76-.27-2.65-.35-.68-.06-1.38,0-2.06,0-.27,0-.52-.28-.78-.44.24-.17.48-.49.72-.5a45,45,0,0,1,6.4,0,24.51,24.51,0,0,0,6.61.21,16.49,16.49,0,0,1,4.3.26c.49.06,1.13-.16,1.5.62.21.44,1.94.26,2.8-.5a11.89,11.89,0,0,0,7.21,1.22l.07-.53-5.61-.38v-.76c.41.07.76.14,1.12.19a1.65,1.65,0,0,0,.42-.11l-1.6-.39c0-1.15,1-.58,1.46-.62.78-.06,1.58.13,2.38.09a7.9,7.9,0,0,1-1.28-.57,2.45,2.45,0,0,1-.53-.72c-.49,0-1.19.09-1.88.09a2.54,2.54,0,0,1-.12-.58,10.94,10.94,0,0,0-1.6-.7,2.43,2.43,0,0,0-1.05.16c-.44.1-.87.23-1.3.34l-.22-.3a3,3,0,0,1,.37-.86c.19-.21.52-.31.74-.52-1.32,0-2.61.54-3.81-.57-.37-.34-1.19-.2-1.8-.3-1.63-.26-3.26-.51-4.89-.81-.25,0-.45-.3-.69-.43a5.78,5.78,0,0,0-.74-.29l-1-.33c.07-.18.12-.5.2-.5.38,0,.72-1.1,1-.15.36-.17.65-.43.94-.44a16.84,16.84,0,0,1,2.28.17c2.3.29,4.59.67,6.9.89.67.07,1.52.61,2.12-.41.12-.2,1.06,0,1.61.09s1,.13,1.57.21a4.35,4.35,0,0,0,1.09.15,1.7,1.7,0,0,0,1-.57l2.83-.35c0-.79.59-.67,1.18-.59s1.39.14,2.08.2l0-.26-2.32-1,1.36-.9-.12-.25h1.48c-.59-.33-1.46-.22-1.08-1.26l5.1.54,0-.24a10,10,0,0,1-2.29-.27C536,80.23,534.4,80,534,78.22l-.61.53c-.09-.18-.14-.43-.29-.52-.43-.25-.91-.43-1.35-.63a11,11,0,0,1-.27,1.2c0,.14-.26.35-.35.33s-.43-.22-.43-.35c0-.43-1.1-.91,0-1.3l-.3-.51a16.08,16.08,0,0,1-2.25-.22c-2.29-.55-4.57-1.16-6.84-1.78-.17,0-.41-.46-.35-.59s.42-.56.64-.56c.79,0,1.58.19,2.37.27.53.05,1.18.49,1.5-.38a9.89,9.89,0,0,1,1.07.26l.09-.79,2.62.38.56-.77c-1,0-2,0-3,0a1.22,1.22,0,0,1-1.24-1c-.08-.23.2-.58.32-.88l.32.08.21.71,1-.92c.18-.59.55-.84,1.33-.8,2.29.11,4.59.15,6.88.19a4.42,4.42,0,0,0,1.07-.26L533,69.27c-.15-.37-.12-.62.55-.67,1.21-.08,2.42-.28,3.63-.42v-.29l-1-.07c-1.32-.13-2.66-.21-4-.42s-2.46-.74-3.8-.42c-.24.06-.59-.39-.9-.61l.14-.28,1.74-.1.11-.26-1.77-.92.12-.29,1.19-.14c0-.12-.06-.23-.12-.29s-.31-.25-.46-.38c.08-.08.18-.25.24-.24s.48.09.56.23a1.43,1.43,0,0,0,1.7.72,5.14,5.14,0,0,0,.83-.34c.72-.29,1.38-.66,2.19,0,.35.27,1,.18,1.61.27-.36-.74-.4-1.23.58-1.24l-6.75-1.21a3.2,3.2,0,0,1-.66.35c-.06,0-.18-.26-.3-.38a.7.7,0,0,0-.33-.2c-1.08-.19-2.15-.38-3.23-.55-1.37-.22-2.75-.41-4.12-.64a3.43,3.43,0,0,1-.8-.33c-.17-.08-.35-.26-.51-.25-.9.09-1.35-.32-1.39-.87-.64-.27-1.25-.35-1.54-.7s-.68-1,.14-1.28c-.69-.23-1.43-.52-2.19-.72a1.3,1.3,0,0,0-.73.2,1.11,1.11,0,0,1-1.47-1,8.43,8.43,0,0,1,4.31.6,2.56,2.56,0,0,1,2.28-.37,5.3,5.3,0,0,0,1.41.33,23.28,23.28,0,0,0,2.55,0c.29,0,.57-.28.85-.28a6.57,6.57,0,0,1,1.31.3,4,4,0,0,1,3,.11c.58.27,1.31.72,2,0,.22-.22.87,0,1.43,0l.27-1c-.79-.08-1.55-.13-2.3-.27-.23,0-.42-.31-.63-.47l.17-.26L530,54.1c-1.15-1.2-1.15-1.2-2.29-1.11l-.15.71-.29.12-.48-.9c-1.22,0-2.53.08-3.83,0s-2.41-.37-3.62-.57c-.73-.12-.83-.52-.31-1.19-1.09,0-2.2,0-3.31,0-.3,0-.58-.37-.88-.56.31-.27.63-.76.94-.75.63,0,1.34-.23,1.93.4.23.25.89.08,1.35.16a4.47,4.47,0,0,1,.85.35l2.53-.12,0-.29-4.52-1,.22-.18c-.27-.33-.57-.64-.81-1s-.33-.53-.25-.69.44-.38.68-.57c-.68-.39-1.32-.92-.51-2.09l-.86.24.24,1.13a15.11,15.11,0,0,1-1.61.43c-.22,0-.47-.18-.71-.2-1.75-.11-3.5-.22-5.25-.28-.6,0-1.22.16-1.8.08a1.78,1.78,0,0,1-.9-.68.66.66,0,0,1,.05-.63c.1-.14.39-.16.61-.19a6,6,0,0,1,1.4-.16,2.83,2.83,0,0,1,1.08.43c.21.12.35.35.5.26l2.49-.29h0c0-.12,0-.32-.08-.34-.88-.26-1.77-.49-2.65-.75-.37-.11-.72-.25-1.09-.38l.09-.35c.29,0,.57-.05.86-.05.85,0,1.71,0,2.56,0,.21,0,.4-.3.7-.54l1.1.29c.37-.76.87-1,1.71-.48.26.16.83-.24,1.26-.27.76-.06,1.54,0,2.3-.07.58,0,1.15-.21,1.72-.22s1.25.17,1.86.12c1.1-.09,2.12.88,3.27.25,0,0,.29.33.3.34.58-.07,1.07-.11,1.55-.21a2.67,2.67,0,0,0,.66-.34c.13-.07.26-.22.37-.2.77.11.77.12,1-.69l1.12.53,1.08-.48c.68.82.92.83,1.75-.07l-7.46-.53a5.16,5.16,0,0,1-.66-.39,3.07,3.07,0,0,1-.8-.76c-.05-.08.32-.41.56-.7l-.58-.4-.45.86-.83-.9-1,1.09c-.72.38-1.16.11-1-.77H518a26.18,26.18,0,0,0-4.54.16c-1,.18-1-.77-1.1-1.47l-1.91-.29,0,.17,1.75.35v1.34a7.92,7.92,0,0,0-1.06-.28c-.33,0-.67,0-1,0a3.79,3.79,0,0,1-1.35-.17,4.58,4.58,0,0,1-1-.93l-.68.7-.67-1c1.18-.25,1.58-.86,1-2.19l2.26.88,0-.16c-.65-.46-1.28-.92-1.95-1.35-.11-.07-.35.06-.52,0-1-.12-1.9-.24-2.85-.4-.11,0-.19-.27-.37-.55h2.57c.58,0,1.16,0,1.74,0s1.14.24,1.72.28a4.93,4.93,0,0,0,1.4-.12,4.16,4.16,0,0,0,1.41-.51c.28-.19.39-.63.7-1.16l.79,1,0-.25a10.73,10.73,0,0,1,1.34-.09c.29,0,.58.25.87.25,1.07,0,2.14-.13,3.21-.15.23,0,.47.2.71.31l.1-.27a9.16,9.16,0,0,0-.9-.3q-1.07-.24-2.14-.43c-.52-.09-1-.15-1.56-.21-1.35-.17-2.7-.36-4.05-.5a6.45,6.45,0,0,0-1.39.22l.53-.91c0,.18,0,.14,0,.14-.57-.14-1.29-.55-1.69-.35a4,4,0,0,1-2.73,0,22.38,22.38,0,0,0-3.53-.3c-1.44,0-2.88-.38-4.33-.48a9,9,0,0,0-2,.32c-.37-.79-1.27-.3-2-.35-.22,0-.58.18-.64.1-.53-.69-1.23-.35-1.87-.34-.1,0-.23,0-.3,0a1.44,1.44,0,0,0-2.13.33L489,28.26a3.29,3.29,0,0,1,1-.34c.77,0,1.53.16,2.3.15.41,0,.82-.32,1.23-.33.9,0,1.81.05,2.71.07.67,0,1.35,0,2,0v-.26l-2.53-.46c-.16-.55-.16-.55,1.19-.61l-.81-.91-2.69.42.42.53-.24.29-1.53-.9-1.06.5-.09-.83a6.54,6.54,0,0,0-1.68-.52c-.85,0-1.71.22-2.57.23a3,3,0,0,1-1.22-.41c-.12-.06-.16-.32-.17-.5s.19-.25.22-.24a2,2,0,0,1,.35.23c.88-.09,1.71-.23,2.54-.23,1.28,0,2.55.08,3.83.12a1.63,1.63,0,0,1,1.57.9,3.13,3.13,0,0,1,3-.65l0,0,.09-1c-1.4.14-2.81.32-4.23.41a4.49,4.49,0,0,1-1.32-.36l-1.26.72-.56-1.51a12.65,12.65,0,0,1-1.87.74,4.61,4.61,0,0,1-1.25-.16c-1-.08-2.07-.13-3.11-.2h-.1a4.48,4.48,0,0,1-2.18,0c-.68-.2-1.6.17-1.76-1l-.21.89a23.79,23.79,0,0,1-2.91,0c-.25,0-.57-.66-.58-1,0-.57.45-.69,1-.62s1.05.28,1.22-.47l1.06.36c.95-.29.95-.29,1.27.15.38-.75.7-1.58,1.76-1.57a3.52,3.52,0,0,1,.8.21c.43-.94,1.35-.48,2.07-.4,1.65.17,3.28.51,4.92.71a9.73,9.73,0,0,0,1.81-.13l.22-.63L487.31,18l.26-.9.09-.05,1.06-.39a7.75,7.75,0,0,1-1.32-.08c-.74-.17-1.46-.42-2.23-.65a2.5,2.5,0,0,1-.21.5c-.09.14-.27.34-.39.33s-.25-.24-.39-.36l-.94-.81-1-.86.16-.29-1.92-.1c.21-.56-.5-1.33.59-1.76.23-.09.15-1,.21-1.47l-.38-.08-.27.95-1.63.1.54,2.28c-.8-.22-1.84-.33-1.86-.53-.08-.87-1.49-1.44-.59-2.44a2.26,2.26,0,0,0-3,.39c-1,.93-1.81.34-2.91.43l.54-.9-.13-.13-.68.74,0,.29c-1.18-.21-2.35-.46-3.53-.61a1.79,1.79,0,0,0-.95.35c-.15.09-.22.31-.33.48l-.48-.54a1.57,1.57,0,0,1-2-.51.8.8,0,0,0-1.28-.23c-.14.12-.52.06-.74,0-1-.34-1.9-.72-2.91-1.11l-.2.77-.28,0c-.59.07-1.18.16-1.77.21a1.76,1.76,0,0,1-.86-.07,1.91,1.91,0,0,0-1.74.17,1.2,1.2,0,0,1-.67,0,6,6,0,0,1-.82-.22l.74,1.19a12.5,12.5,0,0,0-2.36.51,1.86,1.86,0,0,1-1.63.2c-1.2-.42-2.61.25-3.84-.57a1.44,1.44,0,0,0-1.26.31.57.57,0,0,1-1-.18c-.25-.62-.47-.39-.88-.19a8.83,8.83,0,0,1-1.44.47l.09-.28L439.06,11,439,12a4.71,4.71,0,0,1-1.26.54c-.3,0-.64-.24-.92-.36l-2.37.25c-.17-.78.22-1.8-1-2.09a.88.88,0,0,1-.05-.72c.39-.63.16-1.1-.16-1.67s-.79-1.15.55-1.47c-1.65-.49-3.21-.67-4.14-1.9l.13-.33,4,.28,0-.23a6.08,6.08,0,0,1-1.7-.46c-.39-.24-.57-.79-.91-1.3a1.51,1.51,0,0,1-2.21.31,4.69,4.69,0,0,1-1.12.6,3.58,3.58,0,0,1-1.42,0c-.18,0-.37-.42-.39-.67s.17-.63.17-.95c0-.56-.09-1.11-.16-1.81l-1.32.75.31.78c-.69.36-1.64-.06-2,.88,0,0-.32.05-.35,0a12.22,12.22,0,0,1-.68-1.25c0-.07.09-.22.2-.46-.35.08-.64.06-.81.2-1.32,1.06-3,.32-4.4.71-.24.06-.71-.7-1.2-1.23-.17.44-.63,1.1-.47,1.28.38.45.72,1.11,1.57,1s1.64-.23,1.86.94c0,.18.74.23,1.14.35a4.71,4.71,0,0,1,1,.3,14.5,14.5,0,0,1,1.28.91l0,.58v0c.65-.9,1.39-.84,2.3-.33.34.19.86.07,1.55.11a5.61,5.61,0,0,0-.48.8c-.1.26-.27.66-.15.82.49.67,1.09,1.27,1.63,1.92.08.1.1.39,0,.44a1.61,1.61,0,0,1-.7.3,9.74,9.74,0,0,1-1.18,0,4.31,4.31,0,0,1,.31,1.13c0,.77,0,1.47.77,1.94a.71.71,0,0,1,.14.66c0,.13-.38.23-.59.23-.51,0-1,0-1.73-.09V11.5c-1.18-.16-1.18-.16-1.26-1.13-.22.22-.43.57-.74.71a2.82,2.82,0,0,1-1.25.14c-.82-.06-1.63-.2-2.56-.32l-.1-.58-2.25.64c-.48-1,1.58-1.27.55-2.24l-1.34,1.84a11,11,0,0,1-2.14.19c-.32,0-.59-.51-.89-.79l.2-.23-1.31-.44-.51,1.53,2.75.26a5.93,5.93,0,0,1-.9,1.1,2.35,2.35,0,0,1-1,.3,1.18,1.18,0,0,1-.63-.15c-.85-.42-.05-1-.17-1.54-.43.27-.88.78-1.3.76a7.58,7.58,0,0,1-2.06-.63.27.27,0,0,1-.08-.25c.09-.11.24-.26.34-.24.57.1,1.13.24,1.76.38V9.44l.13-.28c-1.13-.19-2.45-.1-3.33-.66-1.08-.69-2.32.81-3.11-.57l-.25.13c.24.76.45,1.54.74,2.29a1.12,1.12,0,0,1-1,1.46c-.35,0-.69,0-.78,0l-1.31-1.26,0,0c-.1.17-.19.49-.31.5-1.31.1-2.62.18-3.93.2a4.66,4.66,0,0,1-1.14-.26,1.8,1.8,0,0,1,1.7-1.68l.15.92.91-1.46c-.62-.08-1.16-.19-1.71-.22-.22,0-.56,0-.66.19-.45.7-.73.43-1-.1a7.45,7.45,0,0,0-.63-.76c.18,1.13-.4,1.39-1.21,1.43l0,0v.49c1.64-.4,1.64-.4,1.57,1.08-.81-.06-1.62-.13-2.44-.18-.39,0-.8,0-1.18,0-1-.16-.75-1.17-1.19-1.72-.29-.35-.23-.92-1-.89-.33,0-.68-.53-1-.83l-.89.51-.88-1.21-.3.17.72,1.46-.22.22L384.42,8c-.22.47-.27.46-1,.23A11,11,0,0,0,382,8l.13.77c.82-.12,1.31.28,1.28,1h-2.69l0,.18,1.86.46c-.81.89-.51,1.41.65,1.6-.5.78-.88,1.49-1.93,1.25-.11,0-.32-.05-.33,0-.49,1.19-.59,0-.91-.16a1.35,1.35,0,0,1-1.89.51c-.44-.21-1.19.2-1.84.33l-.18-.85-1.18.44-.68,1.71c-.22-.1-.63-.2-.63-.3,0-.57-.85-1.33.35-1.62-.67-1.17-.59-1.35.68-1.37.61,0,1.27-.2,1.78.43.14.17.61.08,1-.07A1.17,1.17,0,0,1,377,12a1.29,1.29,0,0,1-.24-.54c0-.06.26-.25.33-.23s.29.25.45.36a2.12,2.12,0,0,0,.74.43,6.2,6.2,0,0,0,2.15,0l-1.11-1-1.25.23c-.09-1-.09-1,2.11-1.08-.43-.45-.84-.92-1.29-1.34s-.47-.53.12-.71.82-.5.53-1c-.2-.37-.49-.66-1-.14-.08.09-.71-.3-1.08-.46l.54-1.25a2.62,2.62,0,0,1-.78,0,4.86,4.86,0,0,1-.74-.47,4.78,4.78,0,0,1,.94-.44,12,12,0,0,0,1.66-.26c.64-.25.6-.33.88.22.53-.07,1.12-.33,1.47-.15.76.4.72-.15,1-.6l-1.42-.12c-.18-1-1.06-.88-1.74-.81-1,.1-1.94.53-2.91.56a28.79,28.79,0,0,1-3.61-.32c-.73-1.48-1.24-.22-1.87.11-.18.09-.53-.13-.71,0-.36.12-.87.44-1,.31A4.74,4.74,0,0,1,368.34,2c-.5.79-.6,1.94-1.83,1.64-.25-.06-.41-.48-.69-.83l1.06-.22-.5-.62-2.05,1.87-.24-1.27c-.22,1.27-.83.43-1.43.37l-1.07,1.13-.88-.57c-.36.72-1,.71-1.89.38-.37-.14-.89.15-1.31.09a6.24,6.24,0,0,0-2.65-.32c-.17,0-.43-.22-.64-.36l-.86-.55L353.43,4c-1.92.16-3.85.19-5.71.53a2.92,2.92,0,0,1-2.16-.65c-.57.84-2.53,1.09-3.75.42-.3-.17-.41-.66-.66-1.11l-.52,1.15-1.45-.64h-2.93a2.57,2.57,0,0,1-3-.23c-.91.78-2,.56-2.25-.46L330,3.12a4.72,4.72,0,0,1-.2.76,3.45,3.45,0,0,1-.4.57,2.17,2.17,0,0,0-.31-.51,2.45,2.45,0,0,0-.51-.31l-.35.83c-.18-.16-.47-.28-.52-.47-.3-1.05-1.1-.31-1.65-.47.41.44,1.41.36,1.19,1.27-.06.24-.5.38-.86.64l-.18-.84c-.05,0-.12,0-.16,0a3.75,3.75,0,0,1-3.26.57,7.31,7.31,0,0,0-4-.07L318.06,3c-.69,1.34-1.56.6-2.33.54s-1.29-.18-2.09-.3l.53,1.1-1,.1c0-.16-.13-.31-.09-.4.38-.93-.09-1.28-.95-1.36s-2-.17-3-.24c-.22.85-1.13,1.31-2.3,1.19-.66-.07-1.31-.18-2-.28A9.51,9.51,0,0,0,304.48,2c-.09-.21-.39-.34-.59-.51-.15.26-.48.55-.43.77.16.77-.35.74-.83,1.07-1.1.74-2.06.24-3.1.14a1.42,1.42,0,0,0-.79.06c-1,.59-1.9,0-2.85,0-.76,0-1.66-.62-2.38.25-.07.09-.6-.18-1-.31l-.69.82A16,16,0,0,0,290.48,3a1,1,0,0,0-.82-.14,3.41,3.41,0,0,1-3.09-.07c-.9,1.15-1.17,1.18-1.6.26l-1.68-.14-1.54-.18V2.48a6,6,0,0,1-.82.72c-.24.14-.72.31-.8.22-.77-.85-1.57-.27-2.39-.18a14.79,14.79,0,0,1-2.35-.2c-.34,0-.68.08-1,.09a2.33,2.33,0,0,1-1.07-.07c-1-.56-.61-1.13.29-1.71-.91-.1-1.43-.09-1.15.88.16.56-.09.81-.72.87a27.18,27.18,0,0,1-4,.48c-.94-.05-2.21,0-2.63-1.27-.3.2-.7.57-.77.52-.68-.51-2.08.54-2.24-1-.64,1.16-1.43,1.19-2.74.61-.53-.24-1.48-.69-2.14.16a3.67,3.67,0,0,1-1,.6c-.36-.93-.75-.88-1.27-.19-.11.15-.61.11-.89,0a13,13,0,0,1-2-.81,1.82,1.82,0,0,0-1.94.21c-.93.53-1.25.37-1.76-.81-.28,1-.84.9-1.66.76a17,17,0,0,0-2.83.12c-.65,0-1.3-.17-1.95-.23a1.14,1.14,0,0,0-.71.07c-1.25,1-2.54.63-3.88.26-.64-.18-1.33-.27-1.78.48-.07.11-.59.12-.6.09-.31-1.06-1.25-1.05-2.09-1.2l-.08.26.74.22c0,1.2-1.43.55-1.78,1.25l-1.9-1.36C229.49,3,229,4,227.63,3.83c-.36-.06-.69-.44-1-.72s-.27-.59-.38-.58a1.08,1.08,0,0,0-.7.37c-.56.71-1.05,1.13-2.09.61a2.67,2.67,0,0,0-2.68.46c-.14.1-.31.28-.45.26-1.11-.16-2.22-.35-3.46-.56l.35-2.08a12.46,12.46,0,0,1-2,.57c-.33,0-.69-.25-1.07-.4a3.81,3.81,0,0,1-.33,1.19,2,2,0,0,1-3.08.05,2.07,2.07,0,0,0-2.14-.28c-.74.17-1.32,1.28-2.22.29-1.06.78-2.65-.63-3.27.68-.56-.35-1-.82-1.4-.82a2.41,2.41,0,0,0-1.45.67c-.69.62-1.18.71-1.75.08A1.57,1.57,0,0,0,196,3.38c-.17.14-.57.31-.63.25-1.06-1.11-2.24-.15-3.35-.22A9.18,9.18,0,0,1,190.51,3a1.91,1.91,0,0,0-.72-.12,16.26,16.26,0,0,0-4.16.88c-1.14.55-2.06,0-3.05,0a23.58,23.58,0,0,1-3.23-.56l-.5-.77a3.44,3.44,0,0,1-.56.5,2.23,2.23,0,0,1-.8.28c-.76.1-1.53.14-2.29.22-.1,0-.24,0-.28.08-.79,1.12-1.52.41-2.31,0a1.48,1.48,0,0,0-1.9,0c-.14.13-.51,0-.77,0h-2.08c-.42,0-.83,0-1.25.05h-1.05l-2.9.12a2.38,2.38,0,0,1,.17,1c0,.16-.5.22-.86.35V3.91Zm195.18,7.34.08-1.39a8.74,8.74,0,0,1,1.06.92c.09.11-.05.56-.08.56a10.21,10.21,0,0,1-1.09-.12l0,.79c-.41.07-.71.11-1,.18-.47.12-1.07.52-1.36.36A6.34,6.34,0,0,1,354.06,11s.07-.3.17-.38C355.13,9.91,357.3,9.79,357.86,11.18ZM15.41,40.38c.52.15,1,.31,1.46.4s1.13.14,1.69.23a1.84,1.84,0,0,1,.71.27c1,.67,1.87.42,2.16-.53a5.66,5.66,0,0,1,1.31-.3c.32,0,.63.26.94.39.48.19,1,.35,1.46.56s.78.46,1.21.6c.74.25,1.2.56.54,1.35l2.72.41-.69.63c-.23.21-.54.39-.67.65a1.9,1.9,0,0,1-1.79,1.14,13.47,13.47,0,0,0-1.47.21c-.07,0-1.22.38-1.23.37-.33-.47-1-1.09-.92-1.39.36-.9-.33-1.56-.09-2.31l-1.53.85-1,2a2.08,2.08,0,0,1,0,.38.69.69,0,0,1-.36.06c-.88-.18-1.74-.42-2.62-.57-1.29-.22-2.59-.39-3.89-.57-.12,0-.25.07-.37.09-1.46.24-2.78,1.2-4.36.77-.24-.07-.55,0-.71-.19-.41-.37-.67-.94-1.12-1.21-1.12-.67-.11-1.3.06-1.81a.87.87,0,0,1,1.44-.19c.28.25.59.47.93.74.75-.72.1-1.31-.21-2-.49.26-1,.74-1.47.71a3.07,3.07,0,0,1-1.71-.8c-.24-.21-.11-.83-.16-1.47l3.62.59a4.09,4.09,0,0,0,1.59.29,12.81,12.81,0,0,0,1.88-.42l.07-.82C15.07,39.23,15.51,39.42,15.41,40.38Zm7.38,16.52c-.21.76-.32,1.55-1.19,1.55a31.62,31.62,0,0,1-3.23-.31c.82.32,1.41.72,1,1.73a1.59,1.59,0,0,1-.41-.06,3.6,3.6,0,0,0-2.5-.58c-.64.16-.81-.42-.41-1.43l-1.9.4c-.33-.71-1-1.43-.14-2.29a6.86,6.86,0,0,0,.63-1,.42.42,0,0,1,.29-.19.36.36,0,0,1,.27.2,4.24,4.24,0,0,1,.07.68c1.22-.24,3.33.21,3.57.73l-1.22.43.09.11Zm4.59-19.69c-1.16-.21-1.61-.78-1.54-1.82,1.12-.74,2.6,0,3.69-.92a.75.75,0,0,1,.67.07,1.73,1.73,0,0,0,2.21-.11,3.29,3.29,0,0,0,3.39.07,3,3,0,0,1,.9-.34c0,.36,0,.72,0,1.07s0,.73,0,1.1a6.62,6.62,0,0,0-1.18-.18,6.16,6.16,0,0,0-1.43.21c-1,.26-2.13-.3-3,.62-.09.09-.53-.15-.66-.18l-1,.75-.64-1.47-.48.74L27.45,36ZM328.73,15.62V14.25l1.35-.36c0-.6,0-1.24.92-1.08,1.21.2,1.8.85,1.6,1.69-.47.1-1.17.05-1.31.3-.42.75-.82.05-1.2.13-.12,0-.24.28-.28.45-.08.39-.1.78-.15,1.28l-1.21-.29a1.49,1.49,0,0,1-1.94-.23c-.22.83-.86.54-1.41.52-.28,0-.68.16-.83,0s-.51-.67-.42-.88a2.21,2.21,0,0,1,.9-.79c.06,0,.32.25.5.39a.93.93,0,0,0,.16.08l.45-.59c-.76-.34-.53-1-.3-1.44s.61-1,1.36-.49c.91.59,1,.84.3,1.85a1.28,1.28,0,0,0-.08.5c.15,0,.35,0,.45,0C328.24,14.79,328.23,14.78,328.73,15.62ZM40.18,22.24c-2,.17-4,.35-5.93.48a1.93,1.93,0,0,1-2.16-1.52l2.26-.71c-.24-.49,0-.95.73-.89a2.66,2.66,0,0,1,1.21.66c.61.47.6.49.81-.22.06-.21.08-.43.15-.83a4.69,4.69,0,0,1,1.48.52c.59.5.52,1.51,1.38,1.88C40.21,21.66,40.16,22,40.18,22.24ZM24.65,50.79l-.21.31c.12,0,.28,0,.37,0,.27.17.51.38.77.58a3.11,3.11,0,0,1-.8.4c-1,.17-2,.31-2.95.4a5,5,0,0,1-1.29-.09c-.84-.14-1.68-.33-2.54-.5a6.18,6.18,0,0,1-.69-1.43c-.16-.74.26-1.12.94-1,.11,1.07.36,1.24,1.39,1a8.29,8.29,0,0,1,1.54-.31,10.08,10.08,0,0,1,1.56.15l.93-1ZM9.19,49.22c-.31.33-.45.56-.65.68a2.65,2.65,0,0,1-.74.16L8,49.55c0-.09.14-.2.12-.28a2.48,2.48,0,0,1,1-2.3c.5-.27,2.11.63,2.25,1.18.08.3.35.72.6.78a15.47,15.47,0,0,0,3,.4c.86,0,1.14.32,1,1.18l-2.33.29a5.12,5.12,0,0,0-1.29-.25,4.21,4.21,0,0,1-1.2,0C10.49,50.23,9.3,50.77,9.19,49.22Zm24.31-5c.42-.07.79,0,1-.19a3,3,0,0,1,2.93-.89c1.07.32,2.15.81,3.3.26,0,0,.11.09.17.09l1.62.19a7.12,7.12,0,0,1,0,1.25c0,.09-.47.19-.71.16-1-.1-2-.31-2.93-.33-.48,0-1.26.19-1.4.51-.66,1.51-.9.21-1.15,0-.87-.05-1.63-.1-1.82.89,0,.1-.48.24-.61.16a.92.92,0,0,1-.34-.63A13.26,13.26,0,0,1,33.5,44.26Zm420.58,52a2.29,2.29,0,0,0,.71-.13,5.5,5.5,0,0,1,3.5-.44c1.17.14,2.35.2,3.52.3a13.64,13.64,0,0,1,2.28.25c.23.06.32.65.47,1a7,7,0,0,1-.9.18,2.66,2.66,0,0,1-.64-.11c-.41,1.27-.41,1.27-2.26,1.19l-.09-1.26-2.91.34-.4-1.14C456.39,96.38,455.5,97.46,454.09,96.29ZM21.71,22.82l.29-.15a3.59,3.59,0,0,0,.85.64,5,5,0,0,0,3.21.28c.35-.1.88.42,1.32.66-.21.33-.38.91-.62.94-1,.11-.87.88-1.13,1.78-.37-.4-.77-.63-.81-.91-.16-1-.69-1.07-1.51-.82-.5.16-1,.23-1.21-.44S21.84,23.48,21.71,22.82Zm485.11,66.3c-2.95.82-5.63.26-8.32.15a1.53,1.53,0,0,1,2.26-1.34,1.72,1.72,0,0,0,1.82-.12.68.68,0,0,1,.51,0,5.4,5.4,0,0,0,.9.44c.65.12,1.33.12,2,.25C506.21,88.57,506.42,88.83,506.82,89.11ZM17.9,88.69c-1,.43-1.74-.67-2.71-.61-.2,1.19-1.14.25-1.77.61,0-.29,0-.46,0-.62,0-1.36,0-1.27,1.38-1.41a9.36,9.36,0,0,1,3.51.65,2.52,2.52,0,0,1,1.16.87c.1.13-.2.82-.29.81A6,6,0,0,1,17.9,88.69ZM38.66,11.93c1.49.1,3,.15,4.4.32.69.08,1.3.41.89,1.29a3.92,3.92,0,0,0-1.47.22c-1,.65-1.84.62-2.51-.18-.22.14-.48.43-.6.38C38.55,13.61,38.47,12.91,38.66,11.93Zm434,8.45-.53,1.13,2.79-.59c.14,2.15,0,1.78-1.5,2.16-.36.09-.87-.36-1.2-.25-1.55.52-1.38-.88-1.91-1.33l1.11-1.12ZM315.7,7.58c-.66,1.16-1.28,1.48-1.9,1a6,6,0,0,0-1.24-.89c-.88-.33-.57-.74-.23-1.25s1-.56.55-1.26c-.05-.08.18-.46.33-.5s.66,0,.71.15c.25.61.11,1.46,1.13,1.52a1,1,0,0,1,0,.18l-.34.61Zm38.06,3.81a9.31,9.31,0,0,1-3,.44c-.86-.16-2.19-.09-2.45-1.39a5,5,0,0,1,.94-.54c.39-.12,1.08-.3,1.18-.16.51.75,1.14.49,1.77.37A1.75,1.75,0,0,1,353.77,11.39ZM39.22,89.12c1.7-.08,3.21.55,4.91.35l-.41,1.77-1.06-.63-3.44.73ZM372.88,13.58a5.42,5.42,0,0,0-1.06,0c-.3.06-.56.32-.86.39-1.11.24-1.82-.7-1.65-1.9l1.48-1A2.43,2.43,0,0,1,372.88,13.58ZM143.29,3.71a16,16,0,0,0,2.29.5A13.36,13.36,0,0,0,147.74,4l1.48-.47.34,1.15c-.94.53-4,.64-6.27.24Zm285.21,6.4-1.25-.39L427.4,9a16.93,16.93,0,0,1-1.31-1.58c-.06-.09.32-.44.5-.68l.22.12L426.94,8c.23-.3.43-.5.41-.53-.84-1.06.25-1,.76-1.21a4.27,4.27,0,0,1,1.27,0Zm-113.11,5.6.23.13a6.87,6.87,0,0,1-.73.9c-.06.05-.54-.15-.55-.25-.06-.88-.93-1.39-1.06-2.2a1.83,1.83,0,0,1,.23-1.36c.38-.41.72,0,1,.41.09.16.38.19.54.33.41.35,1.34.52.5,1.35C315.37,15.15,315.42,15.48,315.39,15.71ZM38.67,88.89l.49.1c-1.3.82-.54,1.51-.14,2.16h-3A5.22,5.22,0,0,1,36,89.73a1.18,1.18,0,0,1,.68-.81A11.21,11.21,0,0,1,38.67,88.89ZM364.74,12.11l-1.37.09c0-.33-.09-.76.09-1,.59-.68,1.14-.55,1.39.16h3c-.42.49-.72.71-.82,1a5.72,5.72,0,0,0-.09,1.35c-.44-.33-.75-.77-1-.75C365.05,13.06,364.66,12.76,364.74,12.11ZM299.2,12c-.51,0-1,.07-1.28-.13a1.4,1.4,0,0,1-.42-1.1c0-.2.64-.55.87-.48a2.94,2.94,0,0,0,2-.14,1.32,1.32,0,0,1,1.49.39c.16.13.17.55.09.78s-.45.2-.66.16c-.66-.12-1.31-.3-2-.47ZM57.8,22.1l-2.54.28V20C57.2,19.86,57.9,20.42,57.8,22.1ZM376.58,6.62a9.52,9.52,0,0,1,1.55,1.31c.23.3.14.83.22,1.4l-.84-.41-.28.91-1.81-.58ZM343,11.29a8.65,8.65,0,0,1-.88-1,1,1,0,0,1-.07-.66c.54-.18.73-.74,1.07-1,1.08-.79.65,1.39,1.71,1-.05.27,0,.66-.18.77A14.27,14.27,0,0,1,343,11.29ZM296.66,9.72a3.68,3.68,0,0,1,.49,1,2.78,2.78,0,0,1-.18,1.13,8.34,8.34,0,0,1-2.28-.38c-.24-.09-.26-.76-.35-1.05Zm11.25-2.26-.18-.23.93-.79v-.6l2.16.89a3,3,0,0,1,.18.89c0,.27-.24.75-.38.75-.39,0-1.11-.14-1.14-.3C309.31,6.94,308.58,7.3,307.91,7.46Zm41.6,5.26a6.59,6.59,0,0,1,1.2,1.68c.06.21-.73,1-1,.92a6.2,6.2,0,0,1-1.75-.94ZM288.92,6.47a1.61,1.61,0,0,1,1.62-1.75c.35,0,.67.57,1,.88A10.42,10.42,0,0,1,289.87,7C289.68,7.09,289.15,6.6,288.92,6.47Zm40.46,1,.38-.44c.85.37,1.7.71,2.52,1.12a.81.81,0,0,1-.08.69,1.16,1.16,0,0,1-2-.37A7.06,7.06,0,0,0,329.38,7.47ZM137.55,100.3l.36.16.16.92c.28-.07.52-.21.72-.16a1.34,1.34,0,0,1,.73.45.68.68,0,0,1-.08.67,1.86,1.86,0,0,1-1.14.35,6.81,6.81,0,0,1-1.57-.85ZM386.42,14.38l-.34.19a3.67,3.67,0,0,0-1-.36c-.81,0-.85-.54-.75-1.08s.34-1.23.54-1.91l.93,0-.43,1.54ZM11.11,76.2v1.35c-.46,0-1.16.16-1.27,0-.5-.83-1.14-.6-1.81-.35C8,76.06,8,76.06,11.11,76.2Zm3.83-5.62c.63.41,1.33.65,1.6,1.13.16.28-.36.94-.61,1.41a1.31,1.31,0,0,1-.44-.14c.08-.62-.47-.47-.74-.67a1.48,1.48,0,0,1-.47-1C14.26,71.13,14.63,70.9,14.94,70.58ZM370,5.79a11.8,11.8,0,0,1-2,.23,1.15,1.15,0,0,1-.87-.58,1.71,1.71,0,0,1,.32-1,13.8,13.8,0,0,1,2.15.65C369.72,5.15,369.79,5.48,370,5.79ZM12.37,73.38c-.79,0-1.57,0-2.34,0a.89.89,0,0,1-.63-.56,1.09,1.09,0,0,1,.3-.92C10.29,71.48,12.2,72.54,12.37,73.38Zm134.19,29.74c.5,1.43.47,1.47-1,1.51-.1,0-.2.1-.3.15l-.72.35a5.36,5.36,0,0,1-.26-1.26c0-.16.4-.33.64-.46a.28.28,0,0,1,.26.09c.39,1,.56.49.79-.08C146.05,103.28,146.32,103.24,146.56,103.12ZM334.3,9.23c-.17,0-.37.06-.5,0a8.73,8.73,0,0,1-.86-.58,4.69,4.69,0,0,1,.7-.59c.25-.14.58-.14.83-.28.48-.24.7-.1.91.36C335.79,9,335.58,9.23,334.3,9.23ZM455.7,11.8l3.25,1.31-.1.31H455.7Zm-2.23-.07c1.84-.37,2.15-.12,1.9,1.58C453.82,13.51,453.43,13.18,453.47,11.74Zm23.15,8.36A1.24,1.24,0,0,1,477.89,19l1.83.34C479.46,20.31,479.46,20.31,476.62,20.1Zm-54.85-8.33c.6.57,1.2,1.12,1.77,1.7.08.08,0,.29.08.69l-1.35-.61c-.17.22-.45.59-.76.94a.39.39,0,0,1-.36.06.35.35,0,0,1-.14-.31C421.23,13.44,421.49,12.65,421.77,11.78ZM17.19,91.34c.41-.5.75-1,1.15-1.37.09-.09.38,0,.55,0,.82.27,1.32.73.91,1.63Zm293.29,8c0-1.14,0-1.2,1.7-1.09a3.37,3.37,0,0,1,1.06.48,3.58,3.58,0,0,1-1.07.66A7.62,7.62,0,0,1,310.48,99.34Zm-18.32-87-.34-.13c-.09-.4-.36-.87-.23-1.19.43-1.08,1.44.12,2.15-.61l.28,1.63C293.25,11.88,292.57,11.09,292.16,12.38Zm33.33-3.22v-1H328C328,9.2,327.66,9.36,325.49,9.16Zm-314,43.19c.11,1.54-.09,1.94-.92,2s-.64-.51-.64-1C10,52.27,10.74,52.35,11.54,52.36Zm1.2,8.09-.35-.2V57.92l.3-.1c.43.47,1.26.73,1.08,1.53C13.69,59.77,13.1,60.08,12.74,60.45ZM101.3,7.36l.27.28c-.19.33-.31.87-.57.94a12.26,12.26,0,0,1-2.17.22l0-.91Zm238.47,92.85c0,1-.43,1.23-1.1,1.16-.31,0-.58-.34-.87-.53a12.28,12.28,0,0,1,1.22-1.2C339.08,99.6,339.51,100,339.77,100.22Zm102.47-85c-.51-.16-1-.29-1.38-.45-.22-.08-.55-.23-.57-.38a1.35,1.35,0,0,1,.22-.88c.07-.1.48,0,.71,0a9.7,9.7,0,0,1,1,.42Zm-106.39-6C336,8.69,336,8,336.24,8a2.49,2.49,0,0,1,1.49.18c.22.1.23.63.35,1ZM267.1,103.93l-.2-.4a3.26,3.26,0,0,1,.54-.54,2.61,2.61,0,0,1,.9-.38,2.24,2.24,0,0,1,.76.13c-.06.29,0,.77-.19.82A12.56,12.56,0,0,1,267.1,103.93ZM15.75,22.86l-.44,0-.87-1.07a3.48,3.48,0,0,1,1.09-.64.59.59,0,0,1,.71.77A4.22,4.22,0,0,1,15.75,22.86ZM485.9,19.05c1.78-.56,3.2-.34,3.43.48A8.41,8.41,0,0,1,485.9,19.05Zm7.37,69.63L493,87.45a18.51,18.51,0,0,1,2,.42c.24.08.39.4.59.61l-.2.2h-2Zm-17.89,7.87.26.25c-.13.28-.18.66-.4.84-.73.6-1.25-.16-1.82-.41-.18-.08-.23-.46-.34-.7l.25-.18.85.56ZM30.27,51c-2.26.22-3.16-.12-3.15-1.13C28,50.5,29.34,49.89,30.27,51ZM472.33,19a8.42,8.42,0,0,1,1,.59.76.76,0,0,1,.31.56c0,.22-.25.41-.39.61a2.17,2.17,0,0,0-.41-.39c-.18-.1-.42-.09-.6-.2a8.57,8.57,0,0,1-.78-.56Zm-134.7-6.12a3.8,3.8,0,0,1-.25,1.06c-.08.15-.47.13-.72.19-.16-.93-1-.42-1.68-.64C335.69,12.5,336.69,13.15,337.62,12.86ZM92.79,98l2.39.26c-.65,1.06-1.55.68-2.39.73Zm414.85-9.71c.94.14,1.84-.28,2.22.85-.47.24-1.07.75-1.32.62S508,88.91,507.64,88.29ZM12.89,63.34l.28-.3a14.54,14.54,0,0,1,1.74.29c.13,0,.15.44.22.68a3.49,3.49,0,0,1-1.33.18C13.44,64.09,13.19,63.64,12.89,63.34ZM142.8,101.94l-.24.34c-.44,0-1,.1-1.31-.12-.55-.41-.09-.9.19-1.31a.71.71,0,0,1,.36-.2C142.15,101.06,142.47,101.5,142.8,101.94Zm305.86-5.87c1.13-.06,1.2.7,1.32,1.43C448.41,97.82,448.31,97.72,448.66,96.06ZM54.95,15.45l.3-2.24.39-.08.62,2Zm247.21,87.8-.3-.15c-.18-.33-.39-.65-.54-1s-.19-.6-.11-.65c.23-.14.68-.28.79-.18a1.69,1.69,0,0,1,.47,1A2.78,2.78,0,0,1,302.16,103.26ZM277,99.71c-.33.92-.72,1.57-1.8,1.21C275.15,99.82,275.48,99.58,277,99.71ZM30.54,20.41c1.06.16,1.28.53,1,1.7C30.38,22.13,30.33,22,30.54,20.41Zm193.17,84.3.27-.13c-.45-.72,0-1,.55-.94.17,0,.38.55.47.87a.6.6,0,0,1-.66.82C224.12,105.32,223.92,104.93,223.71,104.71Zm-139-2.12-2-.29-.12-.25c.56-.28,1.12-.56,1.69-.83,0,0,.18.09.2.17C84.49,101.75,84.57,102.12,84.67,102.59ZM19.83,70.22a1,1,0,0,1-1.43.93c-.2-.08-.34-.32-.5-.49.19-.15.36-.39.56-.42A9.88,9.88,0,0,1,19.83,70.22ZM498,35.55c-.26.34-.47.82-.65.81a5.76,5.76,0,0,1-1.64-.44c-.08,0,0-.42,0-.63ZM359.28,6.1c.13,1.22-1,.54-1.36.94l-.77-.73.17-.21Zm84,8.93-.8-.81,1.1-1c.17.28.51.58.47.82S443.62,14.61,443.28,15Zm-307,96.26.75,1.37h-1.89l-.16-.23ZM325.09,12.82l.33.27-.9,1.29c-.17-.3-.46-.58-.49-.89C324,12.63,324.6,12.83,325.09,12.82Zm-22.4,1.71c.2.37.33.61.47.84s.22.31.33.47a2,2,0,0,1-.55.12,1.61,1.61,0,0,1-.85-.2.77.77,0,0,1-.21-.73C302,14.8,302.4,14.7,302.69,14.54Zm-29.58-2c-.1-1.06.39-1.3,1.29-1.09C274.55,12.53,274.46,12.61,273.11,12.56Zm76.62,90.17c-.78.14-1.37.13-1.37-.91l1.37-.27Zm-49-1.33.35.22-.71,1.36c-.23-.15-.63-.28-.65-.45C299.63,101.82,300.1,101.52,300.72,101.4Zm56-92.81,1.89,1C356.85,10.21,356.74,10.16,356.71,8.58ZM28.46,23.41c.41-.19.75.5,1-.07.11.12.31.22.33.35.09.68-.36.91-1.37.7ZM314.62,5.08l.82-1.2c.22.23.62.45.62.68C316.05,5.24,315.58,5.38,314.62,5.08Zm1.23,96.63c-.3.08-.55.13-.8.21-.53.17-.94-.14-.7-.52s.9-.48,1.5-.76Zm37,2-.38-.28,1-1.88c.23.42.54.78.47.89A11.55,11.55,0,0,1,352.87,103.71ZM419.46,13.4l-.23-.25c.19-.24.42-.71.56-.69a6.36,6.36,0,0,1,1.36.52c-.12.14-.23.38-.37.4A11.2,11.2,0,0,1,419.46,13.4Zm77.09,74c.25.43.52.7.46.86a3.07,3.07,0,0,1-.6.81c-.19-.25-.53-.5-.54-.75S496.22,87.84,496.55,87.41ZM299.18,15.71l-1.87-.27-.13-.21c.36-.14.8-.48,1.07-.38S299.6,14.72,299.18,15.71ZM12,23.18l-1.05.92-.46-1.47.25-.16ZM299.09,4.09c1.21.07,1.23.1,1.06,1.1h-1.06Zm103.6,9.49a4.8,4.8,0,0,1-1.21.57c-.17,0-.38-.31-.57-.48.25-.22.47-.54.77-.63S402.15,13.28,402.69,13.58Zm-41.53-1.51c.24-.28.37-.54.58-.64s.72-.17.78-.08a4,4,0,0,1,.29,1.12Zm-82.85,90.65.74-.92c.23.44,1.41-.16,1.07.92ZM159.14,4.14l1.15,1-1.15.69ZM303.85,98.87l.13-.34,1.24-.51.26.22c-.21.31-.37.75-.67.89S304.18,99,303.85,98.87ZM317,15.07l.37-.16a2.55,2.55,0,0,1,.25.88c0,.42,0,1.08-.9.63Zm31.78-7.24c1,.12,1.13.65.93,1.37C348.46,9.34,348.82,8.53,348.75,7.83Zm-26.2.27-.28.28c-1.12,0-1.2-.09-.91-1.35Zm117.36,5.52.25.36-1.47.81C438.51,13.34,439.32,13.64,439.91,13.62Zm-94.1.28c-.44.25-.67.5-.83.46a5.63,5.63,0,0,1-1.08-.5,4.1,4.1,0,0,1,1-.43C345.11,13.4,345.36,13.65,345.81,13.9Zm37.77-1-.33-.13c0-.29,0-.57,0-.86s0-.44.06-.65l.29-.12c.15.3.42.6.42.89S383.74,12.6,383.58,12.89ZM341.17,14c-.15,0-.31,0-.47,0l-.61,0c0-.17,0-.29-.05-.42s0-.31,0-.45C341.2,13,341.21,13,341.17,14ZM426.51,4c.15.95,0,1.08-1.25,1C425.13,3.91,426.12,4.39,426.51,4ZM389.21,10.5l-.3.18-.85-.42.4-1,.33-.06Zm-1.94-.69c-.72,0-1.3,0-1.14-.92h1.14Zm86.8,4.77-1.16-.53,1.16-.95ZM312.58,13.23v1.13h-1.05C311.18,13.4,312,13.64,312.58,13.23ZM189.14,103.83h.9l.22.22-.86,1-.26-.18ZM440.81,16.94l-1.36-.66,1.36-.64ZM307.4,103.12a6.18,6.18,0,0,1-.39-1.31c0-.12.36-.26.55-.4.13.22.37.45.36.67S307.68,102.58,307.4,103.12Zm150.44-83h-1.29v-.67C457.82,19.32,457.82,19.32,457.84,20.08ZM96.9,98.76l-.23.19H95.41l-.11-.32a4.36,4.36,0,0,1,1.07-.37C96.53,98.24,96.72,98.58,96.9,98.76ZM432.4,9.54l-.4-.36.64-.93c.17.2.51.51.47.59A3.54,3.54,0,0,1,432.4,9.54ZM360.54,5.92l.32.48A6,6,0,0,1,360,7c-.05,0-.3-.33-.46-.5Zm-32.83.53,1,.67-.72.84-.24-.16Z"/></g></g></svg>