<svg xmlns="http://www.w3.org/2000/svg" viewBox="0 0 29.14 30.08"><defs><style>.cls-1{isolation:isolate;}.cls-2{fill:#ae7d65;mix-blend-mode:darken;}</style></defs><title>Recurso 7</title><g class="cls-1"><g id="Capa_2" data-name="Capa 2"><g id="Capa_3" data-name="Capa 3"><g id="Capa_1-2" data-name="Capa 1"><path class="cls-2" d="M8.78,29.07s0,0,0,0S8.62,29,8.56,29s0,.07,0,.09-.09.07-.13.11a.65.65,0,0,0,0,.13v.07l0,0c0,.27,0,.19-.06.18l-.14-.09v.41c0-.1,0-.15,0-.21s0-.23-.06-.21h0c-.06-.2-.13-.08-.19-.13a.63.63,0,0,0-.17-.07l0-.16,0,.13c-.08,0-.16.11-.22,0s-.15,0-.22,0,0-.18,0-.17,0,.14,0,.19-.05.13-.08.2c0-.27-.05-.34-.1-.23,0-.24-.09-.39-.2-.36v.29a.25.25,0,0,1,0-.08c0-.31,0-.21-.08-.22,0,.53,0,.6,0,.64s0,.28,0,.28-.05.19-.08.21-.06,0-.1,0-.07,0-.09-.22l.08.06.06,0v-.39l.06,0c0-.17,0-.3-.06-.31s0-.06,0-.1-.06-.16-.09.08l-.06-.2v0c0,.19-.08.06-.12.05s0,0-.06,0-.07-.09-.08.24a.26.26,0,0,1,0,.07,1.63,1.63,0,0,0,0-.21s0,0-.05,0c0-.21-.07-.3-.12-.21s0,0,0-.07c0-.23,0-.18-.08-.13s0,0,0,0l0-.15s0,0,0,0-.07.12-.11.19v-.06l0,.23-.06-.19a.28.28,0,0,0,0-.09l-.13-.1s-.08.06-.12,0-.11-.11-.17-.07-.14,0-.21-.15-.08.09-.11-.15c0,0,0,0,0,0l-.11.1v-.3l0,0c0,.08,0,.15,0,.22s0,0,0,0,0-.26,0-.43l-.13,0,0,.32-.07-.11c-.07-.09-.1,0-.11.35,0-.09-.1,0-.14-.26s0,0-.07.16l-.07-.19s0,0,0,0c-.05.25-.1-.11-.15,0s-.11,0-.16,0a.4.4,0,0,0-.15-.14l-.19-.12a.69.69,0,0,0-.13-.09s-.06,0-.1,0,0-.07-.06-.12,0-.11,0-.11,0,.06,0,.1l-.05-.08V27L3,27.12c0,.05,0,.15-.07,0s0,0-.07,0-.06.1-.09-.09h.07l0-.32,0,0,0,.34c0,.05-.09.14-.14.1l-.05,0c0-.16.06-.28.09-.38a1.89,1.89,0,0,0,0-.46s0,0-.06.12a.36.36,0,0,1-.09.22s0,.05,0,.21,0,.27,0,.12,0,0,0,0l0,.14,0,.12c0-.38-.08-.17-.12,0l0-.2s0,0,0,0c0,.31-.09.09-.14.18s-.06,0-.1,0,0,0,0,0l0,.07C2,27.17,2,27,2,27a2,2,0,0,0,0-.66s0,0,0,0l-.11.33c0-.15,0-.43-.11-.42s0,0,0-.05l0-.12c0,.06,0,.12,0,.17s0,.16,0,.22a.66.66,0,0,1,0,.11l0,.1a.74.74,0,0,0,0,.48l0-.23,0,.13,0-.25.06-.07v.35l.06.07c-.06.17-.14-.12-.17.26,0-.15-.05-.26-.1-.13s-.06,0-.1-.06v-.09c.06,0,0-.23,0-.39s0-.11,0-.12,0,0-.06,0a1.61,1.61,0,0,0,0,.2s0,.17,0,.29,0,0,0,.05a1.8,1.8,0,0,1,0,.23s0,0-.06,0,0-.06,0-.2a.58.58,0,0,0,0-.13s0,0,0,.07c0-.14,0-.11-.09,0s-.06-.05-.07-.07c0-.28,0-.52-.07-.72s-.06-.19-.1,0c0,0,0,0,0,0l-.15.27s0,.08,0,.09a.25.25,0,0,1-.1,0v.19l-.14-.22v0l.2-.13s.05.1.06.06,0-.23.05-.39c-.08,0-.12-.47-.21-.18v-.41s0,0,0,0a.14.14,0,0,1-.06-.11c0-.28-.09-.35-.15-.39s-.07,0-.05.25a.81.81,0,0,1,0,.12l.06.23.09.3c-.05.14-.07.13-.11-.11s-.06-.29-.08-.44a.43.43,0,0,1,0-.08c0-.29,0-.35-.08-.33V25l.05,0s.07,0,.07-.2c0,0,0-.09,0-.14h0v-.39l.09.07v.22l.1.07a2.25,2.25,0,0,1,0-.58s0-.12,0-.22l0-.28H.46V24c0-.35-.08-.32-.11-.08a.64.64,0,0,1,0-.14c0-.17,0-.14-.06-.18s-.1,0-.14-.17S0,23.28,0,23.23l0-.16.19.11v-.25s.07,0,.1.14.07.13.11,0a2,2,0,0,1,.16-.31s0,0,0,0,0,0,.07,0,.12-.06.18-.08l0,.32c.12.11.19,0,.21-.23,0,.13.1,0,.16.18s.11,0,.16,0l.24,0h.25s0,0,0,0c0,.26.11.1.17.12s.06-.1.09-.11.05,0,.07.09,0,.16.08.09.08-.15.13,0,.06,0,.07-.16l.14,0v.19l0-.12s0-.08,0-.07l.12,0h.28s0,0,0,0,.08.06.12-.11a.86.86,0,0,1,0-.12c0-.05,0-.13,0-.18L3,22.5c.05-.16.13-.1.15.09a.29.29,0,0,0,0,.07v-.26a.13.13,0,0,0,.07,0,.49.49,0,0,0,0-.13.78.78,0,0,0,0-.11l-.21-.08L2.87,22S2.8,22,2.76,22s-.06,0-.06.21,0,.21.06.2.05,0,0,.19a.89.89,0,0,1-.18.07s-.08.09-.09-.18c0,0,0-.06-.05-.09v.22s-.08,0-.12,0a.32.32,0,0,1,0-.16c0-.26-.06-.19-.09-.13l-.1.19a2.14,2.14,0,0,0,0-.29C2,22.08,2,22,1.92,22s-.12.09-.18.07-.08-.07-.12,0,0,0,0,0L1.46,22V21.7l-.08.22s0,0,0,0a1,1,0,0,0,0,.2.17.17,0,0,0,.05.11s.08,0,.11,0a1.23,1.23,0,0,1,.05.29c-.06,0-.11.12-.14-.17,0,0,0,0-.06.06s-.08.17-.12.11l-.1-.12a.28.28,0,0,1,0-.12c0-.16,0-.31-.11-.27s-.18.18-.27,0,0-.23.08-.32,0,0,.06,0,0,.09,0,.07a.56.56,0,0,0,0-.15c0-.07,0-.15,0-.23l-.14-.09,0-.16v.08s0,0,0,0,0-.14,0-.13a1.3,1.3,0,0,1,0,.21s0-.08,0-.12c0-.2,0-.19.07-.14s.08.11.14,0,.1,0,.14-.07l0-.21a.86.86,0,0,0,0-.4,2.91,2.91,0,0,0-.08-.31c-.05.18-.1,0-.15-.12s0,0,0,0-.08.18-.12,0,0,0-.05.1,0-.44-.07-.07c-.06-.18-.11-.3-.18-.14s0,.08-.08-.11c0,0,0,0,0,0a1.58,1.58,0,0,0,0,.52l.11.31-.13.29c0-.13,0-.21-.06-.31a1.09,1.09,0,0,1,0-.33c0-.1,0-.24,0-.37S.3,19.77.27,20c0,0,0,0,0,.1l0-.74,0,0-.05-.77a.37.37,0,0,1,.1-.06c.06,0,.07,0,.06-.4,0,0-.08.08-.12.07s0-.1-.06-.16,0-.27,0-.3L.2,17.1l-.05.05a1.58,1.58,0,0,1,.07-.94c0,.2.08.14.12.14s0-.1,0-.12l-.12-.39c0-.55,0-.55.1-.56V15.1s.1.12.12-.25l-.13-.11c0-.19,0,0-.07,0l0-.44v0l0,.17-.07-.2c0-.29,0-.37.08-.26S.3,14,.33,14s.12.1.18.07.05-.07,0-.24,0-.2,0-.28,0-.14-.07,0,0,0-.07-.07v.25s0,0,0,0,0-.2,0-.3v0L.21,13s0,0,.05,0c.05.23.1,0,.15-.05a1.55,1.55,0,0,0,0-.23s0-.13-.06-.13,0,0-.07.07h0V12.6l.09-.05s.06,0,.06-.21,0-.13-.06-.16a.83.83,0,0,1-.08-.13,1.51,1.51,0,0,1,0-.28c.07-.06.07-.3.08-.56-.08-.08-.07-.34,0-.61l-.07-.09c0,.13,0,.5-.11.35a2.87,2.87,0,0,1,.07-.72,1.88,1.88,0,0,0,0-.19h0L.3,9.53v0c0-.43,0-.42.11-.45A.71.71,0,0,0,.59,9c0-.13,0-.21.06-.3s0-.17,0-.27-.06.06-.07.27l0-.24-.12,0L.51,8l0,.21,0-.17a.86.86,0,0,0,0-.13c0-.07,0-.15,0-.23a.25.25,0,0,0,0-.05c0-.2,0-.27,0-.26s-.05-.09-.08.08-.06.09-.09-.3a1,1,0,0,0,0-.5,4.64,4.64,0,0,1,0-.53.34.34,0,0,1,.05.08c0,.12.05-.15.08-.2V5.9L.53,6l0-.35s.08.12.12.1.07-.13.1-.2V5.49l-.06,0V5.4s.07,0,.09-.1.05,0,.07.14,0,0,0,0a2.09,2.09,0,0,0,.08-.85,1,1,0,0,1,.18-.12.33.33,0,0,1,.17,0s0,0,0,.07.05.18.06-.11c.11,0,.22.19.34-.09,0,.19,0,.33,0,.48s0,.29,0,.5l.14-.51a.44.44,0,0,0,0-.1,3.6,3.6,0,0,1,0-.57l.07,0L2.16,4a.23.23,0,0,0,0-.09c0-.07,0-.16.06,0s0,0,.07,0a3.62,3.62,0,0,0,0,.79s.1,0,.14-.05a2.21,2.21,0,0,0,.05-.23s.06,0,.09,0a1.49,1.49,0,0,0,0-.57l0,.24-.09-.09V3.88a.37.37,0,0,1,.13-.06s0,.09,0,.1,0,0,0,0l.13,0a1.42,1.42,0,0,1,.21,0s.05.23.09.1.12-.12.18-.1.06,0,.06-.16L3.58,4V3.81s0,.05,0,.06.08,0,.1.23c0,0,0,0,0,0L3.8,4V3.71h.14l0-.38-.08.07,0-.83c0,.07,0,.11,0,.16a3.06,3.06,0,0,0,0,.41A.87.87,0,0,1,4,3.6l0-.23,0,0,0,.42L4.07,4l0-.5.09.1c0-.11,0-.2,0-.28s0-.24,0-.24.06,0,.08,0,0,.13,0,0,0-.15.05,0,0,.11,0,.12l-.05.4s.07,0,.09,0a.51.51,0,0,0,0-.21l0-.21,0-.13.05.19c0-.29,0-.45.1-.42V2.69l-.05-.1c0-.26,0-.35.09-.24a2.66,2.66,0,0,0,0,.77s0,0,.06,0c0,.19,0,.19.07-.15l0,0c0-.13,0-.23,0-.34a1,1,0,0,1,0-.15s0,0,0,0S5,2.4,5,2.18v.46L5,2.81l0,.33c.06,0,.13-.15.18.17h0V2.87l.14.1v.22s.06.05.09,0,0-.23,0-.43L5.54,3l0-.35s0,.05,0,.09c0,.19,0,.13.05.08a2,2,0,0,0,0-.24s0-.07,0-.08l.07-.08v.3a1,1,0,0,0,0-.14c0-.07,0-.16,0-.24v.08l0,.13s0-.07,0-.11,0-.11,0-.17a1.28,1.28,0,0,1,0-.18v.24c.09,0,.09,0,.07.2,0,0,0-.06-.05,0a.64.64,0,0,0,0,.16c0,.07,0,.16,0,.16a1.65,1.65,0,0,0,.27-.09V2.45c0-.14.1-.09.12.05s0,.11,0,.17V2.41c.07.14.14.1.22,0l.09.1c0,.3.11-.07.16.07V2.23l0,.1,0,.07c0-.12,0,0,0,0s.06,0,.08,0A2.91,2.91,0,0,0,7,2v-.1L6.87,2v0c0-.25-.07-.23-.11-.15,0-.3,0-.4-.08-.29l-.07.11V1.33l-.14.09v.25h0a3.11,3.11,0,0,1,0-.33c0-.08,0-.15.07-.15a.49.49,0,0,1,.18,0,1.39,1.39,0,0,1,0-.43c0-.07,0,0,0,0l0,0,0,.14V.86l-.06.33H7V.85h0v.31c.05,0,.11.09.17.1s0-.11.07-.16l0-.18,0-.41s0,0,0,.08,0,.18,0,.31-.09.12-.1,0c.05.11.08,0,.08-.26,0,0-.09,0-.13,0S7,.93,7,.84s0-.28-.05-.22,0,0,0,0c0-.24-.1-.1-.15-.12s-.09,0-.13,0,0,0,0,0,0-.06,0,0c-.05.18-.11,0-.16,0s-.08,0-.08.38a.53.53,0,0,1,0-.26.47.47,0,0,0,0-.11s-.07-.06-.1,0a1.45,1.45,0,0,0,0,.23L6.06.8V.89h.09c0,.29-.06.19-.09.25v.44l-.13-.21L6,1.2s0,.13.05.1S6,1.12,6,1L6,.91s-.08.12-.08.25,0,.45.05.52a.75.75,0,0,1-.15.1s0-.06,0-.07L5.86,1s0,0,0,0l0-.24-.08,0h0l0,.29,0-.31,0,.12a.39.39,0,0,0,0-.1s0,.06,0,.1,0,.11,0,.15-.05-.07-.06.13l0-.12c0-.1,0-.39-.09-.21,0,0,0,.07,0,.1l0-.16v0h0c.06,0,.11-.33.17-.13s0,.12,0,0,0,0,0,0a.25.25,0,0,0,0-.1,1.46,1.46,0,0,0,0-.19L5.69.1l0,.18H5.67c0,.22,0,.25.18.18l0-.47.11.46s0,0,0,0C6,.27,6.06.32,6.12.38s.06,0,.08,0,.06,0,.09,0h0c0-.2.07,0,.1-.05L6.51.2c0,.22.08.17.12.18s.15-.09.22-.13a.45.45,0,0,0,.1-.05C7,.28,7,.42,7,.3s0,.08.05.08a1.66,1.66,0,0,0,.2-.12l.07,0c0,.06,0,.14,0,.15a1.94,1.94,0,0,1,.1.63c0,.08-.07-.18-.08.18H7.6V.9a.32.32,0,0,1,.1,0s0,.06,0,.09,0,.06,0,.09,0,.06,0,.11h.07V1s.1-.13.11.28l0-.2v.15C8,1.32,8,1.06,8,1s0,0,0,0a.51.51,0,0,0,.11.1c0,.06,0,.34.06,0,0-.06,0-.07.06-.07s.06,0,.1,0h.12V1c0-.1.1.2.14-.2a3.45,3.45,0,0,1,0,.91c0-.11-.07-.23-.1-.33s0,.06,0,.08,0,.21-.08.09,0,0-.07,0L8.1,1.49s0,0,0,0,0,.15,0,.24l0,.05c0-.3,0-.32-.06-.26s0,0,0,0c-.1-.17-.19.08-.29,0s0,.07-.05.09a.89.89,0,0,0-.13-.14s-.06,0-.1,0-.08,0-.13,0l-.09-.07c0,.19,0,.4-.06.09,0-.06,0,0-.07,0C7,1.71,7,1.87,7,2a1,1,0,0,0,0,.17v-.3h0l0,.32.09.39-.07.3c.1.06.1.06.11-.21l.13-.14s0,0,0,0,.08.11.09-.17l0,.34H7.42l-.06,0v.4L7.58,3c0-.3,0-.33-.06-.3.05-.16-.06-.51,0-.61,0,.14,0,.43.06.35V2h0c0,.09,0,.19,0,.28s0,.23.09.17.07,0,.1,0c0-.18,0-.3.07-.1s.09.06.13.07,0-.13,0-.2,0-.16,0,0,0,.07,0,.06.08,0,.11.1.07,0,.1.16c0-.19.11.11.14-.21,0,.07.07-.1.1-.2v0l0,.28.05.34a.76.76,0,0,0,0,.13s0-.06,0-.08a1.73,1.73,0,0,0,0-.18.28.28,0,0,0,0-.06l0-.11c0,.28.08.05.13.07,0-.29,0-.39.09-.46l0,.21,0,.22.07.1,0,.17c0,.09.07.15.07-.12l.06,0V2.12l.08.28,0,0v.49s.09.06.09,0a1.7,1.7,0,0,0,.06-.69h.22l0,.6h.07V2.63l.06,0-.05-.38a.9.9,0,0,1,.05.14c0,.06,0,.14,0,.24l-.08.09c0,.23.06.2.09.21s0-.12,0-.26a.49.49,0,0,1,0-.14s0,0,.06.08l-.07,0q0,.55.16.37V2.74l.07-.5,0,.05c0,.21,0,.4,0,.59a.21.21,0,0,0,0,.09.1.1,0,0,0,.06,0,.65.65,0,0,0,0-.11c0,.13.06.09.06-.13l.07.11V2.42L10.2,3V2.21c0,.23.07.44.11.62s0,0,0,0l.05-.42c.05,0,.11.25.15,0a1.46,1.46,0,0,0,0-.18l0-.4s.07.2.11,0V2h-.07v.44l.05-.17h.05a.06.06,0,0,1,0,0,1.38,1.38,0,0,1,0,.18c0,.06,0,.12,0,.22.08-.08.09-.14.13-.55l.07.14,0,.31,0,0s0-.11.06-.09,0,.16,0,.2,0,0,.07.07V2.78l0-.31.09-.1c0,.14,0,.29,0,.43a1.5,1.5,0,0,0,0,.18l0-.22.06.15,0-.58,0-.15,0-.12,0,0c0,.31,0,.31.08.08a1,1,0,0,0,0,.11.13.13,0,0,1,0,.08s-.06,0-.09,0a.85.85,0,0,0,0,.16s0,.14,0,.14a.52.52,0,0,0,.13-.09l.1.24,0-.54.15,0a.39.39,0,0,1,0,.08s0,.15,0,.24a2.18,2.18,0,0,0,.08.29c0,.12.09.21.13.31.09-.53.09-.59,0-.75l.06-.08,0,.13s0-.54.06-.37l0,.46v0c0,.13.05.25.07.4s0,.1.06.11.06-.11.07-.3a.05.05,0,0,1,0,0h.07l0,.34.16-.17V2.73a.46.46,0,0,1,.11.05.27.27,0,0,1,.07.1c.06.14.09.09.12-.19v-.1c0,.23.06.45.1.43s0,0,.05.06,0,.13,0-.1c0,.27.11.19.16-.18l.06.1,0-.29v0c0,.45.07.51.14.4s0,.05,0,0a.5.5,0,0,0,0-.11,3.66,3.66,0,0,1,0-.51v.07a2,2,0,0,0,0,.51c0,.09.11.14.16.07s.06,0,.09,0h0v-.2L14,3l0-.49a.56.56,0,0,0-.18-.07s0,.09-.06.13a1.89,1.89,0,0,1,0-.53c0,.34.07.42.13.25,0,.18,0,.18.12.06V2.12l.08.07.08.3,0,.53.12.09c0-.23,0-.41,0-.58s.05-.14.08,0l.06.32V2.43s.08.16.11-.07c0,0,0,0,0,0l.09.4,0,.16V2.63l.11.2a.34.34,0,0,1,0,.11,1.54,1.54,0,0,1,0,.16l0,.29H15a1.74,1.74,0,0,0,0-.19c0-.16,0-.22,0-.35,0,.08.05-.1.07.1a0,0,0,0,0,0,0l.22.06V2.78l.14.14c0,.06,0,.15,0,.15a1,1,0,0,0,0-.2h0a1.05,1.05,0,0,0,.06.12l.11.15c0-.31,0-.49-.06-.49s0-.09,0-.13V2.46a1,1,0,0,1,.11.18.85.85,0,0,1,0,.23c0,.34,0,.34.06.27l0,0a1.28,1.28,0,0,1,0-.51l0,.09c0,.31,0,.54.08.39,0,.1,0,.21,0,.31s0-.06.05-.1c0,.17,0,.27.09.19V3.11l.1-.12-.08-.23,0-.28,0,.22c.13.05.25.3.38-.09,0,.15,0,.26.07.06l0,.17V2l-.1.16,0-.22s0-.07,0-.23a2.56,2.56,0,0,1,0-.31s.07,0,.11,0,.06,0,.07.17l-.14-.06c0,.19,0,.31,0,.32s.06.11.09.17l0,.1a2.77,2.77,0,0,0,0,.91l.14-.06V3l-.08.1,0,.53,0,.09c0,.09.06,0,.08-.16s0-.26.06-.39V2.87l.06.08v.27l0,0c.13.16.12.14.12-.4l.06,0,.05,0a1.51,1.51,0,0,0-.08.27,2.58,2.58,0,0,0,0,.31l.06-.24,0,.35.1-.33v-.1l-.08,0V3h.29l0,.2v0h.07V3.12h.08l0-.29,0,0,0,.45h-.09v.49h0l0-.25.15.3,0-.47.07.17,0,0v.39a.78.78,0,0,0,.06-.19,1.85,1.85,0,0,0,0-.24s.07,0,.09-.18c0,0,0,0,0,0l0,.34v.07a.75.75,0,0,0,0-.14c0-.15,0-.2.05-.14s0,0,0,0c0-.19.08,0,.12-.07V3.12s0,0,0,0,0,0,0-.12a.57.57,0,0,1,.07-.3v.55l0,0,0-.13s0-.11,0-.14a.3.3,0,0,1,0-.07l0-.15h.06V2.48c0,.12,0,.21,0,.27s.06.22.09.33c0-.15.07.07.09-.15,0,0,0,0,0,0l-.05.64.13.06c0-.28,0-.21-.07-.25l0-.59c.05.29.11.21.17,0v.32L19.27,3c0-.29-.06-.23-.1-.24V2.71c.05,0,.11,0,.15.12s.07.12.09-.06c0,.34.05.35.11,0,0,.22,0,.25.07.22a1.26,1.26,0,0,0,.07-.25l.06.52,0-.14,0,.45c0,.19,0,.2.07.09s.05-.06.08-.09,0,0,0,0A1.55,1.55,0,0,1,20,3a.54.54,0,0,1,0-.15V2.68c.06.18.13.21.2.16s0,.07.07.15a.46.46,0,0,1-.15.06S20,3,20,3s0,.07-.05.11l0,.18c-.06.2,0,.28,0,.46s.12-.08.15-.27.07-.11.1-.23.05,0,.08,0,0,0,0,0,0-.11,0-.15l0-.13v0l.08.29,0,.24.1.31,0-.34v.26l0-.1,0,.22-.1.18a.63.63,0,0,0,0,.14.32.32,0,0,0,.13.05s0,0,0,0a.85.85,0,0,0,0-.09s0,0,0,0,0,0,0,0c0-.23,0-.3.05-.26s0,0,.07,0c.05.31.12.4.18.2,0,.26.06.27.1.08,0,0,0,0,0,0s.08.18.11-.07.08,0,.13,0,.07.11.1-.05,0,0,0,0h.06V4c0-.18.1-.11.15-.1s.15,0,.22,0,.12,0,.18.12,0-.1.05-.26.13,0,.19-.21l0,0v0a.88.88,0,0,0,0,.51.42.42,0,0,0,.21.05s0,0,0-.11l0,.41s0,0,.05,0,.06.18.07,0a.79.79,0,0,0,0-.38.49.49,0,0,1,0-.06h.16V3.75h0v.38l.06-.06c0,.05,0,.1,0,.15s0,.14,0,.22l0-.14h0c0,.08,0,.16,0,.25s0,.14,0,.21,0,0,0,0l.09-.25c0,.08,0,.18,0,.27,0,.27.09.07.14.09s.08,0,.1-.24c0,0,0,.05,0,0s.07,0,.09-.22,0-.07.06-.11l0,.42.08.15V4.56h.12v.28h.07l0-.31v0c0,.07,0,.14,0,.21s0,.13,0,.19l0-.17h.07l0-.35a1,1,0,0,1,.07.23c0,.16,0,.16.05.13s.09-.05.13.14c0-.36,0-.36-.1-.52l.06-.13a.42.42,0,0,0,0-.11c0-.14.06-.13.09,0s0,.12,0,.12a1.51,1.51,0,0,0,.14-.11l.13-.06-.05.52.18-.11,0-.37.25-.08a.21.21,0,0,0,0-.1A.7.7,0,0,1,25,3.55a.36.36,0,0,0,0-.06c0,.12,0,.29,0,.34s.09-.07.12-.19l.09.1,0,.63c.06.06.05-.2.07-.39l0,.36a1.63,1.63,0,0,1,.07-.18s0,0,0,0l0-.49.07,0,0,0,.06,0a.38.38,0,0,0,.14,0l.2-.07s0,0,0,.11c0-.15,0,0-.06.13s-.09-.07-.15.05-.12,0-.19,0c0,.19-.06.09-.1,0l0,.2.06.14,0,.12s.08-.18.11-.12.12-.11.18,0l0,.28,0,0s-.06,0-.09,0,0,.08,0,.13a.55.55,0,0,0,0,.12s.05,0,.08,0v.08a.33.33,0,0,0-.16,0,.92.92,0,0,0,0,.23.45.45,0,0,0,0,.15.43.43,0,0,0,.16-.12s.08-.07.06-.36l.06,0V4.47a.5.5,0,0,1-.05-.09.51.51,0,0,1,0-.12s0-.06,0-.06c0,.25.1.08.15.08v0c0,.16,0,.26-.07.19s0,0,0,0,0,.1,0,.14,0,.28.07.4.08.09.12,0,.11-.17.14-.08,0-.1.06-.15c0,.28.18.34.21.09.06.12.13,0,.15-.17l0,.18V5l0,0s0-.06,0,0,.06-.07.08-.18l.08.07L27,5l0-.05,0-.05c0,.06,0,.12.07.13s0-.08,0-.13,0,.25,0,.08,0,0,0,0,.11-.07.17,0,.12-.12.17.11c0,0,0,0,0,0s0-.07,0-.06c0,.18.1,0,.15,0s.11,0,.17,0v.15l.31.1v.06a2,2,0,0,1-.24.07.21.21,0,0,1-.16,0c-.07,0-.15.14-.22.18s-.13,0-.2,0-.1.07-.14.09-.07,0-.11,0,0,.07,0,.11,0,.13,0,.13.23.06.35,0,.24-.14.36-.06.16,0,.23-.07.06,0,.08-.16.1-.07.15.13c.12-.34.26-.38.39-.32v.14l-.3.1v.2l.06-.05,0,0-.09.1c0,.3.05.15.08.16s.09,0,.13,0a.89.89,0,0,0-.07.15,1.65,1.65,0,0,0,0,.19l-.1,0v.15a1.19,1.19,0,0,1-.09.18s0,0-.06,0l-.07-.09v.08c0,.08,0,.17,0,.22s0,.08,0,.14-.14-.14-.21.15c0,.09-.06.05-.1.08l-.26.21a.67.67,0,0,0,0,.11l0,.07-.05.09a1.27,1.27,0,0,0,0,.13s0,.29.06,0c0,0,0,.11.05.11a.23.23,0,0,0,.12,0,4.37,4.37,0,0,1,.37-.23s.08-.16.11.11c0,.05.06,0,.09,0l.08-.05s0-.05.06,0a.29.29,0,0,1,.05.15l.15.09c0,.21,0,.17.06.16L28.89,8v.07l-.13.26.07.23v.07h.08c0,.09-.08.06-.06.33l.28-.14V8.9s-.09,0-.12.07a1,1,0,0,0-.18.65l0-.14a1.07,1.07,0,0,1,0,.14c0,.07,0,.11-.07.17,0-.15,0-.23,0-.31s0-.09,0-.09a.2.2,0,0,0,0,.09c0,.11-.06.24,0,.34l0,.13s-.08,0-.12.06-.25.3-.37.47a.54.54,0,0,0,0,.15c0,.06,0,.15,0,.15s.09,0,.13-.07.06-.13.08.1l.06-.07v.21l.14-.1,0,.2h-.16s-.06.12-.07.26a1.9,1.9,0,0,0,0,.23l0,0v-.19l.06.24c0,.15,0,.22.07.21a2.59,2.59,0,0,1,.37,0s0,0,.06.07l-.21.17c0,.1,0,.16,0,.17a1.16,1.16,0,0,1,.2.11v.08l-.05,0a1.1,1.1,0,0,0-.21.11c-.07.05-.13.19-.21.11s0,.1,0,.16v.07l.09,0v.07l-.1.24v.08l.06,0s0,.06,0,.07l0,.1v.06a.09.09,0,0,0,0-.06c0-.18.05-.23.09-.19a.51.51,0,0,1,0,.09c0,.08.07.17.12,0s.05,0,.09-.07c0,.19,0,.32,0,.32l-.36.32a.5.5,0,0,0,0-.09s0,.07,0,.1a.14.14,0,0,1,0,.05l-.17.14-.22.17a.33.33,0,0,0,0,.09s0,.07,0,.06-.07.08-.07.23a.54.54,0,0,0-.08.18.64.64,0,0,0,0,.33,2.23,2.23,0,0,1-.12.19s0,0,0-.05-.08.06-.08.26c.08,0,.16,0,.23-.16,0,.1.08.17.12.1s.05-.08.08-.09a.26.26,0,0,1,.14,0s0,.07,0,.07,0,0,.07-.08.1.11.16,0,.07-.19.11,0,0,0,.08,0v.26a.56.56,0,0,0-.12.07.55.55,0,0,0,0,.12v.07l.06,0c-.06.31-.06.31-.12.29V16l0,0,0,.24a.56.56,0,0,0-.21,0,1,1,0,0,0-.2.15s0,.14,0,.31a.6.6,0,0,0-.18,0s0,.1,0,.15,0,.2.05.2.07.06.1-.1,0,0,.07,0a.42.42,0,0,0,0-.09l.14,0v.08l-.24.27v0c0,.09,0,.17,0,.26a1,1,0,0,0,0,.18.77.77,0,0,0,0,.15,1,1,0,0,0,0,.55l0-.06V18a.65.65,0,0,0-.09-.11s0,0,0,.05l-.28.07s-.07,0-.1,0a.51.51,0,0,0,0,.18.78.78,0,0,0,0,.17.06.06,0,0,0,0,.05s.05.05.08,0,0-.06.06-.11,0-.09,0-.07l.13.07h0a.83.83,0,0,1,0,.09l-.14.2-.06.1v.09h0a.53.53,0,0,1,.14,0,.61.61,0,0,1,0,.14l.06-.08c0,.2,0,.26.09.13s0,.06.07.07.08,0,.12,0,.06.05.09.06.07,0,.1,0,.11-.23.18-.07a.89.89,0,0,0,0-.09l.08.05a.4.4,0,0,1,0,.09s0,.06,0,.05,0,0,.05.18l.06-.14.06.13c0-.21,0-.22.09,0l-.4.14a1,1,0,0,0,0,.1,1.34,1.34,0,0,0,0,.2,1.72,1.72,0,0,0,0,.18l0,.1,0-.23,0,.24-.05-.29c0-.1-.06,0-.05.2H28c-.08,0-.16,0-.24,0s-.05.2-.06.38l-.1.08v0l.09-.09V20a.33.33,0,0,1-.06.07s0,0-.05,0-.05,0-.07,0a1.88,1.88,0,0,0-.06.24l0-.18,0,.26c.06.06.09.23.05.57l.12-.23v0l-.11.35s0,0,0,0l-.15.1a1.07,1.07,0,0,0,0,.14h.14a.23.23,0,0,0,.09,0s.06-.06.09-.07a.07.07,0,0,1,.08,0,.31.31,0,0,1,.08.13,3,3,0,0,1,0,.3l0-.26v.07s0,0,.07,0,0-.07,0-.06l.17,0s0-.05,0-.08v.07l0,.08-.12.11-.08.06-.22.13s0,0-.07-.06l0,.24s0,0,0,0-.07.14-.09.09-.1,0-.15,0a.32.32,0,0,1-.19.08c-.08,0-.16.1-.23.13s-.07,0-.11-.08c0,.21-.07.08-.11.09s0,0,0,0c0,.18-.07.09-.1.09s0,0,0,0-.08.1-.12-.09l0,.3s0,.09.05.09.08,0,.12,0,0,.08.07.09a.57.57,0,0,0,.15,0h.11v.07l-.14.12c0,.14,0,.14.06.16l0,.24-.15-.11,0-.14v-.08l-.08.24-.06-.13v.22c0,.05-.06.13-.09.14s-.09-.06-.14-.06,0,.06-.07.11a.71.71,0,0,0,0,.13.18.18,0,0,0,0,.06l0-.06a.42.42,0,0,0,.14.06,1.26,1.26,0,0,0,.21,0s.06-.07.08-.24c0,.16.1.29.16.17h0v.27a1.56,1.56,0,0,0-.23-.11s0,.06-.07.09l-.07-.19,0,.4a1.15,1.15,0,0,0-.1-.19s0,0-.07,0L26.1,24h0S26,24,26,24s-.09,0-.09.27V24a.27.27,0,0,0-.16,0,1,1,0,0,0,0,.27c0,.15,0,.18.05.16s.06-.07.07.12l.06-.09c.05.08.05.08.07,0,0,.2,0,.41.09.41s0,0,0-.05c0,.25.07.12.11.11s.18-.13.27-.18.06,0,.1,0V25l-.24.42v.24h0l.06.1s0,0-.07,0a1.8,1.8,0,0,0-.12.17s0-.08,0-.13,0-.09,0-.09a.47.47,0,0,0,0,.09l-.05.21-.05.22v.08l-.1,0a1.42,1.42,0,0,0,0,.46,3.78,3.78,0,0,1,0,.38l0,0v-.25l-.09,0,0-.6c0,.06-.1.09-.1.14a2.51,2.51,0,0,0,0,.64c-.06.23-.13.07-.16-.1s-.1-.09-.16-.11l0,.24v0l0-.19v-.08a1.75,1.75,0,0,1-.19.16s0,0-.05-.09a1,1,0,0,1,0-.12l0,.14c0-.07-.08-.08-.11.13s0,.18-.07.06,0,0,0,0l-.16.29v-.2h0l-.1-.05s0,0,0,0-.06,0-.09,0,0,0,0,0l0,.06,0-.31s-.09-.06-.13-.13,0-.12-.09-.05-.14-.06-.21.15c0,0-.05,0-.07-.08s0,0-.05,0,0,.1,0,0a.55.55,0,0,0-.08-.12v.07l-.09.36v-.25c0-.06,0-.13-.07-.14s0,.06,0,.09l-.13-.07c0,.2,0,.47-.05.55a1.06,1.06,0,0,0,0,.19,1.67,1.67,0,0,1,0,.44c0,.12,0,.3,0,.38a.84.84,0,0,0-.22.5V29l.22-.07V29s-.07,0-.09.12a3,3,0,0,0,0,.34c0-.18-.08-.24-.12-.08a.76.76,0,0,0-.06-.16,0,0,0,0,0-.08,0,.66.66,0,0,0,0,.17c0,.08,0,.17,0,.25s0,.29,0,.47l-.07-.2,0-.21c0-.09-.09,0-.11-.23a0,0,0,0,0,0,0c0,.11,0,.21,0,.33a1.16,1.16,0,0,0,0,.12s0,0,0-.05c-.07-.28-.16-.08-.24-.19a1.87,1.87,0,0,0-.06.32,3,3,0,0,1,0-.34c0-.12,0-.29.08-.27s.09.06.1-.25c0,0,0-.06.06-.09a.28.28,0,0,0,.05-.08c0-.06,0-.13.07-.24v-.15h0c0,.24.08.22.12.09s0,0,.08,0,0-.14,0-.21a1.41,1.41,0,0,1,0-.21c0-.18.06-.33.09-.5a.56.56,0,0,0,0-.11.16.16,0,0,0,0-.08s0,0-.06,0,0-.21,0-.3a1.71,1.71,0,0,1,0-.51.78.78,0,0,0,0-.17s0-.06,0-.06l-.09,0v.57c-.06,0-.06,0-.07.3a1.19,1.19,0,0,0,0-.18s0,0-.07,0a.86.86,0,0,0-.14.08v.15l-.12-.17c0,.27.09.33,0,.59l-.07-.48s-.08-.07-.12-.05a.89.89,0,0,0,0,.21v.06l-.07.11,0-.4.15-.07c0-.13,0-.23,0-.29a.12.12,0,0,0-.06-.08s0,0,0,0a1.36,1.36,0,0,0,0,.4c0-.07,0-.2-.07-.2s-.07.1-.11.16a.28.28,0,0,0,0,.07s0,.07,0,.06l.1-.1v.43c-.06.05-.13,0-.18.17s-.13-.21-.17.15v0c0-.2,0-.4,0-.6s0-.38-.05-.38h0l-.07.33h0a.88.88,0,0,0,0-.13.84.84,0,0,0-.21-.05s0,0-.06.07c0,.23,0,.41.09.44v-.24l0,.38-.09.06s0,0,0-.05,0-.11-.06,0,0,.11,0,.2c0-.29,0-.36-.07-.37h0v-.13c.09.11.09.11.08-.28l-.13,0s0,0-.06,0,0,.31-.06.45S21,28,21,28s0,.14-.06.22l0-.13,0,.32,0,0,0-.38v-.06l-.06.08c0-.12,0-.12-.06-.06s-.05,0-.08.06v-.2s.07-.07.07-.25h-.15v0l.1-.12c0-.23,0-.37,0-.42,0-.2,0-.39-.1-.33h0c0-.31,0,0,0,0,0-.16-.05-.25-.1-.13s-.06-.05-.1-.09v.22l-.06-.12,0-.45s0,.05,0,.08,0,.35,0,.42c0,.3,0,.35,0,.36s.07.05.1-.11,0,0,.05,0a.28.28,0,0,0,0,.06,1.23,1.23,0,0,0,0,.14s0,.07,0,.06a.93.93,0,0,0,0-.09.39.39,0,0,1,0-.11.08.08,0,0,1,.12,0l-.06.26-.07-.06c0,.25,0,.25.11.28s0,.24-.07.35,0,.14,0,.19a.41.41,0,0,1,0,.27c0,.1,0,.17-.05,0s0,.08-.06.12l0,.33s0,0,0,0a1.11,1.11,0,0,0,0,.12.59.59,0,0,0,.05.11s.06,0,.09.07,0,.09,0-.06c0,0,.06.09.08,0s0,0,.06.16l-.08,0c0,.27-.06.23-.09.21s-.1-.14-.16-.15-.13.05-.19.08c0,.39-.07.06-.1,0s0,0,0,0,0-.12-.06-.08a3.38,3.38,0,0,0,0,.34c0-.21,0-.51-.1-.43a1.35,1.35,0,0,0,0,.22l.06.06,0,.16-.11-.49v.33c0-.33,0-.11-.08-.1l-.06-.3,0,.15c0-.19-.06-.19-.1-.1s0,0-.07,0-.09.15-.14.08,0,.06,0,.09l0,.14V29a.86.86,0,0,1-.31-.14c-.05,0-.08.07-.12.17,0-.22-.14-.29-.2-.11a2.43,2.43,0,0,0,0,.29l0-.3-.08.17h-.16c0-.14-.13-.13-.16.06,0-.2-.11-.15-.12.12l-.06,0c0-.07,0-.14,0-.2s0-.1,0-.15,0,.1,0,.13a.5.5,0,0,1,0,.08l0-.22a.62.62,0,0,0,0,.12c0,.28-.06.08-.09.12,0-.11.08-.09.06-.33a.7.7,0,0,0,0-.17v.22h0c-.05-.18-.13-.25-.18-.15s-.15.07-.22,0l0,.54c0-.35-.08-.16-.13-.14a.54.54,0,0,0-.11.08l0-.29-.05,0s0,.08,0,.1c0,.24,0,.34-.05.36l-.16.06c0-.22-.06-.34-.12-.31l-.11.07c0,.12,0,.25,0,.36a.71.71,0,0,1,0,.13,1.43,1.43,0,0,1,0-.2.48.48,0,0,0,0-.28c-.06-.19-.11-.06-.17,0s0,0,0,0-.1,0-.15,0-.09.16-.13-.06c0,0,0,0-.05.08l0-.21c0,.12,0,.24-.07.33s0,.06,0,0-.11-.11-.17,0c0-.3-.06-.31-.09-.07l-.09,0-.08,0v.07c0-.06,0-.14,0-.19s0-.08,0-.06c0,.22-.08.07-.13,0s-.08,0-.13.05,0,0-.05,0,0,0-.06,0a.66.66,0,0,0,0,.45s-.08,0-.06-.23,0-.21,0-.23-.14-.15-.22-.13-.12,0-.14.33a.7.7,0,0,0,0-.14c0,.13-.11-.14-.12.27,0-.3-.08-.31-.15-.16s-.08.18-.12,0a.83.83,0,0,0-.05-.16c0,.24,0,.23-.07,0s0,0,0,0a1.18,1.18,0,0,0-.11.21c0,.1-.07,0-.11-.05s-.07-.1-.09.21c0-.26,0-.24-.09-.2s-.1,0-.15,0-.07,0-.11.06,0,0,0,0c-.07-.25-.14-.16-.21-.07s-.07.07-.1-.12c0,0,0,0,0,0,0,.28-.07.28-.11.31v-.07l0-.06c0-.31-.08-.14-.1-.33l-.1.36c0-.19,0-.46-.12-.4a.64.64,0,0,0-.05.19s0,.15,0,.15,0,0,0-.1-.06-.29-.11-.16-.1,0-.14-.12,0-.07,0-.07l-.19.15,0,.54c0-.06-.08-.13-.11-.15s0,.07-.06.1,0-.22,0-.31c0-.25-.12-.25-.17,0s-.08.12-.12.07-.07-.34-.12-.08c-.06-.2-.14.16-.18-.18,0,.09-.05.21-.08.21s-.06-.08-.08-.17-.06-.19-.09,0-.09.25-.13.06c0,0,0-.08,0-.07-.06.29-.12,0-.18.06s-.06.07-.08.1,0,0,0,0-.16-.07-.22-.23-.11,0-.16,0-.12.1-.17.15l0,.2s0-.1,0-.13a.16.16,0,0,0,0-.07l-.12-.06a0,0,0,0,1,0,0c0-.29-.08-.11-.12,0s-.07.14-.1,0,0,0,0,0H8.94l-.16,0c0-.09,0-.18,0-.26s0-.06,0-.09v.32Zm10.54-1.92v.36c0-.11,0-.16.06-.24a1,1,0,0,0,0-.15l-.06,0V27l-.05,0s-.06-.14-.07-.09a3,3,0,0,0-.08.38.48.48,0,0,0,0,.1C19.17,27.48,19.29,27.51,19.32,27.15ZM.83,19.51a.86.86,0,0,1,.08-.11L1,19.35a.15.15,0,0,0,0-.07c.05-.18.1-.11.12.14,0,0,0,.08.07.08s0-.07.05-.1l.08-.15s0-.12.07-.16a.46.46,0,0,0,0-.35l.15-.11,0-.16a1.25,1.25,0,0,1,0-.17c0-.2-.05-.29-.1-.3a.26.26,0,0,1-.08-.05l-.07-.1a2.44,2.44,0,0,0,0,.36c0,.23,0,.41,0,.6l-.08-.22-.05-.52s0,0,0-.1,0,0,0,0-.09.11-.14.15l-.21.15s0,0,0,0S.55,17.91.47,18s0,0,0,.05,0,.25-.06.32a1.07,1.07,0,0,0,0,.47c0,.11,0,.19.08.05l.05-.19a1.55,1.55,0,0,1,0,.52c0-.07-.05-.19-.08-.19s-.07.1-.09.21a3.73,3.73,0,0,0,0,.38l.2-.15s.06-.09.09-.08.07.07.1.11v.21C.81,19.82.84,19.76.83,19.51Zm.4-4.32c0-.2,0-.41-.06-.41s-.12.05-.17.08A.75.75,0,0,0,1,14.41H1c0,.09-.08.22-.14.15s0,.11,0,.37l-.1-.11a1.91,1.91,0,0,0,0,.6c0,.07,0,.18,0,.26s0,0,0,0,0,0,0-.05,0-.12,0-.18.18-.05.19-.19L1,15.22v0Zm.25,5.15c-.06.05-.09.2-.08.48s.14,0,.2.24c0,0,0,0,0,0s.08-.11.12,0c0-.17.15-.17.18,0a.25.25,0,0,0,0,.09C2,21,2,21,2,20.86s0-.19,0-.29,0,0-.06,0a.12.12,0,0,1-.08-.05c-.05-.07-.11.08-.16-.16,0,0,0,0,0,0l-.05-.2,0,.38,0-.19,0,.23ZM17.75,26v.36l.07.09c0,.16,0,.32,0,.28a.62.62,0,0,0,.09-.44s-.06,0-.07-.08,0,0-.06,0a.47.47,0,0,1,0-.12c0-.1,0-.21,0-.33l-.07.08c0-.11-.08-.09-.1.06,0-.22,0-.14-.08-.14s0,0,0,0a1,1,0,0,0,0,.23.84.84,0,0,0,0,.21.61.61,0,0,0,0-.1v0l0,.16a.87.87,0,0,0,0,.38c0,.12,0,.25.07.13a.87.87,0,0,0,0-.48s0-.09,0-.13,0,0,0,0S17.72,26.21,17.75,26ZM2.17,24.26l-.32-.13c-.06,0-.1.11-.12.4l.12.18c0,.13,0,.25,0,.23s0-.1.07-.17,0-.13,0,.06,0,.11,0,.22c0,0,.06-.06.08-.14a4.2,4.2,0,0,1,.07-.49A1.61,1.61,0,0,0,2.17,24.26Zm-.84-7.47v-.08s0,0,0,0l0-.15a.43.43,0,0,0,0-.1.75.75,0,0,0-.16-.11s0,0-.07,0L1,16.49c0,.1,0,.23,0,.37s0,.29.05.27c0-.28,0-.32.08-.26s.06.08.08.08.06,0,.08,0l0,.25ZM.5,17.2a1.79,1.79,0,0,0,0-.18s0,0,0,0v.13a.6.6,0,0,1,0,.07,2.26,2.26,0,0,0,.05.6c0,.07.11-.17.12-.31a.69.69,0,0,1,0-.2.29.29,0,0,1,.16-.11s.06-.08.06-.31l-.13-.08a.14.14,0,0,1-.07.07s0,0-.07,0S.5,16.8.5,17.2Zm1.31,1.3s0,0,.05,0,.09.33.16.23.12-.21.18-.07v0l.09,0c0-.09,0-.21,0-.33s0,0,0,0-.11.08-.16.09S2,18.3,2,18.22c0-.4,0-.05-.06,0s-.09,0-.1-.23c0,0,0-.06,0,0a.76.76,0,0,0,0,.16C1.81,18.24,1.81,18.37,1.81,18.5ZM24.52,4.89s0,0,0,0,.12.15.19.12A1.4,1.4,0,0,1,24.94,5s.08,0,.12-.06a1.91,1.91,0,0,0,0-.26l0,0s0,0,0,0c0-.33,0-.33-.12-.31v.33l-.16-.09,0,.3C24.64,4.87,24.59,4.59,24.52,4.89ZM1.17,24.11l0,0a1.1,1.1,0,0,1,0-.17c.06-.1.11-.16.17-.07s0-.11.07-.17a1.55,1.55,0,0,0,0-.25c-.05,0,0-.23-.06-.47a1.66,1.66,0,0,0,0,.24c0,.25,0,.28-.08.21s-.06-.06-.07.12S1.18,23.93,1.17,24.11ZM27.37,6.77c-.16-.22-.3-.07-.45,0,0,.31.06.48.12.35s.06-.07.1,0,0,0,0,0a.74.74,0,0,1,0-.12s.07,0,.11-.06A.8.8,0,0,0,27.37,6.77ZM1,6.88C.91,6.76.87,7.05.82,7c0-.31-.06-.06-.1-.16C.72,7,.72,7,.72,7c0,.36,0,.33.07.37s.13-.09.19-.17A.73.73,0,0,0,1.05,7,1.13,1.13,0,0,0,1,6.8S1,6.85,1,6.88ZM2.09,27a1.29,1.29,0,0,0,.24-.08s.07-.11,0-.34c0,0-.06,0-.08-.06s-.1-.16-.14,0c0,0,0-.11,0-.1A1.35,1.35,0,0,0,2.09,27Zm23.43-2.21,0-.3.15.15c0-.56,0-.47-.08-.56s0,.1-.07.07-.07.23-.1.35l.06.29ZM17,28.09c0-.3-.07-.39-.1-.27a1.65,1.65,0,0,1-.07.23.53.53,0,0,0,0,.33.79.79,0,0,1,0,.33.47.47,0,0,0,0,.13s0,0,0,0,0-.38.06-.4v0l0-.16Zm2.06-1c-.06,0-.11-.16-.16-.11s-.12,0-.13.36a.93.93,0,0,0,.05.14s.06.08.06,0c0-.2.06-.13.1-.1S19.1,27.25,19.1,27.1ZM2.12,6.77c.09,0,.17-.14.26-.09l0-.46-.06.16-.19-.19Zm18,19.76s0,0-.06,0,0-.08,0-.1-.1.18-.09.5l.08.26A1.18,1.18,0,0,0,20.13,26.52ZM7.74,29.11c0-.05.08-.12.12-.13s.08,0,.12,0l.08.12,0-.3a.2.2,0,0,0-.34-.06Zm15.4-1.67-.07.1v.18c0,.17-.05.28-.07.41a1.55,1.55,0,0,0,0,.18V28c0,.08,0,.13,0,.14,0,.28,0,.27,0,.32s0,0,.07,0ZM17,26v0c0-.08,0-.17,0-.23s0,0,0,.07c0,.23-.05.36-.06.57a2.14,2.14,0,0,0,0,.36c0,.11,0,0,.05-.11s0,0,0-.09a.52.52,0,0,0,0-.35A1.69,1.69,0,0,1,17,26ZM2.09,6.83l0,0a1.17,1.17,0,0,1,0-.56H1.95c0,.13,0,.26,0,.37a.63.63,0,0,0,0,.21S2.05,6.83,2.09,6.83ZM19.69,26.91l-.07,0a2.36,2.36,0,0,0,0,.25c0,.18.06.14.08,0h.16c0-.13,0-.19,0-.26s0-.2,0-.35c0,.09,0,.2-.06.2S19.69,26.74,19.69,26.91Zm-3.54,0s-.06,0-.07,0a1.39,1.39,0,0,0,0,.29c0,.05,0,.14,0,.12s.08,0,.11,0,.06,0,.08-.1a1,1,0,0,0,0-.2s0-.05,0,0l-.11.12Zm-13-2.63L3,24.22v.62C3.09,24.88,3.13,24.74,3.12,24.3Zm17.21,4c0-.12.06-.21.08-.34s0-.22,0-.36l0,.11V27.5l-.1.15Zm-1.82-1.22c0,.11,0,.18,0,.26a1.17,1.17,0,0,0,0,.17,1.65,1.65,0,0,1,.06.26c.06.21,0-.36.09-.26a1.71,1.71,0,0,0,0-.2A2.28,2.28,0,0,0,18.52,27.12Zm-2.5.41c0-.09,0-.17,0-.27s0-.3,0-.3a.19.19,0,0,0-.12.1,2.07,2.07,0,0,0,0,.27Zm.61.59v.06l.05.21v.16l.12-.23s0-.14,0-.23a.85.85,0,0,0,0-.2s-.06,0-.06.08C16.7,28.26,16.66,28.17,16.63,28.12Zm2.25-1.38c0-.18.06-.29.06-.44s0-.26-.05-.24a1,1,0,0,0-.09.25ZM15.6,28.38c0,.27,0,.47.09.46a1,1,0,0,0,.05-.23,3.72,3.72,0,0,0-.09-.36S15.61,28.35,15.6,28.38Zm2.18-.26,0,.12c0-.1.09-.19.14-.29a1,1,0,0,0,0-.18c0-.18-.08-.13-.11.1S17.8,28,17.79,28.12ZM7.43,3.84l0,0V3.56s0,.05,0,0a.28.28,0,0,0,0-.12.78.78,0,0,0,0-.17c0-.05,0-.11-.06-.09a1.1,1.1,0,0,0-.08.22ZM20.86,26.31l0,0s0,.09-.06.09,0,.14,0,.28,0,.32,0,.5h.05l0-.4ZM.6,10.15V9.79s-.06,0-.07,0c0,.22-.06.16-.1.09C.43,10.18.43,10.18.6,10.15Zm.21,1.47a1.34,1.34,0,0,0,.09-.29,2.62,2.62,0,0,0,0-.37l0,0c0,.16,0,.12,0,.18a1.35,1.35,0,0,0,0,.26A1.15,1.15,0,0,0,.81,11.62ZM20,28.56s-.08-.07-.11-.06a.26.26,0,0,0,0,.15,1.81,1.81,0,0,0,0,.26.75.75,0,0,0,.12-.17A1.42,1.42,0,0,0,20,28.56ZM.67,10.88a.29.29,0,0,0-.13,0,.32.32,0,0,0,0,.15,1.13,1.13,0,0,0,0,.24C.56,11.38.66,11.1.67,10.88ZM7.91,3.1c0-.37,0-.38-.05-.39s0,0,0,0l0-.09c0,.11,0,.22,0,.33a.38.38,0,0,0,0,.12s0,0,0,0c0-.26,0-.13,0,0S7.9,3.07,7.91,3.1ZM18.05,27.66s0,0,0,0,0,.1,0,.15,0,.12,0,.16,0,0,0,.07,0,0,0-.1S18.12,27.66,18.05,27.66ZM24.61,27l.18-.34v-.08h-.17Zm-.12,0c.1.1.12,0,.1-.41C24.5,26.54,24.48,26.63,24.48,27Zm1.25-2.19c0,.16,0,.31.07.28l.1-.09C25.89,24.76,25.89,24.76,25.73,24.82Zm-3,2.18.1-.45s0-.08,0-.18l-.07.16,0-.25s0,0,0,0a.31.31,0,0,0,0,.08C22.74,26.56,22.76,26.77,22.77,27ZM.93,6.19c0,.13,0,.25.06.36s0,0,0,0a.69.69,0,0,0,0-.43ZM16.76,4.09c0,.3,0,.31.09.29s0-.08.06-.12a.75.75,0,0,0-.06-.17S16.8,4.09,16.76,4.09Zm-1,22.74,0,0a3,3,0,0,0,0,.31c0,.28.08,0,.12.16l0-.43C15.83,27,15.8,27.18,15.78,26.84Zm1.8.84v.27h.14C17.71,27.67,17.69,27.63,17.57,27.68Zm-17-11.3c0-.4,0-.51,0-.51s0,.13,0,.25C.54,16.41.58,16.38.62,16.38Zm.06-2.12,0,.05v.61l0,0a1.19,1.19,0,0,0,.06-.4A1.66,1.66,0,0,0,.69,14.27ZM5.47,28.15v-.07a1.61,1.61,0,0,0,0-.25s-.08,0-.12-.06V28ZM18.35,3.86c0-.25,0-.32-.06-.3s0,.09,0,.14,0,.22.07.31A1.1,1.1,0,0,0,18.35,3.86Zm5.53,22.23-.07.12a.24.24,0,0,0,0,.1,1.52,1.52,0,0,0,0,.23s0,0,0,0a.94.94,0,0,0,.06-.11Zm-5.74,1.58a3,3,0,0,0,0,.32s.06,0,.08,0a2.23,2.23,0,0,0,0-.27ZM14.42,2.89V3s0,.11,0,.14a.27.27,0,0,0,0,.1s0,0,0,0a2,2,0,0,0,0-.21A.38.38,0,0,0,14.42,2.89ZM.85,24.1h0l0,.28a.66.66,0,0,0,.06.17s0-.06,0-.2S.86,24.18.85,24.1Zm25.39,1c.1.15.17.09.18-.12C26.36,24.94,26.3,25,26.24,25.09Zm.4-18.21,0,.32a.58.58,0,0,0,.11-.11.94.94,0,0,0,0-.16V6.88h-.11Zm-1-2.06V4.76a2.12,2.12,0,0,0,0-.22c0-.16-.07,0-.1.11a1.34,1.34,0,0,0,0,.18v0l0-.15Zm-24,11.91c-.12-.06-.17,0-.17.3C1.51,16.87,1.58,17,1.63,16.73ZM25.5,25.11a1.52,1.52,0,0,0,.06-.15.63.63,0,0,0,0-.15,1.35,1.35,0,0,0,0-.16,1,1,0,0,1,0,.1s0,0,0,.05,0,.1,0,.15Zm-7.27,1.6c0-.09,0-.2,0-.28s0,0,0,0c0,.24-.05.11-.09.17C18.13,26.8,18.18,26.64,18.23,26.71ZM5,4.44l.13-.07c0-.28-.08-.18-.13-.19ZM27.41,7c.05,0,.1.07.12-.22,0-.06-.06-.2-.07-.16A3,3,0,0,0,27.41,7ZM.7,13.51v.08a.33.33,0,0,0,.09-.08,1.52,1.52,0,0,0,0-.18s-.05-.07-.07,0A1.17,1.17,0,0,0,.7,13.51Zm7-10.09V3.33s-.05,0-.07,0a.88.88,0,0,0,0,.34.11.11,0,0,0,0,.05ZM24.23,5c.06,0,.06-.18.07-.37S24.21,4.52,24.23,5ZM3,26l0,.58,0,0,0-.51Zm13.35-23,0,0c0,.09,0,.17,0,.26a1.26,1.26,0,0,0,0,.17s0,.07,0,0a1.54,1.54,0,0,0,0-.26C16.33,3.24,16.32,3.16,16.32,3.07ZM15,4c0-.24,0-.41-.1-.32C14.86,4,14.87,4,15,4ZM1.65,24.74c.06,0,.07-.14.05-.44C1.64,24.29,1.64,24.31,1.65,24.74Zm10.43-22v0c0,.19,0,.25,0,.25a1.21,1.21,0,0,0,0-.23c0-.13,0-.22,0-.21A.75.75,0,0,0,12.08,2.69Zm-7.51.55-.11.07v.07l.09.22s0,0,0,0S4.57,3.37,4.57,3.24Zm-3.5,8.47c0-.19,0-.31-.08-.24a.84.84,0,0,0,0,.13.46.46,0,0,0,0,.11S1,11.71,1.07,11.71Zm25.82,9.07a1.31,1.31,0,0,0,0-.21s-.06.06-.09.12,0,.11,0,.16Zm-7.49,7.7c0-.32-.05-.14-.07-.25l0,.19v.05Zm4.54-2.34,0,.21.06.27a1.5,1.5,0,0,0,0-.21A2.18,2.18,0,0,0,23.93,26.14ZM7.36,1l0-.36H7.3V.67ZM17.55,26.72l0-.07,0-.34a2.31,2.31,0,0,0,0,.23C17.49,26.77,17.53,26.72,17.55,26.72Zm-1.21-.45,0-.22,0-.12s0,0,0,0,0,0,0,.05a.83.83,0,0,0,0,.19A.5.5,0,0,0,16.34,26.27Zm-1.6.52c0,.28,0,.34.07.28C14.82,26.8,14.82,26.78,14.75,26.79ZM18.88,3.21s-.07,0-.07.24l.07.07Zm-2.65.35,0-.06,0-.36a.42.42,0,0,0,0,.12C16.18,3.44,16.2,3.52,16.24,3.56Zm3,24.27.1-.26C19.27,27.41,19.26,27.42,19.26,27.83ZM1.54,24s0-.13.06,0a.51.51,0,0,0,0-.09c0-.18,0-.24-.07-.18ZM17,28.75l0,.31a.94.94,0,0,0,0-.18C17.07,28.71,17,28.67,17,28.75Zm.07-25.27,0-.06s-.05,0,0,.14a.58.58,0,0,0,.08.2Zm2-.52L19,3l.06.49a2.26,2.26,0,0,0,0-.23C19.1,3.16,19.07,3.06,19.05,3Zm3.6,23.62v.07a1.1,1.1,0,0,0,0,.18.19.19,0,0,0,.05-.24S22.67,26.57,22.65,26.57ZM26.81,7.21a2,2,0,0,0,0-.23,2.06,2.06,0,0,0,0-.21,1.31,1.31,0,0,0,0,.2A1.77,1.77,0,0,0,26.81,7.21ZM16.15,26l-.1.07v.06s0,.12.06.1S16.18,26.23,16.15,26ZM.65,24l-.06-.24,0,.38v0Zm15.5,5c.07,0,.07,0,.06-.29h-.06Zm5.59-2.48a.57.57,0,0,0-.07-.15s0,.08,0,.13a.86.86,0,0,0,0,.16S21.71,26.6,21.74,26.52Zm-2.24.4a1.34,1.34,0,0,0,0,.17s0,0,0,0,0-.17,0-.29ZM15,3.21l0,.24c0-.11.08,0,.06-.24ZM8.59,29l.06-.26-.06-.18ZM16.41,4.22v.09l.07.13V4.38a1.66,1.66,0,0,0,0-.23S16.42,4.19,16.41,4.22Zm.71,21.92,0,0c0-.08,0-.16,0-.23s0-.28,0-.17ZM18.83,28c.06,0,.06-.17.05-.36C18.82,27.63,18.83,27.84,18.83,28ZM17.42,28v-.07c-.06,0-.07,0,0,.35Zm6.34-1.44v-.09l-.08-.21C23.68,26.59,23.72,26.51,23.75,26.51Zm-5.08-.07c0-.07,0-.13,0-.12a.69.69,0,0,0-.06.13.41.41,0,0,0,.05.11S18.65,26.51,18.67,26.44Zm2,.26,0,0c0,.07,0,.15,0,.22s0,.11,0,.17l0,0a2.23,2.23,0,0,0,0-.23A2.07,2.07,0,0,0,20.71,26.7Zm-2.29-.28h-.06s0,.08,0,.11,0,.08,0,.12S18.42,26.68,18.42,26.42ZM23,29c0-.25,0-.28-.07-.25C23,29.05,23,28.93,23,29Zm-2-1.7,0,0,0,.11,0,.27,0,0Zm-.1.18s-.07,0-.06.24h.06Zm4.69-1.25-.06.14.06.25Zm-8.72.35v-.29h-.06C16.8,26.57,16.85,26.51,16.88,26.61ZM10.21,2.92h0V2.86l0-.27v.33ZM23.8,25.64l-.07.17.07.17ZM16.6,3.11c0,.17,0,.25,0,.34a.4.4,0,0,0,0,.1,1.41,1.41,0,0,0,0-.17C16.63,3.31,16.61,3.25,16.6,3.11Zm8.12,21.72h-.07V25C24.72,25,24.72,25,24.72,24.82ZM5.23,4.24v0H5.15v.08s0,.09.06.1A.6.6,0,0,0,5.23,4.24ZM23.35,27.58l0,.09,0,.24a1.24,1.24,0,0,0,0-.15A1.66,1.66,0,0,0,23.35,27.58Zm-3.88.95,0-.12a1.58,1.58,0,0,0,0-.16,1.26,1.26,0,0,0,0,.13Zm-1.77-.14.05-.17,0-.22v.39Z"/></g></g></g></g></svg>