<svg xmlns="http://www.w3.org/2000/svg" viewBox="0 0 92.55 22.24"><defs><style>.cls-1{fill:#d9ae59;}</style></defs><title>Recurso 4</title><g id="Capa_2" data-name="Capa 2"><g id="Capa_6" data-name="Capa 6"><path class="cls-1" d="M27.9,21.49s-.07,0-.11,0l-.61-.11s-.1.05-.15.07l-.42.08s-.07.06-.11.1l0,.05h.15c0,.2-.1.14-.19.13L26,21.76l0,.3c0-.08-.08-.11-.08-.15s-.08-.17-.19-.15h0c-.19-.15-.4-.06-.61-.1s-.34,0-.53-.05l-.11-.12-.08.1c-.25,0-.52.08-.7,0s-.49,0-.7,0c-.05-.05-.11-.13-.13-.12s-.09.1-.14.14a2.8,2.8,0,0,1-.26.15c-.07-.2-.17-.25-.31-.17,0-.18-.29-.29-.63-.27v.22s-.1,0-.1-.06c0-.23-.15-.16-.26-.16-.15.39-.15.44.13.47a1,1,0,0,1-.1.2c-.14,0-.16.14-.26.15a1.14,1.14,0,0,1-.3,0c-.22,0-.22,0-.27-.16l.24,0,.21,0v-.29l.18,0c0-.12,0-.22-.18-.23a.31.31,0,0,1-.15-.08c-.11-.08-.2-.12-.28.06l-.2-.15,0,0c-.11.14-.25,0-.37,0a.73.73,0,0,1-.17,0c-.22-.07-.23-.06-.26.18,0,0,0,0-.06,0s0-.13-.06-.16-.1,0-.17,0a.29.29,0,0,0-.39-.15s-.14,0-.15-.05-.14-.13-.25-.1h-.07l.1-.11s-.09,0-.13,0l-.34.14,0,0,0,.17-.18-.14a.42.42,0,0,0-.14-.07L17,21c-.13,0-.25,0-.39,0a1.24,1.24,0,0,0-.53,0,1.27,1.27,0,0,1-.66-.11c-.12,0-.27.07-.35-.11,0,0,0,0-.07,0l-.35.07,0-.22.11,0c0,.06,0,.11.05.16s.05,0,.06,0l.13-.32-.41,0,.06.23-.21-.08c-.21-.07-.31,0-.35.26-.14-.07-.31,0-.43-.19s-.15,0-.21.12l-.22-.14s-.06,0-.06,0c-.16.18-.3-.08-.48,0a.8.8,0,0,1-.51,0,2.39,2.39,0,0,0-.49-.1l-.61-.09c-.14,0-.27-.06-.41-.07s-.2,0-.31,0a.5.5,0,0,1-.19-.09s-.06-.08-.08-.08-.08,0-.14.08l-.16-.06,0-.13L9.64,20c-.07,0-.14.11-.22,0s-.15,0-.24,0S9,20.12,8.91,20h.23l-.08-.23H9L8.91,20a1,1,0,0,1-.44.07H8.32l.29-.28c.15-.13,0-.23,0-.34s-.14,0-.2.09a.44.44,0,0,1-.29.16c-.1,0-.15,0-.14.16s0,.2-.12.09-.05,0-.08,0l.07.1-.11.09c-.1-.28-.24-.13-.38,0L7.41,20s-.13,0-.14,0c-.1.23-.29.07-.43.13s-.2,0-.3,0l-.09,0-.15.05c0-.07,0-.16,0-.2a.4.4,0,0,0-.08-.49H6.19l-.36.24c-.1-.11-.14-.32-.33-.31,0,0,0,0-.06,0l-.08-.09a.42.42,0,0,1,0,.12.5.5,0,0,1-.06.16.37.37,0,0,1-.09.08l.11.08c-.12.18-.1.3.07.35l0-.17.1.1.05-.18.19-.05,0,.26.19.05c-.19.13-.44-.09-.55.19-.09-.11-.16-.19-.32-.1s-.2,0-.3,0,0-.07,0-.07c.21,0,.15-.17.15-.29s-.1-.08-.15-.09a.3.3,0,0,0-.19,0s0,.1,0,.15.1.13.11.22.06,0,.1,0-.06.13-.12.17-.12,0-.18,0-.15,0-.06-.15,0-.09-.08-.09-.08,0-.14.05-.15-.08-.28,0-.18,0-.24-.05a4.91,4.91,0,0,0-.22-.53c-.09-.15-.2-.14-.32,0s-.07,0-.11,0l-.47.2a.59.59,0,0,1-.16.07H2.18v.14l-.44-.16v0l.64-.1c.07,0,.16.07.19,0a1.3,1.3,0,0,0,.17-.29c-.26,0-.39-.35-.66-.14l0-.3a.48.48,0,0,1-.15,0c-.07,0-.17,0-.2-.08a.56.56,0,0,0-.47-.29c-.12,0-.23,0-.17.19a.15.15,0,0,1,0,.09l.2.17.28.22c-.16.11-.22.09-.35-.08L1,18.87s0,0,0-.06c0-.22-.09-.26-.26-.24v-.05H.83c.11,0,.21,0,.24-.15a.67.67,0,0,1,0-.1H1L1,18,1.3,18v.16l.31.05a.48.48,0,0,1,.14-.43s0-.09,0-.16l.13-.21H1.47v.3c-.13-.26-.25-.23-.37-.06,0,0-.1-.06-.11-.11s-.1-.11-.19-.13-.31,0-.45-.13-.23-.08-.35-.12l.05-.12.59.08L.6,17a.82.82,0,0,1,.31.11.25.25,0,0,0,.35,0,3.51,3.51,0,0,1,.52-.23.15.15,0,0,1,.13,0c.08.08.14,0,.23,0a3.23,3.23,0,0,1,.58-.06L2.64,17c.39.08.61,0,.66-.17.15.09.33,0,.5.14s.34,0,.52,0l.78,0h.8s.07,0,.08,0c.15.19.35.07.53.09s.18-.07.27-.08A.26.26,0,0,1,7,17c.08.09.13.11.24.07a.39.39,0,0,1,.4,0c.13.08.18,0,.22-.12l.44,0,0,.14L8.4,17s0-.06.06-.05l.38,0h.89a.14.14,0,0,1,.08,0c.14.11.25,0,.37-.08a.56.56,0,0,1-.12-.09A.61.61,0,0,1,10,16.7l-.32-.06a.34.34,0,0,1,.48.07s0,0,.07.05l0-.19h.23s0-.07,0-.09a.23.23,0,0,0-.05-.08l-.65-.06-.71,0c-.11,0-.22,0-.33-.06s-.18,0-.18.15.08.16.18.15.17,0,.12.14-.39,0-.58.05-.25.06-.29-.14c0,0-.1,0-.16-.07l0,.16a2.76,2.76,0,0,1-.39,0,.22.22,0,0,1-.15-.12c-.06-.19-.17-.14-.29-.09l-.32.14c0-.07,0-.2-.08-.21a1.64,1.64,0,0,0-.49-.1c-.19,0-.38.07-.56,0a.58.58,0,0,0-.39,0s-.07,0-.11,0l-.42-.09V16l-.26.16a.39.39,0,0,0-.15,0,.18.18,0,0,0,0,.15.29.29,0,0,0,.17.08,1.82,1.82,0,0,1,.35,0c.07,0,.12.13.17.21-.18,0-.35.09-.45-.12,0,0-.13,0-.18,0a.36.36,0,0,1-.39.08l-.33-.09a.33.33,0,0,1-.15-.09c-.1-.12-.16-.23-.36-.2a1.35,1.35,0,0,1-.85,0,2.09,2.09,0,0,1,.26-.24s.12,0,.18,0,.08.06.1.05A.17.17,0,0,0,2.79,16a.82.82,0,0,0,0-.17l-.44-.07.08-.12v.06a.39.39,0,0,0,.13,0s.09-.1.12-.09.07.09.12.16a.36.36,0,0,0,.05-.09c0-.15.14-.14.23-.1a.49.49,0,0,0,.43,0,2.46,2.46,0,0,1,.43,0l.12-.15c.11-.16-.05-.21-.11-.3a1.43,1.43,0,0,0-.24-.23c-.16.14-.32,0-.49-.09a.35.35,0,0,0-.1,0c-.13,0-.25.14-.39,0s-.09,0-.17.07-.09-.33-.22-.05a.5.5,0,0,0-.57-.11c-.14.07-.14.06-.26-.08a.09.09,0,0,0-.09,0,.31.31,0,0,0,0,.38l.34.23-.41.22a2.22,2.22,0,0,1-.2-.23.21.21,0,0,1,0-.24.76.76,0,0,0,0-.27c-.1,0-.2-.1-.28.05s-.07,0-.15.07l.15-.55-.13,0L.58,13.7l.3,0c.2,0,.21,0,.18-.3a2.28,2.28,0,0,1-.39.05c-.07,0-.13-.08-.2-.12s.14-.2,0-.22l.17-.43-.16,0C.2,12.33.41,12.14.67,12c.08.15.24.1.38.1s.08-.07.1-.09l-.4-.29c.07-.4.07-.4.32-.41l0-.14c.15,0,.33.09.38-.19l-.41-.08c0-.14-.13,0-.22,0l.07-.32,0,0-.16.12L.51,10.5c0-.21.05-.28.25-.19a2.42,2.42,0,0,0,.3.07,1.53,1.53,0,0,0,.56.05c.12,0,.16-.05.09-.18s-.06-.15-.1-.21-.12-.1-.22,0-.14,0-.23-.05v.19s-.1,0-.11,0a1.43,1.43,0,0,1-.11-.22l0,0L.67,9.62c.09,0,.15,0,.17,0s.32,0,.46,0,.07-.11.1-.17-.12-.09-.19-.1A.91.91,0,0,0,1,9.37H.86V9.31l.27,0c.09,0,.19,0,.2-.15S1.22,9,1.15,9a1.9,1.9,0,0,1-.24-.09c.05-.07.1-.19.16-.21s.21-.22.27-.41c-.27-.06-.22-.25-.13-.45L1,7.77c-.11.09-.1.37-.33.26A.66.66,0,0,1,.87,7.5s0-.09,0-.14H.79L1,7l0,0c0-.32,0-.31.34-.34a4.52,4.52,0,0,0,.55-.11l.18-.22c0-.06.08-.13.12-.2-.2-.1-.2,0-.23.2L1.9,6.22l-.38,0,.11-.27.09.16L1.81,6s.06-.06.07-.09a.5.5,0,0,0,0-.17s0,0,0,0,0-.2-.12-.2-.16-.07-.25.06-.2.07-.3-.22c.15-.07.2-.17.15-.37s.08-.26.12-.39a1,1,0,0,1,.17.06c.15.09.16-.11.25-.15l0-.09-.12.09-.11-.26A1.28,1.28,0,0,0,2,4.27a1.07,1.07,0,0,0,.32-.15l0-.05-.2,0V4a1.05,1.05,0,0,0,.3-.07c.14-.08.17,0,.23.11a.14.14,0,0,0,.13,0A.52.52,0,0,0,3,3.42c.19,0,.39-.07.58-.09a4.48,4.48,0,0,1,.52,0,.23.23,0,0,1,.13.05c.16.13.16.13.21-.08.35,0,.7.14,1.07-.07a1.31,1.31,0,0,0-.12.35A1.36,1.36,0,0,0,5.46,4l.44-.38a.08.08,0,0,0,0-.07c-.08-.17.07-.29.08-.42l.23,0L6.87,3A.25.25,0,0,0,7,2.91c.06-.05.11-.12.2,0s.14,0,.22,0c-.09.21-.09.21,0,.58a2.24,2.24,0,0,0,.46,0c.07,0,.11-.14.16-.17a.94.94,0,0,0,.27,0c.16-.06.13-.22.11-.42L8.29,3,8,2.92V2.87a3.83,3.83,0,0,1,.4,0c.05,0,.1.06.16.08s.08,0,.15,0l.4,0c.23,0,.45,0,.68,0s.17.17.3.07a.73.73,0,0,1,.56-.07c.12,0,.2,0,.21-.12l.5.16,0-.13s0,0,.07,0,.25,0,.31.17.07,0,.11,0L12.07,3V2.74h.45l.1-.28-.26.05.15-.61a.88.88,0,0,1,.09.12c0,.1.07.27.14.3s.12.21.09.33l-.11-.17-.06,0,.05.31.2.1L13,2.56l.3.07a2.12,2.12,0,0,1,0-.21.63.63,0,0,1,0-.18c.09,0,.19,0,.25,0s.1.09.15,0,.11-.11.17,0a.6.6,0,0,0,.06.09l-.16.3a.88.88,0,0,0,.3,0,.15.15,0,0,0,.1-.16l.16-.16-.09-.1.17.14c0-.21.11-.33.3-.31V2l-.17-.07c0-.19.08-.26.29-.18-.14.24,0,.39.13.57s.11,0,.2,0,.07.14.21-.11l-.09,0c0-.09,0-.17,0-.25a.2.2,0,0,1,0-.11s.07,0,.09,0a.43.43,0,0,0,.47-.22l0,.34-.2.13.05.24c.2,0,.42-.11.59.13h.05l0-.32.44.08,0,.16a1.58,1.58,0,0,0,.27,0c.11,0,.15-.17.09-.32l.38.13-.05-.26c.06,0,.13,0,.14.06s.12.09.17.06,0-.12,0-.18a.25.25,0,0,0,0-.06l.21-.06V2l0,0s.08-.06.1-.11a.84.84,0,0,1,0-.18l0,.06.06.09,0-.08a.76.76,0,0,0,0-.13.26.26,0,0,1,0-.13l0,.18c.29,0,.29,0,.21.15a.39.39,0,0,0-.16,0,.16.16,0,0,0-.06.12c0,.05.1.12.15.12.28,0,.56,0,.85-.06l0-.17a.28.28,0,0,1,.39,0A1,1,0,0,0,20,2l0-.19a.84.84,0,0,0,.7,0l.28.07c.13.22.34-.06.52.06V1.65l.08.08.08.05c0-.09.06,0,.08,0s.2,0,.26,0,.13-.18.2-.28l0-.07-.33,0h0c-.08-.19-.22-.17-.36-.11,0-.22-.07-.29-.27-.21l-.22.08,0-.2-.45.06,0,.18h0c0-.08,0-.19,0-.24a.29.29,0,0,1,.21-.11c.19,0,.38,0,.57,0,0-.12-.08-.22.06-.32s.08,0,.12,0h.13l.08.1,0-.06-.19.24h.92l0-.25h0l0,.23A4.29,4.29,0,0,0,23,.93c.07,0,.15-.08.22-.12L23.09.67,23,.37s-.1,0-.12.06a1,1,0,0,0-.06.23c-.29.09-.29.09-.3,0,.16.08.25,0,.26-.19a1.22,1.22,0,0,1-.4,0c-.19-.07-.14.26-.31.19,0-.15,0-.21-.16-.16s-.07,0-.08,0c-.14-.18-.32-.08-.48-.09a2.89,2.89,0,0,0-.41,0,.36.36,0,0,1-.11,0s-.09,0-.11,0-.34,0-.52,0-.25,0-.27.28c-.05-.05-.13-.09-.07-.19s0-.08,0-.08a1.24,1.24,0,0,0-.32,0s-.07.1-.11.17l-.18,0V.66h.29c0,.22-.18.14-.29.18v.32L18.83,1l.08-.12c.06,0,.14.1.16.08A.8.8,0,0,0,19.2.75L18.94.67c-.08,0-.26.09-.25.19s-.09.34.17.39c-.19,0-.34.06-.48.07s-.1,0-.12-.05l.36-.5s0,0,0,0l.09-.18-.25,0h-.07l-.14.22L18.21.54l-.14.09S18,.57,18,.56s-.07,0-.1.07a1.05,1.05,0,0,1-.14.11c-.06,0-.17-.05-.19.1L17.43.75c-.08-.07-.1-.29-.27-.15a.35.35,0,0,0-.06.08L17,.55v0h0c.18,0,.33-.24.53-.1s.12.09.15,0,0,0,.07,0,.11,0,.12-.07,0-.09-.05-.14l.22-.07.12.13H18c0,.16.11.18.59.13L18.47,0l.34.34s.05,0,.06,0a.6.6,0,0,1,.58-.08c.08,0,.18,0,.27,0a2.53,2.53,0,0,1,.29,0h0c.1-.15.22,0,.33,0l.3-.1c.05.16.25.13.39.13a4.88,4.88,0,0,0,.7-.1l.32,0c0,.07.05.17.19.08s.11.06.17.06l.63-.09.23,0s0,.1,0,.11a.62.62,0,0,1,.32.47c0,.06-.23-.13-.26.13h.8l0-.2.31,0s.07,0,.1.06l-.07.07a.26.26,0,0,0,0,.08h.23l0-.14c.13,0,.3-.1.35.21l.1-.15,0,.11c.16.09.21-.1.32-.14s.07,0,.1,0A2.75,2.75,0,0,0,26,.79c.06,0,.07.25.19,0,0,0,.13,0,.2-.05s.2,0,.3,0h.37v0c.16-.07.33.15.44-.15.1.35.09.44-.05.67L27.13,1s-.06,0-.09.06-.13.16-.25.07-.15,0-.23,0l-.82-.06s-.1,0-.1,0a.65.65,0,0,0,0,.18l-.13,0c0-.22,0-.24-.2-.19a.18.18,0,0,1-.1,0c-.31-.13-.62.06-.92,0-.06,0-.13,0-.17.07a4,4,0,0,0-.41-.11.62.62,0,0,0-.31,0,.94.94,0,0,1-.4,0l-.27,0c0,.14-.06.3-.19.07,0,0-.15,0-.23,0s0,.26,0,.37.06.07.11.13l0-.22h0l.07.24.28.29-.23.22c.31,0,.31,0,.34-.15l.41-.11a.1.1,0,0,1,.07,0c.14.1.25.08.29-.13l.06.25h-.16l-.21,0,0,.2,0,.09.63-.1c0-.22,0-.24-.18-.22.16-.12-.19-.38.13-.45.05.1,0,.32.19.26l0-.31h0a1.34,1.34,0,0,0,0,.21c.06.15.15.17.3.12a.82.82,0,0,1,.33,0c.05-.13.07-.22.22-.07s.28,0,.43,0,0-.1,0-.15.07-.12.14,0a.11.11,0,0,0,.1,0,.35.35,0,0,1,.35.07c.09.07.24,0,.31.12.13-.14.35.08.45-.16.15.05.23-.08.33-.14h0l-.08.2.17.25a.31.31,0,0,0,.09.1s.07,0,.07-.06A.37.37,0,0,0,27.54,2s0,0-.07,0l.06-.08c.12.2.27,0,.4.05,0-.21.08-.29.28-.34l-.07.15-.06.16.21.07-.15.13c.13.07.24.11.24-.09h.2v-.4l.26.21-.13,0v.36c.08,0,.27,0,.3,0s.35-.22.18-.51h.71l-.13.44H30l0-.13h.2L30,1.65a.86.86,0,0,1,.17.11,1.14,1.14,0,0,1,.11.18L30,2c0,.17.2.15.3.16s.12-.09.06-.19a.23.23,0,0,1,.11-.1s.09,0,.18.06l-.21,0c0,.27.2.36.52.27l0-.21,0,0,.24-.37.13,0c0,.15-.09.29-.12.44s0,.07.07.07a.7.7,0,0,0,.2,0,.57.57,0,0,0,.12-.08c.11.09.18.06.21-.1l.23.08,0-.28.38.4V1.64c.13.17.23.32.35.46s.1,0,.13,0L33,1.82c.17,0,.34.18.48,0,0,0,0-.1,0-.13l.1-.3c.1,0,.21.15.34,0l0,.15H33.7v.33l.17-.12H34s.09,0,.09,0a.25.25,0,0,1,0,.13A1.42,1.42,0,0,1,34,2c.25-.06.29-.1.4-.41l.23.1-.12.23.06,0c.07,0,.14-.08.19-.07s.09.12.15.15a.85.85,0,0,0,.23.05l0,0L35,1.83l.3-.07a2.69,2.69,0,0,0,0,.31c0,.05.06.09.09.14L35.53,2l.2.11.11-.43L36,1.61l-.07-.09.09,0c.11.23.13.23.27.06l.15.08s.08,0,.11.06a1.5,1.5,0,0,0-.27,0s-.07.08-.1.12.09.11.13.1a4.19,4.19,0,0,0,.42-.07L37,2l.09-.4.47,0a.49.49,0,0,1-.11.06c-.13,0-.1.11,0,.17a1.27,1.27,0,0,0,.26.22c.14.09.28.15.42.23.28-.39.28-.44.08-.56l.18-.06.13.09c.14,0-.05-.4.18-.27l-.05.34,0,0a3.19,3.19,0,0,1,.23.29c.05.08.09.08.18.08s.2-.08.24-.22.09,0,.13,0h.21l-.07.25.5-.13V2l.34,0a.71.71,0,0,1,.21.08c.19.1.29.07.38-.14l0-.08a.33.33,0,0,0,.3.32.36.36,0,0,1,.17,0c.08,0,.16.1.16-.08.15.2.35.14.52-.13l.18.07.06-.21,0,0c0,.34.22.38.46.3,0,0,.07,0,.09,0a.43.43,0,0,0,.13-.08c-.07-.16.11-.24.1-.38v.06c0,.13-.1.31,0,.38a.74.74,0,0,0,.5.05,1.12,1.12,0,0,1,.29,0h.12l0-.15.21.15.11-.36c-.21,0-.39-.05-.56-.05s-.13.07-.18.1-.21-.18-.08-.39c.06.25.22.31.41.18.07.13.07.13.38,0V1.56l.24.05.25.22L45,2.23l.38.07c0-.17,0-.3.08-.43s.17-.1.26,0l.19.23,0,0,0-.29c.13,0,.26.12.34-.05l0,0,.29.29.13.12V1.94l.34.15a.25.25,0,0,1,.11.08s0,.08,0,.12l-.07.21h.4c0-.05,0-.12,0-.14s.09-.16.05-.26c.06.06.17-.07.21.08l0,0,.7,0,0-.19.43.11c.05,0,.11.11.15.11s.07-.09.11-.15h0l.18.09.36.11c0-.23,0-.36-.18-.36,0,0-.08-.06-.12-.1l0-.06a2.54,2.54,0,0,1,.36.13.23.23,0,0,1,.1.17c0,.25,0,.25.19.2l.06,0c0-.13-.16-.26,0-.38l.13.07c0,.23,0,.4.26.29a1.51,1.51,0,0,0,.11.23s.1,0,.16-.08c0,.13.13.2.3.14l0-.28.33-.09L51.24,2l.09-.2.09.17c.4,0,.81.22,1.19-.07.07.11.14.2.22,0l.09.13,0,0V1.46l-.33.12-.15-.16c.1,0,.12,0,0-.17s0-.18,0-.23a1.73,1.73,0,0,0,.34,0c.12,0,.18,0,.22.13l-.44,0c0,.14,0,.23.14.24a.9.9,0,0,1,.29.13l.14.08c-.31.14-.12.42-.14.67l.45,0v.06l-.26.07.08.39.14.06c.13.07.2,0,.26-.12a1.83,1.83,0,0,1,.2-.29l0,0,0-.22.19.06v.2l.1,0c.42.12.38.1.39-.3h.18l.17,0a.88.88,0,0,0-.24.2s.08.15.12.23l.2-.18.12.26.32-.24,0-.07-.27,0,0-.13h.93L56,2.39l0,0h.22l0-.12h.25l.07-.22.05,0,.13.33h-.3v.37h.15l.05-.18.46.22.08-.35.21.12-.12,0V2.9c.08-.06.16-.08.19-.14s0-.12-.07-.18.23,0,.27-.13c0,0,.07,0,.14,0l-.13.25,0,.05s.09-.06.1-.11.07-.15.17-.1.06,0,.07,0,.26,0,.39-.05V2.3a.54.54,0,0,1,.15,0c.09,0,.13,0,.16-.09A.32.32,0,0,1,59.07,2l0,.41,0,0,.06-.1a.54.54,0,0,1,0-.1.32.32,0,0,1,.09-.05l-.08-.11h.18V1.84a1.27,1.27,0,0,0,.14.2c.09.09.2.16.29.25.07-.11.23.05.29-.11s.06,0,.14,0l-.17.47.41,0c0-.21-.11-.16-.21-.19L60.36,2c.17.21.36.16.54,0l0,.24.36-.06c0-.21-.19-.17-.32-.17V2a2.1,2.1,0,0,1,.48.09c.12,0,.21.09.3,0,.12.25.16.26.34,0a.16.16,0,0,0,.22.16c.06,0,.12-.1.21-.18l.18.38.15-.1.12.33c0,.14.11.15.22.06a.72.72,0,0,1,.26-.06v0c-.21-.12,0-.28,0-.41s.09-.07.14-.11l0,0V2a.82.82,0,0,0,.63.12c.07,0,.15,0,.21.11-.16,0-.32,0-.48,0s-.23,0-.35-.05-.11.05-.17.08l.12.14c-.18.15.09.21.07.34a.47.47,0,0,0,.48-.2c.09-.14.22-.08.32-.17s.16,0,.25,0a.28.28,0,0,0,.09,0l-.05-.11-.07-.1,0,0,.26.21-.11.17.33.23.09-.25,0,.19.15-.07.05.16-.31.13s.08.1.12.1a3.44,3.44,0,0,0,.4,0,.18.18,0,0,0,.1,0l.06-.07-.09,0a.22.22,0,0,0-.08,0c0-.17,0-.22.17-.2H66c.16.23.38.3.57.15.08.19.19.2.32.06s.09,0,.13,0,.24.13.36-.05.27,0,.4,0,.21.08.31,0,.07,0,.1,0h.18v.09h0c.14-.13.31-.08.47-.08a6.53,6.53,0,0,1,.7,0c.19,0,.39,0,.57.09s.16-.08.16-.19c.19-.06.4,0,.61-.16l.08,0v0c-.11.14-.07.35.09.38a5.23,5.23,0,0,0,.65,0s.05,0,.12-.08l-.15.3c.08,0,.14,0,.17,0s.18.13.23,0A.22.22,0,0,0,72,3l0,0h.52V2.77h0l0,.28.18,0s0,.07,0,.11,0,.11,0,.16l.11-.1h0a.93.93,0,0,0-.08.18.5.5,0,0,0,0,.16.46.46,0,0,0,.13,0l.28-.18a1.45,1.45,0,0,0,.08.2c.12.2.29.05.43.06a.25.25,0,0,0,.3-.18s.07,0,.09,0,.23,0,.29-.16.11-.05.19-.08l.07.31.25.11,0-.23h.39v.21h.21l.06-.23h0a1.42,1.42,0,0,0,0,.16,1.28,1.28,0,0,0,.05.14l.08-.12H76l-.11-.26c.09.07.19.11.21.17s.11.12.17.1a.33.33,0,0,1,.41.1c.07-.27.07-.27-.32-.39l.19-.1a.52.52,0,0,0,.15-.08c.1-.1.18-.1.27,0s.09.09.13.09.3-.06.44-.08l.42,0-.17.39.58-.08-.07-.28L79.13,3s.1-.06.1-.08c0-.23.11-.29.26-.35s0,0,0,0,0,.22.15.25a.38.38,0,0,0,.38-.14l.27.08.06.47c.2,0,.16-.15.23-.29l.06.26a1.77,1.77,0,0,1,.23-.13.31.31,0,0,1,.13,0l.06-.36h.34l.18,0h.46l.62-.05s.08,0,.12.08c-.14-.11-.16,0-.19.1s-.3-.05-.48,0-.38,0-.61,0c-.06.14-.2.07-.33,0L81.13,3l.2.1-.08.09c.12,0,.26-.13.35-.09s.38-.08.57,0l.06.21-.13,0a2.4,2.4,0,0,0-.29,0s-.09.06-.13.09a.54.54,0,0,0,.14.09,1.77,1.77,0,0,0,.26,0v.06a4.35,4.35,0,0,0-.5,0s-.08.11-.1.17.05.11.08.11a3.06,3.06,0,0,0,.51-.09c.11,0,.26-.05.2-.26l.2,0V3.31l-.17-.07a.1.1,0,0,1,0-.09s.06,0,.07,0c.14.18.31.06.47.06l0,0a.17.17,0,0,1-.23.14l-.1,0a.49.49,0,0,0,0,.1,3.29,3.29,0,0,0,.22.3c.09.11.27.06.38,0s.34-.12.44-.06.13-.07.18-.11c.12.21.56.25.66.06a.36.36,0,0,0,.46-.12l.16.14,0-.05,0,.11h.1s.06,0,.07,0,.21,0,.26-.13l.24.05-.07.12.12,0,.11,0a.86.86,0,0,0,.21.1s.07-.06.1-.09,0,.18.12.06.07,0,.11,0a2.43,2.43,0,0,1,.53,0c.18,0,.38-.09.54.08,0,0,.06,0,.09,0s.07-.05.08,0,.31,0,.47,0a1.74,1.74,0,0,0,.55,0l0,.11,1,.07v0l-.76.05a2.67,2.67,0,0,1-.5,0,3,3,0,0,0-.71.13c-.21,0-.42,0-.64,0s-.3.05-.45.07-.24,0-.35,0-.09.05-.13.08.08.1.12.1a6.85,6.85,0,0,0,1.1,0,3.73,3.73,0,0,1,1.13,0,2.52,2.52,0,0,0,.74,0c.08,0,.19,0,.26-.12s.33-.05.48.1A1.84,1.84,0,0,1,91.22,4v.1l-1,.07v.15l.19,0,.07,0-.27.08c0,.22.17.11.25.12s.27,0,.41,0a1.28,1.28,0,0,0-.22.11.47.47,0,0,0-.09.14l-.32,0a.55.55,0,0,0,0,.11,1.77,1.77,0,0,1-.28.14.37.37,0,0,1-.18,0l-.22-.07,0,.06a.63.63,0,0,0,.06.17s.09.06.13.1c-.23,0-.45-.1-.65.11s-.2,0-.31.06l-.84.16s-.08.06-.12.08l-.13.06-.17.06s0,.1,0,.1.12.21.18,0c.06,0,.11.08.16.08a2.57,2.57,0,0,0,.39,0c.39-.06.79-.13,1.18-.17.11,0,.26-.12.36.08,0,0,.18,0,.28,0l.27,0a.67.67,0,0,1,.19,0,.29.29,0,0,1,.17.11l.49.07c0,.15.1.13.2.11l.36,0V6l-.4.2.23.17,0,0h.25c-.1.06-.25,0-.18.24l.87-.1v0a1.52,1.52,0,0,0-.39.05c-.23.09-.51.13-.57.48l-.1-.1s0,.08,0,.1l-.23.12c0-.11,0-.17,0-.23s0-.07-.06-.06S91,7,91,7s-.19.18,0,.25l-.05.1a2.46,2.46,0,0,0-.39,0l-1.17.34a.14.14,0,0,0-.06.11s.07.11.11.11.27,0,.41-.05.2-.09.26.07l.18-.05,0,.15L90.79,8l.1.15h-.51c-.13,0-.18.09-.21.19s0,.11.05.17h.06l0-.14.18.18a.19.19,0,0,0,.23.16l1.18,0a.69.69,0,0,1,.18.05l-.66.13c0,.07,0,.12.09.13s.41.05.62.08v.06H92c-.23,0-.46,0-.68.08a1.46,1.46,0,0,1-.65.08s-.1.08-.15.12l0,.05.3,0,0,0-.3.18,0,.06.2,0a.19.19,0,0,1,0,.06l-.08.07s0,0,0,0,.08,0,.1,0a.24.24,0,0,1,.29-.14.83.83,0,0,1,.14.07c.12.06.24.13.37,0s.17,0,.28-.05c-.06.14-.07.24.1.24l-1.16.23a.53.53,0,0,0-.11-.07s0,.05-.05.07a.12.12,0,0,1-.06,0l-.55.11-.71.12a.55.55,0,0,0-.14.06s-.06.05-.09,0-.23.06-.24.17-.21.07-.26.13-.12.19,0,.25l-.38.14s-.09,0-.13,0-.24,0-.25.19a1.3,1.3,0,0,0,.74-.12.4.4,0,0,0,.39.07.82.82,0,0,1,.24-.06,3.54,3.54,0,0,1,.44,0s.1.05.15.05a1,1,0,0,0,.23-.06.61.61,0,0,0,.51,0c.1-.05.22-.14.35,0s.15,0,.25,0l0,.19-.39.05s-.07.06-.11.09l0,.05h.19c-.2.23-.2.23-.39.21l0-.14,0,0-.08.17c-.21,0-.43,0-.66,0s-.41.07-.62.11-.14.1-.05.23c-.19,0-.38,0-.57,0s-.1.07-.15.11.11.15.16.15.23,0,.33-.08.15,0,.23,0a.72.72,0,0,0,.15-.07l.43,0v.06l-.78.2,0,0c0,.06-.1.12-.14.19s-.06.1,0,.13.08.07.12.11c-.12.07-.23.18-.09.4l-.15,0,0-.22a2.36,2.36,0,0,0-.28-.08s-.08,0-.12,0l-.9.05a3,3,0,0,0-.31,0c-.06,0-.11.08-.16.13a.14.14,0,0,0,0,.12s.07,0,.1,0a.91.91,0,0,0,.24,0,.45.45,0,0,0,.19-.08s.06-.07.09,0l.43.06h0s0,.06,0,.07l-.45.14-.19.07,0,.07h.59s.07.06.12.11l.19-.06c.06.15.15.19.29.09s.14,0,.22.05h.4c.1,0,.2,0,.3,0s.21,0,.32,0,.36-.17.56,0c0,0,0-.06.05-.07l.27,0a.44.44,0,0,1,.11.07s0,0,.06,0,.13,0,.17.13l.19-.1.18.09c.12-.16.16-.16.3,0l-1.28.1-.11.07a.56.56,0,0,0-.14.15s.05.08.1.14l-.1.08L90,14.69l-.14.17-.17-.21c-.12-.07-.2,0-.17.15h-.64a4,4,0,0,1-.78,0c-.17,0-.17.15-.19.28l-.33.06v0l.3-.07v-.26l-.18.05h-.17a.58.58,0,0,0-.23,0,.83.83,0,0,0-.18.18L87,14.88l-.11.2c.2,0,.27.17.17.42l.39-.17v0l-.33.26s-.06,0-.09,0l-.49.08s0,.05-.06.11h.74c.1,0,.2,0,.3-.05a.75.75,0,0,1,.24,0,.66.66,0,0,1,.24.1s.07.12.12.23l.14-.19v0l.23,0c.05,0,.1,0,.15,0l.55,0s.08,0,.12-.06l0,.05-.16.06-.37.08-.27,0-.69.1a1,1,0,0,1-.24,0l.09.18s0,0,0,0-.22.11-.29.07-.32,0-.47,0a3.42,3.42,0,0,1-.61.06c-.25,0-.49.07-.74.09a1.38,1.38,0,0,1-.34-.06c-.06.15-.22.06-.35.07s-.1,0-.11,0-.21.07-.32.07h-.05c-.14.11-.26.07-.37-.06l-.14.22a.52.52,0,0,0,.17.06c.13,0,.26,0,.39,0s.14.06.21.06.31,0,.47,0h.35v.05L85,17c0,.11,0,.11.2.12l-.14.18-.46-.08.07-.1,0-.06-.26.17-.18-.1,0,.16a1,1,0,0,1-.29.1c-.15,0-.29,0-.44,0a.47.47,0,0,0-.21.08s0,.06,0,.1,0,0,0,0l.06,0c.15,0,.29,0,.44,0l.66,0a.28.28,0,0,0,.27-.17.49.49,0,0,0,.52.13h0l0,.2-.73-.08a.7.7,0,0,0-.23.07l-.22-.14-.1.29a2,2,0,0,0-.32-.14c-.07,0-.14,0-.21,0l-.53,0h0a.68.68,0,0,0-.37,0c-.12,0-.27,0-.3.2l0-.17a3.62,3.62,0,0,0-.5,0s-.1.13-.1.2.08.13.17.12.18-.05.21.09l.18-.07c.16.06.16.06.22,0,.07.15.12.31.3.3a.55.55,0,0,0,.14,0c.07.18.23.09.36.08.28,0,.56-.1.84-.14a1.48,1.48,0,0,1,.31,0l0,.12-.76.31,0,.17h0l.18.08a1.18,1.18,0,0,0-.23,0l-.38.12a.52.52,0,0,0,0-.1s0-.07-.07-.06,0,0-.07.07l-.16.16-.17.17,0,.06-.33,0c0,.11-.09.26.1.34s0,.18,0,.28l-.07,0,0-.18-.28,0,.09-.44c-.14,0-.32.06-.32.1s-.26.28-.1.47A.36.36,0,0,1,81.3,20c-.17-.18-.31-.07-.5-.08l.09.17,0,0-.12-.14v-.06l-.61.12a.29.29,0,0,1-.16-.07s0-.06-.06-.09l-.08.1a.25.25,0,0,0-.35.1c0,.07-.12.14-.22,0s-.09,0-.13,0l-.5.21,0-.15h0l-.3,0a.27.27,0,0,0-.15,0,.3.3,0,0,1-.3,0,.18.18,0,0,0-.11,0l-.14,0,.13-.23a1.94,1.94,0,0,1-.4-.1.29.29,0,0,0-.28,0c-.21.08-.45,0-.66.11,0,0-.17,0-.22-.06s-.16,0-.17,0-.08.08-.15,0a1.4,1.4,0,0,0-.25-.09l0,.05-.28.27v-.19a.76.76,0,0,0-.22-.11c-.05,0-.11,0-.16.07l-.41,0c0,.15,0,.35-.17.4a.19.19,0,0,0,0,.14.31.31,0,0,1,0,.32c0,.09-.14.22.09.28-.28.09-.55.13-.71.37l0,.06.68-.05v0a1,1,0,0,0-.29.09c-.07,0-.1.15-.16.25a.24.24,0,0,0-.38-.06.78.78,0,0,0-.19-.12.55.55,0,0,0-.24,0s-.06.08-.07.13,0,.12,0,.18,0,.22,0,.35l-.23-.15.05-.15c-.12-.07-.28,0-.34-.17,0,0-.05,0-.06,0a2.47,2.47,0,0,0-.12.24s0,0,0,.09-.11,0-.14,0c-.23-.21-.51-.06-.75-.14,0,0-.12.14-.21.24,0-.08-.11-.21-.08-.25s.12-.21.27-.2.28,0,.32-.18c0,0,.13,0,.2-.07a.74.74,0,0,0,.16-.06,2.51,2.51,0,0,0,.22-.18v-.11h0c.11.17.24.16.39.06s.15,0,.27,0A1.12,1.12,0,0,1,73,21c0-.05,0-.13,0-.16s.19-.25.28-.37,0-.08,0-.08a.26.26,0,0,0-.12-.06h-.2a.92.92,0,0,0,.05-.22c0-.15,0-.28.13-.37a.15.15,0,0,0,0-.13s-.07,0-.1,0l-.3,0V20c-.2,0-.2,0-.22.22,0,0-.07-.11-.13-.14a.43.43,0,0,0-.21,0l-.44.06,0,.11-.39-.12c-.08.2.27.24.09.43l-.23-.36a1.69,1.69,0,0,0-.37,0c-.05,0-.1.1-.15.15l0,0-.23.08-.09-.3.47,0a1.13,1.13,0,0,0-.15-.21.37.37,0,0,0-.18-.06.18.18,0,0,0-.11,0c-.14.08,0,.2,0,.3-.07-.05-.15-.15-.22-.15a1.19,1.19,0,0,0-.35.12.06.06,0,0,0,0,0s0,.05.06,0l.3-.07v.27l0,.05a1.47,1.47,0,0,0-.57.13c-.18.13-.4-.16-.53.11l0,0c0-.15.08-.3.13-.44A.21.21,0,0,0,69,20h-.13l-.23.24h0s0-.09-.05-.1l-.67,0a.72.72,0,0,0-.19.05.33.33,0,0,0,.29.32l0-.18.16.28-.29,0s-.1,0-.11,0-.13-.08-.18,0a1.42,1.42,0,0,1-.11.15c0-.22-.07-.27-.21-.28h0v-.09c.28.08.28.08.27-.21l-.42,0a1.81,1.81,0,0,0-.2,0c-.17,0-.13.23-.2.33s0,.18-.17.17-.12.1-.18.16l-.15-.1-.15.23L66,21l.12-.28,0,0-.19.06c0-.09,0-.09-.18,0a1.7,1.7,0,0,1-.25,0l0-.15a.17.17,0,0,0,.22-.18h-.46v0l.32-.09c-.14-.17-.09-.27.11-.31-.09-.15-.15-.29-.33-.24h-.06c-.08-.23-.1,0-.16,0s-.17-.18-.32-.1-.2,0-.32-.06l0,.17-.2-.09-.12-.33s-.11,0-.11.06-.15.26.06.31c-.11.23-.1.26.12.26s.22,0,.31-.08.1,0,.17,0,0,0-.06,0a.27.27,0,0,0,0,.1s0,0,.06,0,0,0,.08-.07a.36.36,0,0,1,.13-.08.94.94,0,0,1,.37,0l-.19.19-.21,0c0,.19,0,.19.36.21-.07.09-.14.18-.22.26s-.08.1,0,.14.14.1.09.2-.08.13-.16,0-.12.06-.19.09l.09.24c-.07,0-.11,0-.13,0a.83.83,0,0,0-.13.09.78.78,0,0,0,.16.08,1.85,1.85,0,0,1,.29.05c.11,0,.1.06.15,0s.19.06.25,0,.12,0,.18.12l-.24,0c0,.2-.18.17-.3.16s-.33-.1-.5-.11a4.4,4.4,0,0,0-.62.06c-.13.29-.21,0-.32,0s-.09,0-.12,0-.15-.09-.18-.06a.93.93,0,0,0-.15.25c-.09-.15-.1-.38-.31-.32,0,0-.07.09-.12.16l.18,0-.09.12-.35-.36,0,.25c0-.25-.14-.08-.24-.07L62,21.45l-.15.11c-.06-.14-.18-.14-.32-.07s-.15,0-.23,0-.29.11-.45.06-.07,0-.11.07l-.15.11v-.24a9,9,0,0,1-1-.1c-.17,0-.26.06-.37.13a.51.51,0,0,0-.64-.08c-.05,0-.07.13-.11.22l-.09-.22-.25.12h-.5a.4.4,0,0,0-.51,0c-.16-.15-.34-.11-.39.09l-.18,0a1,1,0,0,0,0-.15.67.67,0,0,0-.07-.11.43.43,0,0,1-.05.1.41.41,0,0,1-.09.06l-.06-.16s-.08.05-.09.09c-.05.2-.19.06-.28.09.07-.08.24-.07.2-.24s-.09-.07-.15-.12l0,.16h0a.58.58,0,0,0-.56-.11,1.12,1.12,0,0,1-.69,0l-.11.4c-.12-.26-.27-.12-.4-.11l-.36.06.09-.21-.17,0s0,.06,0,.08c.07.18,0,.25-.16.26l-.52,0a.33.33,0,0,0-.39-.23l-.34.05a2,2,0,0,1-.06.27s-.07.07-.1.1S52,21.84,52,21.8s-.06-.14-.14-.21-.35,0-.53,0a.22.22,0,0,1-.14,0c-.17-.11-.33,0-.49,0s-.29.12-.41,0c0,0-.1,0-.17.06L50,21.41a2.93,2.93,0,0,1-.23.25.15.15,0,0,1-.14,0,.53.53,0,0,0-.53,0c-.15-.22-.2-.23-.28-.05l-.29,0-.26,0v0a1.08,1.08,0,0,0-.14-.14s-.12-.06-.14,0-.27.05-.41,0a2.26,2.26,0,0,0-.4,0,1.75,1.75,0,0,1-.17,0,.36.36,0,0,0-.18,0c-.18.11-.1.22,0,.33-.16,0-.25,0-.2-.17s0-.16-.12-.17a4.16,4.16,0,0,0-.68-.09c-.16,0-.38,0-.45.25-.05,0-.12-.11-.13-.1s-.36-.1-.38.2c-.11-.23-.25-.23-.47-.12s-.25.13-.37,0a.62.62,0,0,0-.16-.12c-.06.18-.13.17-.22,0s-.11,0-.15,0a2.09,2.09,0,0,0-.35.16.28.28,0,0,1-.33,0c-.16-.1-.21-.07-.3.16,0-.19-.14-.17-.28-.15a2.59,2.59,0,0,1-.48,0,3.16,3.16,0,0,0-.33,0,.18.18,0,0,1-.12,0,.63.63,0,0,0-.67,0c-.11,0-.23.05-.31-.09s-.1,0-.1,0c-.05.21-.21.2-.36.23v-.05l.13,0c0-.23-.24-.11-.3-.24l-.33.26c-.06-.14-.14-.34-.38-.3-.06,0-.12.09-.17.14s0,.11-.07.11a.18.18,0,0,1-.12-.07c-.1-.14-.18-.22-.36-.12a.42.42,0,0,1-.46-.09s-.05-.05-.08-.05l-.59.11.06.4a2,2,0,0,0-.34-.11c-.06,0-.12,0-.18.08a.81.81,0,0,0-.06-.23.32.32,0,0,0-.53,0c-.11.12-.25.09-.37.05s-.23-.25-.38-.06c-.18-.15-.45.12-.56-.13-.1.07-.17.16-.24.16a.39.39,0,0,1-.25-.13c-.12-.12-.2-.14-.3,0s-.27.19-.43,0-.1-.06-.11,0c-.18.22-.38,0-.57,0a1.43,1.43,0,0,0-.26.07.29.29,0,0,1-.12,0,2.52,2.52,0,0,1-.71-.17c-.2-.11-.35,0-.52,0a3.63,3.63,0,0,0-.55.11l-.09.15a.62.62,0,0,0-.1-.1.36.36,0,0,0-.14-.05l-.39,0,0,0c-.13-.22-.26-.08-.4,0s-.22.11-.33,0-.09,0-.13,0h-.75l-.5,0a.51.51,0,0,0,0-.19s-.09,0-.15-.07v.24Zm33.47-1.42v.27a1.57,1.57,0,0,0,.18-.18s0-.11,0-.11l-.19,0v-.15l-.17,0c-.08,0-.18-.1-.23-.07a1.17,1.17,0,0,0-.25.28s0,.06,0,.07S61.28,20.34,61.38,20.07ZM2.64,14.43l.25-.08.29,0a.3.3,0,0,0,.12-.05c.17-.13.32-.08.37.1a.88.88,0,0,0,.23.06c.05,0,.11-.05.16-.07l.25-.11c.07,0,.13-.09.21-.12s.21-.11.09-.26l.47-.08L5,13.65s-.09-.08-.11-.13a.33.33,0,0,0-.31-.22l-.25,0-.21-.07c-.06.09-.18.21-.16.27s-.06.3,0,.45l-.26-.16-.17-.39a.45.45,0,0,0,0-.07H3.41L3,13.38l-.67.11-.06,0c-.25,0-.48-.23-.75-.15,0,0-.1,0-.12,0s-.11.18-.19.23,0,.25,0,.35a.14.14,0,0,0,.25,0l.16-.14c.13.14,0,.25,0,.38-.08,0-.17-.14-.25-.14a.5.5,0,0,0-.29.16s0,.16,0,.28l.62-.11a.63.63,0,0,1,.27-.06,2,2,0,0,1,.32.08v.16C2.58,14.65,2.66,14.61,2.64,14.43Zm1.27-3.2c0-.15-.05-.3-.2-.3a4.83,4.83,0,0,0-.55.06c.14-.06.24-.14.18-.33H3.26c-.14.07-.26.16-.43.11s-.14.08-.07.28L2.43,11c-.06.14-.17.28,0,.44a1.36,1.36,0,0,1,.11.19.07.07,0,0,0,0,0,.06.06,0,0,0,0,0,.92.92,0,0,0,0-.13c.21,0,.57,0,.61-.14L3,11.25v0ZM4.7,15a.29.29,0,0,0-.26.35c.19.14.45,0,.63.18,0,0,.09,0,.11,0a.27.27,0,0,1,.38,0,.51.51,0,0,1,.58,0,.48.48,0,0,0,.15.07c0-.07,0-.14,0-.21s0-.14,0-.21a1,1,0,0,1-.2,0,1,1,0,0,1-.25,0c-.17,0-.37.06-.51-.12,0,0-.09,0-.11,0L5.06,15l-.11.28-.08-.14-.16.17Zm51.68,4.18v.26l.23.07c0,.12,0,.24.16.21s.31-.16.27-.33-.2,0-.22-.06-.14,0-.21,0,0-.05,0-.09,0-.15,0-.25l-.21.06a.24.24,0,0,0-.33,0c0-.16-.15-.1-.24-.1s-.12,0-.14,0-.09.13-.07.17a.4.4,0,0,0,.15.15s.06,0,.09-.07h0l.08.11c-.13.07-.09.19-.05.28s.1.19.23.09.17-.16.05-.36a.28.28,0,0,1,0-.1s.06,0,.08,0S56.3,19.38,56.38,19.22ZM6.89,17.94l-1-.09c-.19,0-.3.08-.37.29l.39.14c0,.1,0,.18.13.17a.44.44,0,0,0,.21-.13c.1-.09.1-.1.14,0s0,.08,0,.16a.75.75,0,0,0,.25-.1c.1-.1.09-.29.24-.36S6.89,18,6.89,17.94ZM4.23,12.41l0-.06h.06l.13-.11a.51.51,0,0,0-.14-.08l-.51-.08a.76.76,0,0,0-.22,0l-.44.1a1.27,1.27,0,0,0-.12.28c0,.14,0,.22.16.2,0-.21.06-.24.24-.19a1.28,1.28,0,0,0,.26.06,1.54,1.54,0,0,0,.27,0l.16.19Zm-2.65.3a.68.68,0,0,0-.11-.13.41.41,0,0,0-.13,0l0,.1s0,0,0,.05a.51.51,0,0,0,.17.44c.08.05.36-.12.39-.23s.06-.14.1-.15a2.37,2.37,0,0,1,.51-.08c.15,0,.2-.06.18-.23l-.4-.06a.79.79,0,0,1-.22,0c-.07,0-.15,0-.21,0S1.6,12.42,1.58,12.72Zm4.17,1c.07,0,.14,0,.17,0a.48.48,0,0,0,.5.17c.18-.06.37-.16.57-.05l0,0,.28,0a1.55,1.55,0,0,0,0-.24s-.08,0-.12,0-.34.06-.5.06-.22,0-.24-.1c-.11-.29-.15,0-.2,0s-.28,0-.31-.17c0,0-.08,0-.1,0a.18.18,0,0,0-.06.12C5.74,13.49,5.75,13.58,5.75,13.68ZM77.88,3.62a.35.35,0,0,1,.12,0,.85.85,0,0,0,.6.09l.6-.06a2.09,2.09,0,0,0,.39,0s.05-.13.08-.19l-.15,0-.11,0c-.07-.25-.07-.25-.39-.23l0,.24-.5-.07-.07.22C78.27,3.6,78.12,3.39,77.88,3.62ZM3.72,17.82l.05,0a.63.63,0,0,1,.15-.12.76.76,0,0,1,.55-.05c.06,0,.15-.08.23-.13s-.07-.18-.11-.18S4.44,17.2,4.4,17c-.06.08-.13.12-.14.18s-.12.21-.26.16-.18,0-.21.09S3.75,17.7,3.72,17.82ZM86.92,5A3.8,3.8,0,0,0,85.5,5a.27.27,0,0,0,.39.26.27.27,0,0,1,.31,0,.1.1,0,0,0,.09,0,.89.89,0,0,1,.15-.09l.34,0S86.86,5.06,86.92,5ZM3.07,5.09c-.18-.08-.3.13-.47.12,0-.23-.2,0-.3-.12s0,.09,0,.12c0,.26,0,.25.24.27a1.45,1.45,0,0,0,.6-.13.44.44,0,0,0,.2-.17S3.3,5,3.29,5A.93.93,0,0,0,3.07,5.09ZM6.63,19.93c.26,0,.51,0,.76-.06s.22-.08.15-.25c-.09,0-.19,0-.25,0s-.32-.12-.43,0c0,0-.08-.08-.1-.07S6.6,19.74,6.63,19.93ZM81.06,18.3,81,18.08l.48.11c0-.42,0-.34-.26-.42-.06,0-.15.07-.21,0-.27-.1-.24.17-.33.26l.19.22ZM54.15,20.77c-.11-.22-.22-.29-.33-.2a1,1,0,0,1-.21.17c-.15.06-.1.14,0,.24s.17.11.09.24,0,.09.06.1.11,0,.12,0,0-.28.19-.29v0L54,20.85ZM60.67,20a1.43,1.43,0,0,0-.51-.08c-.15,0-.38,0-.42.27a.84.84,0,0,0,.16.1c.07,0,.19.06.2,0s.2-.09.3-.07S60.67,20.15,60.67,20ZM6.73,5c.29,0,.55-.11.84-.07L7.5,4.59l-.18.12-.59-.14ZM64,19.61a.83.83,0,0,1-.18,0c-.05,0-.1-.06-.15-.07s-.31.13-.28.37l.25.2A.46.46,0,0,0,64,19.61ZM24.58,21.52a2.49,2.49,0,0,1,.39-.1,2,2,0,0,1,.37,0l.25.09.06-.22a2,2,0,0,0-1.08,0Zm48.92-1.24-.21.08,0,.13a3.22,3.22,0,0,0-.22.31s.06.09.09.13l0,0,0-.22c0,.06.07.1.07.1-.14.2,0,.2.13.23a.65.65,0,0,0,.22,0ZM54.09,19.2l0,0A1.31,1.31,0,0,0,54,19s-.09,0-.09,0c0,.17-.16.27-.18.42a.39.39,0,0,0,0,.26c.07.08.12,0,.16-.08s.07,0,.09-.06.23-.1.09-.26S54.1,19.24,54.09,19.2ZM6.63,5l.08,0c-.22-.16-.09-.29,0-.42H6.19a1.14,1.14,0,0,0,0,.27c0,.06.07.15.12.16A1.71,1.71,0,0,0,6.63,5ZM62.56,19.89l-.23,0c0,.06,0,.15,0,.19s.2.11.24,0h.52c-.07-.1-.12-.14-.14-.19a1.24,1.24,0,0,1,0-.26c-.08.06-.13.15-.18.15S62.54,19.77,62.56,19.89Zm-11.24,0c-.09,0-.18,0-.22,0a.29.29,0,0,0-.07.21.17.17,0,0,0,.15.09.45.45,0,0,1,.35,0c.12.05.19,0,.26-.07a.19.19,0,0,0,0-.15s-.08,0-.11,0l-.34.09ZM9.91,18l-.43-.05v.46C9.81,18.4,9.93,18.29,9.91,18Zm54.67,3a1.7,1.7,0,0,0,.27-.25c0-.06,0-.16,0-.27l-.14.08,0-.18-.31.11Zm-5.77-.9a1.63,1.63,0,0,0-.15.19.21.21,0,0,0,0,.13c.09,0,.13.14.18.19s.11-.27.29-.19c0-.05,0-.13,0-.15A2.37,2.37,0,0,0,58.82,20.05Zm-7.94.31a.76.76,0,0,0,.08-.2.6.6,0,0,0,0-.22,1.28,1.28,0,0,0-.39.07s0,.15-.06.2Zm1.93.44,0,0,.16.15v.12l.37-.17a.65.65,0,0,0,0-.17c0-.05,0-.14-.07-.15s-.19,0-.2.06C53,20.89,52.93,20.82,52.81,20.79Zm7.14-1a1.29,1.29,0,0,0,.21-.32s-.12-.19-.17-.18a1,1,0,0,0-.3.18ZM49.55,21a.3.3,0,0,0,.28.34c.06,0,.11-.11.17-.17a1.85,1.85,0,0,0-.29-.27S49.59,21,49.55,21Zm6.94-.19.06.09.43-.22a.17.17,0,0,0,0-.13c-.13-.13-.26-.1-.34.07A1.35,1.35,0,0,1,56.49,20.79Zm-32.9-18,.06,0,0-.18s.09,0,.12,0a.23.23,0,0,0,.12-.09.14.14,0,0,0,0-.13.29.29,0,0,0-.2-.07,1.13,1.13,0,0,0-.27.16ZM66.27,19.45l-.06,0a.58.58,0,0,1-.18.07c-.14,0-.15.1-.13.21s.06.24.09.37h.16l-.07-.3ZM1.91,7.5V7.24c-.08,0-.2,0-.22,0s-.19.12-.31.07C1.37,7.53,1.37,7.53,1.91,7.5Zm.66,1.09c.11-.08.23-.13.27-.22s-.06-.18-.1-.27l-.08,0c0,.12-.08.09-.13.13a.3.3,0,0,0-.08.19S2.51,8.53,2.56,8.59ZM63.45,21.12a1.8,1.8,0,0,0-.35,0,.2.2,0,0,0-.15.11.36.36,0,0,0,.06.19,2.17,2.17,0,0,0,.37-.13S63.42,21.18,63.45,21.12ZM2.12,8a3.84,3.84,0,0,0-.4,0,.16.16,0,0,0-.11.11.23.23,0,0,0,.05.18C1.76,8.41,2.09,8.21,2.12,8Zm23-5.75C25.22,2,25.22,2,25,2l-.05,0-.12-.07a1.15,1.15,0,0,0,0,.24s.07.06.11.09l0,0c.07-.19.1-.09.14,0S25.1,2.27,25.14,2.3Zm32.2,18.16s-.06,0-.09,0l-.15.11a.84.84,0,0,0,.12.11s.1,0,.14.05.12,0,.16-.07S57.55,20.45,57.34,20.45ZM78.16,20l.56-.25,0-.06h-.54Zm-.38,0c.32.07.37,0,.33-.31C77.83,19.62,77.77,19.69,77.77,20Zm4-1.62c0,.12.13.23.22.21l.31-.07C82.23,18.31,82.23,18.31,81.74,18.35ZM72.34,20l.3-.33s0-.06,0-.13l-.23.12-.13-.18a.06.06,0,0,0-.06,0,.07.07,0,0,0,0,.06ZM2.95,4.57c.07.1.13.19.2.27s.06,0,.09,0,.23-.14.16-.31ZM53.25,3c0,.22,0,.23.29.21.06,0,.12-.06.18-.09S53.61,3,53.54,3A1.16,1.16,0,0,0,53.25,3ZM50.11,19.84l-.06,0c0,.08-.06.17,0,.23s.25,0,.37.12l0-.32C50.3,19.94,50.18,20.09,50.11,19.84Zm5.72.62v.2h.44C56.26,20.46,56.2,20.43,55.82,20.46ZM2,12.11c0-.3,0-.38-.16-.38s-.11.1-.11.19S1.84,12.11,2,12.11Zm.21-1.56-.06,0V11l.05,0c.07-.09.22-.14.19-.3S2.25,10.62,2.18,10.55ZM17.37,20.81l0-.05c0-.06-.05-.17-.1-.18a1.87,1.87,0,0,0-.37,0v.18Zm40.9-18c0-.18-.07-.24-.19-.22s-.1.07-.15.1a2.25,2.25,0,0,0,.21.23S58.23,2.9,58.27,2.86ZM75.85,19.29l-.24.09s-.09,0-.1.07a.29.29,0,0,0,0,.17s.08,0,.12,0l.18-.08ZM57.6,20.46c0,.1,0,.23.07.24a.38.38,0,0,0,.26,0s0-.12.06-.2ZM45.81,2.14l0,.08a.6.6,0,0,0,.09.1A.42.42,0,0,0,46,2.4a.35.35,0,0,0,.13,0c0-.06,0-.15,0-.16A1.94,1.94,0,0,0,45.81,2.14ZM2.7,17.82H2.63L2.48,18c.06,0,.12.11.19.12s.15,0,.12-.15A.85.85,0,0,0,2.7,17.82Zm80.64.74c.3.11.55.07.59-.09A1.29,1.29,0,0,0,83.34,18.55ZM84.6,5.09l-.05.24a2.87,2.87,0,0,0,.34-.08s.07-.08.1-.12l0,0H84.6ZM81.53,3.57l0,0c0-.05,0-.13-.07-.16s-.21,0-.31.08,0,.09-.06.14l0,0,.15-.11ZM5.19,12.37c-.39,0-.54,0-.54.22C4.81,12.47,5,12.59,5.19,12.37ZM81,18.57a1.41,1.41,0,0,0,.18-.11.15.15,0,0,0,.05-.11s0-.08-.07-.12a.4.4,0,0,1-.07.08l-.1,0-.13.11Zm-23.1,1.18a.81.81,0,0,0,0-.2s-.08,0-.12,0c0,.18-.16.08-.29.12C57.57,19.82,57.74,19.69,57.91,19.75Zm-42-16.46.41,0c-.11-.21-.27-.13-.41-.14ZM87.07,5.16c.16,0,.32.06.38-.16-.08,0-.18-.14-.23-.12S87.13,5,87.07,5.16ZM2.21,10l0,.06a2.24,2.24,0,0,0,.3-.06s0-.09,0-.13-.16-.06-.23,0S2.26,9.93,2.21,10ZM24.49,2.52l0-.07c-.08,0-.17,0-.22,0s0,.17,0,.25a.12.12,0,0,0,.06,0ZM77,3.66c.19,0,.21-.13.23-.28C76.91,3.32,76.89,3.34,77,3.66ZM9.42,19.25l.05.43.07,0,.11-.38Zm42.4-17-.05,0c0,.06-.07.13-.09.19s0,.12,0,.13.12.05.13,0a.34.34,0,0,0,.08-.19A.59.59,0,0,0,51.82,2.27ZM47.51,3c-.06-.18-.12-.3-.31-.23C47.19,2.93,47.25,3,47.51,3ZM5.24,18.29c.18,0,.22-.1.17-.33C5.21,18,5.2,18,5.24,18.29ZM38.37,2l0,0c-.08.14,0,.19.09.18s.06-.11.08-.17,0-.16-.11-.16S38.4,1.95,38.37,2ZM14.52,2.4l-.35.06,0,0,.29.16s0,0,0,0S14.5,2.49,14.52,2.4ZM3.4,8.66a.18.18,0,0,0-.25-.18s-.06.06-.09.1.06.08.1.08A1.5,1.5,0,0,0,3.4,8.66Zm82,6.7c0-.07-.08-.16-.11-.16a.9.9,0,0,0-.28.09s0,.08,0,.12ZM61.62,21.06c0-.24-.17-.1-.23-.18l-.13.14,0,0ZM76,19.33l-.14.16.19.2c0-.05.09-.11.08-.16S76.09,19.41,76,19.33ZM23.38.71l.13-.26h-.32l0,0Zm32.37,19,.06-.05-.15-.25a.54.54,0,0,0-.08.17C55.56,19.79,55.67,19.76,55.76,19.76Zm-3.84-.33.08-.16.06-.09a.3.3,0,0,0-.1,0,.25.25,0,0,0-.15,0,.16.16,0,0,0,0,.14S51.86,19.39,51.91,19.43Zm-5.07.38c0,.21.07.25.22.21C47.09,19.81,47.07,19.8,46.84,19.81ZM60,2.37c-.13,0-.23,0-.24.18L60,2.6Zm-8.41.26.06,0-.12-.26s-.11.05-.11.09A.19.19,0,0,0,51.58,2.63Zm9.6,17.95.32-.19C61.2,20.26,61.18,20.27,61.18,20.58ZM4.88,17.71c.07,0,.13-.1.18,0s.05,0,.06-.07-.06-.18-.24-.13ZM54,21.26l.14.23s.11-.09.11-.13S54.13,21.2,54,21.26Zm.21-18.69-.14,0c-.09,0-.16,0-.12.1s.15.09.26.15Zm6.35-.39-.06.05.18.36c0-.08.09-.15.08-.17A2.17,2.17,0,0,0,60.52,2.18ZM71.94,19.65l0,0s.07.14.1.13a1,1,0,0,0,.23-.1s0-.07-.06-.08ZM85.16,5.33c0-.08.09-.14.08-.17a.59.59,0,0,0-.1-.16s-.09.1-.09.15S85.11,5.25,85.16,5.33ZM51.31,19.2l-.32.05,0,0c.06,0,.14.09.18.07S51.38,19.39,51.31,19.2ZM2.06,17.75l-.18-.18-.08.28,0,0ZM51.3,21.45c.21,0,.21,0,.18-.21H51.3Zm17.77-1.83a.78.78,0,0,0-.21-.11s-.07.06-.1.09.08.1.13.12S69,19.67,69.07,19.61Zm-7.12.29c0,.05.06.1.1.12s.12,0,.13,0a.85.85,0,0,0,0-.22ZM47.73,2.37l.13.18c0-.08.24,0,.18-.18ZM27.29,21.44l.2-.19-.2-.13ZM52.11,3.12l0,.07.21.1,0,0c0-.06-.06-.14-.11-.17S52.17,3.1,52.11,3.12Zm2.25,16.2.06,0a.54.54,0,0,0,0-.17c0-.08,0-.21-.15-.12Zm5.45,1.4c.18,0,.19-.13.16-.27C59.76,20.43,59.83,20.59,59.81,20.72Zm-4.49-.05,0-.05c-.19,0-.21,0-.16.26ZM75.45,19.6l0-.07-.25-.16C75.21,19.66,75.35,19.6,75.45,19.6Zm-16.14-.05c-.07,0-.12-.1-.14-.09a.92.92,0,0,0-.19.1.66.66,0,0,0,.17.08S59.23,19.6,59.31,19.55Zm6.48.19-.06,0c0,.06,0,.11,0,.17s0,.08,0,.13l.05,0a.48.48,0,0,0,.07-.17C65.86,19.86,65.81,19.8,65.79,19.74Zm-7.27-.21h-.19s0,.06,0,.08,0,.06,0,.09C58.52,19.73,58.52,19.73,58.51,19.54Zm14.64,1.92c0-.18,0-.21-.22-.19C72.91,21.48,73.08,21.39,73.15,21.46Zm-6.4-1.25-.05,0-.15.08.07.2h.06Zm-.33.13c-.12,0-.22,0-.2.18h.2Zm14.89-.92-.2.1.2.18Zm-27.7.26v-.22h-.18C53.37,19.64,53.52,19.6,53.61,19.68ZM32.44,2.16h.15l0,0-.15-.2,0,0ZM75.6,19l-.23.13.23.12ZM52.72,2.3a1.31,1.31,0,0,0-.07.25s.06.05.09.08.06-.09.06-.13A.74.74,0,0,0,52.72,2.3Zm25.8,16.06H78.3v.13C78.52,18.5,78.52,18.5,78.52,18.35ZM16.62,3.14l0,0h-.21l0,.06a.69.69,0,0,0,.18.07S16.59,3.17,16.62,3.14ZM74.16,20.39l-.07.07.11.18s.09-.1.08-.11A.65.65,0,0,0,74.16,20.39Zm-12.32.7.05-.09a1,1,0,0,0-.15-.12s-.05.06-.08.1ZM56.21,21l.16-.13-.12-.16,0,0Z"/></g></g></svg>